G04 #@! TF.GenerationSoftware,KiCad,Pcbnew,(5.0.2)-1*
G04 #@! TF.CreationDate,2019-10-12T15:28:55+09:00*
G04 #@! TF.ProjectId,PD_Board,50445f42-6f61-4726-942e-6b696361645f,rev?*
G04 #@! TF.SameCoordinates,Original*
G04 #@! TF.FileFunction,Copper,L2,Bot*
G04 #@! TF.FilePolarity,Positive*
%FSLAX46Y46*%
G04 Gerber Fmt 4.6, Leading zero omitted, Abs format (unit mm)*
G04 Created by KiCad (PCBNEW (5.0.2)-1) date 2019/10/12 15:28:55*
%MOMM*%
%LPD*%
G01*
G04 APERTURE LIST*
G04 #@! TA.AperFunction,ComponentPad*
%ADD10C,2.000000*%
G04 #@! TD*
G04 #@! TA.AperFunction,ComponentPad*
%ADD11R,1.800000X1.800000*%
G04 #@! TD*
G04 #@! TA.AperFunction,ComponentPad*
%ADD12C,1.800000*%
G04 #@! TD*
G04 #@! TA.AperFunction,ComponentPad*
%ADD13O,1.050000X1.250000*%
G04 #@! TD*
G04 #@! TA.AperFunction,ComponentPad*
%ADD14R,2.100000X1.900000*%
G04 #@! TD*
G04 #@! TA.AperFunction,Conductor*
%ADD15C,0.100000*%
G04 #@! TD*
G04 #@! TA.AperFunction,ComponentPad*
%ADD16C,1.700000*%
G04 #@! TD*
G04 #@! TA.AperFunction,ComponentPad*
%ADD17O,1.950000X1.700000*%
G04 #@! TD*
G04 #@! TA.AperFunction,ComponentPad*
%ADD18C,0.712500*%
G04 #@! TD*
G04 #@! TA.AperFunction,ViaPad*
%ADD19C,0.600000*%
G04 #@! TD*
G04 #@! TA.AperFunction,Conductor*
%ADD20C,0.400000*%
G04 #@! TD*
G04 #@! TA.AperFunction,Conductor*
%ADD21C,0.200000*%
G04 #@! TD*
G04 #@! TA.AperFunction,Conductor*
%ADD22C,0.800000*%
G04 #@! TD*
G04 #@! TA.AperFunction,Conductor*
%ADD23C,0.600000*%
G04 #@! TD*
G04 #@! TA.AperFunction,Conductor*
%ADD24C,0.250000*%
G04 #@! TD*
G04 #@! TA.AperFunction,Conductor*
%ADD25C,0.254000*%
G04 #@! TD*
G04 APERTURE END LIST*
D10*
G04 #@! TO.P,J5,1*
G04 #@! TO.N,GND*
X156500000Y-78250000D03*
G04 #@! TO.P,J5,2*
G04 #@! TO.N,+6V*
X154000000Y-78250000D03*
G04 #@! TO.P,J5,3*
G04 #@! TO.N,/Servo*
X151500000Y-78250000D03*
G04 #@! TD*
D11*
G04 #@! TO.P,J2,1*
G04 #@! TO.N,Net-(J2-Pad1)*
X155000000Y-102000000D03*
D12*
G04 #@! TO.P,J2,2*
G04 #@! TO.N,GND*
X152500000Y-102000000D03*
G04 #@! TO.P,J2,3*
G04 #@! TO.N,Net-(J2-Pad3)*
X150000000Y-102000000D03*
G04 #@! TO.P,J2,4*
G04 #@! TO.N,Net-(J2-Pad4)*
X147500000Y-102000000D03*
G04 #@! TO.P,J2,5*
G04 #@! TO.N,Net-(J2-Pad5)*
X145000000Y-102000000D03*
G04 #@! TD*
D13*
G04 #@! TO.P,J3,5*
G04 #@! TO.N,GND*
X165325000Y-99250000D03*
X170175000Y-99250000D03*
D14*
X164100000Y-102250000D03*
X171400000Y-102250000D03*
G04 #@! TD*
D15*
G04 #@! TO.N,GND*
G04 #@! TO.C,J4*
G36*
X129899504Y-85401204D02*
X129923773Y-85404804D01*
X129947571Y-85410765D01*
X129970671Y-85419030D01*
X129992849Y-85429520D01*
X130013893Y-85442133D01*
X130033598Y-85456747D01*
X130051777Y-85473223D01*
X130068253Y-85491402D01*
X130082867Y-85511107D01*
X130095480Y-85532151D01*
X130105970Y-85554329D01*
X130114235Y-85577429D01*
X130120196Y-85601227D01*
X130123796Y-85625496D01*
X130125000Y-85650000D01*
X130125000Y-86850000D01*
X130123796Y-86874504D01*
X130120196Y-86898773D01*
X130114235Y-86922571D01*
X130105970Y-86945671D01*
X130095480Y-86967849D01*
X130082867Y-86988893D01*
X130068253Y-87008598D01*
X130051777Y-87026777D01*
X130033598Y-87043253D01*
X130013893Y-87057867D01*
X129992849Y-87070480D01*
X129970671Y-87080970D01*
X129947571Y-87089235D01*
X129923773Y-87095196D01*
X129899504Y-87098796D01*
X129875000Y-87100000D01*
X128425000Y-87100000D01*
X128400496Y-87098796D01*
X128376227Y-87095196D01*
X128352429Y-87089235D01*
X128329329Y-87080970D01*
X128307151Y-87070480D01*
X128286107Y-87057867D01*
X128266402Y-87043253D01*
X128248223Y-87026777D01*
X128231747Y-87008598D01*
X128217133Y-86988893D01*
X128204520Y-86967849D01*
X128194030Y-86945671D01*
X128185765Y-86922571D01*
X128179804Y-86898773D01*
X128176204Y-86874504D01*
X128175000Y-86850000D01*
X128175000Y-85650000D01*
X128176204Y-85625496D01*
X128179804Y-85601227D01*
X128185765Y-85577429D01*
X128194030Y-85554329D01*
X128204520Y-85532151D01*
X128217133Y-85511107D01*
X128231747Y-85491402D01*
X128248223Y-85473223D01*
X128266402Y-85456747D01*
X128286107Y-85442133D01*
X128307151Y-85429520D01*
X128329329Y-85419030D01*
X128352429Y-85410765D01*
X128376227Y-85404804D01*
X128400496Y-85401204D01*
X128425000Y-85400000D01*
X129875000Y-85400000D01*
X129899504Y-85401204D01*
X129899504Y-85401204D01*
G37*
D16*
G04 #@! TD*
G04 #@! TO.P,J4,1*
G04 #@! TO.N,GND*
X129150000Y-86250000D03*
D17*
G04 #@! TO.P,J4,2*
G04 #@! TO.N,VCC*
X129150000Y-88750000D03*
G04 #@! TO.P,J4,3*
G04 #@! TO.N,/CAN_H*
X129150000Y-91250000D03*
G04 #@! TO.P,J4,4*
G04 #@! TO.N,/CAN_L*
X129150000Y-93750000D03*
G04 #@! TD*
D18*
G04 #@! TO.P,U1,69*
G04 #@! TO.N,GND*
X146362500Y-92137500D03*
X147787500Y-92137500D03*
X149212500Y-92137500D03*
X150637500Y-92137500D03*
X146362500Y-90712500D03*
X147787500Y-90712500D03*
X149212500Y-90712500D03*
X150637500Y-90712500D03*
X146362500Y-89287500D03*
X147787500Y-89287500D03*
X149212500Y-89287500D03*
X150637500Y-89287500D03*
X146362500Y-87862500D03*
X147787500Y-87862500D03*
X149212500Y-87862500D03*
X150637500Y-87862500D03*
G04 #@! TD*
D19*
G04 #@! TO.N,GND*
X155000000Y-84000000D03*
X156500000Y-84000000D03*
X158000000Y-84000000D03*
X158000000Y-85750000D03*
X158000000Y-87250000D03*
X158000000Y-89000000D03*
X156500000Y-91000000D03*
X155000000Y-91000000D03*
X155000000Y-89750000D03*
X155000000Y-85250000D03*
X154250000Y-86250000D03*
X152600000Y-95100000D03*
X158000000Y-90000000D03*
X158000000Y-85000000D03*
X143500000Y-92000000D03*
X143500000Y-90750000D03*
X139000000Y-92250000D03*
X139000000Y-93250000D03*
X140750000Y-87000000D03*
X140500000Y-85500000D03*
X139750000Y-86250000D03*
X143000000Y-77500000D03*
X145000000Y-77500000D03*
X143500000Y-81250000D03*
X149750000Y-82000000D03*
X149750000Y-77500000D03*
X148500000Y-77500000D03*
X150000000Y-79500000D03*
X133000000Y-86000000D03*
X131750000Y-88000000D03*
X138000000Y-86500000D03*
X136000000Y-86250000D03*
X129250000Y-84000000D03*
X127250000Y-86250000D03*
X158250000Y-103250000D03*
X127750000Y-90000000D03*
X133000000Y-92250000D03*
X141250000Y-99000000D03*
X141250000Y-103000000D03*
X133750000Y-104250000D03*
X129250000Y-104000000D03*
X116000000Y-83000000D03*
X123000000Y-76000000D03*
X123000000Y-83000000D03*
X116000000Y-90000000D03*
X116000000Y-97000000D03*
X123000000Y-97000000D03*
X123000000Y-104000000D03*
X128000000Y-76000000D03*
X134000000Y-76000000D03*
X155000000Y-76000000D03*
X177000000Y-76000000D03*
X184000000Y-83000000D03*
X184000000Y-90000000D03*
X184000000Y-97000000D03*
X177000000Y-104000000D03*
X157000000Y-104000000D03*
X150000000Y-104000000D03*
X143000000Y-104000000D03*
X153500000Y-87500000D03*
X163000000Y-96500000D03*
X171000000Y-95000000D03*
X177000000Y-101000000D03*
X176500000Y-81500000D03*
X174500000Y-81500000D03*
X158050000Y-82925000D03*
X147700000Y-95225000D03*
X147575000Y-98225000D03*
X150450000Y-98600000D03*
X151150000Y-100625000D03*
X143950000Y-100775000D03*
X144000000Y-98750000D03*
X141150000Y-100500000D03*
X134150000Y-99225000D03*
X133700000Y-96800000D03*
X126500000Y-97000000D03*
X128300000Y-100200000D03*
X130300000Y-99200000D03*
X127600000Y-103500000D03*
X126500000Y-100400000D03*
X124900000Y-97700000D03*
X155700000Y-93800000D03*
X152750000Y-79500000D03*
X155600000Y-83000000D03*
X134000000Y-78600000D03*
X140000000Y-78200000D03*
X143500000Y-79600000D03*
X148600000Y-79300000D03*
X166750000Y-76500000D03*
X167750000Y-77500000D03*
X166000000Y-77500000D03*
X150750000Y-81000000D03*
X152250000Y-80500000D03*
X165500000Y-81000000D03*
X167000000Y-81000000D03*
X160250000Y-81750000D03*
X158000000Y-75750000D03*
X168500000Y-75750000D03*
X169500000Y-77250000D03*
X170000000Y-80000000D03*
X168500000Y-81500000D03*
X163250000Y-82750000D03*
X160500000Y-84250000D03*
X162000000Y-87000000D03*
X162250000Y-85750000D03*
X162000000Y-90750000D03*
X162250000Y-92250000D03*
X161250000Y-97250000D03*
X157000000Y-101500000D03*
X162000000Y-101750000D03*
X162000000Y-103750000D03*
X173500000Y-102250000D03*
X171500000Y-100250000D03*
X169050000Y-97550000D03*
X166750000Y-97000000D03*
X172500000Y-96750000D03*
X175250000Y-95000000D03*
X126500000Y-91250000D03*
X125000000Y-86500000D03*
X126750000Y-81750000D03*
X128500000Y-81500000D03*
X137000000Y-92500000D03*
X135250000Y-92500000D03*
X134000000Y-77250000D03*
X140000000Y-84500000D03*
X158000000Y-91000000D03*
X180000000Y-97000000D03*
X162750000Y-77250000D03*
G04 #@! TO.N,+3V3*
X134750000Y-100500000D03*
X141750000Y-90000000D03*
X141750000Y-93000000D03*
X141750000Y-86500000D03*
X154750000Y-93750000D03*
X152250000Y-97000000D03*
X151000000Y-83000000D03*
X148000000Y-83000000D03*
X141750000Y-94560000D03*
X140000000Y-90750000D03*
X140000000Y-93440000D03*
X140000000Y-94560000D03*
X160000000Y-75750000D03*
G04 #@! TO.N,Net-(C9-Pad2)*
X142493861Y-87258770D03*
X154234804Y-90509849D03*
G04 #@! TO.N,VCC*
X136000000Y-95500000D03*
X136000000Y-98500000D03*
X138750000Y-82500000D03*
X138000000Y-82500000D03*
G04 #@! TO.N,+5V*
X139750000Y-95500000D03*
X131750000Y-102250000D03*
G04 #@! TO.N,+6V*
X142700000Y-76400000D03*
X147589087Y-80173869D03*
G04 #@! TO.N,Net-(C24-Pad1)*
X145450000Y-78650000D03*
X140950000Y-81150000D03*
X140950000Y-80400000D03*
X140950000Y-79650000D03*
X130000000Y-79200000D03*
X131000000Y-76600000D03*
X131000000Y-77800000D03*
X131000000Y-79200000D03*
X130000000Y-77800000D03*
X130000000Y-76600000D03*
G04 #@! TO.N,Net-(J1-Pad1)*
X159250000Y-93750000D03*
X159250000Y-87250000D03*
G04 #@! TO.N,/SD_CS*
X162000000Y-88250000D03*
X159250000Y-99750000D03*
G04 #@! TO.N,/SD_MOSI*
X162000000Y-89500000D03*
X161000000Y-99750000D03*
G04 #@! TO.N,/SD_CLK*
X154555074Y-98120001D03*
X158500000Y-92750000D03*
G04 #@! TO.N,/SD_MISO*
X162000000Y-93750000D03*
X163000000Y-99750000D03*
X162000000Y-95500000D03*
G04 #@! TO.N,Net-(J2-Pad4)*
X150000000Y-100250000D03*
G04 #@! TO.N,Net-(J2-Pad5)*
X149460000Y-99500000D03*
G04 #@! TO.N,Net-(J3-Pad2)*
X156750000Y-95560000D03*
X167000000Y-98250000D03*
G04 #@! TO.N,Net-(J3-Pad3)*
X156491107Y-96274547D03*
X168000000Y-98250000D03*
G04 #@! TO.N,/CAN_L*
X126000000Y-93750000D03*
G04 #@! TO.N,Net-(R1-Pad1)*
X144287403Y-97810000D03*
X139750000Y-98500000D03*
G04 #@! TO.N,Net-(R2-Pad1)*
X143750000Y-97250000D03*
X138500000Y-98500000D03*
G04 #@! TO.N,/CAN_TXD*
X143179767Y-101589883D03*
X134517736Y-102024224D03*
X128250000Y-101500000D03*
X130250000Y-103250000D03*
G04 #@! TO.N,/CAN_STB*
X145500000Y-95590000D03*
X128936342Y-96595010D03*
G04 #@! TO.N,/LPS_MOSI*
X147540000Y-85150874D03*
X162000000Y-78500000D03*
G04 #@! TO.N,/LPS_MISO*
X145540000Y-85115686D03*
X162000000Y-79500000D03*
G04 #@! TO.N,/LPS_CLK*
X162250000Y-76410000D03*
X146355459Y-84752593D03*
G04 #@! TO.N,/LPS_CS*
X144784883Y-85210000D03*
X162000000Y-80500000D03*
G04 #@! TO.N,/LPS_INT*
X143400000Y-87600000D03*
X162000000Y-81750000D03*
G04 #@! TO.N,/CAN_RXD*
X142500000Y-101250000D03*
X134500000Y-101250000D03*
G04 #@! TO.N,+3.3VP*
X140000000Y-89000000D03*
X141000000Y-93440000D03*
X157500000Y-97100000D03*
X156000000Y-99900002D03*
X141750000Y-95500000D03*
G04 #@! TO.N,Net-(R17-Pad2)*
X145650000Y-81150000D03*
X144000000Y-83750000D03*
G04 #@! TD*
D20*
G04 #@! TO.N,+3V3*
X141750000Y-90000000D02*
X141750000Y-93000000D01*
X141750000Y-90000000D02*
X141750000Y-86500000D01*
X151500000Y-96250000D02*
X152250000Y-97000000D01*
X151500000Y-96250000D02*
X152850000Y-96250000D01*
X154750000Y-94350000D02*
X154750000Y-93750000D01*
X152850000Y-96250000D02*
X154750000Y-94350000D01*
X148000000Y-83000000D02*
X151000000Y-83000000D01*
X140000000Y-94750000D02*
X140750000Y-95500000D01*
X140750000Y-95500000D02*
X140750000Y-96250000D01*
X140750000Y-96250000D02*
X140250000Y-96750000D01*
X140250000Y-96750000D02*
X137500000Y-96750000D01*
X137500000Y-96750000D02*
X137000000Y-97250000D01*
X134750000Y-100500000D02*
X136500000Y-100500000D01*
X137000000Y-100000000D02*
X137000000Y-99250000D01*
X136500000Y-100500000D02*
X137000000Y-100000000D01*
X137000000Y-97250000D02*
X137000000Y-99250000D01*
X137000000Y-99250000D02*
X137000000Y-99750000D01*
X141750000Y-86500000D02*
X141750000Y-85600000D01*
X141750000Y-85600000D02*
X142800000Y-84550000D01*
X146750000Y-83000000D02*
X145200000Y-84550000D01*
X148000000Y-83000000D02*
X146750000Y-83000000D01*
X142800000Y-84550000D02*
X145200000Y-84550000D01*
X141750000Y-94560000D02*
X144310000Y-94560000D01*
X144310000Y-94560000D02*
X144750000Y-95000000D01*
X145183198Y-96250000D02*
X145500000Y-96250000D01*
X144750000Y-95816802D02*
X145183198Y-96250000D01*
X144750000Y-95000000D02*
X144750000Y-95816802D01*
X151500000Y-96250000D02*
X145500000Y-96250000D01*
X140000000Y-90750000D02*
X140000000Y-93440000D01*
X140000000Y-94560000D02*
X140000000Y-94750000D01*
X151000000Y-83000000D02*
X154000000Y-80000000D01*
X154039999Y-79960001D02*
X157539999Y-79960001D01*
X154000000Y-80000000D02*
X154039999Y-79960001D01*
X157539999Y-79960001D02*
X158250000Y-79250000D01*
X158250000Y-79250000D02*
X158250000Y-77000000D01*
X158250000Y-77000000D02*
X159500000Y-75750000D01*
X159500000Y-75750000D02*
X160000000Y-75750000D01*
D21*
G04 #@! TO.N,Net-(C9-Pad2)*
X142493861Y-87258770D02*
X142493861Y-88743861D01*
X142493861Y-88743861D02*
X143750000Y-90000000D01*
X143750000Y-90000000D02*
X152730000Y-90000000D01*
X152730000Y-90000000D02*
X153724955Y-90000000D01*
X153724955Y-90000000D02*
X154234804Y-90509849D01*
D20*
G04 #@! TO.N,VCC*
X136000000Y-95500000D02*
X136000000Y-98500000D01*
D22*
X138750000Y-82500000D02*
X138750000Y-82500000D01*
X138000000Y-82500000D02*
X138750000Y-82500000D01*
X127250000Y-88750000D02*
X129150000Y-88750000D01*
X126250000Y-87750000D02*
X127250000Y-88750000D01*
X126250000Y-84000000D02*
X126250000Y-87750000D01*
X138000000Y-82500000D02*
X127750000Y-82500000D01*
X127750000Y-82500000D02*
X126250000Y-84000000D01*
D20*
G04 #@! TO.N,+5V*
X139089999Y-94839999D02*
X132410001Y-94839999D01*
X139750000Y-95500000D02*
X139089999Y-94839999D01*
X132410001Y-94839999D02*
X131750000Y-95500000D01*
X131750000Y-95500000D02*
X131750000Y-102250000D01*
G04 #@! TO.N,+6V*
X142700000Y-76400000D02*
X145950000Y-76400000D01*
X145950000Y-76400000D02*
X147589087Y-78039087D01*
X147589087Y-78039087D02*
X147589087Y-80173869D01*
D23*
G04 #@! TO.N,Net-(C24-Pad1)*
X145450000Y-78650000D02*
X141950000Y-78650000D01*
X141950000Y-78650000D02*
X140950000Y-79650000D01*
D20*
G04 #@! TO.N,Net-(J1-Pad1)*
X159250000Y-93750000D02*
X159250000Y-87250000D01*
D21*
G04 #@! TO.N,/SD_CS*
X160250000Y-88250000D02*
X162000000Y-88250000D01*
X159810001Y-97939999D02*
X159810001Y-88689999D01*
X159810001Y-88689999D02*
X160250000Y-88250000D01*
X159250000Y-99750000D02*
X159250000Y-98500000D01*
X159250000Y-98500000D02*
X159810001Y-97939999D01*
G04 #@! TO.N,/SD_MOSI*
X160250000Y-99000000D02*
X161000000Y-99750000D01*
X160250000Y-90000000D02*
X160250000Y-99000000D01*
X162000000Y-89500000D02*
X160750000Y-89500000D01*
X160750000Y-89500000D02*
X160250000Y-90000000D01*
G04 #@! TO.N,/SD_CLK*
X154555074Y-98120001D02*
X154555074Y-95694926D01*
X154555074Y-95694926D02*
X155250000Y-95000000D01*
X155250000Y-95000000D02*
X155328802Y-95000000D01*
X155328802Y-95000000D02*
X158000000Y-95000000D01*
X158000000Y-95000000D02*
X158500000Y-94500000D01*
X158500000Y-94500000D02*
X158500000Y-92750000D01*
G04 #@! TO.N,/SD_MISO*
X163000000Y-99750000D02*
X162700001Y-99450001D01*
X162000000Y-98750000D02*
X163000000Y-99750000D01*
X162000000Y-93750000D02*
X162000000Y-95500000D01*
X162000000Y-95500000D02*
X162000000Y-98750000D01*
G04 #@! TO.N,Net-(J2-Pad4)*
X147500000Y-100727208D02*
X147977208Y-100250000D01*
X147500000Y-102000000D02*
X147500000Y-100727208D01*
X147977208Y-100250000D02*
X150000000Y-100250000D01*
G04 #@! TO.N,Net-(J2-Pad5)*
X145000000Y-100727208D02*
X146227208Y-99500000D01*
X145000000Y-102000000D02*
X145000000Y-100727208D01*
X146227208Y-99500000D02*
X149460000Y-99500000D01*
G04 #@! TO.N,Net-(J3-Pad2)*
X157297932Y-95560000D02*
X158610010Y-96872077D01*
X156750000Y-95560000D02*
X157297932Y-95560000D01*
X158610010Y-96872077D02*
X158610010Y-100000000D01*
X158610010Y-100000000D02*
X159110010Y-100500000D01*
X159110010Y-100500000D02*
X166750000Y-100500000D01*
X166750000Y-100500000D02*
X167000000Y-100250000D01*
X167000000Y-100250000D02*
X167000000Y-98250000D01*
G04 #@! TO.N,Net-(J3-Pad3)*
X157503349Y-96274547D02*
X158250000Y-97021198D01*
X156491107Y-96274547D02*
X157503349Y-96274547D01*
X158250000Y-97021198D02*
X158250000Y-100250000D01*
X158860010Y-100860010D02*
X158960889Y-100860010D01*
X158250000Y-100250000D02*
X158860010Y-100860010D01*
X158960889Y-100860010D02*
X167389990Y-100860010D01*
X167389990Y-100860010D02*
X168000000Y-100250000D01*
X168000000Y-100250000D02*
X168000000Y-98250000D01*
D24*
G04 #@! TO.N,/CAN_L*
X129150000Y-93750000D02*
X126464990Y-93750000D01*
X126464990Y-93750000D02*
X126000000Y-93750000D01*
D21*
G04 #@! TO.N,Net-(R1-Pad1)*
X144287403Y-97810000D02*
X141610003Y-97810000D01*
X141610003Y-97810000D02*
X139940000Y-97810000D01*
X139940000Y-97810000D02*
X139750000Y-98000000D01*
X139750000Y-98000000D02*
X139750000Y-98500000D01*
G04 #@! TO.N,Net-(R2-Pad1)*
X143750000Y-97250000D02*
X141410000Y-97250000D01*
X141410000Y-97250000D02*
X139000000Y-97250000D01*
X139000000Y-97250000D02*
X138500000Y-97750000D01*
X138500000Y-97750000D02*
X138500000Y-98500000D01*
G04 #@! TO.N,/CAN_TXD*
X143179767Y-101589883D02*
X142745426Y-102024224D01*
X142745426Y-102024224D02*
X134517736Y-102024224D01*
X130250000Y-103250000D02*
X128750000Y-103250000D01*
X128250000Y-102750000D02*
X128250000Y-101500000D01*
X128750000Y-103250000D02*
X128250000Y-102750000D01*
G04 #@! TO.N,/CAN_STB*
X145500000Y-95590000D02*
X145500000Y-95165736D01*
X145500000Y-95165736D02*
X145500000Y-94250000D01*
X145500000Y-94250000D02*
X145250000Y-94000000D01*
X145250000Y-94000000D02*
X132599448Y-94000000D01*
X132599448Y-94000000D02*
X132000000Y-94000000D01*
X132000000Y-94000000D02*
X131000000Y-95000000D01*
X131000000Y-95000000D02*
X131000000Y-96000000D01*
X131000000Y-96000000D02*
X130404990Y-96595010D01*
D24*
X130404990Y-96595010D02*
X128936342Y-96595010D01*
D21*
G04 #@! TO.N,/LPS_MOSI*
X159800010Y-78500000D02*
X159110010Y-79190000D01*
X162000000Y-78500000D02*
X159800010Y-78500000D01*
X151709131Y-84000000D02*
X148690874Y-84000000D01*
X159110010Y-79190000D02*
X159110010Y-79599121D01*
X148690874Y-84000000D02*
X147540000Y-85150874D01*
X159110010Y-79599121D02*
X157749121Y-80960010D01*
X157749121Y-80960010D02*
X154749120Y-80960010D01*
X154749120Y-80960010D02*
X151709131Y-84000000D01*
G04 #@! TO.N,/LPS_MISO*
X146224314Y-85800000D02*
X145540000Y-85115686D01*
X147719676Y-85800000D02*
X146224314Y-85800000D01*
X157898242Y-81320020D02*
X154898240Y-81320020D01*
X154898240Y-81320020D02*
X151858252Y-84360010D01*
X151858252Y-84360010D02*
X149159666Y-84360010D01*
X149159666Y-84360010D02*
X147719676Y-85800000D01*
X159718262Y-79500000D02*
X162000000Y-79500000D01*
X157898242Y-81320020D02*
X159718262Y-79500000D01*
G04 #@! TO.N,/LPS_CLK*
X158750000Y-79450000D02*
X158750000Y-77750000D01*
X157600000Y-80600000D02*
X158750000Y-79450000D01*
X158750000Y-77750000D02*
X160090000Y-76410000D01*
X160090000Y-76410000D02*
X162250000Y-76410000D01*
X154600000Y-80600000D02*
X157600000Y-80600000D01*
X153000000Y-82200000D02*
X154600000Y-80600000D01*
X151600000Y-83600000D02*
X153000000Y-82200000D01*
X147508052Y-83600000D02*
X151600000Y-83600000D01*
X146355459Y-84752593D02*
X147508052Y-83600000D01*
G04 #@! TO.N,/LPS_CS*
X147868796Y-86160010D02*
X145310629Y-86160010D01*
X145310629Y-86160010D02*
X144784883Y-85634264D01*
X149308786Y-84720020D02*
X147868796Y-86160010D01*
X144784883Y-85634264D02*
X144784883Y-85210000D01*
X152663696Y-84063697D02*
X152007373Y-84720020D01*
X162000000Y-80500000D02*
X161700001Y-80200001D01*
X161700001Y-80200001D02*
X159527392Y-80200001D01*
X152007373Y-84720020D02*
X149308786Y-84720020D01*
X158047363Y-81680030D02*
X155047360Y-81680030D01*
X155047360Y-81680030D02*
X152663696Y-84063694D01*
X159527392Y-80200001D02*
X158047363Y-81680030D01*
X152663696Y-84063694D02*
X152663696Y-84063697D01*
G04 #@! TO.N,/LPS_INT*
X144479980Y-86520020D02*
X143400000Y-87600000D01*
X148017917Y-86520020D02*
X144479980Y-86520020D01*
X149457906Y-85080030D02*
X148017917Y-86520020D01*
X152156494Y-85080030D02*
X149457906Y-85080030D01*
X155000000Y-82236523D02*
X152156494Y-85080030D01*
X161000000Y-80750000D02*
X159500000Y-80750000D01*
X162000000Y-81750000D02*
X161000000Y-80750000D01*
X159500000Y-80750000D02*
X158209960Y-82040040D01*
X158209960Y-82040040D02*
X155196480Y-82040040D01*
X155196480Y-82040040D02*
X155000000Y-82236520D01*
X155000000Y-82236520D02*
X155000000Y-82236523D01*
G04 #@! TO.N,/CAN_RXD*
X142500000Y-101250000D02*
X134500000Y-101250000D01*
D20*
G04 #@! TO.N,+3.3VP*
X151250000Y-97000000D02*
X144750000Y-97000000D01*
X156899998Y-99900002D02*
X156899998Y-99900002D01*
X157500000Y-99200000D02*
X157500000Y-99300000D01*
X157500000Y-97100000D02*
X157500000Y-97100000D01*
X141000000Y-93440000D02*
X141000000Y-90000000D01*
X144750000Y-97000000D02*
X143750000Y-96000000D01*
X143750000Y-96000000D02*
X143250000Y-95500000D01*
X157500000Y-99300000D02*
X156899998Y-99900002D01*
X142250000Y-95500000D02*
X141750000Y-95500000D01*
X152700002Y-99900002D02*
X152100000Y-99300000D01*
X143250000Y-95500000D02*
X142250000Y-95500000D01*
X152100000Y-97850000D02*
X151250000Y-97000000D01*
X152100000Y-97900000D02*
X152100000Y-97850000D01*
X141000000Y-90000000D02*
X140000000Y-89000000D01*
X152100000Y-99300000D02*
X152100000Y-97900000D01*
X157500000Y-97100000D02*
X157500000Y-99200000D01*
X156899998Y-99900002D02*
X152700002Y-99900002D01*
D23*
G04 #@! TO.N,Net-(R17-Pad2)*
X145650000Y-83050000D02*
X145650000Y-81150000D01*
X144950000Y-83750000D02*
X145650000Y-83050000D01*
X144000000Y-83750000D02*
X144950000Y-83750000D01*
G04 #@! TD*
D25*
G04 #@! TO.N,GND*
G36*
X129005503Y-75636594D02*
X128973000Y-75800000D01*
X128973000Y-81400000D01*
X129005503Y-81563406D01*
X129078731Y-81673000D01*
X127831442Y-81673000D01*
X127749999Y-81656800D01*
X127668556Y-81673000D01*
X127668552Y-81673000D01*
X127427321Y-81720984D01*
X127349474Y-81773000D01*
X127224395Y-81856575D01*
X127153767Y-81903767D01*
X127107631Y-81972814D01*
X125722819Y-83357628D01*
X125653767Y-83403767D01*
X125470984Y-83677322D01*
X125423000Y-83918553D01*
X125423000Y-83918556D01*
X125406800Y-84000000D01*
X125423000Y-84081444D01*
X125423001Y-87668551D01*
X125406800Y-87750000D01*
X125470984Y-88072678D01*
X125525166Y-88153767D01*
X125653768Y-88346233D01*
X125722817Y-88392370D01*
X126607631Y-89277186D01*
X126653767Y-89346233D01*
X126722813Y-89392368D01*
X126722815Y-89392370D01*
X126927321Y-89529016D01*
X127250000Y-89593201D01*
X127331448Y-89577000D01*
X128041750Y-89577000D01*
X128104335Y-89670665D01*
X128526740Y-89952907D01*
X128763493Y-90000000D01*
X128526740Y-90047093D01*
X128104335Y-90329335D01*
X127822093Y-90751740D01*
X127722983Y-91250000D01*
X127822093Y-91748260D01*
X128104335Y-92170665D01*
X128526740Y-92452907D01*
X128763493Y-92500000D01*
X128526740Y-92547093D01*
X128104335Y-92829335D01*
X127858001Y-93198000D01*
X126476134Y-93198000D01*
X126411813Y-93133679D01*
X126144609Y-93023000D01*
X125855391Y-93023000D01*
X125588187Y-93133679D01*
X125383679Y-93338187D01*
X125273000Y-93605391D01*
X125273000Y-93894609D01*
X125383679Y-94161813D01*
X125588187Y-94366321D01*
X125855391Y-94477000D01*
X126144609Y-94477000D01*
X126411813Y-94366321D01*
X126476134Y-94302000D01*
X127858001Y-94302000D01*
X128104335Y-94670665D01*
X128526740Y-94952907D01*
X128899231Y-95027000D01*
X129400769Y-95027000D01*
X129773260Y-94952907D01*
X130195665Y-94670665D01*
X130477907Y-94248260D01*
X130577017Y-93750000D01*
X130477907Y-93251740D01*
X130195665Y-92829335D01*
X129773260Y-92547093D01*
X129536507Y-92500000D01*
X129773260Y-92452907D01*
X130195665Y-92170665D01*
X130477907Y-91748260D01*
X130577017Y-91250000D01*
X130477907Y-90751740D01*
X130195665Y-90329335D01*
X129773260Y-90047093D01*
X129536507Y-90000000D01*
X129773260Y-89952907D01*
X130195665Y-89670665D01*
X130477907Y-89248260D01*
X130577017Y-88750000D01*
X130477907Y-88251740D01*
X130195665Y-87829335D01*
X130054483Y-87735000D01*
X130251310Y-87735000D01*
X130484699Y-87638327D01*
X130663327Y-87459698D01*
X130760000Y-87226309D01*
X130760000Y-86535750D01*
X130601250Y-86377000D01*
X129277000Y-86377000D01*
X129277000Y-86397000D01*
X129023000Y-86397000D01*
X129023000Y-86377000D01*
X127698750Y-86377000D01*
X127540000Y-86535750D01*
X127540000Y-87226309D01*
X127636673Y-87459698D01*
X127815301Y-87638327D01*
X128048690Y-87735000D01*
X128245517Y-87735000D01*
X128104335Y-87829335D01*
X128041750Y-87923000D01*
X127592554Y-87923000D01*
X127077000Y-87407446D01*
X127077000Y-85273691D01*
X127540000Y-85273691D01*
X127540000Y-85964250D01*
X127698750Y-86123000D01*
X129023000Y-86123000D01*
X129023000Y-84923750D01*
X129277000Y-84923750D01*
X129277000Y-86123000D01*
X130601250Y-86123000D01*
X130760000Y-85964250D01*
X130760000Y-85273691D01*
X130663327Y-85040302D01*
X130484699Y-84861673D01*
X130251310Y-84765000D01*
X129435750Y-84765000D01*
X129277000Y-84923750D01*
X129023000Y-84923750D01*
X128864250Y-84765000D01*
X128048690Y-84765000D01*
X127815301Y-84861673D01*
X127636673Y-85040302D01*
X127540000Y-85273691D01*
X127077000Y-85273691D01*
X127077000Y-84342553D01*
X128092555Y-83327000D01*
X138831448Y-83327000D01*
X139072679Y-83279016D01*
X139346233Y-83096233D01*
X139529016Y-82822679D01*
X139593201Y-82500000D01*
X139529016Y-82177321D01*
X139346233Y-81903767D01*
X139231343Y-81827000D01*
X140684680Y-81827000D01*
X140805391Y-81877000D01*
X141094609Y-81877000D01*
X141215320Y-81827000D01*
X141400000Y-81827000D01*
X141563406Y-81794497D01*
X141701935Y-81701935D01*
X141794497Y-81563406D01*
X141827000Y-81400000D01*
X141827000Y-79801133D01*
X142251134Y-79377000D01*
X145594609Y-79377000D01*
X145662063Y-79349060D01*
X145733661Y-79334818D01*
X145794358Y-79294262D01*
X145861813Y-79266321D01*
X145913442Y-79214692D01*
X145974137Y-79174137D01*
X146014692Y-79113442D01*
X146066321Y-79061813D01*
X146094262Y-78994358D01*
X146134818Y-78933661D01*
X146149060Y-78862063D01*
X146177000Y-78794609D01*
X146177000Y-78721599D01*
X146191242Y-78650000D01*
X146177000Y-78578401D01*
X146177000Y-78505391D01*
X146149060Y-78437937D01*
X146134818Y-78366339D01*
X146094262Y-78305642D01*
X146066321Y-78238187D01*
X146014692Y-78186558D01*
X145974137Y-78125863D01*
X145913442Y-78085308D01*
X145861813Y-78033679D01*
X145794358Y-78005738D01*
X145733661Y-77965182D01*
X145662063Y-77950940D01*
X145594609Y-77923000D01*
X142021595Y-77923000D01*
X141950000Y-77908759D01*
X141878405Y-77923000D01*
X141878401Y-77923000D01*
X141671261Y-77964203D01*
X141666339Y-77965182D01*
X141486561Y-78085305D01*
X141486558Y-78085308D01*
X141425863Y-78125863D01*
X141385307Y-78186559D01*
X140598868Y-78973000D01*
X133627000Y-78973000D01*
X133627000Y-76255391D01*
X141973000Y-76255391D01*
X141973000Y-76544609D01*
X142083679Y-76811813D01*
X142288187Y-77016321D01*
X142555391Y-77127000D01*
X142844609Y-77127000D01*
X143086031Y-77027000D01*
X145690289Y-77027000D01*
X146962087Y-78298799D01*
X146962088Y-79787836D01*
X146862087Y-80029260D01*
X146862087Y-80318478D01*
X146972766Y-80585682D01*
X147177274Y-80790190D01*
X147444478Y-80900869D01*
X147733696Y-80900869D01*
X148000900Y-80790190D01*
X148205408Y-80585682D01*
X148316087Y-80318478D01*
X148316087Y-80029260D01*
X148216087Y-79787838D01*
X148216087Y-78100832D01*
X148228369Y-78039086D01*
X148216087Y-77977338D01*
X148216087Y-77977337D01*
X148179707Y-77794444D01*
X148076106Y-77639394D01*
X148041128Y-77587046D01*
X147988781Y-77552069D01*
X146437020Y-76000309D01*
X146402041Y-75947959D01*
X146194643Y-75809380D01*
X146011750Y-75773000D01*
X146011746Y-75773000D01*
X145950000Y-75760718D01*
X145888254Y-75773000D01*
X143086031Y-75773000D01*
X142844609Y-75673000D01*
X142555391Y-75673000D01*
X142288187Y-75783679D01*
X142083679Y-75988187D01*
X141973000Y-76255391D01*
X133627000Y-76255391D01*
X133627000Y-75800000D01*
X133594497Y-75636594D01*
X133521269Y-75527000D01*
X158836288Y-75527000D01*
X157850307Y-76512982D01*
X157797960Y-76547959D01*
X157762982Y-76600307D01*
X157762981Y-76600308D01*
X157659380Y-76755358D01*
X157610718Y-77000000D01*
X157612381Y-77008361D01*
X157587206Y-76983186D01*
X157472926Y-77097466D01*
X157374264Y-76830613D01*
X156764539Y-76604092D01*
X156114540Y-76628144D01*
X155625736Y-76830613D01*
X155527073Y-77097468D01*
X156500000Y-78070395D01*
X156514143Y-78056253D01*
X156693748Y-78235858D01*
X156679605Y-78250000D01*
X156693748Y-78264143D01*
X156514143Y-78443748D01*
X156500000Y-78429605D01*
X156485858Y-78443748D01*
X156306253Y-78264143D01*
X156320395Y-78250000D01*
X155347468Y-77277073D01*
X155126759Y-77358675D01*
X154808331Y-77040247D01*
X154283848Y-76823000D01*
X153716152Y-76823000D01*
X153191669Y-77040247D01*
X152790247Y-77441669D01*
X152750000Y-77538834D01*
X152709753Y-77441669D01*
X152308331Y-77040247D01*
X151783848Y-76823000D01*
X151216152Y-76823000D01*
X150691669Y-77040247D01*
X150290247Y-77441669D01*
X150073000Y-77966152D01*
X150073000Y-78533848D01*
X150290247Y-79058331D01*
X150691669Y-79459753D01*
X151216152Y-79677000D01*
X151783848Y-79677000D01*
X152308331Y-79459753D01*
X152709753Y-79058331D01*
X152750000Y-78961166D01*
X152790247Y-79058331D01*
X153191669Y-79459753D01*
X153518258Y-79595030D01*
X150829610Y-82283679D01*
X150613969Y-82373000D01*
X148386031Y-82373000D01*
X148144609Y-82273000D01*
X147855391Y-82273000D01*
X147613969Y-82373000D01*
X146811745Y-82373000D01*
X146749999Y-82360718D01*
X146688253Y-82373000D01*
X146688250Y-82373000D01*
X146505357Y-82409380D01*
X146377000Y-82495145D01*
X146377000Y-81005391D01*
X146349060Y-80937937D01*
X146334818Y-80866339D01*
X146294262Y-80805642D01*
X146266321Y-80738187D01*
X146214692Y-80686558D01*
X146174137Y-80625863D01*
X146113442Y-80585308D01*
X146061813Y-80533679D01*
X145994358Y-80505738D01*
X145933661Y-80465182D01*
X145862063Y-80450940D01*
X145794609Y-80423000D01*
X145721599Y-80423000D01*
X145650000Y-80408758D01*
X145578401Y-80423000D01*
X145505391Y-80423000D01*
X145437936Y-80450940D01*
X145366340Y-80465182D01*
X145305645Y-80505737D01*
X145238187Y-80533679D01*
X145186556Y-80585310D01*
X145125864Y-80625863D01*
X145085311Y-80686555D01*
X145033679Y-80738187D01*
X145005737Y-80805646D01*
X144965183Y-80866339D01*
X144950942Y-80937933D01*
X144923000Y-81005391D01*
X144923000Y-81294609D01*
X144923001Y-81294611D01*
X144923000Y-82748867D01*
X144648868Y-83023000D01*
X143855391Y-83023000D01*
X143787937Y-83050940D01*
X143716339Y-83065182D01*
X143655642Y-83105738D01*
X143588187Y-83133679D01*
X143536558Y-83185308D01*
X143475863Y-83225863D01*
X143435308Y-83286558D01*
X143383679Y-83338187D01*
X143355738Y-83405642D01*
X143315182Y-83466339D01*
X143300940Y-83537937D01*
X143273000Y-83605391D01*
X143273000Y-83678401D01*
X143258758Y-83750000D01*
X143273000Y-83821599D01*
X143273000Y-83894609D01*
X143284760Y-83923000D01*
X142861744Y-83923000D01*
X142799999Y-83910718D01*
X142738254Y-83923000D01*
X142738250Y-83923000D01*
X142555357Y-83959380D01*
X142347959Y-84097959D01*
X142312981Y-84150307D01*
X141350307Y-85112982D01*
X141297960Y-85147959D01*
X141262982Y-85200307D01*
X141262981Y-85200308D01*
X141159380Y-85355358D01*
X141110718Y-85600000D01*
X141123001Y-85661751D01*
X141123000Y-86113967D01*
X141023000Y-86355391D01*
X141023000Y-86644609D01*
X141123001Y-86886034D01*
X141123000Y-89236289D01*
X140716321Y-88829610D01*
X140616321Y-88588187D01*
X140411813Y-88383679D01*
X140144609Y-88273000D01*
X139855391Y-88273000D01*
X139588187Y-88383679D01*
X139383679Y-88588187D01*
X139273000Y-88855391D01*
X139273000Y-89144609D01*
X139383679Y-89411813D01*
X139588187Y-89616321D01*
X139829610Y-89716321D01*
X140136288Y-90023000D01*
X139855391Y-90023000D01*
X139588187Y-90133679D01*
X139383679Y-90338187D01*
X139273000Y-90605391D01*
X139273000Y-90894609D01*
X139373000Y-91136032D01*
X139373001Y-93053966D01*
X139273000Y-93295391D01*
X139273000Y-93473000D01*
X132051899Y-93473000D01*
X132000000Y-93462677D01*
X131948101Y-93473000D01*
X131948097Y-93473000D01*
X131803565Y-93501749D01*
X131794375Y-93503577D01*
X131664055Y-93590654D01*
X131664052Y-93590657D01*
X131620055Y-93620055D01*
X131590656Y-93664053D01*
X130664056Y-94590654D01*
X130620055Y-94620055D01*
X130590655Y-94664055D01*
X130590654Y-94664056D01*
X130562879Y-94705624D01*
X130503577Y-94794376D01*
X130473000Y-94948098D01*
X130473000Y-94948102D01*
X130462677Y-95000000D01*
X130473000Y-95051898D01*
X130473001Y-95781709D01*
X130211700Y-96043010D01*
X129412476Y-96043010D01*
X129348155Y-95978689D01*
X129080951Y-95868010D01*
X128791733Y-95868010D01*
X128524529Y-95978689D01*
X128320021Y-96183197D01*
X128209342Y-96450401D01*
X128209342Y-96739619D01*
X128320021Y-97006823D01*
X128524529Y-97211331D01*
X128791733Y-97322010D01*
X129080951Y-97322010D01*
X129348155Y-97211331D01*
X129412476Y-97147010D01*
X130459355Y-97147010D01*
X130620370Y-97114982D01*
X130802960Y-96992980D01*
X130904950Y-96840340D01*
X131123000Y-96622290D01*
X131123001Y-101863966D01*
X131023000Y-102105391D01*
X131023000Y-102394609D01*
X131133679Y-102661813D01*
X131338187Y-102866321D01*
X131605391Y-102977000D01*
X131894609Y-102977000D01*
X132161813Y-102866321D01*
X132366321Y-102661813D01*
X132477000Y-102394609D01*
X132477000Y-102105391D01*
X132377000Y-101863969D01*
X132377000Y-95759711D01*
X132669713Y-95466999D01*
X135273000Y-95466999D01*
X135273000Y-95644609D01*
X135373000Y-95886032D01*
X135373001Y-98113966D01*
X135273000Y-98355391D01*
X135273000Y-98644609D01*
X135383679Y-98911813D01*
X135588187Y-99116321D01*
X135855391Y-99227000D01*
X136144609Y-99227000D01*
X136373001Y-99132397D01*
X136373001Y-99188245D01*
X136373000Y-99188250D01*
X136373000Y-99740289D01*
X136240289Y-99873000D01*
X135136031Y-99873000D01*
X134894609Y-99773000D01*
X134605391Y-99773000D01*
X134338187Y-99883679D01*
X134133679Y-100088187D01*
X134023000Y-100355391D01*
X134023000Y-100644609D01*
X134038891Y-100682975D01*
X133883679Y-100838187D01*
X133773000Y-101105391D01*
X133773000Y-101394609D01*
X133882316Y-101658521D01*
X133790736Y-101879615D01*
X133790736Y-102168833D01*
X133901415Y-102436037D01*
X134105923Y-102640545D01*
X134373127Y-102751224D01*
X134662345Y-102751224D01*
X134929549Y-102640545D01*
X135018870Y-102551224D01*
X142693528Y-102551224D01*
X142745426Y-102561547D01*
X142797324Y-102551224D01*
X142797329Y-102551224D01*
X142951051Y-102520647D01*
X143125371Y-102404169D01*
X143154771Y-102360169D01*
X143198057Y-102316883D01*
X143324376Y-102316883D01*
X143591580Y-102206204D01*
X143673000Y-102124784D01*
X143673000Y-102263957D01*
X143875024Y-102751685D01*
X144248315Y-103124976D01*
X144736043Y-103327000D01*
X145263957Y-103327000D01*
X145751685Y-103124976D01*
X146124976Y-102751685D01*
X146250000Y-102449851D01*
X146375024Y-102751685D01*
X146748315Y-103124976D01*
X147236043Y-103327000D01*
X147763957Y-103327000D01*
X148251685Y-103124976D01*
X148624976Y-102751685D01*
X148750000Y-102449851D01*
X148875024Y-102751685D01*
X149248315Y-103124976D01*
X149736043Y-103327000D01*
X150263957Y-103327000D01*
X150751685Y-103124976D01*
X150796502Y-103080159D01*
X151599446Y-103080159D01*
X151685852Y-103336643D01*
X152259336Y-103546458D01*
X152869460Y-103520839D01*
X153314148Y-103336643D01*
X153400554Y-103080159D01*
X152500000Y-102179605D01*
X151599446Y-103080159D01*
X150796502Y-103080159D01*
X151124976Y-102751685D01*
X151131230Y-102736587D01*
X151163357Y-102814148D01*
X151419841Y-102900554D01*
X152320395Y-102000000D01*
X152679605Y-102000000D01*
X153580159Y-102900554D01*
X153664635Y-102872095D01*
X153664635Y-102900000D01*
X153697775Y-103066607D01*
X153792150Y-103207850D01*
X153933393Y-103302225D01*
X154100000Y-103335365D01*
X155900000Y-103335365D01*
X156066607Y-103302225D01*
X156207850Y-103207850D01*
X156302225Y-103066607D01*
X156335365Y-102900000D01*
X156335365Y-102535750D01*
X162415000Y-102535750D01*
X162415000Y-103326310D01*
X162511673Y-103559699D01*
X162690302Y-103738327D01*
X162923691Y-103835000D01*
X163814250Y-103835000D01*
X163973000Y-103676250D01*
X163973000Y-102377000D01*
X164227000Y-102377000D01*
X164227000Y-103676250D01*
X164385750Y-103835000D01*
X165276309Y-103835000D01*
X165509698Y-103738327D01*
X165688327Y-103559699D01*
X165785000Y-103326310D01*
X165785000Y-102535750D01*
X169715000Y-102535750D01*
X169715000Y-103326310D01*
X169811673Y-103559699D01*
X169990302Y-103738327D01*
X170223691Y-103835000D01*
X171114250Y-103835000D01*
X171273000Y-103676250D01*
X171273000Y-102377000D01*
X171527000Y-102377000D01*
X171527000Y-103676250D01*
X171685750Y-103835000D01*
X172576309Y-103835000D01*
X172809698Y-103738327D01*
X172988327Y-103559699D01*
X173085000Y-103326310D01*
X173085000Y-102535750D01*
X172926250Y-102377000D01*
X171527000Y-102377000D01*
X171273000Y-102377000D01*
X169873750Y-102377000D01*
X169715000Y-102535750D01*
X165785000Y-102535750D01*
X165626250Y-102377000D01*
X164227000Y-102377000D01*
X163973000Y-102377000D01*
X162573750Y-102377000D01*
X162415000Y-102535750D01*
X156335365Y-102535750D01*
X156335365Y-101100000D01*
X156302225Y-100933393D01*
X156207850Y-100792150D01*
X156066607Y-100697775D01*
X155900000Y-100664635D01*
X154100000Y-100664635D01*
X153933393Y-100697775D01*
X153792150Y-100792150D01*
X153697775Y-100933393D01*
X153664635Y-101100000D01*
X153664635Y-101127905D01*
X153580159Y-101099446D01*
X152679605Y-102000000D01*
X152320395Y-102000000D01*
X151419841Y-101099446D01*
X151163357Y-101185852D01*
X151133221Y-101268221D01*
X151124976Y-101248315D01*
X150751685Y-100875024D01*
X150505205Y-100772929D01*
X150616321Y-100661813D01*
X150727000Y-100394609D01*
X150727000Y-100105391D01*
X150616321Y-99838187D01*
X150411813Y-99633679D01*
X150187000Y-99540559D01*
X150187000Y-99355391D01*
X150076321Y-99088187D01*
X149871813Y-98883679D01*
X149604609Y-98773000D01*
X149315391Y-98773000D01*
X149048187Y-98883679D01*
X148958866Y-98973000D01*
X146279105Y-98973000D01*
X146227207Y-98962677D01*
X146175309Y-98973000D01*
X146175305Y-98973000D01*
X146021583Y-99003577D01*
X146018918Y-99005358D01*
X145891263Y-99090654D01*
X145891260Y-99090657D01*
X145847263Y-99120055D01*
X145817864Y-99164053D01*
X144664053Y-100317865D01*
X144620056Y-100347263D01*
X144590658Y-100391260D01*
X144590654Y-100391264D01*
X144517999Y-100500000D01*
X144503578Y-100521583D01*
X144473460Y-100673000D01*
X144462677Y-100727208D01*
X144473001Y-100779110D01*
X144473001Y-100781956D01*
X144248315Y-100875024D01*
X143875024Y-101248315D01*
X143850104Y-101308477D01*
X143796088Y-101178070D01*
X143591580Y-100973562D01*
X143324376Y-100862883D01*
X143126550Y-100862883D01*
X143116321Y-100838187D01*
X142911813Y-100633679D01*
X142644609Y-100523000D01*
X142355391Y-100523000D01*
X142088187Y-100633679D01*
X141998866Y-100723000D01*
X137163711Y-100723000D01*
X137399691Y-100487020D01*
X137452041Y-100452041D01*
X137590620Y-100244643D01*
X137627000Y-100061750D01*
X137627000Y-100061746D01*
X137639282Y-100000000D01*
X137627000Y-99938254D01*
X137627000Y-97509711D01*
X137759711Y-97377000D01*
X138115414Y-97377000D01*
X138090655Y-97414055D01*
X138090654Y-97414056D01*
X138062879Y-97455625D01*
X138003577Y-97544376D01*
X137973000Y-97698098D01*
X137973000Y-97698102D01*
X137962677Y-97750000D01*
X137973000Y-97801898D01*
X137973000Y-97998866D01*
X137883679Y-98088187D01*
X137773000Y-98355391D01*
X137773000Y-98644609D01*
X137883679Y-98911813D01*
X138088187Y-99116321D01*
X138355391Y-99227000D01*
X138644609Y-99227000D01*
X138911813Y-99116321D01*
X139116321Y-98911813D01*
X139125000Y-98890860D01*
X139133679Y-98911813D01*
X139338187Y-99116321D01*
X139605391Y-99227000D01*
X139894609Y-99227000D01*
X140161813Y-99116321D01*
X140366321Y-98911813D01*
X140477000Y-98644609D01*
X140477000Y-98355391D01*
X140469382Y-98337000D01*
X143786269Y-98337000D01*
X143875590Y-98426321D01*
X144142794Y-98537000D01*
X144432012Y-98537000D01*
X144699216Y-98426321D01*
X144903724Y-98221813D01*
X145014403Y-97954609D01*
X145014403Y-97665391D01*
X144998501Y-97627000D01*
X150990289Y-97627000D01*
X151473001Y-98109713D01*
X151473000Y-99238253D01*
X151460718Y-99300000D01*
X151473000Y-99361746D01*
X151473000Y-99361749D01*
X151509380Y-99544642D01*
X151647959Y-99752041D01*
X151700309Y-99787020D01*
X152212983Y-100299695D01*
X152247961Y-100352043D01*
X152300309Y-100387021D01*
X152420015Y-100467006D01*
X152130540Y-100479161D01*
X151685852Y-100663357D01*
X151599446Y-100919841D01*
X152500000Y-101820395D01*
X153400554Y-100919841D01*
X153314148Y-100663357D01*
X152941451Y-100527002D01*
X155613969Y-100527002D01*
X155855391Y-100627002D01*
X156144609Y-100627002D01*
X156386031Y-100527002D01*
X156838252Y-100527002D01*
X156899998Y-100539284D01*
X156961744Y-100527002D01*
X156961748Y-100527002D01*
X157144641Y-100490622D01*
X157352039Y-100352043D01*
X157387018Y-100299693D01*
X157723001Y-99963711D01*
X157723001Y-100198097D01*
X157712677Y-100250000D01*
X157723001Y-100301902D01*
X157723001Y-100301903D01*
X157729189Y-100333010D01*
X157753578Y-100455625D01*
X157840654Y-100585944D01*
X157840658Y-100585948D01*
X157870056Y-100629945D01*
X157914053Y-100659343D01*
X158450665Y-101195955D01*
X158480065Y-101239955D01*
X158654385Y-101356433D01*
X158808107Y-101387010D01*
X158808111Y-101387010D01*
X158860009Y-101397333D01*
X158911907Y-101387010D01*
X162415000Y-101387010D01*
X162415000Y-101964250D01*
X162573750Y-102123000D01*
X163973000Y-102123000D01*
X163973000Y-102103000D01*
X164227000Y-102103000D01*
X164227000Y-102123000D01*
X165626250Y-102123000D01*
X165785000Y-101964250D01*
X165785000Y-101387010D01*
X167338092Y-101387010D01*
X167389990Y-101397333D01*
X167441888Y-101387010D01*
X167441893Y-101387010D01*
X167595615Y-101356433D01*
X167769935Y-101239955D01*
X167799335Y-101195955D01*
X167821600Y-101173690D01*
X169715000Y-101173690D01*
X169715000Y-101964250D01*
X169873750Y-102123000D01*
X171273000Y-102123000D01*
X171273000Y-100823750D01*
X171527000Y-100823750D01*
X171527000Y-102123000D01*
X172926250Y-102123000D01*
X173085000Y-101964250D01*
X173085000Y-101173690D01*
X172988327Y-100940301D01*
X172809698Y-100761673D01*
X172576309Y-100665000D01*
X171685750Y-100665000D01*
X171527000Y-100823750D01*
X171273000Y-100823750D01*
X171114250Y-100665000D01*
X170223691Y-100665000D01*
X169990302Y-100761673D01*
X169811673Y-100940301D01*
X169715000Y-101173690D01*
X167821600Y-101173690D01*
X168335945Y-100659345D01*
X168379945Y-100629945D01*
X168496423Y-100455625D01*
X168527000Y-100301903D01*
X168527000Y-100301899D01*
X168537323Y-100250001D01*
X168527000Y-100198103D01*
X168527000Y-99557901D01*
X169034963Y-99557901D01*
X169201303Y-99978349D01*
X169515880Y-100303136D01*
X169869190Y-100468964D01*
X170048000Y-100343163D01*
X170048000Y-99377000D01*
X170302000Y-99377000D01*
X170302000Y-100343163D01*
X170480810Y-100468964D01*
X170834120Y-100303136D01*
X171148697Y-99978349D01*
X171315037Y-99557901D01*
X171174774Y-99377000D01*
X170302000Y-99377000D01*
X170048000Y-99377000D01*
X169175226Y-99377000D01*
X169034963Y-99557901D01*
X168527000Y-99557901D01*
X168527000Y-98942099D01*
X169034963Y-98942099D01*
X169175226Y-99123000D01*
X170048000Y-99123000D01*
X170048000Y-98156837D01*
X170302000Y-98156837D01*
X170302000Y-99123000D01*
X171174774Y-99123000D01*
X171315037Y-98942099D01*
X171148697Y-98521651D01*
X170834120Y-98196864D01*
X170480810Y-98031036D01*
X170302000Y-98156837D01*
X170048000Y-98156837D01*
X169869190Y-98031036D01*
X169515880Y-98196864D01*
X169201303Y-98521651D01*
X169034963Y-98942099D01*
X168527000Y-98942099D01*
X168527000Y-98751134D01*
X168616321Y-98661813D01*
X168727000Y-98394609D01*
X168727000Y-98105391D01*
X168616321Y-97838187D01*
X168411813Y-97633679D01*
X168144609Y-97523000D01*
X167855391Y-97523000D01*
X167588187Y-97633679D01*
X167500000Y-97721866D01*
X167411813Y-97633679D01*
X167144609Y-97523000D01*
X166855391Y-97523000D01*
X166588187Y-97633679D01*
X166383679Y-97838187D01*
X166273000Y-98105391D01*
X166273000Y-98394609D01*
X166383679Y-98661813D01*
X166473001Y-98751135D01*
X166473001Y-99122998D01*
X166324776Y-99122998D01*
X166465037Y-98942099D01*
X166298697Y-98521651D01*
X165984120Y-98196864D01*
X165630810Y-98031036D01*
X165452000Y-98156837D01*
X165452000Y-99123000D01*
X165472000Y-99123000D01*
X165472000Y-99377000D01*
X165452000Y-99377000D01*
X165452000Y-99397000D01*
X165198000Y-99397000D01*
X165198000Y-99377000D01*
X164325226Y-99377000D01*
X164184963Y-99557901D01*
X164349187Y-99973000D01*
X163694530Y-99973000D01*
X163727000Y-99894609D01*
X163727000Y-99605391D01*
X163616321Y-99338187D01*
X163411813Y-99133679D01*
X163144609Y-99023000D01*
X163018291Y-99023000D01*
X162937390Y-98942099D01*
X164184963Y-98942099D01*
X164325226Y-99123000D01*
X165198000Y-99123000D01*
X165198000Y-98156837D01*
X165019190Y-98031036D01*
X164665880Y-98196864D01*
X164351303Y-98521651D01*
X164184963Y-98942099D01*
X162937390Y-98942099D01*
X162527000Y-98531710D01*
X162527000Y-96001134D01*
X162616321Y-95911813D01*
X162727000Y-95644609D01*
X162727000Y-95355391D01*
X162616321Y-95088187D01*
X162527000Y-94998866D01*
X162527000Y-94251134D01*
X162616321Y-94161813D01*
X162727000Y-93894609D01*
X162727000Y-93605391D01*
X162616321Y-93338187D01*
X162411813Y-93133679D01*
X162144609Y-93023000D01*
X161855391Y-93023000D01*
X161588187Y-93133679D01*
X161383679Y-93338187D01*
X161273000Y-93605391D01*
X161273000Y-93894609D01*
X161383679Y-94161813D01*
X161473000Y-94251134D01*
X161473001Y-94998865D01*
X161383679Y-95088187D01*
X161273000Y-95355391D01*
X161273000Y-95644609D01*
X161383679Y-95911813D01*
X161473000Y-96001134D01*
X161473001Y-98698097D01*
X161462677Y-98750000D01*
X161473001Y-98801903D01*
X161485814Y-98866321D01*
X161503578Y-98955625D01*
X161590654Y-99085944D01*
X161590658Y-99085948D01*
X161620056Y-99129945D01*
X161664053Y-99159343D01*
X162273000Y-99768291D01*
X162273000Y-99894609D01*
X162305470Y-99973000D01*
X161694530Y-99973000D01*
X161727000Y-99894609D01*
X161727000Y-99605391D01*
X161616321Y-99338187D01*
X161411813Y-99133679D01*
X161144609Y-99023000D01*
X161018291Y-99023000D01*
X160777000Y-98781710D01*
X160777000Y-90218290D01*
X160968291Y-90027000D01*
X161498866Y-90027000D01*
X161588187Y-90116321D01*
X161855391Y-90227000D01*
X162144609Y-90227000D01*
X162411813Y-90116321D01*
X162616321Y-89911813D01*
X162727000Y-89644609D01*
X162727000Y-89355391D01*
X162616321Y-89088187D01*
X162411813Y-88883679D01*
X162390860Y-88875000D01*
X162411813Y-88866321D01*
X162616321Y-88661813D01*
X162727000Y-88394609D01*
X162727000Y-88105391D01*
X162616321Y-87838187D01*
X162411813Y-87633679D01*
X162144609Y-87523000D01*
X161855391Y-87523000D01*
X161588187Y-87633679D01*
X161498866Y-87723000D01*
X160301899Y-87723000D01*
X160250000Y-87712677D01*
X160198101Y-87723000D01*
X160198097Y-87723000D01*
X160044375Y-87753577D01*
X159877000Y-87865414D01*
X159877000Y-87636031D01*
X159977000Y-87394609D01*
X159977000Y-87105391D01*
X159866321Y-86838187D01*
X159661813Y-86633679D01*
X159394609Y-86523000D01*
X159105391Y-86523000D01*
X158838187Y-86633679D01*
X158633679Y-86838187D01*
X158523000Y-87105391D01*
X158523000Y-87394609D01*
X158623001Y-87636034D01*
X158623000Y-92023000D01*
X158355391Y-92023000D01*
X158088187Y-92133679D01*
X157883679Y-92338187D01*
X157773000Y-92605391D01*
X157773000Y-92894609D01*
X157883679Y-93161813D01*
X157973001Y-93251135D01*
X157973000Y-94281709D01*
X157781710Y-94473000D01*
X155364817Y-94473000D01*
X155377000Y-94411750D01*
X155377000Y-94411746D01*
X155389282Y-94350000D01*
X155377000Y-94288254D01*
X155377000Y-94136031D01*
X155477000Y-93894609D01*
X155477000Y-93605391D01*
X155366321Y-93338187D01*
X155161813Y-93133679D01*
X154894609Y-93023000D01*
X154605391Y-93023000D01*
X154338187Y-93133679D01*
X154133679Y-93338187D01*
X154023000Y-93605391D01*
X154023000Y-93894609D01*
X154109602Y-94103687D01*
X152590289Y-95623000D01*
X151561746Y-95623000D01*
X151500000Y-95610718D01*
X151438254Y-95623000D01*
X146227000Y-95623000D01*
X146227000Y-95445391D01*
X146116321Y-95178187D01*
X146027000Y-95088866D01*
X146027000Y-94301897D01*
X146037323Y-94249999D01*
X146027000Y-94198101D01*
X146027000Y-94198097D01*
X145996423Y-94044375D01*
X145879945Y-93870055D01*
X145835942Y-93840653D01*
X145659346Y-93664056D01*
X145629945Y-93620055D01*
X145455625Y-93503577D01*
X145301903Y-93473000D01*
X145301898Y-93473000D01*
X145250000Y-93462677D01*
X145198102Y-93473000D01*
X142305134Y-93473000D01*
X142366321Y-93411813D01*
X142477000Y-93144609D01*
X142477000Y-92855391D01*
X142463571Y-92822970D01*
X145856635Y-92822970D01*
X145875897Y-93023317D01*
X146251925Y-93142103D01*
X146644787Y-93107947D01*
X146849103Y-93023317D01*
X146868365Y-92822970D01*
X147281635Y-92822970D01*
X147300897Y-93023317D01*
X147676925Y-93142103D01*
X148069787Y-93107947D01*
X148274103Y-93023317D01*
X148293365Y-92822970D01*
X148706635Y-92822970D01*
X148725897Y-93023317D01*
X149101925Y-93142103D01*
X149494787Y-93107947D01*
X149699103Y-93023317D01*
X149718365Y-92822970D01*
X150131635Y-92822970D01*
X150150897Y-93023317D01*
X150526925Y-93142103D01*
X150919787Y-93107947D01*
X151124103Y-93023317D01*
X151143365Y-92822970D01*
X150637500Y-92317105D01*
X150131635Y-92822970D01*
X149718365Y-92822970D01*
X149212500Y-92317105D01*
X148706635Y-92822970D01*
X148293365Y-92822970D01*
X147787500Y-92317105D01*
X147281635Y-92822970D01*
X146868365Y-92822970D01*
X146362500Y-92317105D01*
X145856635Y-92822970D01*
X142463571Y-92822970D01*
X142377000Y-92613969D01*
X142377000Y-92026925D01*
X145357897Y-92026925D01*
X145392053Y-92419787D01*
X145476683Y-92624103D01*
X145677030Y-92643365D01*
X146182895Y-92137500D01*
X146542105Y-92137500D01*
X146816354Y-92411749D01*
X146817053Y-92419787D01*
X146901683Y-92624103D01*
X147042220Y-92637615D01*
X147047970Y-92643365D01*
X147075000Y-92640766D01*
X147102030Y-92643365D01*
X147107780Y-92637615D01*
X147248317Y-92624103D01*
X147306973Y-92438422D01*
X147607895Y-92137500D01*
X147967105Y-92137500D01*
X148241354Y-92411749D01*
X148242053Y-92419787D01*
X148326683Y-92624103D01*
X148467220Y-92637615D01*
X148472970Y-92643365D01*
X148500000Y-92640766D01*
X148527030Y-92643365D01*
X148532780Y-92637615D01*
X148673317Y-92624103D01*
X148731973Y-92438422D01*
X149032895Y-92137500D01*
X149392105Y-92137500D01*
X149666354Y-92411749D01*
X149667053Y-92419787D01*
X149751683Y-92624103D01*
X149892220Y-92637615D01*
X149897970Y-92643365D01*
X149925000Y-92640766D01*
X149952030Y-92643365D01*
X149957780Y-92637615D01*
X150098317Y-92624103D01*
X150156973Y-92438422D01*
X150457895Y-92137500D01*
X150817105Y-92137500D01*
X151322970Y-92643365D01*
X151523317Y-92624103D01*
X151642103Y-92248075D01*
X151607947Y-91855213D01*
X151523317Y-91650897D01*
X151322970Y-91631635D01*
X150817105Y-92137500D01*
X150457895Y-92137500D01*
X150183646Y-91863251D01*
X150182947Y-91855213D01*
X150098317Y-91650897D01*
X149957780Y-91637385D01*
X149952030Y-91631635D01*
X149925000Y-91634234D01*
X149897970Y-91631635D01*
X149892220Y-91637385D01*
X149751683Y-91650897D01*
X149693027Y-91836578D01*
X149392105Y-92137500D01*
X149032895Y-92137500D01*
X148758646Y-91863251D01*
X148757947Y-91855213D01*
X148673317Y-91650897D01*
X148532780Y-91637385D01*
X148527030Y-91631635D01*
X148500000Y-91634234D01*
X148472970Y-91631635D01*
X148467220Y-91637385D01*
X148326683Y-91650897D01*
X148268027Y-91836578D01*
X147967105Y-92137500D01*
X147607895Y-92137500D01*
X147333646Y-91863251D01*
X147332947Y-91855213D01*
X147248317Y-91650897D01*
X147107780Y-91637385D01*
X147102030Y-91631635D01*
X147075000Y-91634234D01*
X147047970Y-91631635D01*
X147042220Y-91637385D01*
X146901683Y-91650897D01*
X146843027Y-91836578D01*
X146542105Y-92137500D01*
X146182895Y-92137500D01*
X145677030Y-91631635D01*
X145476683Y-91650897D01*
X145357897Y-92026925D01*
X142377000Y-92026925D01*
X142377000Y-91397970D01*
X145856635Y-91397970D01*
X145859234Y-91425000D01*
X145856635Y-91452030D01*
X145862385Y-91457780D01*
X145875897Y-91598317D01*
X146061578Y-91656973D01*
X146362500Y-91957895D01*
X146636749Y-91683646D01*
X146644787Y-91682947D01*
X146849103Y-91598317D01*
X146862615Y-91457780D01*
X146868365Y-91452030D01*
X146865766Y-91425000D01*
X146868365Y-91397970D01*
X147281635Y-91397970D01*
X147284234Y-91425000D01*
X147281635Y-91452030D01*
X147287385Y-91457780D01*
X147300897Y-91598317D01*
X147486578Y-91656973D01*
X147787500Y-91957895D01*
X148061749Y-91683646D01*
X148069787Y-91682947D01*
X148274103Y-91598317D01*
X148287615Y-91457780D01*
X148293365Y-91452030D01*
X148290766Y-91425000D01*
X148293365Y-91397970D01*
X148706635Y-91397970D01*
X148709234Y-91425000D01*
X148706635Y-91452030D01*
X148712385Y-91457780D01*
X148725897Y-91598317D01*
X148911578Y-91656973D01*
X149212500Y-91957895D01*
X149486749Y-91683646D01*
X149494787Y-91682947D01*
X149699103Y-91598317D01*
X149712615Y-91457780D01*
X149718365Y-91452030D01*
X149715766Y-91425000D01*
X149718365Y-91397970D01*
X150131635Y-91397970D01*
X150134234Y-91425000D01*
X150131635Y-91452030D01*
X150137385Y-91457780D01*
X150150897Y-91598317D01*
X150336578Y-91656973D01*
X150637500Y-91957895D01*
X150911749Y-91683646D01*
X150919787Y-91682947D01*
X151124103Y-91598317D01*
X151137615Y-91457780D01*
X151143365Y-91452030D01*
X151140766Y-91425000D01*
X151143365Y-91397970D01*
X151137615Y-91392220D01*
X151124103Y-91251683D01*
X150938422Y-91193027D01*
X150637500Y-90892105D01*
X150363251Y-91166354D01*
X150355213Y-91167053D01*
X150150897Y-91251683D01*
X150137385Y-91392220D01*
X150131635Y-91397970D01*
X149718365Y-91397970D01*
X149712615Y-91392220D01*
X149699103Y-91251683D01*
X149513422Y-91193027D01*
X149212500Y-90892105D01*
X148938251Y-91166354D01*
X148930213Y-91167053D01*
X148725897Y-91251683D01*
X148712385Y-91392220D01*
X148706635Y-91397970D01*
X148293365Y-91397970D01*
X148287615Y-91392220D01*
X148274103Y-91251683D01*
X148088422Y-91193027D01*
X147787500Y-90892105D01*
X147513251Y-91166354D01*
X147505213Y-91167053D01*
X147300897Y-91251683D01*
X147287385Y-91392220D01*
X147281635Y-91397970D01*
X146868365Y-91397970D01*
X146862615Y-91392220D01*
X146849103Y-91251683D01*
X146663422Y-91193027D01*
X146362500Y-90892105D01*
X146088251Y-91166354D01*
X146080213Y-91167053D01*
X145875897Y-91251683D01*
X145862385Y-91392220D01*
X145856635Y-91397970D01*
X142377000Y-91397970D01*
X142377000Y-90386031D01*
X142477000Y-90144609D01*
X142477000Y-89855391D01*
X142377000Y-89613969D01*
X142377000Y-89372290D01*
X143340656Y-90335947D01*
X143370055Y-90379945D01*
X143414052Y-90409343D01*
X143414055Y-90409346D01*
X143544374Y-90496423D01*
X143576387Y-90502791D01*
X143698097Y-90527000D01*
X143698101Y-90527000D01*
X143750000Y-90537323D01*
X143801899Y-90527000D01*
X145381566Y-90527000D01*
X145357897Y-90601925D01*
X145392053Y-90994787D01*
X145476683Y-91199103D01*
X145677030Y-91218365D01*
X146182895Y-90712500D01*
X146168753Y-90698358D01*
X146340110Y-90527000D01*
X146356605Y-90527000D01*
X146362500Y-90532895D01*
X146368395Y-90527000D01*
X146384890Y-90527000D01*
X146556248Y-90698358D01*
X146542105Y-90712500D01*
X146816354Y-90986749D01*
X146817053Y-90994787D01*
X146901683Y-91199103D01*
X147042220Y-91212615D01*
X147047970Y-91218365D01*
X147075000Y-91215766D01*
X147102030Y-91218365D01*
X147107780Y-91212615D01*
X147248317Y-91199103D01*
X147306973Y-91013422D01*
X147607895Y-90712500D01*
X147593753Y-90698358D01*
X147765110Y-90527000D01*
X147781605Y-90527000D01*
X147787500Y-90532895D01*
X147793395Y-90527000D01*
X147809890Y-90527000D01*
X147981248Y-90698358D01*
X147967105Y-90712500D01*
X148241354Y-90986749D01*
X148242053Y-90994787D01*
X148326683Y-91199103D01*
X148467220Y-91212615D01*
X148472970Y-91218365D01*
X148500000Y-91215766D01*
X148527030Y-91218365D01*
X148532780Y-91212615D01*
X148673317Y-91199103D01*
X148731973Y-91013422D01*
X149032895Y-90712500D01*
X149018753Y-90698358D01*
X149190110Y-90527000D01*
X149206605Y-90527000D01*
X149212500Y-90532895D01*
X149218395Y-90527000D01*
X149234890Y-90527000D01*
X149406248Y-90698358D01*
X149392105Y-90712500D01*
X149666354Y-90986749D01*
X149667053Y-90994787D01*
X149751683Y-91199103D01*
X149892220Y-91212615D01*
X149897970Y-91218365D01*
X149925000Y-91215766D01*
X149952030Y-91218365D01*
X149957780Y-91212615D01*
X150098317Y-91199103D01*
X150156973Y-91013422D01*
X150457895Y-90712500D01*
X150443753Y-90698358D01*
X150615110Y-90527000D01*
X150631605Y-90527000D01*
X150637500Y-90532895D01*
X150643395Y-90527000D01*
X150659890Y-90527000D01*
X150831248Y-90698358D01*
X150817105Y-90712500D01*
X151322970Y-91218365D01*
X151523317Y-91199103D01*
X151642103Y-90823075D01*
X151616362Y-90527000D01*
X153506665Y-90527000D01*
X153507804Y-90528139D01*
X153507804Y-90654458D01*
X153618483Y-90921662D01*
X153822991Y-91126170D01*
X154090195Y-91236849D01*
X154379413Y-91236849D01*
X154646617Y-91126170D01*
X154851125Y-90921662D01*
X154961804Y-90654458D01*
X154961804Y-90365240D01*
X154851125Y-90098036D01*
X154646617Y-89893528D01*
X154379413Y-89782849D01*
X154253094Y-89782849D01*
X154134300Y-89664055D01*
X154104900Y-89620055D01*
X153930580Y-89503577D01*
X153776858Y-89473000D01*
X153776853Y-89473000D01*
X153724955Y-89462677D01*
X153673057Y-89473000D01*
X151618434Y-89473000D01*
X151642103Y-89398075D01*
X151607947Y-89005213D01*
X151523317Y-88800897D01*
X151322970Y-88781635D01*
X150817105Y-89287500D01*
X150831248Y-89301643D01*
X150659890Y-89473000D01*
X150643395Y-89473000D01*
X150637500Y-89467105D01*
X150631605Y-89473000D01*
X150615110Y-89473000D01*
X150443753Y-89301643D01*
X150457895Y-89287500D01*
X150183646Y-89013251D01*
X150182947Y-89005213D01*
X150098317Y-88800897D01*
X149957780Y-88787385D01*
X149952030Y-88781635D01*
X149925000Y-88784234D01*
X149897970Y-88781635D01*
X149892220Y-88787385D01*
X149751683Y-88800897D01*
X149693027Y-88986578D01*
X149392105Y-89287500D01*
X149406248Y-89301643D01*
X149234890Y-89473000D01*
X149218395Y-89473000D01*
X149212500Y-89467105D01*
X149206605Y-89473000D01*
X149190110Y-89473000D01*
X149018753Y-89301643D01*
X149032895Y-89287500D01*
X148758646Y-89013251D01*
X148757947Y-89005213D01*
X148673317Y-88800897D01*
X148532780Y-88787385D01*
X148527030Y-88781635D01*
X148500000Y-88784234D01*
X148472970Y-88781635D01*
X148467220Y-88787385D01*
X148326683Y-88800897D01*
X148268027Y-88986578D01*
X147967105Y-89287500D01*
X147981248Y-89301643D01*
X147809890Y-89473000D01*
X147793395Y-89473000D01*
X147787500Y-89467105D01*
X147781605Y-89473000D01*
X147765110Y-89473000D01*
X147593753Y-89301643D01*
X147607895Y-89287500D01*
X147333646Y-89013251D01*
X147332947Y-89005213D01*
X147248317Y-88800897D01*
X147107780Y-88787385D01*
X147102030Y-88781635D01*
X147075000Y-88784234D01*
X147047970Y-88781635D01*
X147042220Y-88787385D01*
X146901683Y-88800897D01*
X146843027Y-88986578D01*
X146542105Y-89287500D01*
X146556248Y-89301643D01*
X146384890Y-89473000D01*
X146368395Y-89473000D01*
X146362500Y-89467105D01*
X146356605Y-89473000D01*
X146340110Y-89473000D01*
X146168753Y-89301643D01*
X146182895Y-89287500D01*
X145677030Y-88781635D01*
X145476683Y-88800897D01*
X145357897Y-89176925D01*
X145383638Y-89473000D01*
X143968291Y-89473000D01*
X143043261Y-88547970D01*
X145856635Y-88547970D01*
X145859234Y-88575000D01*
X145856635Y-88602030D01*
X145862385Y-88607780D01*
X145875897Y-88748317D01*
X146061578Y-88806973D01*
X146362500Y-89107895D01*
X146636749Y-88833646D01*
X146644787Y-88832947D01*
X146849103Y-88748317D01*
X146862615Y-88607780D01*
X146868365Y-88602030D01*
X146865766Y-88575000D01*
X146868365Y-88547970D01*
X147281635Y-88547970D01*
X147284234Y-88575000D01*
X147281635Y-88602030D01*
X147287385Y-88607780D01*
X147300897Y-88748317D01*
X147486578Y-88806973D01*
X147787500Y-89107895D01*
X148061749Y-88833646D01*
X148069787Y-88832947D01*
X148274103Y-88748317D01*
X148287615Y-88607780D01*
X148293365Y-88602030D01*
X148290766Y-88575000D01*
X148293365Y-88547970D01*
X148706635Y-88547970D01*
X148709234Y-88575000D01*
X148706635Y-88602030D01*
X148712385Y-88607780D01*
X148725897Y-88748317D01*
X148911578Y-88806973D01*
X149212500Y-89107895D01*
X149486749Y-88833646D01*
X149494787Y-88832947D01*
X149699103Y-88748317D01*
X149712615Y-88607780D01*
X149718365Y-88602030D01*
X149715766Y-88575000D01*
X149718365Y-88547970D01*
X150131635Y-88547970D01*
X150134234Y-88575000D01*
X150131635Y-88602030D01*
X150137385Y-88607780D01*
X150150897Y-88748317D01*
X150336578Y-88806973D01*
X150637500Y-89107895D01*
X150911749Y-88833646D01*
X150919787Y-88832947D01*
X151124103Y-88748317D01*
X151137615Y-88607780D01*
X151143365Y-88602030D01*
X151140766Y-88575000D01*
X151143365Y-88547970D01*
X151137615Y-88542220D01*
X151124103Y-88401683D01*
X150938422Y-88343027D01*
X150637500Y-88042105D01*
X150363251Y-88316354D01*
X150355213Y-88317053D01*
X150150897Y-88401683D01*
X150137385Y-88542220D01*
X150131635Y-88547970D01*
X149718365Y-88547970D01*
X149712615Y-88542220D01*
X149699103Y-88401683D01*
X149513422Y-88343027D01*
X149212500Y-88042105D01*
X148938251Y-88316354D01*
X148930213Y-88317053D01*
X148725897Y-88401683D01*
X148712385Y-88542220D01*
X148706635Y-88547970D01*
X148293365Y-88547970D01*
X148287615Y-88542220D01*
X148274103Y-88401683D01*
X148088422Y-88343027D01*
X147787500Y-88042105D01*
X147513251Y-88316354D01*
X147505213Y-88317053D01*
X147300897Y-88401683D01*
X147287385Y-88542220D01*
X147281635Y-88547970D01*
X146868365Y-88547970D01*
X146862615Y-88542220D01*
X146849103Y-88401683D01*
X146663422Y-88343027D01*
X146362500Y-88042105D01*
X146088251Y-88316354D01*
X146080213Y-88317053D01*
X145875897Y-88401683D01*
X145862385Y-88542220D01*
X145856635Y-88547970D01*
X143043261Y-88547970D01*
X143020861Y-88525571D01*
X143020861Y-88229855D01*
X143255391Y-88327000D01*
X143544609Y-88327000D01*
X143811813Y-88216321D01*
X144016321Y-88011813D01*
X144123969Y-87751925D01*
X145357897Y-87751925D01*
X145392053Y-88144787D01*
X145476683Y-88349103D01*
X145677030Y-88368365D01*
X146182895Y-87862500D01*
X146542105Y-87862500D01*
X146816354Y-88136749D01*
X146817053Y-88144787D01*
X146901683Y-88349103D01*
X147042220Y-88362615D01*
X147047970Y-88368365D01*
X147075000Y-88365766D01*
X147102030Y-88368365D01*
X147107780Y-88362615D01*
X147248317Y-88349103D01*
X147306973Y-88163422D01*
X147607895Y-87862500D01*
X147967105Y-87862500D01*
X148241354Y-88136749D01*
X148242053Y-88144787D01*
X148326683Y-88349103D01*
X148467220Y-88362615D01*
X148472970Y-88368365D01*
X148500000Y-88365766D01*
X148527030Y-88368365D01*
X148532780Y-88362615D01*
X148673317Y-88349103D01*
X148731973Y-88163422D01*
X149032895Y-87862500D01*
X149392105Y-87862500D01*
X149666354Y-88136749D01*
X149667053Y-88144787D01*
X149751683Y-88349103D01*
X149892220Y-88362615D01*
X149897970Y-88368365D01*
X149925000Y-88365766D01*
X149952030Y-88368365D01*
X149957780Y-88362615D01*
X150098317Y-88349103D01*
X150156973Y-88163422D01*
X150457895Y-87862500D01*
X150817105Y-87862500D01*
X151322970Y-88368365D01*
X151523317Y-88349103D01*
X151642103Y-87973075D01*
X151607947Y-87580213D01*
X151523317Y-87375897D01*
X151322970Y-87356635D01*
X150817105Y-87862500D01*
X150457895Y-87862500D01*
X150183646Y-87588251D01*
X150182947Y-87580213D01*
X150098317Y-87375897D01*
X149957780Y-87362385D01*
X149952030Y-87356635D01*
X149925000Y-87359234D01*
X149897970Y-87356635D01*
X149892220Y-87362385D01*
X149751683Y-87375897D01*
X149693027Y-87561578D01*
X149392105Y-87862500D01*
X149032895Y-87862500D01*
X148758646Y-87588251D01*
X148757947Y-87580213D01*
X148673317Y-87375897D01*
X148532780Y-87362385D01*
X148527030Y-87356635D01*
X148500000Y-87359234D01*
X148472970Y-87356635D01*
X148467220Y-87362385D01*
X148326683Y-87375897D01*
X148268027Y-87561578D01*
X147967105Y-87862500D01*
X147607895Y-87862500D01*
X147333646Y-87588251D01*
X147332947Y-87580213D01*
X147248317Y-87375897D01*
X147107780Y-87362385D01*
X147102030Y-87356635D01*
X147075000Y-87359234D01*
X147047970Y-87356635D01*
X147042220Y-87362385D01*
X146901683Y-87375897D01*
X146843027Y-87561578D01*
X146542105Y-87862500D01*
X146182895Y-87862500D01*
X145677030Y-87356635D01*
X145476683Y-87375897D01*
X145357897Y-87751925D01*
X144123969Y-87751925D01*
X144127000Y-87744609D01*
X144127000Y-87618290D01*
X144698270Y-87047020D01*
X145869135Y-87047020D01*
X145856635Y-87177030D01*
X146362500Y-87682895D01*
X146868365Y-87177030D01*
X146855865Y-87047020D01*
X147294135Y-87047020D01*
X147281635Y-87177030D01*
X147787500Y-87682895D01*
X148293365Y-87177030D01*
X148706635Y-87177030D01*
X149212500Y-87682895D01*
X149718365Y-87177030D01*
X150131635Y-87177030D01*
X150637500Y-87682895D01*
X151143365Y-87177030D01*
X151124103Y-86976683D01*
X150748075Y-86857897D01*
X150355213Y-86892053D01*
X150150897Y-86976683D01*
X150131635Y-87177030D01*
X149718365Y-87177030D01*
X149699103Y-86976683D01*
X149323075Y-86857897D01*
X148930213Y-86892053D01*
X148725897Y-86976683D01*
X148706635Y-87177030D01*
X148293365Y-87177030D01*
X148274643Y-86982298D01*
X148397862Y-86899965D01*
X148427263Y-86855964D01*
X149676196Y-85607030D01*
X152104596Y-85607030D01*
X152156494Y-85617353D01*
X152208392Y-85607030D01*
X152208397Y-85607030D01*
X152362119Y-85576453D01*
X152536439Y-85459975D01*
X152565840Y-85415974D01*
X155335945Y-82645868D01*
X155379945Y-82616468D01*
X155409351Y-82572459D01*
X155414770Y-82567040D01*
X158158062Y-82567040D01*
X158209960Y-82577363D01*
X158261858Y-82567040D01*
X158261863Y-82567040D01*
X158415585Y-82536463D01*
X158589905Y-82419985D01*
X158619306Y-82375984D01*
X159718291Y-81277000D01*
X160781710Y-81277000D01*
X161273000Y-81768291D01*
X161273000Y-81894609D01*
X161383679Y-82161813D01*
X161588187Y-82366321D01*
X161855391Y-82477000D01*
X162144609Y-82477000D01*
X162411813Y-82366321D01*
X162616321Y-82161813D01*
X162727000Y-81894609D01*
X162727000Y-81605391D01*
X162616321Y-81338187D01*
X162411813Y-81133679D01*
X162390860Y-81125000D01*
X162411813Y-81116321D01*
X162616321Y-80911813D01*
X162727000Y-80644609D01*
X162727000Y-80355391D01*
X162616321Y-80088187D01*
X162528134Y-80000000D01*
X162616321Y-79911813D01*
X162727000Y-79644609D01*
X162727000Y-79355391D01*
X162616321Y-79088187D01*
X162528134Y-79000000D01*
X162616321Y-78911813D01*
X162705605Y-78696261D01*
X170473000Y-78696261D01*
X170473000Y-79303739D01*
X170705472Y-79864976D01*
X171135024Y-80294528D01*
X171696261Y-80527000D01*
X172303739Y-80527000D01*
X172864976Y-80294528D01*
X173294528Y-79864976D01*
X173527000Y-79303739D01*
X173527000Y-78696261D01*
X173294528Y-78135024D01*
X172864976Y-77705472D01*
X172303739Y-77473000D01*
X171696261Y-77473000D01*
X171135024Y-77705472D01*
X170705472Y-78135024D01*
X170473000Y-78696261D01*
X162705605Y-78696261D01*
X162727000Y-78644609D01*
X162727000Y-78355391D01*
X162616321Y-78088187D01*
X162411813Y-77883679D01*
X162144609Y-77773000D01*
X161855391Y-77773000D01*
X161588187Y-77883679D01*
X161498866Y-77973000D01*
X159851907Y-77973000D01*
X159800009Y-77962677D01*
X159748111Y-77973000D01*
X159748107Y-77973000D01*
X159594385Y-78003577D01*
X159420065Y-78120055D01*
X159390665Y-78164055D01*
X159277000Y-78277720D01*
X159277000Y-77968290D01*
X160308291Y-76937000D01*
X161748866Y-76937000D01*
X161838187Y-77026321D01*
X162105391Y-77137000D01*
X162394609Y-77137000D01*
X162661813Y-77026321D01*
X162866321Y-76821813D01*
X162977000Y-76554609D01*
X162977000Y-76265391D01*
X162866321Y-75998187D01*
X162661813Y-75793679D01*
X162394609Y-75683000D01*
X162105391Y-75683000D01*
X161838187Y-75793679D01*
X161748866Y-75883000D01*
X160727000Y-75883000D01*
X160727000Y-75605391D01*
X160694530Y-75527000D01*
X176847394Y-75527000D01*
X177373000Y-76052606D01*
X177373000Y-81500000D01*
X177382667Y-81548601D01*
X177410197Y-81589803D01*
X178410197Y-82589803D01*
X178451399Y-82617333D01*
X178500000Y-82627000D01*
X183947394Y-82627000D01*
X184473000Y-83152606D01*
X184473001Y-96847393D01*
X183947394Y-97373000D01*
X178500000Y-97373000D01*
X178451399Y-97382667D01*
X178410197Y-97410197D01*
X177410197Y-98410197D01*
X177382667Y-98451399D01*
X177373000Y-98500000D01*
X177373000Y-103947394D01*
X176847394Y-104473000D01*
X123152606Y-104473000D01*
X122627000Y-103947394D01*
X122627000Y-101355391D01*
X127523000Y-101355391D01*
X127523000Y-101644609D01*
X127633679Y-101911813D01*
X127723001Y-102001135D01*
X127723000Y-102698102D01*
X127712677Y-102750000D01*
X127723000Y-102801898D01*
X127723000Y-102801902D01*
X127753577Y-102955624D01*
X127765966Y-102974165D01*
X127827734Y-103066607D01*
X127870055Y-103129945D01*
X127914055Y-103159345D01*
X128340656Y-103585947D01*
X128370055Y-103629945D01*
X128414052Y-103659343D01*
X128414055Y-103659346D01*
X128544374Y-103746423D01*
X128576387Y-103752791D01*
X128698097Y-103777000D01*
X128698101Y-103777000D01*
X128750000Y-103787323D01*
X128801899Y-103777000D01*
X129748866Y-103777000D01*
X129838187Y-103866321D01*
X130105391Y-103977000D01*
X130394609Y-103977000D01*
X130661813Y-103866321D01*
X130866321Y-103661813D01*
X130977000Y-103394609D01*
X130977000Y-103105391D01*
X130866321Y-102838187D01*
X130661813Y-102633679D01*
X130394609Y-102523000D01*
X130105391Y-102523000D01*
X129838187Y-102633679D01*
X129748866Y-102723000D01*
X128968291Y-102723000D01*
X128777000Y-102531710D01*
X128777000Y-102001134D01*
X128866321Y-101911813D01*
X128977000Y-101644609D01*
X128977000Y-101355391D01*
X128866321Y-101088187D01*
X128661813Y-100883679D01*
X128394609Y-100773000D01*
X128105391Y-100773000D01*
X127838187Y-100883679D01*
X127633679Y-101088187D01*
X127523000Y-101355391D01*
X122627000Y-101355391D01*
X122627000Y-98500000D01*
X122617333Y-98451399D01*
X122589803Y-98410197D01*
X121589803Y-97410197D01*
X121548601Y-97382667D01*
X121500000Y-97373000D01*
X116052606Y-97373000D01*
X115527000Y-96847394D01*
X115527000Y-83152606D01*
X116052606Y-82627000D01*
X121500000Y-82627000D01*
X121548601Y-82617333D01*
X121589803Y-82589803D01*
X122589803Y-81589803D01*
X122617333Y-81548601D01*
X122627000Y-81500000D01*
X122627000Y-76052606D01*
X123152606Y-75527000D01*
X129078731Y-75527000D01*
X129005503Y-75636594D01*
X129005503Y-75636594D01*
G37*
X129005503Y-75636594D02*
X128973000Y-75800000D01*
X128973000Y-81400000D01*
X129005503Y-81563406D01*
X129078731Y-81673000D01*
X127831442Y-81673000D01*
X127749999Y-81656800D01*
X127668556Y-81673000D01*
X127668552Y-81673000D01*
X127427321Y-81720984D01*
X127349474Y-81773000D01*
X127224395Y-81856575D01*
X127153767Y-81903767D01*
X127107631Y-81972814D01*
X125722819Y-83357628D01*
X125653767Y-83403767D01*
X125470984Y-83677322D01*
X125423000Y-83918553D01*
X125423000Y-83918556D01*
X125406800Y-84000000D01*
X125423000Y-84081444D01*
X125423001Y-87668551D01*
X125406800Y-87750000D01*
X125470984Y-88072678D01*
X125525166Y-88153767D01*
X125653768Y-88346233D01*
X125722817Y-88392370D01*
X126607631Y-89277186D01*
X126653767Y-89346233D01*
X126722813Y-89392368D01*
X126722815Y-89392370D01*
X126927321Y-89529016D01*
X127250000Y-89593201D01*
X127331448Y-89577000D01*
X128041750Y-89577000D01*
X128104335Y-89670665D01*
X128526740Y-89952907D01*
X128763493Y-90000000D01*
X128526740Y-90047093D01*
X128104335Y-90329335D01*
X127822093Y-90751740D01*
X127722983Y-91250000D01*
X127822093Y-91748260D01*
X128104335Y-92170665D01*
X128526740Y-92452907D01*
X128763493Y-92500000D01*
X128526740Y-92547093D01*
X128104335Y-92829335D01*
X127858001Y-93198000D01*
X126476134Y-93198000D01*
X126411813Y-93133679D01*
X126144609Y-93023000D01*
X125855391Y-93023000D01*
X125588187Y-93133679D01*
X125383679Y-93338187D01*
X125273000Y-93605391D01*
X125273000Y-93894609D01*
X125383679Y-94161813D01*
X125588187Y-94366321D01*
X125855391Y-94477000D01*
X126144609Y-94477000D01*
X126411813Y-94366321D01*
X126476134Y-94302000D01*
X127858001Y-94302000D01*
X128104335Y-94670665D01*
X128526740Y-94952907D01*
X128899231Y-95027000D01*
X129400769Y-95027000D01*
X129773260Y-94952907D01*
X130195665Y-94670665D01*
X130477907Y-94248260D01*
X130577017Y-93750000D01*
X130477907Y-93251740D01*
X130195665Y-92829335D01*
X129773260Y-92547093D01*
X129536507Y-92500000D01*
X129773260Y-92452907D01*
X130195665Y-92170665D01*
X130477907Y-91748260D01*
X130577017Y-91250000D01*
X130477907Y-90751740D01*
X130195665Y-90329335D01*
X129773260Y-90047093D01*
X129536507Y-90000000D01*
X129773260Y-89952907D01*
X130195665Y-89670665D01*
X130477907Y-89248260D01*
X130577017Y-88750000D01*
X130477907Y-88251740D01*
X130195665Y-87829335D01*
X130054483Y-87735000D01*
X130251310Y-87735000D01*
X130484699Y-87638327D01*
X130663327Y-87459698D01*
X130760000Y-87226309D01*
X130760000Y-86535750D01*
X130601250Y-86377000D01*
X129277000Y-86377000D01*
X129277000Y-86397000D01*
X129023000Y-86397000D01*
X129023000Y-86377000D01*
X127698750Y-86377000D01*
X127540000Y-86535750D01*
X127540000Y-87226309D01*
X127636673Y-87459698D01*
X127815301Y-87638327D01*
X128048690Y-87735000D01*
X128245517Y-87735000D01*
X128104335Y-87829335D01*
X128041750Y-87923000D01*
X127592554Y-87923000D01*
X127077000Y-87407446D01*
X127077000Y-85273691D01*
X127540000Y-85273691D01*
X127540000Y-85964250D01*
X127698750Y-86123000D01*
X129023000Y-86123000D01*
X129023000Y-84923750D01*
X129277000Y-84923750D01*
X129277000Y-86123000D01*
X130601250Y-86123000D01*
X130760000Y-85964250D01*
X130760000Y-85273691D01*
X130663327Y-85040302D01*
X130484699Y-84861673D01*
X130251310Y-84765000D01*
X129435750Y-84765000D01*
X129277000Y-84923750D01*
X129023000Y-84923750D01*
X128864250Y-84765000D01*
X128048690Y-84765000D01*
X127815301Y-84861673D01*
X127636673Y-85040302D01*
X127540000Y-85273691D01*
X127077000Y-85273691D01*
X127077000Y-84342553D01*
X128092555Y-83327000D01*
X138831448Y-83327000D01*
X139072679Y-83279016D01*
X139346233Y-83096233D01*
X139529016Y-82822679D01*
X139593201Y-82500000D01*
X139529016Y-82177321D01*
X139346233Y-81903767D01*
X139231343Y-81827000D01*
X140684680Y-81827000D01*
X140805391Y-81877000D01*
X141094609Y-81877000D01*
X141215320Y-81827000D01*
X141400000Y-81827000D01*
X141563406Y-81794497D01*
X141701935Y-81701935D01*
X141794497Y-81563406D01*
X141827000Y-81400000D01*
X141827000Y-79801133D01*
X142251134Y-79377000D01*
X145594609Y-79377000D01*
X145662063Y-79349060D01*
X145733661Y-79334818D01*
X145794358Y-79294262D01*
X145861813Y-79266321D01*
X145913442Y-79214692D01*
X145974137Y-79174137D01*
X146014692Y-79113442D01*
X146066321Y-79061813D01*
X146094262Y-78994358D01*
X146134818Y-78933661D01*
X146149060Y-78862063D01*
X146177000Y-78794609D01*
X146177000Y-78721599D01*
X146191242Y-78650000D01*
X146177000Y-78578401D01*
X146177000Y-78505391D01*
X146149060Y-78437937D01*
X146134818Y-78366339D01*
X146094262Y-78305642D01*
X146066321Y-78238187D01*
X146014692Y-78186558D01*
X145974137Y-78125863D01*
X145913442Y-78085308D01*
X145861813Y-78033679D01*
X145794358Y-78005738D01*
X145733661Y-77965182D01*
X145662063Y-77950940D01*
X145594609Y-77923000D01*
X142021595Y-77923000D01*
X141950000Y-77908759D01*
X141878405Y-77923000D01*
X141878401Y-77923000D01*
X141671261Y-77964203D01*
X141666339Y-77965182D01*
X141486561Y-78085305D01*
X141486558Y-78085308D01*
X141425863Y-78125863D01*
X141385307Y-78186559D01*
X140598868Y-78973000D01*
X133627000Y-78973000D01*
X133627000Y-76255391D01*
X141973000Y-76255391D01*
X141973000Y-76544609D01*
X142083679Y-76811813D01*
X142288187Y-77016321D01*
X142555391Y-77127000D01*
X142844609Y-77127000D01*
X143086031Y-77027000D01*
X145690289Y-77027000D01*
X146962087Y-78298799D01*
X146962088Y-79787836D01*
X146862087Y-80029260D01*
X146862087Y-80318478D01*
X146972766Y-80585682D01*
X147177274Y-80790190D01*
X147444478Y-80900869D01*
X147733696Y-80900869D01*
X148000900Y-80790190D01*
X148205408Y-80585682D01*
X148316087Y-80318478D01*
X148316087Y-80029260D01*
X148216087Y-79787838D01*
X148216087Y-78100832D01*
X148228369Y-78039086D01*
X148216087Y-77977338D01*
X148216087Y-77977337D01*
X148179707Y-77794444D01*
X148076106Y-77639394D01*
X148041128Y-77587046D01*
X147988781Y-77552069D01*
X146437020Y-76000309D01*
X146402041Y-75947959D01*
X146194643Y-75809380D01*
X146011750Y-75773000D01*
X146011746Y-75773000D01*
X145950000Y-75760718D01*
X145888254Y-75773000D01*
X143086031Y-75773000D01*
X142844609Y-75673000D01*
X142555391Y-75673000D01*
X142288187Y-75783679D01*
X142083679Y-75988187D01*
X141973000Y-76255391D01*
X133627000Y-76255391D01*
X133627000Y-75800000D01*
X133594497Y-75636594D01*
X133521269Y-75527000D01*
X158836288Y-75527000D01*
X157850307Y-76512982D01*
X157797960Y-76547959D01*
X157762982Y-76600307D01*
X157762981Y-76600308D01*
X157659380Y-76755358D01*
X157610718Y-77000000D01*
X157612381Y-77008361D01*
X157587206Y-76983186D01*
X157472926Y-77097466D01*
X157374264Y-76830613D01*
X156764539Y-76604092D01*
X156114540Y-76628144D01*
X155625736Y-76830613D01*
X155527073Y-77097468D01*
X156500000Y-78070395D01*
X156514143Y-78056253D01*
X156693748Y-78235858D01*
X156679605Y-78250000D01*
X156693748Y-78264143D01*
X156514143Y-78443748D01*
X156500000Y-78429605D01*
X156485858Y-78443748D01*
X156306253Y-78264143D01*
X156320395Y-78250000D01*
X155347468Y-77277073D01*
X155126759Y-77358675D01*
X154808331Y-77040247D01*
X154283848Y-76823000D01*
X153716152Y-76823000D01*
X153191669Y-77040247D01*
X152790247Y-77441669D01*
X152750000Y-77538834D01*
X152709753Y-77441669D01*
X152308331Y-77040247D01*
X151783848Y-76823000D01*
X151216152Y-76823000D01*
X150691669Y-77040247D01*
X150290247Y-77441669D01*
X150073000Y-77966152D01*
X150073000Y-78533848D01*
X150290247Y-79058331D01*
X150691669Y-79459753D01*
X151216152Y-79677000D01*
X151783848Y-79677000D01*
X152308331Y-79459753D01*
X152709753Y-79058331D01*
X152750000Y-78961166D01*
X152790247Y-79058331D01*
X153191669Y-79459753D01*
X153518258Y-79595030D01*
X150829610Y-82283679D01*
X150613969Y-82373000D01*
X148386031Y-82373000D01*
X148144609Y-82273000D01*
X147855391Y-82273000D01*
X147613969Y-82373000D01*
X146811745Y-82373000D01*
X146749999Y-82360718D01*
X146688253Y-82373000D01*
X146688250Y-82373000D01*
X146505357Y-82409380D01*
X146377000Y-82495145D01*
X146377000Y-81005391D01*
X146349060Y-80937937D01*
X146334818Y-80866339D01*
X146294262Y-80805642D01*
X146266321Y-80738187D01*
X146214692Y-80686558D01*
X146174137Y-80625863D01*
X146113442Y-80585308D01*
X146061813Y-80533679D01*
X145994358Y-80505738D01*
X145933661Y-80465182D01*
X145862063Y-80450940D01*
X145794609Y-80423000D01*
X145721599Y-80423000D01*
X145650000Y-80408758D01*
X145578401Y-80423000D01*
X145505391Y-80423000D01*
X145437936Y-80450940D01*
X145366340Y-80465182D01*
X145305645Y-80505737D01*
X145238187Y-80533679D01*
X145186556Y-80585310D01*
X145125864Y-80625863D01*
X145085311Y-80686555D01*
X145033679Y-80738187D01*
X145005737Y-80805646D01*
X144965183Y-80866339D01*
X144950942Y-80937933D01*
X144923000Y-81005391D01*
X144923000Y-81294609D01*
X144923001Y-81294611D01*
X144923000Y-82748867D01*
X144648868Y-83023000D01*
X143855391Y-83023000D01*
X143787937Y-83050940D01*
X143716339Y-83065182D01*
X143655642Y-83105738D01*
X143588187Y-83133679D01*
X143536558Y-83185308D01*
X143475863Y-83225863D01*
X143435308Y-83286558D01*
X143383679Y-83338187D01*
X143355738Y-83405642D01*
X143315182Y-83466339D01*
X143300940Y-83537937D01*
X143273000Y-83605391D01*
X143273000Y-83678401D01*
X143258758Y-83750000D01*
X143273000Y-83821599D01*
X143273000Y-83894609D01*
X143284760Y-83923000D01*
X142861744Y-83923000D01*
X142799999Y-83910718D01*
X142738254Y-83923000D01*
X142738250Y-83923000D01*
X142555357Y-83959380D01*
X142347959Y-84097959D01*
X142312981Y-84150307D01*
X141350307Y-85112982D01*
X141297960Y-85147959D01*
X141262982Y-85200307D01*
X141262981Y-85200308D01*
X141159380Y-85355358D01*
X141110718Y-85600000D01*
X141123001Y-85661751D01*
X141123000Y-86113967D01*
X141023000Y-86355391D01*
X141023000Y-86644609D01*
X141123001Y-86886034D01*
X141123000Y-89236289D01*
X140716321Y-88829610D01*
X140616321Y-88588187D01*
X140411813Y-88383679D01*
X140144609Y-88273000D01*
X139855391Y-88273000D01*
X139588187Y-88383679D01*
X139383679Y-88588187D01*
X139273000Y-88855391D01*
X139273000Y-89144609D01*
X139383679Y-89411813D01*
X139588187Y-89616321D01*
X139829610Y-89716321D01*
X140136288Y-90023000D01*
X139855391Y-90023000D01*
X139588187Y-90133679D01*
X139383679Y-90338187D01*
X139273000Y-90605391D01*
X139273000Y-90894609D01*
X139373000Y-91136032D01*
X139373001Y-93053966D01*
X139273000Y-93295391D01*
X139273000Y-93473000D01*
X132051899Y-93473000D01*
X132000000Y-93462677D01*
X131948101Y-93473000D01*
X131948097Y-93473000D01*
X131803565Y-93501749D01*
X131794375Y-93503577D01*
X131664055Y-93590654D01*
X131664052Y-93590657D01*
X131620055Y-93620055D01*
X131590656Y-93664053D01*
X130664056Y-94590654D01*
X130620055Y-94620055D01*
X130590655Y-94664055D01*
X130590654Y-94664056D01*
X130562879Y-94705624D01*
X130503577Y-94794376D01*
X130473000Y-94948098D01*
X130473000Y-94948102D01*
X130462677Y-95000000D01*
X130473000Y-95051898D01*
X130473001Y-95781709D01*
X130211700Y-96043010D01*
X129412476Y-96043010D01*
X129348155Y-95978689D01*
X129080951Y-95868010D01*
X128791733Y-95868010D01*
X128524529Y-95978689D01*
X128320021Y-96183197D01*
X128209342Y-96450401D01*
X128209342Y-96739619D01*
X128320021Y-97006823D01*
X128524529Y-97211331D01*
X128791733Y-97322010D01*
X129080951Y-97322010D01*
X129348155Y-97211331D01*
X129412476Y-97147010D01*
X130459355Y-97147010D01*
X130620370Y-97114982D01*
X130802960Y-96992980D01*
X130904950Y-96840340D01*
X131123000Y-96622290D01*
X131123001Y-101863966D01*
X131023000Y-102105391D01*
X131023000Y-102394609D01*
X131133679Y-102661813D01*
X131338187Y-102866321D01*
X131605391Y-102977000D01*
X131894609Y-102977000D01*
X132161813Y-102866321D01*
X132366321Y-102661813D01*
X132477000Y-102394609D01*
X132477000Y-102105391D01*
X132377000Y-101863969D01*
X132377000Y-95759711D01*
X132669713Y-95466999D01*
X135273000Y-95466999D01*
X135273000Y-95644609D01*
X135373000Y-95886032D01*
X135373001Y-98113966D01*
X135273000Y-98355391D01*
X135273000Y-98644609D01*
X135383679Y-98911813D01*
X135588187Y-99116321D01*
X135855391Y-99227000D01*
X136144609Y-99227000D01*
X136373001Y-99132397D01*
X136373001Y-99188245D01*
X136373000Y-99188250D01*
X136373000Y-99740289D01*
X136240289Y-99873000D01*
X135136031Y-99873000D01*
X134894609Y-99773000D01*
X134605391Y-99773000D01*
X134338187Y-99883679D01*
X134133679Y-100088187D01*
X134023000Y-100355391D01*
X134023000Y-100644609D01*
X134038891Y-100682975D01*
X133883679Y-100838187D01*
X133773000Y-101105391D01*
X133773000Y-101394609D01*
X133882316Y-101658521D01*
X133790736Y-101879615D01*
X133790736Y-102168833D01*
X133901415Y-102436037D01*
X134105923Y-102640545D01*
X134373127Y-102751224D01*
X134662345Y-102751224D01*
X134929549Y-102640545D01*
X135018870Y-102551224D01*
X142693528Y-102551224D01*
X142745426Y-102561547D01*
X142797324Y-102551224D01*
X142797329Y-102551224D01*
X142951051Y-102520647D01*
X143125371Y-102404169D01*
X143154771Y-102360169D01*
X143198057Y-102316883D01*
X143324376Y-102316883D01*
X143591580Y-102206204D01*
X143673000Y-102124784D01*
X143673000Y-102263957D01*
X143875024Y-102751685D01*
X144248315Y-103124976D01*
X144736043Y-103327000D01*
X145263957Y-103327000D01*
X145751685Y-103124976D01*
X146124976Y-102751685D01*
X146250000Y-102449851D01*
X146375024Y-102751685D01*
X146748315Y-103124976D01*
X147236043Y-103327000D01*
X147763957Y-103327000D01*
X148251685Y-103124976D01*
X148624976Y-102751685D01*
X148750000Y-102449851D01*
X148875024Y-102751685D01*
X149248315Y-103124976D01*
X149736043Y-103327000D01*
X150263957Y-103327000D01*
X150751685Y-103124976D01*
X150796502Y-103080159D01*
X151599446Y-103080159D01*
X151685852Y-103336643D01*
X152259336Y-103546458D01*
X152869460Y-103520839D01*
X153314148Y-103336643D01*
X153400554Y-103080159D01*
X152500000Y-102179605D01*
X151599446Y-103080159D01*
X150796502Y-103080159D01*
X151124976Y-102751685D01*
X151131230Y-102736587D01*
X151163357Y-102814148D01*
X151419841Y-102900554D01*
X152320395Y-102000000D01*
X152679605Y-102000000D01*
X153580159Y-102900554D01*
X153664635Y-102872095D01*
X153664635Y-102900000D01*
X153697775Y-103066607D01*
X153792150Y-103207850D01*
X153933393Y-103302225D01*
X154100000Y-103335365D01*
X155900000Y-103335365D01*
X156066607Y-103302225D01*
X156207850Y-103207850D01*
X156302225Y-103066607D01*
X156335365Y-102900000D01*
X156335365Y-102535750D01*
X162415000Y-102535750D01*
X162415000Y-103326310D01*
X162511673Y-103559699D01*
X162690302Y-103738327D01*
X162923691Y-103835000D01*
X163814250Y-103835000D01*
X163973000Y-103676250D01*
X163973000Y-102377000D01*
X164227000Y-102377000D01*
X164227000Y-103676250D01*
X164385750Y-103835000D01*
X165276309Y-103835000D01*
X165509698Y-103738327D01*
X165688327Y-103559699D01*
X165785000Y-103326310D01*
X165785000Y-102535750D01*
X169715000Y-102535750D01*
X169715000Y-103326310D01*
X169811673Y-103559699D01*
X169990302Y-103738327D01*
X170223691Y-103835000D01*
X171114250Y-103835000D01*
X171273000Y-103676250D01*
X171273000Y-102377000D01*
X171527000Y-102377000D01*
X171527000Y-103676250D01*
X171685750Y-103835000D01*
X172576309Y-103835000D01*
X172809698Y-103738327D01*
X172988327Y-103559699D01*
X173085000Y-103326310D01*
X173085000Y-102535750D01*
X172926250Y-102377000D01*
X171527000Y-102377000D01*
X171273000Y-102377000D01*
X169873750Y-102377000D01*
X169715000Y-102535750D01*
X165785000Y-102535750D01*
X165626250Y-102377000D01*
X164227000Y-102377000D01*
X163973000Y-102377000D01*
X162573750Y-102377000D01*
X162415000Y-102535750D01*
X156335365Y-102535750D01*
X156335365Y-101100000D01*
X156302225Y-100933393D01*
X156207850Y-100792150D01*
X156066607Y-100697775D01*
X155900000Y-100664635D01*
X154100000Y-100664635D01*
X153933393Y-100697775D01*
X153792150Y-100792150D01*
X153697775Y-100933393D01*
X153664635Y-101100000D01*
X153664635Y-101127905D01*
X153580159Y-101099446D01*
X152679605Y-102000000D01*
X152320395Y-102000000D01*
X151419841Y-101099446D01*
X151163357Y-101185852D01*
X151133221Y-101268221D01*
X151124976Y-101248315D01*
X150751685Y-100875024D01*
X150505205Y-100772929D01*
X150616321Y-100661813D01*
X150727000Y-100394609D01*
X150727000Y-100105391D01*
X150616321Y-99838187D01*
X150411813Y-99633679D01*
X150187000Y-99540559D01*
X150187000Y-99355391D01*
X150076321Y-99088187D01*
X149871813Y-98883679D01*
X149604609Y-98773000D01*
X149315391Y-98773000D01*
X149048187Y-98883679D01*
X148958866Y-98973000D01*
X146279105Y-98973000D01*
X146227207Y-98962677D01*
X146175309Y-98973000D01*
X146175305Y-98973000D01*
X146021583Y-99003577D01*
X146018918Y-99005358D01*
X145891263Y-99090654D01*
X145891260Y-99090657D01*
X145847263Y-99120055D01*
X145817864Y-99164053D01*
X144664053Y-100317865D01*
X144620056Y-100347263D01*
X144590658Y-100391260D01*
X144590654Y-100391264D01*
X144517999Y-100500000D01*
X144503578Y-100521583D01*
X144473460Y-100673000D01*
X144462677Y-100727208D01*
X144473001Y-100779110D01*
X144473001Y-100781956D01*
X144248315Y-100875024D01*
X143875024Y-101248315D01*
X143850104Y-101308477D01*
X143796088Y-101178070D01*
X143591580Y-100973562D01*
X143324376Y-100862883D01*
X143126550Y-100862883D01*
X143116321Y-100838187D01*
X142911813Y-100633679D01*
X142644609Y-100523000D01*
X142355391Y-100523000D01*
X142088187Y-100633679D01*
X141998866Y-100723000D01*
X137163711Y-100723000D01*
X137399691Y-100487020D01*
X137452041Y-100452041D01*
X137590620Y-100244643D01*
X137627000Y-100061750D01*
X137627000Y-100061746D01*
X137639282Y-100000000D01*
X137627000Y-99938254D01*
X137627000Y-97509711D01*
X137759711Y-97377000D01*
X138115414Y-97377000D01*
X138090655Y-97414055D01*
X138090654Y-97414056D01*
X138062879Y-97455625D01*
X138003577Y-97544376D01*
X137973000Y-97698098D01*
X137973000Y-97698102D01*
X137962677Y-97750000D01*
X137973000Y-97801898D01*
X137973000Y-97998866D01*
X137883679Y-98088187D01*
X137773000Y-98355391D01*
X137773000Y-98644609D01*
X137883679Y-98911813D01*
X138088187Y-99116321D01*
X138355391Y-99227000D01*
X138644609Y-99227000D01*
X138911813Y-99116321D01*
X139116321Y-98911813D01*
X139125000Y-98890860D01*
X139133679Y-98911813D01*
X139338187Y-99116321D01*
X139605391Y-99227000D01*
X139894609Y-99227000D01*
X140161813Y-99116321D01*
X140366321Y-98911813D01*
X140477000Y-98644609D01*
X140477000Y-98355391D01*
X140469382Y-98337000D01*
X143786269Y-98337000D01*
X143875590Y-98426321D01*
X144142794Y-98537000D01*
X144432012Y-98537000D01*
X144699216Y-98426321D01*
X144903724Y-98221813D01*
X145014403Y-97954609D01*
X145014403Y-97665391D01*
X144998501Y-97627000D01*
X150990289Y-97627000D01*
X151473001Y-98109713D01*
X151473000Y-99238253D01*
X151460718Y-99300000D01*
X151473000Y-99361746D01*
X151473000Y-99361749D01*
X151509380Y-99544642D01*
X151647959Y-99752041D01*
X151700309Y-99787020D01*
X152212983Y-100299695D01*
X152247961Y-100352043D01*
X152300309Y-100387021D01*
X152420015Y-100467006D01*
X152130540Y-100479161D01*
X151685852Y-100663357D01*
X151599446Y-100919841D01*
X152500000Y-101820395D01*
X153400554Y-100919841D01*
X153314148Y-100663357D01*
X152941451Y-100527002D01*
X155613969Y-100527002D01*
X155855391Y-100627002D01*
X156144609Y-100627002D01*
X156386031Y-100527002D01*
X156838252Y-100527002D01*
X156899998Y-100539284D01*
X156961744Y-100527002D01*
X156961748Y-100527002D01*
X157144641Y-100490622D01*
X157352039Y-100352043D01*
X157387018Y-100299693D01*
X157723001Y-99963711D01*
X157723001Y-100198097D01*
X157712677Y-100250000D01*
X157723001Y-100301902D01*
X157723001Y-100301903D01*
X157729189Y-100333010D01*
X157753578Y-100455625D01*
X157840654Y-100585944D01*
X157840658Y-100585948D01*
X157870056Y-100629945D01*
X157914053Y-100659343D01*
X158450665Y-101195955D01*
X158480065Y-101239955D01*
X158654385Y-101356433D01*
X158808107Y-101387010D01*
X158808111Y-101387010D01*
X158860009Y-101397333D01*
X158911907Y-101387010D01*
X162415000Y-101387010D01*
X162415000Y-101964250D01*
X162573750Y-102123000D01*
X163973000Y-102123000D01*
X163973000Y-102103000D01*
X164227000Y-102103000D01*
X164227000Y-102123000D01*
X165626250Y-102123000D01*
X165785000Y-101964250D01*
X165785000Y-101387010D01*
X167338092Y-101387010D01*
X167389990Y-101397333D01*
X167441888Y-101387010D01*
X167441893Y-101387010D01*
X167595615Y-101356433D01*
X167769935Y-101239955D01*
X167799335Y-101195955D01*
X167821600Y-101173690D01*
X169715000Y-101173690D01*
X169715000Y-101964250D01*
X169873750Y-102123000D01*
X171273000Y-102123000D01*
X171273000Y-100823750D01*
X171527000Y-100823750D01*
X171527000Y-102123000D01*
X172926250Y-102123000D01*
X173085000Y-101964250D01*
X173085000Y-101173690D01*
X172988327Y-100940301D01*
X172809698Y-100761673D01*
X172576309Y-100665000D01*
X171685750Y-100665000D01*
X171527000Y-100823750D01*
X171273000Y-100823750D01*
X171114250Y-100665000D01*
X170223691Y-100665000D01*
X169990302Y-100761673D01*
X169811673Y-100940301D01*
X169715000Y-101173690D01*
X167821600Y-101173690D01*
X168335945Y-100659345D01*
X168379945Y-100629945D01*
X168496423Y-100455625D01*
X168527000Y-100301903D01*
X168527000Y-100301899D01*
X168537323Y-100250001D01*
X168527000Y-100198103D01*
X168527000Y-99557901D01*
X169034963Y-99557901D01*
X169201303Y-99978349D01*
X169515880Y-100303136D01*
X169869190Y-100468964D01*
X170048000Y-100343163D01*
X170048000Y-99377000D01*
X170302000Y-99377000D01*
X170302000Y-100343163D01*
X170480810Y-100468964D01*
X170834120Y-100303136D01*
X171148697Y-99978349D01*
X171315037Y-99557901D01*
X171174774Y-99377000D01*
X170302000Y-99377000D01*
X170048000Y-99377000D01*
X169175226Y-99377000D01*
X169034963Y-99557901D01*
X168527000Y-99557901D01*
X168527000Y-98942099D01*
X169034963Y-98942099D01*
X169175226Y-99123000D01*
X170048000Y-99123000D01*
X170048000Y-98156837D01*
X170302000Y-98156837D01*
X170302000Y-99123000D01*
X171174774Y-99123000D01*
X171315037Y-98942099D01*
X171148697Y-98521651D01*
X170834120Y-98196864D01*
X170480810Y-98031036D01*
X170302000Y-98156837D01*
X170048000Y-98156837D01*
X169869190Y-98031036D01*
X169515880Y-98196864D01*
X169201303Y-98521651D01*
X169034963Y-98942099D01*
X168527000Y-98942099D01*
X168527000Y-98751134D01*
X168616321Y-98661813D01*
X168727000Y-98394609D01*
X168727000Y-98105391D01*
X168616321Y-97838187D01*
X168411813Y-97633679D01*
X168144609Y-97523000D01*
X167855391Y-97523000D01*
X167588187Y-97633679D01*
X167500000Y-97721866D01*
X167411813Y-97633679D01*
X167144609Y-97523000D01*
X166855391Y-97523000D01*
X166588187Y-97633679D01*
X166383679Y-97838187D01*
X166273000Y-98105391D01*
X166273000Y-98394609D01*
X166383679Y-98661813D01*
X166473001Y-98751135D01*
X166473001Y-99122998D01*
X166324776Y-99122998D01*
X166465037Y-98942099D01*
X166298697Y-98521651D01*
X165984120Y-98196864D01*
X165630810Y-98031036D01*
X165452000Y-98156837D01*
X165452000Y-99123000D01*
X165472000Y-99123000D01*
X165472000Y-99377000D01*
X165452000Y-99377000D01*
X165452000Y-99397000D01*
X165198000Y-99397000D01*
X165198000Y-99377000D01*
X164325226Y-99377000D01*
X164184963Y-99557901D01*
X164349187Y-99973000D01*
X163694530Y-99973000D01*
X163727000Y-99894609D01*
X163727000Y-99605391D01*
X163616321Y-99338187D01*
X163411813Y-99133679D01*
X163144609Y-99023000D01*
X163018291Y-99023000D01*
X162937390Y-98942099D01*
X164184963Y-98942099D01*
X164325226Y-99123000D01*
X165198000Y-99123000D01*
X165198000Y-98156837D01*
X165019190Y-98031036D01*
X164665880Y-98196864D01*
X164351303Y-98521651D01*
X164184963Y-98942099D01*
X162937390Y-98942099D01*
X162527000Y-98531710D01*
X162527000Y-96001134D01*
X162616321Y-95911813D01*
X162727000Y-95644609D01*
X162727000Y-95355391D01*
X162616321Y-95088187D01*
X162527000Y-94998866D01*
X162527000Y-94251134D01*
X162616321Y-94161813D01*
X162727000Y-93894609D01*
X162727000Y-93605391D01*
X162616321Y-93338187D01*
X162411813Y-93133679D01*
X162144609Y-93023000D01*
X161855391Y-93023000D01*
X161588187Y-93133679D01*
X161383679Y-93338187D01*
X161273000Y-93605391D01*
X161273000Y-93894609D01*
X161383679Y-94161813D01*
X161473000Y-94251134D01*
X161473001Y-94998865D01*
X161383679Y-95088187D01*
X161273000Y-95355391D01*
X161273000Y-95644609D01*
X161383679Y-95911813D01*
X161473000Y-96001134D01*
X161473001Y-98698097D01*
X161462677Y-98750000D01*
X161473001Y-98801903D01*
X161485814Y-98866321D01*
X161503578Y-98955625D01*
X161590654Y-99085944D01*
X161590658Y-99085948D01*
X161620056Y-99129945D01*
X161664053Y-99159343D01*
X162273000Y-99768291D01*
X162273000Y-99894609D01*
X162305470Y-99973000D01*
X161694530Y-99973000D01*
X161727000Y-99894609D01*
X161727000Y-99605391D01*
X161616321Y-99338187D01*
X161411813Y-99133679D01*
X161144609Y-99023000D01*
X161018291Y-99023000D01*
X160777000Y-98781710D01*
X160777000Y-90218290D01*
X160968291Y-90027000D01*
X161498866Y-90027000D01*
X161588187Y-90116321D01*
X161855391Y-90227000D01*
X162144609Y-90227000D01*
X162411813Y-90116321D01*
X162616321Y-89911813D01*
X162727000Y-89644609D01*
X162727000Y-89355391D01*
X162616321Y-89088187D01*
X162411813Y-88883679D01*
X162390860Y-88875000D01*
X162411813Y-88866321D01*
X162616321Y-88661813D01*
X162727000Y-88394609D01*
X162727000Y-88105391D01*
X162616321Y-87838187D01*
X162411813Y-87633679D01*
X162144609Y-87523000D01*
X161855391Y-87523000D01*
X161588187Y-87633679D01*
X161498866Y-87723000D01*
X160301899Y-87723000D01*
X160250000Y-87712677D01*
X160198101Y-87723000D01*
X160198097Y-87723000D01*
X160044375Y-87753577D01*
X159877000Y-87865414D01*
X159877000Y-87636031D01*
X159977000Y-87394609D01*
X159977000Y-87105391D01*
X159866321Y-86838187D01*
X159661813Y-86633679D01*
X159394609Y-86523000D01*
X159105391Y-86523000D01*
X158838187Y-86633679D01*
X158633679Y-86838187D01*
X158523000Y-87105391D01*
X158523000Y-87394609D01*
X158623001Y-87636034D01*
X158623000Y-92023000D01*
X158355391Y-92023000D01*
X158088187Y-92133679D01*
X157883679Y-92338187D01*
X157773000Y-92605391D01*
X157773000Y-92894609D01*
X157883679Y-93161813D01*
X157973001Y-93251135D01*
X157973000Y-94281709D01*
X157781710Y-94473000D01*
X155364817Y-94473000D01*
X155377000Y-94411750D01*
X155377000Y-94411746D01*
X155389282Y-94350000D01*
X155377000Y-94288254D01*
X155377000Y-94136031D01*
X155477000Y-93894609D01*
X155477000Y-93605391D01*
X155366321Y-93338187D01*
X155161813Y-93133679D01*
X154894609Y-93023000D01*
X154605391Y-93023000D01*
X154338187Y-93133679D01*
X154133679Y-93338187D01*
X154023000Y-93605391D01*
X154023000Y-93894609D01*
X154109602Y-94103687D01*
X152590289Y-95623000D01*
X151561746Y-95623000D01*
X151500000Y-95610718D01*
X151438254Y-95623000D01*
X146227000Y-95623000D01*
X146227000Y-95445391D01*
X146116321Y-95178187D01*
X146027000Y-95088866D01*
X146027000Y-94301897D01*
X146037323Y-94249999D01*
X146027000Y-94198101D01*
X146027000Y-94198097D01*
X145996423Y-94044375D01*
X145879945Y-93870055D01*
X145835942Y-93840653D01*
X145659346Y-93664056D01*
X145629945Y-93620055D01*
X145455625Y-93503577D01*
X145301903Y-93473000D01*
X145301898Y-93473000D01*
X145250000Y-93462677D01*
X145198102Y-93473000D01*
X142305134Y-93473000D01*
X142366321Y-93411813D01*
X142477000Y-93144609D01*
X142477000Y-92855391D01*
X142463571Y-92822970D01*
X145856635Y-92822970D01*
X145875897Y-93023317D01*
X146251925Y-93142103D01*
X146644787Y-93107947D01*
X146849103Y-93023317D01*
X146868365Y-92822970D01*
X147281635Y-92822970D01*
X147300897Y-93023317D01*
X147676925Y-93142103D01*
X148069787Y-93107947D01*
X148274103Y-93023317D01*
X148293365Y-92822970D01*
X148706635Y-92822970D01*
X148725897Y-93023317D01*
X149101925Y-93142103D01*
X149494787Y-93107947D01*
X149699103Y-93023317D01*
X149718365Y-92822970D01*
X150131635Y-92822970D01*
X150150897Y-93023317D01*
X150526925Y-93142103D01*
X150919787Y-93107947D01*
X151124103Y-93023317D01*
X151143365Y-92822970D01*
X150637500Y-92317105D01*
X150131635Y-92822970D01*
X149718365Y-92822970D01*
X149212500Y-92317105D01*
X148706635Y-92822970D01*
X148293365Y-92822970D01*
X147787500Y-92317105D01*
X147281635Y-92822970D01*
X146868365Y-92822970D01*
X146362500Y-92317105D01*
X145856635Y-92822970D01*
X142463571Y-92822970D01*
X142377000Y-92613969D01*
X142377000Y-92026925D01*
X145357897Y-92026925D01*
X145392053Y-92419787D01*
X145476683Y-92624103D01*
X145677030Y-92643365D01*
X146182895Y-92137500D01*
X146542105Y-92137500D01*
X146816354Y-92411749D01*
X146817053Y-92419787D01*
X146901683Y-92624103D01*
X147042220Y-92637615D01*
X147047970Y-92643365D01*
X147075000Y-92640766D01*
X147102030Y-92643365D01*
X147107780Y-92637615D01*
X147248317Y-92624103D01*
X147306973Y-92438422D01*
X147607895Y-92137500D01*
X147967105Y-92137500D01*
X148241354Y-92411749D01*
X148242053Y-92419787D01*
X148326683Y-92624103D01*
X148467220Y-92637615D01*
X148472970Y-92643365D01*
X148500000Y-92640766D01*
X148527030Y-92643365D01*
X148532780Y-92637615D01*
X148673317Y-92624103D01*
X148731973Y-92438422D01*
X149032895Y-92137500D01*
X149392105Y-92137500D01*
X149666354Y-92411749D01*
X149667053Y-92419787D01*
X149751683Y-92624103D01*
X149892220Y-92637615D01*
X149897970Y-92643365D01*
X149925000Y-92640766D01*
X149952030Y-92643365D01*
X149957780Y-92637615D01*
X150098317Y-92624103D01*
X150156973Y-92438422D01*
X150457895Y-92137500D01*
X150817105Y-92137500D01*
X151322970Y-92643365D01*
X151523317Y-92624103D01*
X151642103Y-92248075D01*
X151607947Y-91855213D01*
X151523317Y-91650897D01*
X151322970Y-91631635D01*
X150817105Y-92137500D01*
X150457895Y-92137500D01*
X150183646Y-91863251D01*
X150182947Y-91855213D01*
X150098317Y-91650897D01*
X149957780Y-91637385D01*
X149952030Y-91631635D01*
X149925000Y-91634234D01*
X149897970Y-91631635D01*
X149892220Y-91637385D01*
X149751683Y-91650897D01*
X149693027Y-91836578D01*
X149392105Y-92137500D01*
X149032895Y-92137500D01*
X148758646Y-91863251D01*
X148757947Y-91855213D01*
X148673317Y-91650897D01*
X148532780Y-91637385D01*
X148527030Y-91631635D01*
X148500000Y-91634234D01*
X148472970Y-91631635D01*
X148467220Y-91637385D01*
X148326683Y-91650897D01*
X148268027Y-91836578D01*
X147967105Y-92137500D01*
X147607895Y-92137500D01*
X147333646Y-91863251D01*
X147332947Y-91855213D01*
X147248317Y-91650897D01*
X147107780Y-91637385D01*
X147102030Y-91631635D01*
X147075000Y-91634234D01*
X147047970Y-91631635D01*
X147042220Y-91637385D01*
X146901683Y-91650897D01*
X146843027Y-91836578D01*
X146542105Y-92137500D01*
X146182895Y-92137500D01*
X145677030Y-91631635D01*
X145476683Y-91650897D01*
X145357897Y-92026925D01*
X142377000Y-92026925D01*
X142377000Y-91397970D01*
X145856635Y-91397970D01*
X145859234Y-91425000D01*
X145856635Y-91452030D01*
X145862385Y-91457780D01*
X145875897Y-91598317D01*
X146061578Y-91656973D01*
X146362500Y-91957895D01*
X146636749Y-91683646D01*
X146644787Y-91682947D01*
X146849103Y-91598317D01*
X146862615Y-91457780D01*
X146868365Y-91452030D01*
X146865766Y-91425000D01*
X146868365Y-91397970D01*
X147281635Y-91397970D01*
X147284234Y-91425000D01*
X147281635Y-91452030D01*
X147287385Y-91457780D01*
X147300897Y-91598317D01*
X147486578Y-91656973D01*
X147787500Y-91957895D01*
X148061749Y-91683646D01*
X148069787Y-91682947D01*
X148274103Y-91598317D01*
X148287615Y-91457780D01*
X148293365Y-91452030D01*
X148290766Y-91425000D01*
X148293365Y-91397970D01*
X148706635Y-91397970D01*
X148709234Y-91425000D01*
X148706635Y-91452030D01*
X148712385Y-91457780D01*
X148725897Y-91598317D01*
X148911578Y-91656973D01*
X149212500Y-91957895D01*
X149486749Y-91683646D01*
X149494787Y-91682947D01*
X149699103Y-91598317D01*
X149712615Y-91457780D01*
X149718365Y-91452030D01*
X149715766Y-91425000D01*
X149718365Y-91397970D01*
X150131635Y-91397970D01*
X150134234Y-91425000D01*
X150131635Y-91452030D01*
X150137385Y-91457780D01*
X150150897Y-91598317D01*
X150336578Y-91656973D01*
X150637500Y-91957895D01*
X150911749Y-91683646D01*
X150919787Y-91682947D01*
X151124103Y-91598317D01*
X151137615Y-91457780D01*
X151143365Y-91452030D01*
X151140766Y-91425000D01*
X151143365Y-91397970D01*
X151137615Y-91392220D01*
X151124103Y-91251683D01*
X150938422Y-91193027D01*
X150637500Y-90892105D01*
X150363251Y-91166354D01*
X150355213Y-91167053D01*
X150150897Y-91251683D01*
X150137385Y-91392220D01*
X150131635Y-91397970D01*
X149718365Y-91397970D01*
X149712615Y-91392220D01*
X149699103Y-91251683D01*
X149513422Y-91193027D01*
X149212500Y-90892105D01*
X148938251Y-91166354D01*
X148930213Y-91167053D01*
X148725897Y-91251683D01*
X148712385Y-91392220D01*
X148706635Y-91397970D01*
X148293365Y-91397970D01*
X148287615Y-91392220D01*
X148274103Y-91251683D01*
X148088422Y-91193027D01*
X147787500Y-90892105D01*
X147513251Y-91166354D01*
X147505213Y-91167053D01*
X147300897Y-91251683D01*
X147287385Y-91392220D01*
X147281635Y-91397970D01*
X146868365Y-91397970D01*
X146862615Y-91392220D01*
X146849103Y-91251683D01*
X146663422Y-91193027D01*
X146362500Y-90892105D01*
X146088251Y-91166354D01*
X146080213Y-91167053D01*
X145875897Y-91251683D01*
X145862385Y-91392220D01*
X145856635Y-91397970D01*
X142377000Y-91397970D01*
X142377000Y-90386031D01*
X142477000Y-90144609D01*
X142477000Y-89855391D01*
X142377000Y-89613969D01*
X142377000Y-89372290D01*
X143340656Y-90335947D01*
X143370055Y-90379945D01*
X143414052Y-90409343D01*
X143414055Y-90409346D01*
X143544374Y-90496423D01*
X143576387Y-90502791D01*
X143698097Y-90527000D01*
X143698101Y-90527000D01*
X143750000Y-90537323D01*
X143801899Y-90527000D01*
X145381566Y-90527000D01*
X145357897Y-90601925D01*
X145392053Y-90994787D01*
X145476683Y-91199103D01*
X145677030Y-91218365D01*
X146182895Y-90712500D01*
X146168753Y-90698358D01*
X146340110Y-90527000D01*
X146356605Y-90527000D01*
X146362500Y-90532895D01*
X146368395Y-90527000D01*
X146384890Y-90527000D01*
X146556248Y-90698358D01*
X146542105Y-90712500D01*
X146816354Y-90986749D01*
X146817053Y-90994787D01*
X146901683Y-91199103D01*
X147042220Y-91212615D01*
X147047970Y-91218365D01*
X147075000Y-91215766D01*
X147102030Y-91218365D01*
X147107780Y-91212615D01*
X147248317Y-91199103D01*
X147306973Y-91013422D01*
X147607895Y-90712500D01*
X147593753Y-90698358D01*
X147765110Y-90527000D01*
X147781605Y-90527000D01*
X147787500Y-90532895D01*
X147793395Y-90527000D01*
X147809890Y-90527000D01*
X147981248Y-90698358D01*
X147967105Y-90712500D01*
X148241354Y-90986749D01*
X148242053Y-90994787D01*
X148326683Y-91199103D01*
X148467220Y-91212615D01*
X148472970Y-91218365D01*
X148500000Y-91215766D01*
X148527030Y-91218365D01*
X148532780Y-91212615D01*
X148673317Y-91199103D01*
X148731973Y-91013422D01*
X149032895Y-90712500D01*
X149018753Y-90698358D01*
X149190110Y-90527000D01*
X149206605Y-90527000D01*
X149212500Y-90532895D01*
X149218395Y-90527000D01*
X149234890Y-90527000D01*
X149406248Y-90698358D01*
X149392105Y-90712500D01*
X149666354Y-90986749D01*
X149667053Y-90994787D01*
X149751683Y-91199103D01*
X149892220Y-91212615D01*
X149897970Y-91218365D01*
X149925000Y-91215766D01*
X149952030Y-91218365D01*
X149957780Y-91212615D01*
X150098317Y-91199103D01*
X150156973Y-91013422D01*
X150457895Y-90712500D01*
X150443753Y-90698358D01*
X150615110Y-90527000D01*
X150631605Y-90527000D01*
X150637500Y-90532895D01*
X150643395Y-90527000D01*
X150659890Y-90527000D01*
X150831248Y-90698358D01*
X150817105Y-90712500D01*
X151322970Y-91218365D01*
X151523317Y-91199103D01*
X151642103Y-90823075D01*
X151616362Y-90527000D01*
X153506665Y-90527000D01*
X153507804Y-90528139D01*
X153507804Y-90654458D01*
X153618483Y-90921662D01*
X153822991Y-91126170D01*
X154090195Y-91236849D01*
X154379413Y-91236849D01*
X154646617Y-91126170D01*
X154851125Y-90921662D01*
X154961804Y-90654458D01*
X154961804Y-90365240D01*
X154851125Y-90098036D01*
X154646617Y-89893528D01*
X154379413Y-89782849D01*
X154253094Y-89782849D01*
X154134300Y-89664055D01*
X154104900Y-89620055D01*
X153930580Y-89503577D01*
X153776858Y-89473000D01*
X153776853Y-89473000D01*
X153724955Y-89462677D01*
X153673057Y-89473000D01*
X151618434Y-89473000D01*
X151642103Y-89398075D01*
X151607947Y-89005213D01*
X151523317Y-88800897D01*
X151322970Y-88781635D01*
X150817105Y-89287500D01*
X150831248Y-89301643D01*
X150659890Y-89473000D01*
X150643395Y-89473000D01*
X150637500Y-89467105D01*
X150631605Y-89473000D01*
X150615110Y-89473000D01*
X150443753Y-89301643D01*
X150457895Y-89287500D01*
X150183646Y-89013251D01*
X150182947Y-89005213D01*
X150098317Y-88800897D01*
X149957780Y-88787385D01*
X149952030Y-88781635D01*
X149925000Y-88784234D01*
X149897970Y-88781635D01*
X149892220Y-88787385D01*
X149751683Y-88800897D01*
X149693027Y-88986578D01*
X149392105Y-89287500D01*
X149406248Y-89301643D01*
X149234890Y-89473000D01*
X149218395Y-89473000D01*
X149212500Y-89467105D01*
X149206605Y-89473000D01*
X149190110Y-89473000D01*
X149018753Y-89301643D01*
X149032895Y-89287500D01*
X148758646Y-89013251D01*
X148757947Y-89005213D01*
X148673317Y-88800897D01*
X148532780Y-88787385D01*
X148527030Y-88781635D01*
X148500000Y-88784234D01*
X148472970Y-88781635D01*
X148467220Y-88787385D01*
X148326683Y-88800897D01*
X148268027Y-88986578D01*
X147967105Y-89287500D01*
X147981248Y-89301643D01*
X147809890Y-89473000D01*
X147793395Y-89473000D01*
X147787500Y-89467105D01*
X147781605Y-89473000D01*
X147765110Y-89473000D01*
X147593753Y-89301643D01*
X147607895Y-89287500D01*
X147333646Y-89013251D01*
X147332947Y-89005213D01*
X147248317Y-88800897D01*
X147107780Y-88787385D01*
X147102030Y-88781635D01*
X147075000Y-88784234D01*
X147047970Y-88781635D01*
X147042220Y-88787385D01*
X146901683Y-88800897D01*
X146843027Y-88986578D01*
X146542105Y-89287500D01*
X146556248Y-89301643D01*
X146384890Y-89473000D01*
X146368395Y-89473000D01*
X146362500Y-89467105D01*
X146356605Y-89473000D01*
X146340110Y-89473000D01*
X146168753Y-89301643D01*
X146182895Y-89287500D01*
X145677030Y-88781635D01*
X145476683Y-88800897D01*
X145357897Y-89176925D01*
X145383638Y-89473000D01*
X143968291Y-89473000D01*
X143043261Y-88547970D01*
X145856635Y-88547970D01*
X145859234Y-88575000D01*
X145856635Y-88602030D01*
X145862385Y-88607780D01*
X145875897Y-88748317D01*
X146061578Y-88806973D01*
X146362500Y-89107895D01*
X146636749Y-88833646D01*
X146644787Y-88832947D01*
X146849103Y-88748317D01*
X146862615Y-88607780D01*
X146868365Y-88602030D01*
X146865766Y-88575000D01*
X146868365Y-88547970D01*
X147281635Y-88547970D01*
X147284234Y-88575000D01*
X147281635Y-88602030D01*
X147287385Y-88607780D01*
X147300897Y-88748317D01*
X147486578Y-88806973D01*
X147787500Y-89107895D01*
X148061749Y-88833646D01*
X148069787Y-88832947D01*
X148274103Y-88748317D01*
X148287615Y-88607780D01*
X148293365Y-88602030D01*
X148290766Y-88575000D01*
X148293365Y-88547970D01*
X148706635Y-88547970D01*
X148709234Y-88575000D01*
X148706635Y-88602030D01*
X148712385Y-88607780D01*
X148725897Y-88748317D01*
X148911578Y-88806973D01*
X149212500Y-89107895D01*
X149486749Y-88833646D01*
X149494787Y-88832947D01*
X149699103Y-88748317D01*
X149712615Y-88607780D01*
X149718365Y-88602030D01*
X149715766Y-88575000D01*
X149718365Y-88547970D01*
X150131635Y-88547970D01*
X150134234Y-88575000D01*
X150131635Y-88602030D01*
X150137385Y-88607780D01*
X150150897Y-88748317D01*
X150336578Y-88806973D01*
X150637500Y-89107895D01*
X150911749Y-88833646D01*
X150919787Y-88832947D01*
X151124103Y-88748317D01*
X151137615Y-88607780D01*
X151143365Y-88602030D01*
X151140766Y-88575000D01*
X151143365Y-88547970D01*
X151137615Y-88542220D01*
X151124103Y-88401683D01*
X150938422Y-88343027D01*
X150637500Y-88042105D01*
X150363251Y-88316354D01*
X150355213Y-88317053D01*
X150150897Y-88401683D01*
X150137385Y-88542220D01*
X150131635Y-88547970D01*
X149718365Y-88547970D01*
X149712615Y-88542220D01*
X149699103Y-88401683D01*
X149513422Y-88343027D01*
X149212500Y-88042105D01*
X148938251Y-88316354D01*
X148930213Y-88317053D01*
X148725897Y-88401683D01*
X148712385Y-88542220D01*
X148706635Y-88547970D01*
X148293365Y-88547970D01*
X148287615Y-88542220D01*
X148274103Y-88401683D01*
X148088422Y-88343027D01*
X147787500Y-88042105D01*
X147513251Y-88316354D01*
X147505213Y-88317053D01*
X147300897Y-88401683D01*
X147287385Y-88542220D01*
X147281635Y-88547970D01*
X146868365Y-88547970D01*
X146862615Y-88542220D01*
X146849103Y-88401683D01*
X146663422Y-88343027D01*
X146362500Y-88042105D01*
X146088251Y-88316354D01*
X146080213Y-88317053D01*
X145875897Y-88401683D01*
X145862385Y-88542220D01*
X145856635Y-88547970D01*
X143043261Y-88547970D01*
X143020861Y-88525571D01*
X143020861Y-88229855D01*
X143255391Y-88327000D01*
X143544609Y-88327000D01*
X143811813Y-88216321D01*
X144016321Y-88011813D01*
X144123969Y-87751925D01*
X145357897Y-87751925D01*
X145392053Y-88144787D01*
X145476683Y-88349103D01*
X145677030Y-88368365D01*
X146182895Y-87862500D01*
X146542105Y-87862500D01*
X146816354Y-88136749D01*
X146817053Y-88144787D01*
X146901683Y-88349103D01*
X147042220Y-88362615D01*
X147047970Y-88368365D01*
X147075000Y-88365766D01*
X147102030Y-88368365D01*
X147107780Y-88362615D01*
X147248317Y-88349103D01*
X147306973Y-88163422D01*
X147607895Y-87862500D01*
X147967105Y-87862500D01*
X148241354Y-88136749D01*
X148242053Y-88144787D01*
X148326683Y-88349103D01*
X148467220Y-88362615D01*
X148472970Y-88368365D01*
X148500000Y-88365766D01*
X148527030Y-88368365D01*
X148532780Y-88362615D01*
X148673317Y-88349103D01*
X148731973Y-88163422D01*
X149032895Y-87862500D01*
X149392105Y-87862500D01*
X149666354Y-88136749D01*
X149667053Y-88144787D01*
X149751683Y-88349103D01*
X149892220Y-88362615D01*
X149897970Y-88368365D01*
X149925000Y-88365766D01*
X149952030Y-88368365D01*
X149957780Y-88362615D01*
X150098317Y-88349103D01*
X150156973Y-88163422D01*
X150457895Y-87862500D01*
X150817105Y-87862500D01*
X151322970Y-88368365D01*
X151523317Y-88349103D01*
X151642103Y-87973075D01*
X151607947Y-87580213D01*
X151523317Y-87375897D01*
X151322970Y-87356635D01*
X150817105Y-87862500D01*
X150457895Y-87862500D01*
X150183646Y-87588251D01*
X150182947Y-87580213D01*
X150098317Y-87375897D01*
X149957780Y-87362385D01*
X149952030Y-87356635D01*
X149925000Y-87359234D01*
X149897970Y-87356635D01*
X149892220Y-87362385D01*
X149751683Y-87375897D01*
X149693027Y-87561578D01*
X149392105Y-87862500D01*
X149032895Y-87862500D01*
X148758646Y-87588251D01*
X148757947Y-87580213D01*
X148673317Y-87375897D01*
X148532780Y-87362385D01*
X148527030Y-87356635D01*
X148500000Y-87359234D01*
X148472970Y-87356635D01*
X148467220Y-87362385D01*
X148326683Y-87375897D01*
X148268027Y-87561578D01*
X147967105Y-87862500D01*
X147607895Y-87862500D01*
X147333646Y-87588251D01*
X147332947Y-87580213D01*
X147248317Y-87375897D01*
X147107780Y-87362385D01*
X147102030Y-87356635D01*
X147075000Y-87359234D01*
X147047970Y-87356635D01*
X147042220Y-87362385D01*
X146901683Y-87375897D01*
X146843027Y-87561578D01*
X146542105Y-87862500D01*
X146182895Y-87862500D01*
X145677030Y-87356635D01*
X145476683Y-87375897D01*
X145357897Y-87751925D01*
X144123969Y-87751925D01*
X144127000Y-87744609D01*
X144127000Y-87618290D01*
X144698270Y-87047020D01*
X145869135Y-87047020D01*
X145856635Y-87177030D01*
X146362500Y-87682895D01*
X146868365Y-87177030D01*
X146855865Y-87047020D01*
X147294135Y-87047020D01*
X147281635Y-87177030D01*
X147787500Y-87682895D01*
X148293365Y-87177030D01*
X148706635Y-87177030D01*
X149212500Y-87682895D01*
X149718365Y-87177030D01*
X150131635Y-87177030D01*
X150637500Y-87682895D01*
X151143365Y-87177030D01*
X151124103Y-86976683D01*
X150748075Y-86857897D01*
X150355213Y-86892053D01*
X150150897Y-86976683D01*
X150131635Y-87177030D01*
X149718365Y-87177030D01*
X149699103Y-86976683D01*
X149323075Y-86857897D01*
X148930213Y-86892053D01*
X148725897Y-86976683D01*
X148706635Y-87177030D01*
X148293365Y-87177030D01*
X148274643Y-86982298D01*
X148397862Y-86899965D01*
X148427263Y-86855964D01*
X149676196Y-85607030D01*
X152104596Y-85607030D01*
X152156494Y-85617353D01*
X152208392Y-85607030D01*
X152208397Y-85607030D01*
X152362119Y-85576453D01*
X152536439Y-85459975D01*
X152565840Y-85415974D01*
X155335945Y-82645868D01*
X155379945Y-82616468D01*
X155409351Y-82572459D01*
X155414770Y-82567040D01*
X158158062Y-82567040D01*
X158209960Y-82577363D01*
X158261858Y-82567040D01*
X158261863Y-82567040D01*
X158415585Y-82536463D01*
X158589905Y-82419985D01*
X158619306Y-82375984D01*
X159718291Y-81277000D01*
X160781710Y-81277000D01*
X161273000Y-81768291D01*
X161273000Y-81894609D01*
X161383679Y-82161813D01*
X161588187Y-82366321D01*
X161855391Y-82477000D01*
X162144609Y-82477000D01*
X162411813Y-82366321D01*
X162616321Y-82161813D01*
X162727000Y-81894609D01*
X162727000Y-81605391D01*
X162616321Y-81338187D01*
X162411813Y-81133679D01*
X162390860Y-81125000D01*
X162411813Y-81116321D01*
X162616321Y-80911813D01*
X162727000Y-80644609D01*
X162727000Y-80355391D01*
X162616321Y-80088187D01*
X162528134Y-80000000D01*
X162616321Y-79911813D01*
X162727000Y-79644609D01*
X162727000Y-79355391D01*
X162616321Y-79088187D01*
X162528134Y-79000000D01*
X162616321Y-78911813D01*
X162705605Y-78696261D01*
X170473000Y-78696261D01*
X170473000Y-79303739D01*
X170705472Y-79864976D01*
X171135024Y-80294528D01*
X171696261Y-80527000D01*
X172303739Y-80527000D01*
X172864976Y-80294528D01*
X173294528Y-79864976D01*
X173527000Y-79303739D01*
X173527000Y-78696261D01*
X173294528Y-78135024D01*
X172864976Y-77705472D01*
X172303739Y-77473000D01*
X171696261Y-77473000D01*
X171135024Y-77705472D01*
X170705472Y-78135024D01*
X170473000Y-78696261D01*
X162705605Y-78696261D01*
X162727000Y-78644609D01*
X162727000Y-78355391D01*
X162616321Y-78088187D01*
X162411813Y-77883679D01*
X162144609Y-77773000D01*
X161855391Y-77773000D01*
X161588187Y-77883679D01*
X161498866Y-77973000D01*
X159851907Y-77973000D01*
X159800009Y-77962677D01*
X159748111Y-77973000D01*
X159748107Y-77973000D01*
X159594385Y-78003577D01*
X159420065Y-78120055D01*
X159390665Y-78164055D01*
X159277000Y-78277720D01*
X159277000Y-77968290D01*
X160308291Y-76937000D01*
X161748866Y-76937000D01*
X161838187Y-77026321D01*
X162105391Y-77137000D01*
X162394609Y-77137000D01*
X162661813Y-77026321D01*
X162866321Y-76821813D01*
X162977000Y-76554609D01*
X162977000Y-76265391D01*
X162866321Y-75998187D01*
X162661813Y-75793679D01*
X162394609Y-75683000D01*
X162105391Y-75683000D01*
X161838187Y-75793679D01*
X161748866Y-75883000D01*
X160727000Y-75883000D01*
X160727000Y-75605391D01*
X160694530Y-75527000D01*
X176847394Y-75527000D01*
X177373000Y-76052606D01*
X177373000Y-81500000D01*
X177382667Y-81548601D01*
X177410197Y-81589803D01*
X178410197Y-82589803D01*
X178451399Y-82617333D01*
X178500000Y-82627000D01*
X183947394Y-82627000D01*
X184473000Y-83152606D01*
X184473001Y-96847393D01*
X183947394Y-97373000D01*
X178500000Y-97373000D01*
X178451399Y-97382667D01*
X178410197Y-97410197D01*
X177410197Y-98410197D01*
X177382667Y-98451399D01*
X177373000Y-98500000D01*
X177373000Y-103947394D01*
X176847394Y-104473000D01*
X123152606Y-104473000D01*
X122627000Y-103947394D01*
X122627000Y-101355391D01*
X127523000Y-101355391D01*
X127523000Y-101644609D01*
X127633679Y-101911813D01*
X127723001Y-102001135D01*
X127723000Y-102698102D01*
X127712677Y-102750000D01*
X127723000Y-102801898D01*
X127723000Y-102801902D01*
X127753577Y-102955624D01*
X127765966Y-102974165D01*
X127827734Y-103066607D01*
X127870055Y-103129945D01*
X127914055Y-103159345D01*
X128340656Y-103585947D01*
X128370055Y-103629945D01*
X128414052Y-103659343D01*
X128414055Y-103659346D01*
X128544374Y-103746423D01*
X128576387Y-103752791D01*
X128698097Y-103777000D01*
X128698101Y-103777000D01*
X128750000Y-103787323D01*
X128801899Y-103777000D01*
X129748866Y-103777000D01*
X129838187Y-103866321D01*
X130105391Y-103977000D01*
X130394609Y-103977000D01*
X130661813Y-103866321D01*
X130866321Y-103661813D01*
X130977000Y-103394609D01*
X130977000Y-103105391D01*
X130866321Y-102838187D01*
X130661813Y-102633679D01*
X130394609Y-102523000D01*
X130105391Y-102523000D01*
X129838187Y-102633679D01*
X129748866Y-102723000D01*
X128968291Y-102723000D01*
X128777000Y-102531710D01*
X128777000Y-102001134D01*
X128866321Y-101911813D01*
X128977000Y-101644609D01*
X128977000Y-101355391D01*
X128866321Y-101088187D01*
X128661813Y-100883679D01*
X128394609Y-100773000D01*
X128105391Y-100773000D01*
X127838187Y-100883679D01*
X127633679Y-101088187D01*
X127523000Y-101355391D01*
X122627000Y-101355391D01*
X122627000Y-98500000D01*
X122617333Y-98451399D01*
X122589803Y-98410197D01*
X121589803Y-97410197D01*
X121548601Y-97382667D01*
X121500000Y-97373000D01*
X116052606Y-97373000D01*
X115527000Y-96847394D01*
X115527000Y-83152606D01*
X116052606Y-82627000D01*
X121500000Y-82627000D01*
X121548601Y-82617333D01*
X121589803Y-82589803D01*
X122589803Y-81589803D01*
X122617333Y-81548601D01*
X122627000Y-81500000D01*
X122627000Y-76052606D01*
X123152606Y-75527000D01*
X129078731Y-75527000D01*
X129005503Y-75636594D01*
G04 #@! TO.N,Net-(C24-Pad1)*
G36*
X133073000Y-79400000D02*
X133082667Y-79448601D01*
X133110197Y-79489803D01*
X133151399Y-79517333D01*
X133200000Y-79527000D01*
X141273000Y-79527000D01*
X141273000Y-81273000D01*
X129527000Y-81273000D01*
X129527000Y-75927000D01*
X133073000Y-75927000D01*
X133073000Y-79400000D01*
X133073000Y-79400000D01*
G37*
X133073000Y-79400000D02*
X133082667Y-79448601D01*
X133110197Y-79489803D01*
X133151399Y-79517333D01*
X133200000Y-79527000D01*
X141273000Y-79527000D01*
X141273000Y-81273000D01*
X129527000Y-81273000D01*
X129527000Y-75927000D01*
X133073000Y-75927000D01*
X133073000Y-79400000D01*
G04 #@! TD*
M02*
