M48
;DRILL file {KiCad (5.0.2)-1} date 2019/10/12 17:38:14
;FORMAT={-:-/ absolute / inch / decimal}
FMAT,2
INCH,TZ
T1C0.0118
T2C0.0140
T3C0.0256
T4C0.0325
T5C0.0354
T6C0.0374
T7C0.0433
T8C0.0866
T9C0.1260
%
G90
G05
T1
X4.5669Y-3.2677
X4.5669Y-3.5433
X4.5669Y-3.8189
X4.8425Y-2.9921
X4.8425Y-3.2677
X4.8425Y-3.8189
X4.8425Y-4.0945
X4.9173Y-3.8465
X4.9213Y-3.4055
X4.9606Y-3.6909
X4.9803Y-3.5925
X4.9803Y-3.8189
X4.9803Y-3.9528
X4.9902Y-3.2185
X5.0098Y-3.3957
X5.0236Y-4.0748
X5.0295Y-3.5433
X5.0394Y-2.9921
X5.0492Y-3.9961
X5.0512Y-3.9449
X5.0591Y-3.2087
X5.0762Y-3.803
X5.0886Y-3.3071
X5.0886Y-4.0945
X5.1181Y-3.0157
X5.1181Y-3.063
X5.1181Y-3.1181
X5.128Y-4.065
X5.1299Y-3.9055
X5.1575Y-3.0157
X5.1575Y-3.063
X5.1575Y-3.1181
X5.187Y-3.4646
X5.187Y-4.0256
X5.2362Y-3.3858
X5.2362Y-3.6319
X5.2638Y-3.811
X5.2657Y-4.1043
X5.2756Y-2.9921
X5.2756Y-3.0413
X5.2756Y-3.0945
X5.2815Y-3.9065
X5.2953Y-3.9862
X5.296Y-4.0167
X5.3051Y-3.9567
X5.3248Y-3.6417
X5.3543Y-3.3957
X5.3543Y-3.7598
X5.3543Y-3.878
X5.3937Y-3.6417
X5.4331Y-3.248
X5.4331Y-3.4055
X5.4528Y-3.878
X5.4626Y-3.248
X5.4724Y-3.6319
X5.4724Y-3.6713
X5.502Y-3.3957
X5.502Y-3.7598
X5.502Y-3.878
X5.5118Y-3.0787
X5.5118Y-3.3268
X5.5118Y-3.5039
X5.5118Y-3.5728
X5.5118Y-3.6787
X5.5118Y-3.7228
X5.5315Y-3.3661
X5.5413Y-3.4252
X5.5492Y-3.1358
X5.5492Y-3.1654
X5.5492Y-3.1949
X5.5512Y-3.6787
X5.5571Y-3.9567
X5.561Y-3.8976
X5.561Y-4.0551
X5.5807Y-3.4055
X5.5807Y-3.5433
X5.5807Y-3.6614
X5.5807Y-3.7228
X5.5807Y-3.7598
X5.61Y-3.4354
X5.6102Y-3.9862
X5.6181Y-3.0079
X5.6299Y-3.0512
X5.6299Y-4.0945
X5.637Y-3.9996
X5.6457Y-3.4488
X5.6496Y-3.1339
X5.6496Y-3.1988
X5.6496Y-3.5728
X5.6496Y-3.622
X5.6594Y-3.8287
X5.6673Y-3.9675
X5.6693Y-3.2972
X5.6693Y-3.8878
X5.6806Y-3.8508
X5.7002Y-3.3547
X5.7087Y-3.0512
X5.7264Y-3.0965
X5.7283Y-3.7634
X5.7299Y-3.351
X5.7343Y-3.1949
X5.762Y-3.3367
X5.8087Y-3.3524
X5.81Y-3.8671
X5.8106Y-3.1565
X5.815Y-3.749
X5.8268Y-3.2677
X5.8465Y-3.0512
X5.8504Y-3.122
X5.8843Y-3.9173
X5.8957Y-3.0512
X5.8957Y-3.2283
X5.9055Y-3.1299
X5.9055Y-3.9469
X5.9055Y-4.0945
X5.9232Y-3.8819
X5.935Y-3.189
X5.9449Y-3.2677
X5.9508Y-3.9616
X5.9941Y-3.1693
X5.9941Y-3.8189
X6.0079Y-3.7441
X6.0138Y-3.1299
X6.0433Y-3.4449
X6.0722Y-3.5634
X6.0728Y-3.3957
X6.0848Y-3.863
X6.0925Y-3.6909
X6.1024Y-2.9921
X6.1024Y-3.3071
X6.1024Y-3.3563
X6.1024Y-3.5335
X6.1024Y-3.5827
X6.126Y-3.2677
X6.1299Y-3.6929
X6.1417Y-3.9331
X6.1611Y-3.7903
X6.1614Y-3.3071
X6.1614Y-3.5827
X6.1713Y-3.7622
X6.1811Y-3.9961
X6.1811Y-4.0945
X6.2008Y-3.8228
X6.2205Y-2.9823
X6.2205Y-3.3071
X6.2205Y-3.3465
X6.2205Y-3.376
X6.2205Y-3.435
X6.2205Y-3.5039
X6.2205Y-3.5433
X6.2205Y-3.5827
X6.2224Y-3.2648
X6.2303Y-4.065
X6.2402Y-3.6516
X6.2697Y-3.435
X6.2697Y-3.6909
X6.2697Y-3.9272
X6.2992Y-2.9823
X6.3091Y-3.2185
X6.3189Y-3.3169
X6.3386Y-3.9272
X6.3484Y-3.8287
X6.378Y-3.0906
X6.378Y-3.1299
X6.378Y-3.1693
X6.378Y-3.2185
X6.378Y-3.4252
X6.378Y-3.4744
X6.378Y-3.5236
X6.378Y-3.5728
X6.378Y-3.6909
X6.378Y-3.7598
X6.378Y-4.0059
X6.378Y-4.0846
X6.3878Y-3.0083
X6.3878Y-3.376
X6.3878Y-3.6319
X6.4075Y-3.0413
X6.4173Y-3.7992
X6.4173Y-3.9272
X6.4272Y-3.2579
X6.5157Y-3.189
X6.5354Y-3.0512
X6.565Y-3.0118
X6.565Y-3.8189
X6.5748Y-3.189
X6.5748Y-3.8681
X6.6043Y-3.0512
X6.6142Y-3.8681
X6.6339Y-2.9823
X6.6339Y-3.2087
X6.6555Y-3.8406
X6.6732Y-3.0413
X6.6929Y-3.1496
X6.7323Y-3.7402
X6.752Y-3.9469
X6.7913Y-3.8091
X6.8307Y-4.0256
X6.8701Y-3.2087
X6.8996Y-3.7402
X6.9488Y-3.2087
X6.9685Y-2.9921
X6.9685Y-3.9764
X6.9685Y-4.0945
X7.0866Y-3.8189
X7.2441Y-3.2677
X7.2441Y-3.5433
X7.2441Y-3.8189
T2
X5.7623Y-3.4592
X5.7623Y-3.5153
X5.7623Y-3.5714
X5.7623Y-3.6275
X5.8184Y-3.4592
X5.8184Y-3.5153
X5.8184Y-3.5714
X5.8184Y-3.6275
X5.8745Y-3.4592
X5.8745Y-3.5153
X5.8745Y-3.5714
X5.8745Y-3.6275
X5.9306Y-3.4592
X5.9306Y-3.5153
X5.9306Y-3.5714
X5.9306Y-3.6275
T5
X5.7087Y-4.0157
X5.8071Y-4.0157
X5.9055Y-4.0157
X6.0039Y-4.0157
X6.1024Y-4.0157
T6
X5.0846Y-3.3957
X5.0846Y-3.4941
X5.0846Y-3.5925
X5.0846Y-3.6909
T7
X5.9646Y-3.0807
X6.063Y-3.0807
X6.1614Y-3.0807
T8
X6.7717Y-3.1102
T9
X7.0866Y-3.1496
X4.7244Y-3.937
X7.0866Y-3.937
X4.7244Y-3.1496
T3
X6.5089Y-3.9035G85X6.5089Y-3.9114
G05
X6.6998Y-3.9035G85X6.6998Y-3.9114
G05
T4
X6.4646Y-4.0123G85X6.4646Y-4.0389
G05
X6.7441Y-4.0123G85X6.7441Y-4.0389
G05
T0
M30
