<?xml version="1.0" standalone="no"?>
 <!DOCTYPE svg PUBLIC "-//W3C//DTD SVG 1.1//EN" 
 "http://www.w3.org/Graphics/SVG/1.1/DTD/svg11.dtd"> 
<svg xmlns="http://www.w3.org/2000/svg" version="1.1" 
    width="29.7002cm" height="21.0007cm" viewBox="0 0 116930 82680 ">
<title>SVG Picture created as PD_Board-F.Mask.svg date 2019/10/04 03:13:21 </title>
  <desc>Picture generated by PCBNEW </desc>
<g style="fill:#000000; fill-opacity:1;stroke:#000000; stroke-opacity:1;
stroke-linecap:round; stroke-linejoin:round; "
 transform="translate(0 0) scale(1 1)">
</g>
<g style="fill:#000000; fill-opacity:0.0; 
stroke:#000000; stroke-width:-0.000393701; stroke-opacity:1; 
stroke-linecap:round; stroke-linejoin:round;">
</g>
<g style="fill:#000000; fill-opacity:1.0; 
stroke:#000000; stroke-width:0; stroke-opacity:1; 
stroke-linecap:round; stroke-linejoin:round;">
<polyline style="fill-rule:evenodd;"
points="53594,40572
53607,40576
53620,40582
53630,40591
53639,40602
53646,40614
53650,40628
53651,40644
53651,40881
53650,40897
53646,40910
53639,40923
53630,40933
53620,40942
53607,40949
53594,40953
53577,40955
53311,40955
53295,40953
53282,40949
53269,40942
53258,40933
53250,40923
53243,40910
53239,40897
53237,40881
53237,40644
53239,40628
53243,40614
53250,40602
53258,40591
53269,40582
53282,40576
53295,40572
53311,40570
53577,40570
53594,40572
" /> 
<polyline style="fill-rule:evenodd;"
points="54381,40572
54395,40576
54407,40582
54418,40591
54427,40602
54433,40614
54437,40628
54439,40644
54439,40881
54437,40897
54433,40910
54427,40923
54418,40933
54407,40942
54395,40949
54381,40953
54365,40955
54099,40955
54082,40953
54069,40949
54057,40942
54046,40933
54037,40923
54030,40910
54026,40897
54025,40881
54025,40644
54026,40628
54030,40614
54037,40602
54046,40591
54057,40582
54069,40576
54082,40572
54099,40570
54365,40570
54381,40572
" /> 
<polyline style="fill-rule:evenodd;"
points="55169,40572
55182,40576
55194,40582
55205,40591
55214,40602
55221,40614
55225,40628
55226,40644
55226,40881
55225,40897
55221,40910
55214,40923
55205,40933
55194,40942
55182,40949
55169,40953
55152,40955
54886,40955
54870,40953
54856,40949
54844,40942
54833,40933
54824,40923
54818,40910
54814,40897
54812,40881
54812,40644
54814,40628
54818,40614
54824,40602
54833,40591
54844,40582
54856,40576
54870,40572
54886,40570
55152,40570
55169,40572
" /> 
<polyline style="fill-rule:evenodd;"
points="65000,40748
64251,40748
64251,39960
65000,39960
65000,40748
" /> 
<polyline style="fill-rule:evenodd;"
points="63169,40748
62302,40748
62302,39960
63169,39960
63169,40748
" /> 
<polyline style="fill-rule:evenodd;"
points="64094,40748
63346,40748
63346,39960
64094,39960
64094,40748
" /> 
<polyline style="fill-rule:evenodd;"
points="66043,40748
65176,40748
65176,39960
66043,39960
66043,40748
" /> 
<polyline style="fill-rule:evenodd;"
points="59164,39797
59232,39825
59293,39866
59345,39918
59386,39980
59415,40048
59429,40120
59429,40194
59415,40266
59386,40334
59345,40396
59293,40448
59232,40489
59164,40517
59091,40531
59018,40531
58945,40517
58877,40489
58816,40448
58764,40396
58723,40334
58695,40266
58680,40194
58680,40120
58695,40048
58723,39980
58764,39918
58816,39866
58877,39825
58945,39797
59018,39783
59091,39783
59164,39797
" /> 
<polyline style="fill-rule:evenodd;"
points="60148,39797
60216,39825
60278,39866
60330,39918
60371,39980
60399,40048
60413,40120
60413,40194
60399,40266
60371,40334
60330,40396
60278,40448
60216,40489
60148,40517
60076,40531
60002,40531
59930,40517
59862,40489
59800,40448
59748,40396
59707,40334
59679,40266
59664,40194
59664,40120
59679,40048
59707,39980
59748,39918
59800,39866
59862,39825
59930,39797
60002,39783
60076,39783
60148,39797
" /> 
<polyline style="fill-rule:evenodd;"
points="61398,40531
60649,40531
60649,39783
61398,39783
61398,40531
" /> 
<polyline style="fill-rule:evenodd;"
points="58180,39797
58248,39825
58309,39866
58361,39918
58402,39980
58430,40048
58445,40120
58445,40194
58430,40266
58402,40334
58361,40396
58309,40448
58248,40489
58180,40517
58107,40531
58033,40531
57961,40517
57893,40489
57832,40448
57780,40396
57739,40334
57710,40266
57696,40194
57696,40120
57710,40048
57739,39980
57780,39918
57832,39866
57893,39825
57961,39797
58033,39783
58107,39783
58180,39797
" /> 
<polyline style="fill-rule:evenodd;"
points="57195,39797
57263,39825
57325,39866
57377,39918
57418,39980
57446,40048
57461,40120
57461,40194
57446,40266
57418,40334
57377,40396
57325,40448
57263,40489
57195,40517
57123,40531
57049,40531
56977,40517
56909,40489
56847,40448
56795,40396
56754,40334
56726,40266
56712,40194
56712,40120
56726,40048
56754,39980
56795,39918
56847,39866
56909,39825
56977,39797
57049,39783
57123,39783
57195,39797
" /> 
<polyline style="fill-rule:evenodd;"
points="51518,40130
51526,40133
51534,40137
51540,40142
51546,40148
51550,40156
51552,40164
51553,40175
51553,40375
51552,40386
51550,40394
51546,40402
51540,40408
51534,40414
51526,40418
51518,40420
51507,40421
51327,40421
51316,40420
51308,40418
51300,40414
51294,40408
51288,40402
51284,40394
51282,40386
51281,40375
51281,40175
51282,40164
51284,40156
51288,40148
51294,40142
51300,40137
51308,40133
51316,40130
51327,40129
51507,40129
51518,40130
" /> 
<polyline style="fill-rule:evenodd;"
points="51136,40130
51144,40133
51152,40137
51158,40142
51164,40148
51168,40156
51170,40164
51171,40175
51171,40375
51170,40386
51168,40394
51164,40402
51158,40408
51152,40414
51144,40418
51136,40420
51125,40421
50945,40421
50934,40420
50926,40418
50918,40414
50912,40408
50906,40402
50902,40394
50900,40386
50899,40375
50899,40175
50900,40164
50902,40156
50906,40148
50912,40142
50918,40137
50926,40133
50934,40130
50945,40129
51125,40129
51136,40130
" /> 
<polyline style="fill-rule:evenodd;"
points="53594,39952
53607,39956
53620,39962
53630,39971
53639,39982
53646,39994
53650,40008
53651,40024
53651,40261
53650,40277
53646,40290
53639,40303
53630,40313
53620,40322
53607,40329
53594,40333
53577,40335
53311,40335
53295,40333
53282,40329
53269,40322
53258,40313
53250,40303
53243,40290
53239,40277
53237,40261
53237,40024
53239,40008
53243,39994
53250,39982
53258,39971
53269,39962
53282,39956
53295,39952
53311,39950
53577,39950
53594,39952
" /> 
<polyline style="fill-rule:evenodd;"
points="55169,39952
55182,39956
55194,39962
55205,39971
55214,39982
55221,39994
55225,40008
55226,40024
55226,40261
55225,40277
55221,40290
55214,40303
55205,40313
55194,40322
55182,40329
55169,40333
55152,40335
54886,40335
54870,40333
54856,40329
54844,40322
54833,40313
54824,40303
54818,40290
54814,40277
54812,40261
54812,40024
54814,40008
54818,39994
54824,39982
54833,39971
54844,39962
54856,39956
54870,39952
54886,39950
55152,39950
55169,39952
" /> 
<polyline style="fill-rule:evenodd;"
points="54381,39952
54395,39956
54407,39962
54418,39971
54427,39982
54433,39994
54437,40008
54439,40024
54439,40261
54437,40277
54433,40290
54427,40303
54418,40313
54407,40322
54395,40329
54381,40333
54365,40335
54099,40335
54082,40333
54069,40329
54057,40322
54046,40313
54037,40303
54030,40290
54026,40277
54025,40261
54025,40024
54026,40008
54030,39994
54037,39982
54046,39971
54057,39962
54069,39956
54082,39952
54099,39950
54365,39950
54381,39952
" /> 
<polyline style="fill-rule:evenodd;"
points="47357,38729
47433,38745
47551,38794
47616,38836
47658,38865
47748,38955
47748,38955
47818,39059
47820,39062
47825,39075
47869,39180
47871,39193
47894,39306
47894,39434
47869,39559
47823,39670
47820,39677
47812,39689
47748,39784
47658,39874
47658,39874
47551,39946
47433,39995
47391,40003
47308,40020
47180,40020
47096,40003
47054,39995
46936,39946
46829,39874
46829,39874
46739,39784
46675,39689
46668,39677
46664,39670
46619,39559
46594,39434
46594,39306
46616,39193
46619,39180
46662,39075
46668,39062
46669,39059
46739,38955
46739,38955
46829,38865
46872,38836
46936,38794
47054,38745
47130,38729
47180,38720
47308,38720
47357,38729
" /> 
<polyline style="fill-rule:evenodd;"
points="70979,38729
71055,38745
71174,38794
71238,38836
71280,38865
71371,38955
71371,38955
71440,39059
71442,39062
71447,39075
71491,39180
71493,39193
71516,39306
71516,39434
71491,39559
71445,39670
71442,39677
71434,39689
71371,39784
71280,39874
71280,39874
71174,39946
71055,39995
71013,40003
70930,40020
70802,40020
70718,40003
70676,39995
70558,39946
70451,39874
70451,39874
70361,39784
70297,39689
70290,39677
70286,39670
70241,39559
70216,39434
70216,39306
70238,39193
70241,39180
70284,39075
70290,39062
70291,39059
70361,38955
70361,38955
70451,38865
70494,38836
70558,38794
70676,38745
70752,38729
70802,38720
70930,38720
70979,38729
" /> 
<polyline style="fill-rule:evenodd;"
points="51772,39813
50826,39813
50826,39517
51772,39517
51772,39813
" /> 
<polyline style="fill-rule:evenodd;"
points="55130,39425
55138,39428
55146,39432
55152,39437
55158,39444
55162,39451
55164,39459
55165,39470
55165,39651
55164,39662
55162,39670
55158,39677
55152,39684
55146,39689
55138,39693
55130,39696
55119,39697
54919,39697
54908,39696
54900,39693
54893,39689
54886,39684
54881,39677
54877,39670
54874,39662
54873,39651
54873,39470
54874,39459
54877,39451
54881,39444
54886,39437
54893,39432
54900,39428
54908,39425
54919,39424
55119,39424
55130,39425
" /> 
<polyline style="fill-rule:evenodd;"
points="54343,39425
54351,39428
54358,39432
54365,39437
54370,39444
54374,39451
54377,39459
54378,39470
54378,39651
54377,39662
54374,39670
54370,39677
54365,39684
54358,39689
54351,39693
54343,39696
54332,39697
54132,39697
54121,39696
54113,39693
54105,39689
54099,39684
54093,39677
54089,39670
54087,39662
54086,39651
54086,39470
54087,39459
54089,39451
54093,39444
54099,39437
54105,39432
54113,39428
54121,39425
54132,39424
54332,39424
54343,39425
" /> 
<polyline style="fill-rule:evenodd;"
points="53555,39425
53563,39428
53571,39432
53578,39437
53583,39444
53587,39451
53589,39459
53590,39470
53590,39651
53589,39662
53587,39670
53583,39677
53578,39684
53571,39689
53563,39693
53555,39696
53545,39697
53344,39697
53333,39696
53325,39693
53318,39689
53311,39684
53306,39677
53302,39670
53299,39662
53298,39651
53298,39470
53299,39459
53302,39451
53306,39444
53311,39437
53318,39432
53325,39428
53333,39425
53344,39424
53545,39424
53555,39425
" /> 
<polyline style="fill-rule:evenodd;"
points="64783,39587
63562,39587
63562,39015
64783,39015
64783,39587
" /> 
<polyline style="fill-rule:evenodd;"
points="63262,38910
63305,38923
63345,38944
63379,38972
63407,39007
63429,39046
63441,39089
63445,39122
63445,39223
63441,39257
63429,39299
63407,39339
63407,39339
63407,39339
63404,39342
63379,39373
63345,39402
63305,39423
63262,39436
63218,39440
63174,39436
63131,39423
63091,39402
63057,39373
63031,39341
63029,39339
63024,39330
63012,39307
63007,39299
62995,39257
62991,39223
62991,39122
62995,39089
63007,39046
63029,39007
63057,38972
63091,38944
63131,38923
63174,38910
63218,38905
63262,38910
" /> 
<polyline style="fill-rule:evenodd;"
points="65172,38910
65215,38923
65254,38944
65289,38972
65317,39007
65338,39046
65351,39089
65354,39122
65354,39223
65351,39257
65338,39299
65317,39339
65317,39339
65317,39339
65314,39342
65289,39373
65254,39402
65215,39423
65172,39436
65127,39440
65083,39436
65040,39423
65001,39402
64966,39373
64940,39341
64938,39339
64933,39330
64921,39307
64917,39299
64904,39257
64901,39223
64901,39122
64904,39089
64917,39046
64938,39007
64966,38972
65001,38944
65040,38923
65083,38910
65127,38905
65172,38910
" /> 
<polyline style="fill-rule:evenodd;"
points="51791,39380
50806,39380
50806,38729
51791,38729
51791,39380
" /> 
<polyline style="fill-rule:evenodd;"
points="49481,39071
49489,39074
49496,39078
49503,39083
49508,39089
49512,39097
49515,39105
49516,39116
49516,39296
49515,39307
49512,39315
49508,39323
49503,39330
49496,39335
49489,39339
49481,39341
49470,39342
49269,39342
49259,39341
49250,39339
49243,39335
49236,39330
49231,39323
49227,39315
49225,39307
49224,39296
49224,39116
49225,39105
49227,39097
49231,39089
49236,39083
49243,39078
49250,39074
49259,39071
49269,39070
49470,39070
49481,39071
" /> 
<polyline style="fill-rule:evenodd;"
points="53555,39043
53563,39046
53571,39050
53578,39055
53583,39062
53587,39069
53589,39077
53590,39088
53590,39269
53589,39280
53587,39288
53583,39295
53578,39302
53571,39307
53563,39311
53555,39314
53545,39315
53344,39315
53333,39314
53325,39311
53318,39307
53311,39302
53306,39295
53302,39288
53299,39280
53298,39269
53298,39088
53299,39077
53302,39069
53306,39062
53311,39055
53318,39050
53325,39046
53333,39043
53344,39042
53545,39042
53555,39043
" /> 
<polyline style="fill-rule:evenodd;"
points="55130,39043
55138,39046
55146,39050
55152,39055
55158,39062
55162,39069
55164,39077
55165,39088
55165,39269
55164,39280
55162,39288
55158,39295
55152,39302
55146,39307
55138,39311
55130,39314
55119,39315
54919,39315
54908,39314
54900,39311
54893,39307
54886,39302
54881,39295
54877,39288
54874,39280
54873,39269
54873,39088
54874,39077
54877,39069
54881,39062
54886,39055
54893,39050
54900,39046
54908,39043
54919,39042
55119,39042
55130,39043
" /> 
<polyline style="fill-rule:evenodd;"
points="54343,39043
54351,39046
54358,39050
54365,39055
54370,39062
54374,39069
54377,39077
54378,39088
54378,39269
54377,39280
54374,39288
54370,39295
54365,39302
54358,39307
54351,39311
54343,39314
54332,39315
54132,39315
54121,39314
54113,39311
54105,39307
54099,39302
54093,39295
54089,39288
54087,39280
54086,39269
54086,39088
54087,39077
54089,39069
54093,39062
54099,39055
54105,39050
54113,39046
54121,39043
54132,39042
54332,39042
54343,39043
" /> 
<polyline style="fill-rule:evenodd;"
points="50298,38929
50306,38932
50313,38936
50320,38941
50325,38948
50329,38955
50332,38963
50333,38974
50333,39174
50332,39185
50329,39193
50325,39201
50320,39207
50313,39213
50306,39217
50298,39219
50287,39220
50106,39220
50095,39219
50087,39217
50080,39213
50073,39207
50068,39201
50064,39193
50061,39185
50060,39174
50060,38974
50061,38963
50064,38955
50068,38948
50073,38941
50080,38936
50087,38932
50095,38929
50106,38928
50287,38928
50298,38929
" /> 
<polyline style="fill-rule:evenodd;"
points="49916,38929
49924,38932
49931,38936
49938,38941
49943,38948
49947,38955
49950,38963
49951,38974
49951,39174
49950,39185
49947,39193
49943,39201
49938,39207
49931,39213
49924,39217
49916,39219
49905,39220
49724,39220
49713,39219
49705,39217
49698,39213
49691,39207
49686,39201
49682,39193
49679,39185
49678,39174
49678,38974
49679,38963
49682,38955
49686,38948
49691,38941
49698,38936
49705,38932
49713,38929
49724,38928
49905,38928
49916,38929
" /> 
<polyline style="fill-rule:evenodd;"
points="52473,38795
52481,38798
52488,38802
52495,38807
52500,38814
52504,38821
52507,38829
52508,38840
52508,39021
52507,39032
52504,39040
52500,39047
52495,39054
52488,39059
52481,39063
52473,39066
52462,39067
52262,39067
52251,39066
52243,39063
52235,39059
52229,39054
52223,39047
52219,39040
52217,39032
52216,39021
52216,38840
52217,38829
52219,38821
52223,38814
52229,38807
52235,38802
52243,38798
52251,38795
52262,38794
52462,38794
52473,38795
" /> 
<polyline style="fill-rule:evenodd;"
points="49481,38689
49489,38692
49496,38696
49503,38701
49508,38708
49512,38715
49515,38723
49516,38734
49516,38915
49515,38925
49512,38934
49508,38941
49503,38948
49496,38953
49489,38957
49481,38959
49470,38961
49269,38961
49259,38959
49250,38957
49243,38953
49236,38948
49231,38941
49227,38934
49225,38925
49224,38915
49224,38734
49225,38723
49227,38715
49231,38708
49236,38701
49243,38696
49250,38692
49259,38689
49269,38688
49470,38688
49481,38689
" /> 
<polyline style="fill-rule:evenodd;"
points="50298,38437
50306,38440
50313,38444
50320,38449
50325,38456
50329,38463
50332,38471
50333,38482
50333,38682
50332,38693
50329,38701
50325,38709
50320,38715
50313,38721
50306,38725
50298,38727
50287,38728
50106,38728
50095,38727
50087,38725
50080,38721
50073,38715
50068,38709
50064,38701
50061,38693
50060,38682
50060,38482
50061,38471
50064,38463
50068,38456
50073,38449
50080,38444
50087,38440
50095,38437
50106,38436
50287,38436
50298,38437
" /> 
<polyline style="fill-rule:evenodd;"
points="49916,38437
49924,38440
49931,38444
49938,38449
49943,38456
49947,38463
49950,38471
49951,38482
49951,38682
49950,38693
49947,38701
49943,38709
49938,38715
49931,38721
49924,38725
49916,38727
49905,38728
49724,38728
49713,38727
49705,38725
49698,38721
49691,38715
49686,38709
49682,38701
49679,38693
49678,38682
49678,38482
49679,38471
49682,38463
49686,38456
49691,38449
49698,38444
49705,38440
49713,38437
49724,38436
49905,38436
49916,38437
" /> 
<polyline style="fill-rule:evenodd;"
points="52473,38414
52481,38416
52488,38420
52495,38425
52500,38432
52504,38439
52507,38448
52508,38458
52508,38639
52507,38650
52504,38658
52500,38665
52495,38672
52488,38677
52481,38681
52473,38684
52462,38685
52262,38685
52251,38684
52243,38681
52235,38677
52229,38672
52223,38665
52219,38658
52217,38650
52216,38639
52216,38458
52217,38448
52219,38439
52223,38432
52229,38425
52235,38420
52243,38416
52251,38414
52262,38412
52462,38412
52473,38414
" /> 
<polyline style="fill-rule:evenodd;"
points="54319,38632
53798,38632
53798,38336
54319,38336
54319,38632
" /> 
<polyline style="fill-rule:evenodd;"
points="53287,38632
52767,38632
52767,37588
53287,37588
53287,38632
" /> 
<polyline style="fill-rule:evenodd;"
points="51772,38592
50826,38592
50826,38296
51772,38296
51772,38592
" /> 
<polyline style="fill-rule:evenodd;"
points="69537,38337
68395,38337
68395,37903
69537,37903
69537,38337
" /> 
<polyline style="fill-rule:evenodd;"
points="67510,38337
67155,38337
67155,37903
67510,37903
67510,38337
" /> 
<polyline style="fill-rule:evenodd;"
points="65148,38337
64635,38337
64635,37903
65148,37903
65148,38337
" /> 
<polyline style="fill-rule:evenodd;"
points="52473,37975
52481,37977
52488,37981
52495,37986
52500,37993
52504,38000
52507,38009
52508,38019
52508,38200
52507,38211
52504,38219
52500,38226
52495,38233
52488,38238
52481,38242
52473,38245
52462,38246
52262,38246
52251,38245
52243,38242
52235,38238
52229,38233
52223,38226
52219,38219
52217,38211
52216,38200
52216,38019
52217,38009
52219,38000
52223,37993
52229,37986
52235,37981
52243,37977
52251,37975
52262,37974
52462,37974
52473,37975
" /> 
<polyline style="fill-rule:evenodd;"
points="54835,37969
54843,37971
54851,37975
54857,37981
54862,37987
54866,37995
54869,38003
54870,38014
54870,38194
54869,38205
54866,38213
54862,38221
54857,38227
54851,38233
54843,38237
54835,38239
54824,38240
54624,38240
54613,38239
54605,38237
54597,38233
54591,38227
54585,38221
54581,38213
54579,38205
54578,38194
54578,38014
54579,38003
54581,37995
54585,37987
54591,37981
54597,37975
54605,37971
54613,37969
54624,37968
54824,37968
54835,37969
" /> 
<polyline style="fill-rule:evenodd;"
points="60429,37748
60438,37751
60445,37755
60452,37760
60457,37767
60461,37774
60463,37782
60464,37793
60464,37993
60463,38004
60461,38012
60457,38020
60452,38026
60445,38032
60438,38036
60429,38038
60419,38039
60238,38039
60227,38038
60219,38036
60211,38032
60205,38026
60200,38020
60196,38012
60193,38004
60192,37993
60192,37793
60193,37782
60196,37774
60200,37767
60205,37760
60211,37755
60219,37751
60227,37748
60238,37747
60419,37747
60429,37748
" /> 
<polyline style="fill-rule:evenodd;"
points="62114,37748
62123,37751
62130,37755
62137,37760
62142,37767
62146,37774
62148,37782
62150,37793
62150,37993
62148,38004
62146,38012
62142,38020
62137,38026
62130,38032
62123,38036
62114,38038
62104,38039
61923,38039
61912,38038
61904,38036
61897,38032
61890,38026
61885,38020
61881,38012
61878,38004
61877,37993
61877,37793
61878,37782
61881,37774
61885,37767
61890,37760
61897,37755
61904,37751
61912,37748
61923,37747
62104,37747
62114,37748
" /> 
<polyline style="fill-rule:evenodd;"
points="62496,37748
62504,37751
62512,37755
62518,37760
62524,37767
62528,37774
62530,37782
62531,37793
62531,37993
62530,38004
62528,38012
62524,38020
62518,38026
62512,38032
62504,38036
62496,38038
62485,38039
62305,38039
62294,38038
62286,38036
62278,38032
62272,38026
62266,38020
62262,38012
62260,38004
62259,37993
62259,37793
62260,37782
62262,37774
62266,37767
62272,37760
62278,37755
62286,37751
62294,37748
62305,37747
62485,37747
62496,37748
" /> 
<polyline style="fill-rule:evenodd;"
points="61032,37748
61040,37751
61047,37755
61054,37760
61059,37767
61063,37774
61066,37782
61067,37793
61067,37993
61066,38004
61063,38012
61059,38020
61054,38026
61047,38032
61040,38036
61032,38038
61021,38039
60840,38039
60829,38038
60821,38036
60814,38032
60807,38026
60802,38020
60798,38012
60795,38004
60794,37993
60794,37793
60795,37782
60798,37774
60802,37767
60807,37760
60814,37755
60821,37751
60829,37748
60840,37747
61021,37747
61032,37748
" /> 
<polyline style="fill-rule:evenodd;"
points="61414,37748
61422,37751
61429,37755
61436,37760
61441,37767
61445,37774
61448,37782
61449,37793
61449,37993
61448,38004
61445,38012
61441,38020
61436,38026
61429,38032
61422,38036
61414,38038
61403,38039
61222,38039
61211,38038
61203,38036
61196,38032
61189,38026
61184,38020
61180,38012
61177,38004
61176,37993
61176,37793
61177,37782
61180,37774
61184,37767
61189,37760
61196,37755
61203,37751
61211,37748
61222,37747
61403,37747
61414,37748
" /> 
<polyline style="fill-rule:evenodd;"
points="60048,37748
60056,37751
60063,37755
60070,37760
60075,37767
60079,37774
60082,37782
60083,37793
60083,37993
60082,38004
60079,38012
60075,38020
60070,38026
60063,38032
60056,38036
60048,38038
60037,38039
59856,38039
59845,38038
59837,38036
59830,38032
59823,38026
59818,38020
59814,38012
59811,38004
59810,37993
59810,37793
59811,37782
59814,37774
59818,37767
59823,37760
59830,37755
59837,37751
59845,37748
59856,37747
60037,37747
60048,37748
" /> 
<polyline style="fill-rule:evenodd;"
points="63455,37903
62942,37903
62942,37214
63455,37214
63455,37903
" /> 
<polyline style="fill-rule:evenodd;"
points="54319,37884
53798,37884
53798,37588
54319,37588
54319,37884
" /> 
<polyline style="fill-rule:evenodd;"
points="52473,37593
52481,37595
52488,37599
52495,37605
52500,37611
52504,37619
52507,37627
52508,37638
52508,37818
52507,37829
52504,37837
52500,37845
52495,37851
52488,37857
52481,37861
52473,37863
52462,37864
52262,37864
52251,37863
52243,37861
52235,37857
52229,37851
52223,37845
52219,37837
52217,37829
52216,37818
52216,37638
52217,37627
52219,37619
52223,37611
52229,37605
52235,37599
52243,37595
52251,37593
52262,37592
52462,37592
52473,37593
" /> 
<polyline style="fill-rule:evenodd;"
points="54835,37587
54843,37589
54851,37593
54857,37599
54862,37605
54866,37613
54869,37621
54870,37632
54870,37812
54869,37823
54866,37831
54862,37839
54857,37845
54851,37851
54843,37855
54835,37857
54824,37858
54624,37858
54613,37857
54605,37855
54597,37851
54591,37845
54585,37839
54581,37831
54579,37823
54578,37812
54578,37632
54579,37621
54581,37613
54585,37605
54591,37599
54597,37593
54605,37589
54613,37587
54624,37586
54824,37586
54835,37587
" /> 
<polyline style="fill-rule:evenodd;"
points="62502,37256
62510,37259
62518,37263
62524,37268
62530,37274
62534,37282
62536,37290
62537,37301
62537,37501
62536,37512
62534,37520
62530,37528
62524,37534
62518,37540
62510,37544
62502,37546
62491,37547
62311,37547
62300,37546
62292,37544
62284,37540
62278,37534
62272,37528
62268,37520
62266,37512
62265,37501
62265,37301
62266,37290
62268,37282
62272,37274
62278,37268
62284,37263
62292,37259
62300,37256
62311,37255
62491,37255
62502,37256
" /> 
<polyline style="fill-rule:evenodd;"
points="62120,37256
62128,37259
62136,37263
62142,37268
62148,37274
62152,37282
62154,37290
62155,37301
62155,37501
62154,37512
62152,37520
62148,37528
62142,37534
62136,37540
62128,37544
62120,37546
62109,37547
61929,37547
61918,37546
61910,37544
61902,37540
61896,37534
61890,37528
61886,37520
61884,37512
61883,37501
61883,37301
61884,37290
61886,37282
61890,37274
61896,37268
61902,37263
61910,37259
61918,37256
61929,37255
62109,37255
62120,37256
" /> 
<polyline style="fill-rule:evenodd;"
points="61032,37256
61040,37259
61047,37263
61054,37268
61059,37274
61063,37282
61066,37290
61067,37301
61067,37501
61066,37512
61063,37520
61059,37528
61054,37534
61047,37540
61040,37544
61032,37546
61021,37547
60840,37547
60829,37546
60821,37544
60814,37540
60807,37534
60802,37528
60798,37520
60795,37512
60794,37501
60794,37301
60795,37290
60798,37282
60802,37274
60807,37268
60814,37263
60821,37259
60829,37256
60840,37255
61021,37255
61032,37256
" /> 
<polyline style="fill-rule:evenodd;"
points="61414,37256
61422,37259
61429,37263
61436,37268
61441,37274
61445,37282
61448,37290
61449,37301
61449,37501
61448,37512
61445,37520
61441,37528
61436,37534
61429,37540
61422,37544
61414,37546
61403,37547
61222,37547
61211,37546
61203,37544
61196,37540
61189,37534
61184,37528
61180,37520
61177,37512
61176,37501
61176,37301
61177,37290
61180,37282
61184,37274
61189,37268
61196,37263
61203,37259
61211,37256
61222,37255
61403,37255
61414,37256
" /> 
<polyline style="fill-rule:evenodd;"
points="50939,36557
50965,36559
51009,36573
51032,36580
51086,36609
51093,36613
51100,36618
51147,36657
51180,36697
51192,36711
51192,36711
51224,36773
51228,36783
51245,36839
51252,36909
51245,36978
51238,37000
51224,37045
51197,37096
51192,37107
51180,37121
51147,37161
51119,37184
51093,37205
51093,37205
51032,37238
51009,37245
50965,37259
50939,37261
50913,37264
50779,37264
50753,37261
50727,37259
50683,37245
50660,37238
50599,37205
50599,37205
50573,37184
50545,37161
50512,37121
50500,37107
50495,37096
50467,37045
50454,37000
50447,36978
50440,36909
50447,36839
50464,36783
50467,36773
50500,36711
50500,36711
50512,36697
50545,36657
50592,36618
50599,36613
50606,36609
50660,36580
50683,36573
50727,36559
50753,36557
50779,36554
50913,36554
50939,36557
" /> 
<polyline style="fill-rule:evenodd;"
points="57208,36830
57216,36831
57224,36833
57227,36834
57237,36840
57248,36849
57252,36852
57260,36857
57269,36861
57278,36863
57288,36863
57297,36861
57306,36857
57314,36852
57318,36849
57329,36840
57339,36834
57342,36833
57350,36831
57362,36830
57362,36830
57366,36830
57373,36831
57382,36833
57385,36834
57395,36840
57406,36849
57409,36852
57417,36857
57426,36861
57436,36863
57445,36863
57455,36861
57464,36857
57472,36852
57475,36849
57486,36840
57496,36834
57499,36833
57508,36831
57519,36830
57519,36830
57523,36830
57531,36831
57539,36833
57542,36834
57552,36840
57563,36849
57567,36852
57575,36857
57584,36861
57593,36863
57603,36863
57612,36861
57621,36857
57629,36852
57633,36849
57643,36840
57654,36834
57657,36833
57665,36831
57677,36830
57677,36830
57681,36830
57688,36831
57697,36833
57700,36834
57710,36840
57721,36849
57724,36852
57732,36857
57741,36861
57751,36863
57760,36863
57770,36861
57779,36857
57787,36852
57790,36849
57801,36840
57811,36834
57814,36833
57822,36831
57834,36830
57834,36830
57838,36830
57846,36831
57854,36833
57857,36834
57867,36840
57878,36849
57882,36852
57890,36857
57899,36861
57908,36863
57918,36863
57927,36861
57936,36857
57944,36852
57948,36849
57958,36840
57969,36834
57972,36833
57980,36831
57992,36830
57992,36830
57996,36830
58003,36831
58012,36833
58014,36834
58025,36840
58036,36849
58039,36852
58047,36857
58056,36861
58066,36863
58075,36863
58085,36861
58094,36857
58102,36852
58105,36849
58116,36840
58126,36834
58129,36833
58137,36831
58149,36830
58149,36830
58153,36830
58161,36831
58169,36833
58172,36834
58182,36840
58193,36849
58197,36852
58205,36857
58214,36861
58223,36863
58233,36863
58242,36861
58251,36857
58259,36852
58262,36849
58273,36840
58284,36834
58287,36833
58295,36831
58307,36830
58307,36830
58310,36830
58318,36831
58327,36833
58329,36834
58340,36840
58351,36849
58354,36852
58362,36857
58371,36861
58381,36863
58390,36863
58400,36861
58409,36857
58417,36852
58420,36849
58431,36840
58441,36834
58444,36833
58452,36831
58464,36830
58464,36830
58468,36830
58476,36831
58484,36833
58487,36834
58497,36840
58508,36849
58512,36852
58520,36857
58529,36861
58538,36863
58548,36863
58557,36861
58566,36857
58574,36852
58577,36849
58588,36840
58599,36834
58602,36833
58610,36831
58622,36830
58622,36830
58625,36830
58633,36831
58641,36833
58644,36834
58655,36840
58666,36849
58669,36852
58677,36857
58686,36861
58695,36863
58705,36863
58715,36861
58723,36857
58732,36852
58735,36849
58746,36840
58756,36834
58759,36833
58767,36831
58779,36830
58779,36830
58783,36830
58791,36831
58799,36833
58802,36834
58812,36840
58823,36849
58827,36852
58835,36857
58843,36861
58853,36863
58863,36863
58872,36861
58881,36857
58889,36852
58892,36849
58903,36840
58914,36834
58917,36833
58925,36831
58937,36830
58937,36830
58940,36830
58948,36831
58956,36833
58959,36834
58970,36840
58981,36849
58984,36852
58992,36857
59001,36861
59010,36863
59020,36863
59030,36861
59038,36857
59046,36852
59050,36849
59061,36840
59071,36834
59074,36833
59082,36831
59094,36830
59094,36830
59098,36830
59106,36831
59114,36833
59117,36834
59127,36840
59138,36849
59142,36852
59150,36857
59158,36861
59168,36863
59178,36863
59187,36861
59196,36857
59204,36852
59207,36849
59218,36840
59229,36834
59232,36833
59240,36831
59251,36830
59251,36830
59255,36830
59263,36831
59271,36833
59274,36834
59285,36840
59296,36849
59299,36852
59307,36857
59316,36861
59325,36863
59335,36863
59344,36861
59353,36857
59361,36852
59365,36849
59376,36840
59386,36834
59389,36833
59397,36831
59409,36830
59409,36830
59413,36830
59421,36831
59429,36833
59432,36834
59442,36840
59453,36849
59456,36852
59464,36857
59473,36861
59483,36863
59493,36863
59502,36861
59511,36857
59519,36852
59522,36849
59533,36840
59544,36834
59546,36833
59555,36831
59566,36830
59566,36830
59570,36830
59578,36831
59586,36833
59589,36834
59600,36840
59611,36849
59614,36852
59622,36857
59631,36861
59640,36863
59650,36863
59659,36861
59668,36857
59676,36852
59680,36849
59691,36840
59701,36834
59704,36833
59712,36831
59724,36830
59724,36830
59728,36830
59736,36831
59744,36833
59747,36834
59757,36840
59766,36847
59774,36856
59779,36866
59779,36866
59782,36878
59783,36886
59783,37128
59782,37137
59780,37145
59779,37148
59774,37159
59766,37168
59757,37175
59747,37181
59747,37181
59736,37184
59724,37185
59724,37185
59720,37185
59712,37184
59704,37182
59701,37181
59691,37175
59680,37166
59676,37163
59668,37157
59659,37154
59650,37152
59640,37152
59631,37154
59622,37157
59614,37163
59611,37166
59600,37175
59589,37181
59589,37181
59578,37184
59566,37185
59566,37185
59563,37185
59555,37184
59546,37182
59544,37181
59533,37175
59522,37166
59519,37163
59511,37157
59502,37154
59493,37152
59483,37152
59473,37154
59464,37157
59456,37163
59453,37166
59442,37175
59432,37181
59432,37181
59421,37184
59409,37185
59409,37185
59405,37185
59397,37184
59389,37182
59386,37181
59376,37175
59365,37166
59361,37163
59353,37157
59344,37154
59335,37152
59325,37152
59316,37154
59307,37157
59299,37163
59296,37166
59285,37175
59274,37181
59274,37181
59263,37184
59251,37185
59251,37185
59248,37185
59240,37184
59232,37182
59229,37181
59218,37175
59207,37166
59204,37163
59196,37157
59187,37154
59178,37152
59168,37152
59158,37154
59150,37157
59142,37163
59138,37166
59127,37175
59117,37181
59117,37181
59106,37184
59094,37185
59094,37185
59090,37185
59082,37184
59074,37182
59071,37181
59061,37175
59050,37166
59046,37163
59038,37157
59030,37154
59020,37152
59010,37152
59001,37154
58992,37157
58984,37163
58981,37166
58970,37175
58959,37181
58959,37181
58948,37184
58937,37185
58937,37185
58933,37185
58925,37184
58917,37182
58914,37181
58903,37175
58892,37166
58889,37163
58881,37157
58872,37154
58863,37152
58853,37152
58843,37154
58835,37157
58827,37163
58823,37166
58812,37175
58802,37181
58802,37181
58791,37184
58779,37185
58779,37185
58775,37185
58767,37184
58759,37182
58756,37181
58746,37175
58735,37166
58732,37163
58723,37157
58715,37154
58705,37152
58695,37152
58686,37154
58677,37157
58669,37163
58666,37166
58655,37175
58644,37181
58644,37181
58633,37184
58622,37185
58622,37185
58618,37185
58610,37184
58602,37182
58599,37181
58588,37175
58577,37166
58574,37163
58566,37157
58557,37154
58548,37152
58538,37152
58529,37154
58520,37157
58512,37163
58508,37166
58497,37175
58487,37181
58487,37181
58476,37184
58464,37185
58464,37185
58460,37185
58452,37184
58444,37182
58441,37181
58431,37175
58420,37166
58417,37163
58409,37157
58400,37154
58390,37152
58381,37152
58371,37154
58362,37157
58354,37163
58351,37166
58340,37175
58329,37181
58329,37181
58318,37184
58307,37185
58307,37185
58303,37185
58295,37184
58287,37182
58284,37181
58273,37175
58262,37166
58259,37163
58251,37157
58242,37154
58233,37152
58223,37152
58214,37154
58205,37157
58197,37163
58193,37166
58182,37175
58172,37181
58172,37181
58161,37184
58149,37185
58149,37185
58145,37185
58137,37184
58129,37182
58126,37181
58116,37175
58105,37166
58102,37163
58094,37157
58085,37154
58075,37152
58066,37152
58056,37154
58047,37157
58039,37163
58036,37166
58025,37175
58014,37181
58014,37181
58003,37184
57992,37185
57992,37185
57988,37185
57980,37184
57972,37182
57969,37181
57958,37175
57948,37166
57944,37163
57936,37157
57927,37154
57918,37152
57908,37152
57899,37154
57890,37157
57882,37163
57878,37166
57867,37175
57857,37181
57857,37181
57846,37184
57834,37185
57834,37185
57830,37185
57822,37184
57814,37182
57811,37181
57801,37175
57790,37166
57787,37163
57779,37157
57770,37154
57760,37152
57751,37152
57741,37154
57732,37157
57724,37163
57721,37166
57710,37175
57700,37181
57700,37181
57688,37184
57677,37185
57677,37185
57673,37185
57665,37184
57657,37182
57654,37181
57643,37175
57633,37166
57629,37163
57621,37157
57612,37154
57603,37152
57593,37152
57584,37154
57575,37157
57567,37163
57563,37166
57552,37175
57542,37181
57542,37181
57531,37184
57519,37185
57519,37185
57515,37185
57508,37184
57499,37182
57496,37181
57486,37175
57475,37166
57472,37163
57464,37157
57455,37154
57445,37152
57436,37152
57426,37154
57417,37157
57409,37163
57406,37166
57395,37175
57385,37181
57385,37181
57373,37184
57362,37185
57362,37185
57358,37185
57350,37184
57342,37182
57339,37181
57329,37175
57318,37166
57314,37163
57306,37157
57297,37154
57288,37152
57278,37152
57269,37154
57260,37157
57252,37163
57248,37166
57237,37175
57227,37181
57227,37181
57216,37184
57204,37185
57204,37185
57200,37185
57193,37184
57184,37182
57181,37181
57171,37175
57162,37168
57155,37159
57149,37148
57149,37148
57146,37137
57145,37128
57145,36886
57146,36878
57149,36866
57149,36866
57155,36856
57162,36847
57171,36840
57181,36834
57184,36833
57193,36831
57204,36830
57204,36830
57208,36830
" /> 
<polyline style="fill-rule:evenodd;"
points="53701,37165
52873,37165
52873,36692
53701,36692
53701,37165
" /> 
<polyline style="fill-rule:evenodd;"
points="54212,37165
53857,37165
53857,36692
54212,36692
54212,37165
" /> 
<polyline style="fill-rule:evenodd;"
points="63455,37096
62942,37096
62942,36781
63455,36781
63455,37096
" /> 
<polyline style="fill-rule:evenodd;"
points="62496,36764
62504,36766
62512,36770
62518,36776
62524,36782
62528,36790
62530,36798
62531,36809
62531,37009
62530,37020
62528,37028
62524,37036
62518,37042
62512,37047
62504,37051
62496,37054
62485,37055
62305,37055
62294,37054
62286,37051
62278,37047
62272,37042
62266,37036
62262,37028
62260,37020
62259,37009
62259,36809
62260,36798
62262,36790
62266,36782
62272,36776
62278,36770
62286,36766
62294,36764
62305,36763
62485,36763
62496,36764
" /> 
<polyline style="fill-rule:evenodd;"
points="62114,36764
62123,36766
62130,36770
62137,36776
62142,36782
62146,36790
62148,36798
62150,36809
62150,37009
62148,37020
62146,37028
62142,37036
62137,37042
62130,37047
62123,37051
62114,37054
62104,37055
61923,37055
61912,37054
61904,37051
61897,37047
61890,37042
61885,37036
61881,37028
61878,37020
61877,37009
61877,36809
61878,36798
61881,36790
61885,36782
61890,36776
61897,36770
61904,36766
61912,36764
61923,36763
62104,36763
62114,36764
" /> 
<polyline style="fill-rule:evenodd;"
points="60163,34114
60169,34114
60177,34117
60180,34118
60190,34123
60199,34130
60207,34140
60212,34150
60212,34150
60216,34161
60217,34173
60216,34184
60213,34193
60212,34196
60207,34206
60198,34217
60194,34220
60189,34228
60185,34237
60183,34247
60183,34256
60185,34266
60189,34275
60194,34283
60198,34286
60207,34297
60212,34307
60212,34307
60216,34319
60217,34330
60216,34342
60213,34350
60212,34353
60207,34363
60198,34374
60194,34378
60189,34386
60185,34395
60183,34404
60183,34414
60185,34423
60189,34432
60194,34440
60198,34444
60207,34455
60212,34465
60212,34465
60216,34476
60217,34488
60216,34499
60213,34507
60212,34511
60207,34521
60198,34532
60194,34535
60189,34543
60185,34552
60183,34562
60183,34571
60185,34581
60189,34590
60194,34598
60198,34601
60207,34612
60212,34622
60212,34622
60216,34634
60217,34645
60216,34657
60213,34665
60212,34668
60207,34678
60198,34689
60194,34693
60189,34701
60185,34710
60183,34719
60183,34729
60185,34738
60189,34747
60194,34755
60198,34759
60207,34769
60212,34780
60212,34780
60216,34791
60217,34803
60216,34814
60213,34823
60212,34826
60207,34836
60198,34847
60194,34850
60189,34858
60185,34867
60183,34877
60183,34886
60185,34896
60189,34905
60194,34913
60198,34916
60207,34927
60212,34937
60212,34937
60216,34948
60217,34960
60216,34972
60213,34980
60212,34983
60207,34993
60198,35004
60194,35008
60189,35016
60185,35025
60183,35034
60183,35044
60185,35053
60189,35062
60194,35070
60198,35073
60207,35084
60212,35095
60212,35095
60216,35106
60217,35118
60216,35129
60214,35134
60212,35140
60207,35151
60198,35162
60194,35165
60189,35173
60185,35182
60183,35192
60183,35201
60185,35211
60189,35220
60194,35228
60198,35231
60207,35242
60212,35252
60212,35252
60216,35263
60217,35275
60216,35287
60215,35290
60212,35298
60207,35308
60198,35319
60194,35323
60189,35331
60185,35340
60183,35349
60183,35359
60185,35368
60189,35377
60194,35385
60198,35388
60207,35399
60212,35410
60212,35410
60216,35421
60217,35433
60216,35444
60213,35453
60212,35455
60207,35466
60198,35477
60194,35480
60189,35488
60185,35497
60183,35506
60183,35516
60185,35526
60189,35535
60194,35543
60198,35546
60207,35557
60212,35567
60212,35567
60216,35578
60217,35590
60216,35602
60213,35610
60212,35613
60207,35623
60198,35634
60194,35638
60189,35646
60185,35655
60183,35664
60183,35674
60185,35683
60189,35692
60194,35700
60198,35703
60207,35714
60212,35725
60212,35725
60216,35736
60217,35748
60216,35759
60215,35760
60212,35770
60207,35781
60198,35792
60194,35795
60189,35803
60185,35812
60183,35821
60183,35831
60185,35841
60189,35849
60194,35857
60198,35861
60207,35872
60212,35882
60212,35882
60216,35893
60217,35905
60216,35917
60214,35920
60212,35928
60207,35938
60206,35939
60199,35947
60198,35949
60194,35953
60189,35961
60185,35969
60183,35979
60183,35989
60185,35998
60189,36007
60194,36015
60198,36018
60207,36029
60212,36040
60212,36040
60216,36051
60217,36062
60216,36074
60213,36082
60212,36085
60207,36096
60198,36107
60194,36110
60189,36118
60185,36127
60183,36136
60183,36146
60185,36156
60189,36164
60194,36172
60198,36176
60207,36187
60212,36197
60212,36197
60216,36208
60217,36220
60216,36232
60213,36240
60212,36243
60207,36253
60198,36264
60194,36267
60189,36276
60185,36284
60183,36294
60183,36304
60185,36313
60189,36322
60194,36330
60198,36333
60207,36344
60212,36355
60212,36355
60216,36366
60217,36377
60216,36389
60213,36397
60212,36400
60207,36411
60198,36422
60194,36425
60189,36433
60185,36442
60183,36451
60183,36461
60185,36470
60189,36479
60194,36487
60198,36491
60207,36502
60212,36512
60212,36512
60216,36523
60217,36535
60216,36547
60215,36550
60212,36558
60207,36568
60198,36579
60194,36582
60189,36590
60185,36599
60183,36609
60183,36618
60185,36628
60189,36637
60194,36645
60198,36648
60207,36659
60212,36670
60212,36670
60216,36681
60217,36692
60216,36704
60214,36709
60212,36715
60207,36726
60199,36735
60190,36742
60180,36748
60177,36748
60169,36751
60163,36752
60160,36752
59918,36752
59915,36752
59909,36751
59901,36748
59898,36748
59888,36742
59879,36735
59871,36726
59866,36715
59864,36709
59862,36704
59861,36692
59862,36681
59866,36670
59866,36670
59871,36659
59880,36648
59883,36645
59889,36637
59893,36628
59894,36618
59894,36609
59893,36599
59889,36590
59883,36582
59880,36579
59871,36568
59866,36558
59863,36550
59862,36547
59861,36535
59862,36523
59866,36512
59866,36512
59871,36502
59880,36491
59883,36487
59889,36479
59893,36470
59894,36461
59894,36451
59893,36442
59889,36433
59883,36425
59880,36422
59871,36411
59866,36400
59865,36397
59862,36389
59861,36377
59862,36366
59866,36355
59866,36355
59871,36344
59880,36333
59883,36330
59889,36322
59893,36313
59894,36304
59894,36294
59893,36284
59889,36276
59883,36267
59880,36264
59871,36253
59866,36243
59865,36240
59862,36232
59861,36220
59862,36208
59866,36197
59866,36197
59871,36187
59880,36176
59883,36172
59889,36164
59893,36156
59894,36146
59894,36136
59893,36127
59889,36118
59883,36110
59880,36107
59871,36096
59866,36085
59865,36082
59862,36074
59861,36062
59862,36051
59866,36040
59866,36040
59871,36029
59880,36018
59883,36015
59889,36007
59893,35998
59894,35989
59894,35979
59893,35969
59889,35961
59883,35953
59880,35949
59871,35938
59866,35928
59863,35920
59862,35917
59861,35905
59862,35893
59866,35882
59866,35882
59871,35872
59880,35861
59883,35857
59889,35849
59893,35841
59894,35831
59894,35821
59893,35812
59889,35803
59883,35795
59880,35792
59871,35781
59866,35770
59862,35760
59862,35759
59861,35748
59862,35736
59866,35725
59866,35725
59871,35714
59880,35703
59883,35700
59889,35692
59893,35683
59894,35674
59894,35664
59893,35655
59889,35646
59883,35638
59880,35634
59871,35623
59866,35613
59865,35610
59862,35602
59861,35590
59862,35578
59866,35567
59866,35567
59871,35557
59880,35546
59883,35543
59889,35535
59893,35526
59894,35516
59894,35506
59893,35497
59889,35488
59883,35480
59880,35477
59871,35466
59866,35455
59865,35453
59862,35444
59861,35433
59862,35421
59866,35410
59866,35410
59871,35399
59880,35388
59883,35385
59889,35377
59893,35368
59894,35359
59894,35349
59893,35340
59889,35331
59883,35323
59880,35319
59871,35308
59866,35298
59863,35290
59862,35287
59861,35275
59862,35263
59866,35252
59866,35252
59871,35242
59880,35231
59883,35228
59889,35220
59893,35211
59894,35201
59894,35192
59893,35182
59889,35173
59883,35165
59880,35162
59871,35151
59866,35140
59864,35134
59862,35129
59861,35118
59862,35106
59866,35095
59866,35095
59871,35084
59880,35073
59883,35070
59889,35062
59893,35053
59894,35044
59894,35034
59893,35025
59889,35016
59883,35008
59880,35004
59871,34993
59866,34983
59865,34980
59862,34972
59861,34960
59862,34948
59866,34937
59866,34937
59871,34927
59880,34916
59883,34913
59889,34905
59893,34896
59894,34886
59894,34877
59893,34867
59889,34858
59883,34850
59880,34847
59871,34836
59866,34826
59865,34823
59862,34814
59861,34803
59862,34791
59866,34780
59866,34780
59871,34769
59880,34759
59883,34755
59889,34747
59893,34738
59894,34729
59894,34719
59893,34710
59889,34701
59883,34693
59880,34689
59871,34678
59866,34668
59865,34665
59862,34657
59861,34645
59862,34634
59866,34622
59866,34622
59871,34612
59880,34601
59883,34598
59889,34590
59893,34581
59894,34571
59894,34562
59893,34552
59889,34543
59883,34535
59880,34532
59871,34521
59866,34511
59864,34507
59862,34499
59861,34488
59862,34476
59866,34465
59866,34465
59871,34455
59880,34444
59883,34440
59889,34432
59893,34423
59894,34414
59894,34404
59893,34395
59889,34386
59883,34378
59880,34374
59871,34363
59866,34353
59865,34350
59862,34342
59861,34330
59862,34319
59866,34307
59866,34307
59871,34297
59880,34286
59883,34283
59889,34275
59893,34266
59894,34256
59894,34247
59893,34237
59889,34228
59883,34220
59880,34217
59871,34206
59866,34196
59865,34193
59862,34184
59861,34173
59862,34161
59866,34150
59866,34150
59871,34140
59879,34130
59888,34123
59898,34118
59901,34117
59909,34114
59915,34114
59918,34113
60160,34113
60163,34114
" /> 
<polyline style="fill-rule:evenodd;"
points="57013,34114
57019,34114
57027,34117
57030,34118
57041,34123
57050,34130
57057,34140
57063,34150
57063,34150
57066,34161
57067,34173
57066,34184
57063,34193
57063,34196
57057,34206
57048,34217
57045,34220
57039,34228
57036,34237
57034,34247
57034,34256
57036,34266
57039,34275
57045,34283
57048,34286
57057,34297
57063,34307
57063,34307
57066,34319
57067,34330
57066,34342
57063,34350
57063,34353
57057,34363
57048,34374
57045,34378
57039,34386
57036,34395
57034,34404
57034,34414
57036,34423
57039,34432
57045,34440
57048,34444
57057,34455
57063,34465
57063,34465
57066,34476
57067,34488
57066,34499
57064,34507
57063,34511
57057,34521
57048,34532
57045,34535
57039,34543
57036,34552
57034,34562
57034,34571
57036,34581
57039,34590
57045,34598
57048,34601
57057,34612
57063,34622
57063,34622
57066,34634
57067,34645
57066,34657
57063,34665
57063,34668
57057,34678
57048,34689
57045,34693
57039,34701
57036,34710
57034,34719
57034,34729
57036,34738
57039,34747
57045,34755
57048,34759
57057,34769
57063,34780
57063,34780
57066,34791
57067,34803
57066,34814
57063,34823
57063,34826
57057,34836
57048,34847
57045,34850
57039,34858
57036,34867
57034,34877
57034,34886
57036,34896
57039,34905
57045,34913
57048,34916
57057,34927
57063,34937
57063,34937
57066,34948
57067,34960
57066,34972
57063,34980
57063,34983
57057,34993
57048,35004
57045,35008
57039,35016
57036,35025
57034,35034
57034,35044
57036,35053
57039,35062
57045,35070
57048,35073
57057,35084
57063,35095
57063,35095
57066,35106
57067,35118
57066,35129
57064,35134
57063,35140
57057,35151
57048,35162
57045,35165
57039,35173
57036,35182
57034,35192
57034,35201
57036,35211
57039,35220
57045,35228
57048,35231
57057,35242
57063,35252
57063,35252
57066,35263
57067,35275
57066,35287
57065,35290
57063,35298
57057,35308
57048,35319
57045,35323
57039,35331
57036,35340
57034,35349
57034,35359
57036,35368
57039,35377
57045,35385
57048,35388
57057,35399
57063,35410
57063,35410
57066,35421
57067,35433
57066,35444
57063,35453
57063,35455
57057,35466
57048,35477
57045,35480
57039,35488
57036,35497
57034,35506
57034,35516
57036,35526
57039,35535
57045,35543
57048,35546
57057,35557
57063,35567
57063,35567
57066,35578
57067,35590
57066,35602
57063,35610
57063,35613
57057,35623
57048,35634
57045,35638
57039,35646
57036,35655
57034,35664
57034,35674
57036,35683
57039,35692
57045,35700
57048,35703
57057,35714
57063,35725
57063,35725
57066,35736
57067,35748
57066,35759
57066,35760
57063,35770
57057,35781
57048,35792
57045,35795
57039,35803
57036,35812
57034,35821
57034,35831
57036,35841
57039,35849
57045,35857
57048,35861
57057,35872
57063,35882
57063,35882
57066,35893
57067,35905
57066,35917
57065,35920
57063,35928
57057,35938
57056,35939
57050,35947
57048,35949
57045,35953
57039,35961
57036,35969
57034,35979
57034,35989
57036,35998
57039,36007
57045,36015
57048,36018
57057,36029
57063,36040
57063,36040
57066,36051
57067,36062
57066,36074
57063,36082
57063,36085
57057,36096
57048,36107
57045,36110
57039,36118
57036,36127
57034,36136
57034,36146
57036,36156
57039,36164
57045,36172
57048,36176
57057,36187
57063,36197
57063,36197
57066,36208
57067,36220
57066,36232
57063,36240
57063,36243
57057,36253
57048,36264
57045,36267
57039,36276
57036,36284
57034,36294
57034,36304
57036,36313
57039,36322
57045,36330
57048,36333
57057,36344
57063,36355
57063,36355
57066,36366
57067,36377
57066,36389
57063,36397
57063,36400
57057,36411
57048,36422
57045,36425
57039,36433
57036,36442
57034,36451
57034,36461
57036,36470
57039,36479
57045,36487
57048,36491
57057,36502
57063,36512
57063,36512
57066,36523
57067,36535
57066,36547
57065,36550
57063,36558
57057,36568
57048,36579
57045,36582
57039,36590
57036,36599
57034,36609
57034,36618
57036,36628
57039,36637
57045,36645
57048,36648
57057,36659
57063,36670
57063,36670
57066,36681
57067,36692
57066,36704
57064,36709
57063,36715
57057,36726
57050,36735
57041,36742
57030,36748
57027,36748
57019,36751
57013,36752
57010,36752
56768,36752
56765,36752
56759,36751
56751,36748
56748,36748
56738,36742
56729,36735
56721,36726
56716,36715
56714,36709
56713,36704
56711,36692
56713,36681
56716,36670
56716,36670
56721,36659
56730,36648
56734,36645
56739,36637
56743,36628
56745,36618
56745,36609
56743,36599
56739,36590
56734,36582
56730,36579
56721,36568
56716,36558
56714,36550
56713,36547
56711,36535
56713,36523
56716,36512
56716,36512
56721,36502
56730,36491
56734,36487
56739,36479
56743,36470
56745,36461
56745,36451
56743,36442
56739,36433
56734,36425
56730,36422
56721,36411
56716,36400
56715,36397
56713,36389
56711,36377
56713,36366
56716,36355
56716,36355
56721,36344
56730,36333
56734,36330
56739,36322
56743,36313
56745,36304
56745,36294
56743,36284
56739,36276
56734,36267
56730,36264
56721,36253
56716,36243
56715,36240
56713,36232
56711,36220
56713,36208
56716,36197
56716,36197
56721,36187
56730,36176
56734,36172
56739,36164
56743,36156
56745,36146
56745,36136
56743,36127
56739,36118
56734,36110
56730,36107
56721,36096
56716,36085
56715,36082
56713,36074
56711,36062
56713,36051
56716,36040
56716,36040
56721,36029
56730,36018
56734,36015
56739,36007
56743,35998
56745,35989
56745,35979
56743,35969
56739,35961
56734,35953
56730,35949
56721,35938
56716,35928
56714,35920
56713,35917
56711,35905
56713,35893
56716,35882
56716,35882
56721,35872
56730,35861
56734,35857
56739,35849
56743,35841
56745,35831
56745,35821
56743,35812
56739,35803
56734,35795
56730,35792
56721,35781
56716,35770
56713,35760
56713,35759
56711,35748
56713,35736
56716,35725
56716,35725
56721,35714
56730,35703
56734,35700
56739,35692
56743,35683
56745,35674
56745,35664
56743,35655
56739,35646
56734,35638
56730,35634
56721,35623
56716,35613
56715,35610
56713,35602
56711,35590
56713,35578
56716,35567
56716,35567
56721,35557
56730,35546
56734,35543
56739,35535
56743,35526
56745,35516
56745,35506
56743,35497
56739,35488
56734,35480
56730,35477
56721,35466
56716,35455
56715,35453
56713,35444
56711,35433
56713,35421
56716,35410
56716,35410
56721,35399
56730,35388
56734,35385
56739,35377
56743,35368
56745,35359
56745,35349
56743,35340
56739,35331
56734,35323
56730,35319
56721,35308
56716,35298
56714,35290
56713,35287
56711,35275
56713,35263
56716,35252
56716,35252
56721,35242
56730,35231
56734,35228
56739,35220
56743,35211
56745,35201
56745,35192
56743,35182
56739,35173
56734,35165
56730,35162
56721,35151
56716,35140
56714,35134
56713,35129
56711,35118
56713,35106
56716,35095
56716,35095
56721,35084
56730,35073
56734,35070
56739,35062
56743,35053
56745,35044
56745,35034
56743,35025
56739,35016
56734,35008
56730,35004
56721,34993
56716,34983
56715,34980
56713,34972
56711,34960
56713,34948
56716,34937
56716,34937
56721,34927
56730,34916
56734,34913
56739,34905
56743,34896
56745,34886
56745,34877
56743,34867
56739,34858
56734,34850
56730,34847
56721,34836
56716,34826
56715,34823
56713,34814
56711,34803
56713,34791
56716,34780
56716,34780
56721,34769
56730,34759
56734,34755
56739,34747
56743,34738
56745,34729
56745,34719
56743,34710
56739,34701
56734,34693
56730,34689
56721,34678
56716,34668
56715,34665
56713,34657
56711,34645
56713,34634
56716,34622
56716,34622
56721,34612
56730,34601
56734,34598
56739,34590
56743,34581
56745,34571
56745,34562
56743,34552
56739,34543
56734,34535
56730,34532
56721,34521
56716,34511
56715,34507
56713,34499
56711,34488
56713,34476
56716,34465
56716,34465
56721,34455
56730,34444
56734,34440
56739,34432
56743,34423
56745,34414
56745,34404
56743,34395
56739,34386
56734,34378
56730,34374
56721,34363
56716,34353
56715,34350
56713,34342
56711,34330
56713,34319
56716,34307
56716,34307
56721,34297
56730,34286
56734,34283
56739,34275
56743,34266
56745,34256
56745,34247
56743,34237
56739,34228
56734,34220
56730,34217
56721,34206
56716,34196
56715,34193
56713,34184
56711,34173
56713,34161
56716,34150
56716,34150
56721,34140
56729,34130
56738,34123
56748,34118
56751,34117
56759,34114
56765,34114
56768,34113
57010,34113
57013,34114
" /> 
<polyline style="fill-rule:evenodd;"
points="56213,36473
56221,36475
56228,36479
56235,36484
56240,36491
56244,36498
56247,36507
56248,36517
56248,36698
56247,36709
56244,36717
56240,36725
56235,36731
56228,36736
56221,36740
56213,36743
56202,36744
56002,36744
55991,36743
55983,36740
55975,36736
55969,36731
55963,36725
55959,36717
55957,36709
55956,36698
55956,36517
55957,36507
55959,36498
55963,36491
55969,36484
55975,36479
55983,36475
55991,36473
56002,36472
56202,36472
56213,36473
" /> 
<polyline style="fill-rule:evenodd;"
points="63455,36663
62942,36663
62942,36348
63455,36348
63455,36663
" /> 
<polyline style="fill-rule:evenodd;"
points="59606,36575
57322,36575
57322,34290
59606,34290
59606,36575
" /> 
<polyline style="fill-rule:evenodd;"
points="62496,36272
62504,36274
62512,36278
62518,36284
62524,36290
62528,36298
62530,36306
62531,36317
62531,36517
62530,36528
62528,36536
62524,36543
62518,36550
62512,36555
62504,36559
62496,36562
62485,36563
62305,36563
62294,36562
62286,36559
62278,36555
62272,36550
62266,36543
62262,36536
62260,36528
62259,36517
62259,36317
62260,36306
62262,36298
62266,36290
62272,36284
62278,36278
62286,36274
62294,36272
62305,36271
62485,36271
62496,36272
" /> 
<polyline style="fill-rule:evenodd;"
points="61408,36272
61416,36274
61423,36278
61430,36284
61435,36290
61439,36298
61442,36306
61443,36317
61443,36517
61442,36528
61439,36536
61435,36543
61430,36550
61423,36555
61416,36559
61408,36562
61397,36563
61216,36563
61205,36562
61197,36559
61190,36555
61183,36550
61178,36543
61174,36536
61171,36528
61170,36517
61170,36317
61171,36306
61174,36298
61178,36290
61183,36284
61190,36278
61197,36274
61205,36272
61216,36271
61397,36271
61408,36272
" /> 
<polyline style="fill-rule:evenodd;"
points="62114,36272
62123,36274
62130,36278
62137,36284
62142,36290
62146,36298
62148,36306
62150,36317
62150,36517
62148,36528
62146,36536
62142,36543
62137,36550
62130,36555
62123,36559
62114,36562
62104,36563
61923,36563
61912,36562
61904,36559
61897,36555
61890,36550
61885,36543
61881,36536
61878,36528
61877,36517
61877,36317
61878,36306
61881,36298
61885,36290
61890,36284
61897,36278
61904,36274
61912,36272
61923,36271
62104,36271
62114,36272
" /> 
<polyline style="fill-rule:evenodd;"
points="61026,36272
61034,36274
61041,36278
61048,36284
61053,36290
61057,36298
61060,36306
61061,36317
61061,36517
61060,36528
61057,36536
61053,36543
61048,36550
61041,36555
61034,36559
61026,36562
61015,36563
60834,36563
60824,36562
60815,36559
60808,36555
60801,36550
60796,36543
60792,36536
60790,36528
60788,36517
60788,36317
60790,36306
60792,36298
60796,36290
60801,36284
60808,36278
60815,36274
60824,36272
60834,36271
61015,36271
61026,36272
" /> 
<polyline style="fill-rule:evenodd;"
points="56213,36091
56221,36093
56228,36097
56235,36103
56240,36109
56244,36117
56247,36125
56248,36136
56248,36316
56247,36327
56244,36335
56240,36343
56235,36349
56228,36355
56221,36359
56213,36361
56202,36362
56002,36362
55991,36361
55983,36359
55975,36355
55969,36349
55963,36343
55959,36335
55957,36327
55956,36316
55956,36136
55957,36125
55959,36117
55963,36109
55969,36103
55975,36097
55983,36093
55991,36091
56002,36090
56202,36090
56213,36091
" /> 
<polyline style="fill-rule:evenodd;"
points="50939,35573
50965,35575
51009,35589
51032,35595
51084,35623
51093,35628
51100,35634
51147,35673
51177,35709
51192,35727
51192,35727
51224,35788
51229,35803
51245,35855
51252,35925
51245,35994
51234,36029
51224,36061
51200,36107
51192,36123
51188,36127
51147,36177
51121,36198
51093,36221
51093,36221
51032,36254
51017,36258
50965,36274
50939,36277
50913,36279
50779,36279
50753,36277
50727,36274
50675,36258
50660,36254
50599,36221
50599,36221
50571,36198
50545,36177
50504,36127
50500,36123
50492,36107
50467,36061
50458,36029
50447,35994
50440,35925
50447,35855
50463,35803
50467,35788
50500,35727
50500,35727
50515,35709
50545,35673
50592,35634
50599,35628
50608,35623
50660,35595
50683,35589
50727,35575
50753,35573
50779,35570
50913,35570
50939,35573
" /> 
<polyline style="fill-rule:evenodd;"
points="63455,36230
62942,36230
62942,35914
63455,35914
63455,36230
" /> 
<polyline style="fill-rule:evenodd;"
points="54319,36191
53798,36191
53798,35895
54319,35895
54319,36191
" /> 
<polyline style="fill-rule:evenodd;"
points="53287,36191
52767,36191
52767,35147
53287,35147
53287,36191
" /> 
<polyline style="fill-rule:evenodd;"
points="56213,35685
56221,35688
56228,35692
56235,35697
56240,35704
56244,35711
56247,35719
56248,35730
56248,35911
56247,35922
56244,35930
56240,35937
56235,35944
56228,35949
56221,35953
56213,35956
56202,35957
56002,35957
55991,35956
55983,35953
55975,35949
55969,35944
55963,35937
55959,35930
55957,35922
55956,35911
55956,35730
55957,35719
55959,35711
55963,35704
55969,35697
55975,35692
55983,35688
55991,35685
56002,35684
56202,35684
56213,35685
" /> 
<polyline style="fill-rule:evenodd;"
points="55622,35679
55630,35682
55638,35686
55644,35691
55650,35698
55654,35705
55656,35713
55657,35724
55657,35905
55656,35916
55654,35924
55650,35931
55644,35938
55638,35943
55630,35947
55622,35950
55611,35951
55411,35951
55400,35950
55392,35947
55385,35943
55378,35938
55373,35931
55369,35924
55366,35916
55365,35905
55365,35724
55366,35713
55369,35705
55373,35698
55378,35691
55385,35686
55392,35682
55400,35679
55411,35678
55611,35678
55622,35679
" /> 
<polyline style="fill-rule:evenodd;"
points="54835,35528
54843,35530
54851,35534
54857,35540
54862,35546
54866,35554
54869,35562
54870,35573
54870,35753
54869,35764
54866,35772
54862,35780
54857,35786
54851,35792
54843,35796
54835,35798
54824,35799
54624,35799
54613,35798
54605,35796
54597,35792
54591,35786
54585,35780
54581,35772
54579,35764
54578,35753
54578,35573
54579,35562
54581,35554
54585,35546
54591,35540
54597,35534
54605,35530
54613,35528
54624,35527
54824,35527
54835,35528
" /> 
<polyline style="fill-rule:evenodd;"
points="52473,35528
52481,35530
52488,35534
52495,35540
52500,35546
52504,35554
52507,35562
52508,35573
52508,35753
52507,35764
52504,35772
52500,35780
52495,35786
52488,35792
52481,35796
52473,35798
52462,35799
52262,35799
52251,35798
52243,35796
52235,35792
52229,35786
52223,35780
52219,35772
52217,35764
52216,35753
52216,35573
52217,35562
52219,35554
52223,35546
52229,35540
52235,35534
52243,35530
52251,35528
52262,35527
52462,35527
52473,35528
" /> 
<polyline style="fill-rule:evenodd;"
points="63455,35797
62942,35797
62942,35481
63455,35481
63455,35797
" /> 
<polyline style="fill-rule:evenodd;"
points="61900,35288
61908,35290
61915,35294
61922,35299
61927,35306
61931,35313
61934,35322
61935,35332
61935,35533
61934,35544
61931,35552
61927,35559
61922,35566
61915,35571
61908,35575
61900,35578
61889,35579
61708,35579
61698,35578
61689,35575
61682,35571
61675,35566
61670,35559
61666,35552
61664,35544
61662,35533
61662,35332
61664,35322
61666,35313
61670,35306
61675,35299
61682,35294
61689,35290
61698,35288
61708,35287
61889,35287
61900,35288
" /> 
<polyline style="fill-rule:evenodd;"
points="61518,35288
61526,35290
61534,35294
61540,35299
61546,35306
61550,35313
61552,35322
61553,35332
61553,35533
61552,35544
61550,35552
61546,35559
61540,35566
61534,35571
61526,35575
61518,35578
61507,35579
61327,35579
61316,35578
61308,35575
61300,35571
61294,35566
61288,35559
61284,35552
61282,35544
61281,35533
61281,35332
61282,35322
61284,35313
61288,35306
61294,35299
61300,35294
61308,35290
61316,35288
61327,35287
61507,35287
61518,35288
" /> 
<polyline style="fill-rule:evenodd;"
points="56213,35303
56221,35306
56228,35310
56235,35315
56240,35322
56244,35329
56247,35337
56248,35348
56248,35529
56247,35540
56244,35548
56240,35555
56235,35562
56228,35567
56221,35571
56213,35574
56202,35575
56002,35575
55991,35574
55983,35571
55975,35567
55969,35562
55963,35555
55959,35548
55957,35540
55956,35529
55956,35348
55957,35337
55959,35329
55963,35322
55969,35315
55975,35310
55983,35306
55991,35303
56002,35302
56202,35302
56213,35303
" /> 
<polyline style="fill-rule:evenodd;"
points="55622,35297
55630,35300
55638,35304
55644,35309
55650,35316
55654,35323
55656,35331
55657,35342
55657,35523
55656,35534
55654,35542
55650,35549
55644,35556
55638,35561
55630,35565
55622,35568
55611,35569
55411,35569
55400,35568
55392,35565
55385,35561
55378,35556
55373,35549
55369,35542
55366,35534
55365,35523
55365,35342
55366,35331
55369,35323
55373,35316
55378,35309
55385,35304
55392,35300
55400,35297
55411,35296
55611,35296
55622,35297
" /> 
<polyline style="fill-rule:evenodd;"
points="54319,35443
53798,35443
53798,35147
54319,35147
54319,35443
" /> 
<polyline style="fill-rule:evenodd;"
points="52473,35146
52481,35148
52488,35152
52495,35158
52500,35164
52504,35172
52507,35180
52508,35191
52508,35371
52507,35382
52504,35390
52500,35398
52495,35404
52488,35410
52481,35414
52473,35416
52462,35417
52262,35417
52251,35416
52243,35414
52235,35410
52229,35404
52223,35398
52219,35390
52217,35382
52216,35371
52216,35191
52217,35180
52219,35172
52223,35164
52229,35158
52235,35152
52243,35148
52251,35146
52262,35145
52462,35145
52473,35146
" /> 
<polyline style="fill-rule:evenodd;"
points="54835,35146
54843,35148
54851,35152
54857,35158
54862,35164
54866,35172
54869,35180
54870,35191
54870,35371
54869,35382
54866,35390
54862,35398
54857,35404
54851,35410
54843,35414
54835,35416
54824,35417
54624,35417
54613,35416
54605,35414
54597,35410
54591,35404
54585,35398
54581,35390
54579,35382
54578,35371
54578,35191
54579,35180
54581,35172
54585,35164
54591,35158
54597,35152
54605,35148
54613,35146
54624,35145
54824,35145
54835,35146
" /> 
<polyline style="fill-rule:evenodd;"
points="63455,35364
62942,35364
62942,35048
63455,35048
63455,35364
" /> 
<polyline style="fill-rule:evenodd;"
points="50939,34588
50965,34591
51005,34603
51032,34611
51086,34640
51093,34644
51107,34656
51147,34688
51177,34724
51192,34742
51192,34742
51224,34804
51224,34804
51245,34871
51252,34940
51245,35010
51237,35034
51224,35077
51200,35123
51192,35138
51185,35147
51147,35192
51118,35217
51093,35237
51093,35237
51032,35270
51009,35277
50965,35290
50939,35293
50913,35295
50779,35295
50753,35293
50727,35290
50683,35277
50660,35270
50599,35237
50599,35237
50574,35217
50545,35192
50507,35147
50500,35138
50492,35123
50467,35077
50454,35034
50447,35010
50440,34940
50447,34871
50467,34804
50467,34804
50500,34742
50500,34742
50515,34724
50545,34688
50585,34656
50599,34644
50606,34640
50660,34611
50687,34603
50727,34591
50753,34588
50779,34586
50913,34586
50939,34588
" /> 
<polyline style="fill-rule:evenodd;"
points="56213,34898
56221,34900
56228,34904
56235,34910
56240,34916
56244,34924
56247,34932
56248,34943
56248,35123
56247,35134
56244,35142
56240,35150
56235,35156
56228,35162
56221,35166
56213,35168
56202,35169
56002,35169
55991,35168
55983,35166
55975,35162
55969,35156
55963,35150
55959,35142
55957,35134
55956,35123
55956,34943
55957,34932
55959,34924
55963,34916
55969,34910
55975,34904
55983,34900
55991,34898
56002,34897
56202,34897
56213,34898
" /> 
<polyline style="fill-rule:evenodd;"
points="61870,35079
60964,35079
60964,34507
61870,34507
61870,35079
" /> 
<polyline style="fill-rule:evenodd;"
points="63455,34931
62942,34931
62942,34615
63455,34615
63455,34931
" /> 
<polyline style="fill-rule:evenodd;"
points="56213,34516
56221,34518
56228,34522
56235,34528
56240,34534
56244,34542
56247,34550
56248,34561
56248,34741
56247,34752
56244,34760
56240,34768
56235,34774
56228,34780
56221,34784
56213,34786
56202,34787
56002,34787
55991,34786
55983,34784
55975,34780
55969,34774
55963,34768
55959,34760
55957,34752
55956,34741
55956,34561
55957,34550
55959,34542
55963,34534
55969,34528
55975,34522
55983,34518
55991,34516
56002,34515
56202,34515
56213,34516
" /> 
<polyline style="fill-rule:evenodd;"
points="53701,34724
52873,34724
52873,34251
53701,34251
53701,34724
" /> 
<polyline style="fill-rule:evenodd;"
points="54212,34724
53857,34724
53857,34251
54212,34251
54212,34724
" /> 
<polyline style="fill-rule:evenodd;"
points="63455,34498
62942,34498
62942,34182
63455,34182
63455,34498
" /> 
<polyline style="fill-rule:evenodd;"
points="61870,34390
60964,34390
60964,33818
61870,33818
61870,34390
" /> 
<polyline style="fill-rule:evenodd;"
points="51194,33603
51207,33607
51219,33613
51229,33622
51238,33633
51244,33645
51248,33658
51250,33673
51250,34239
51248,34255
51244,34268
51238,34280
51229,34290
51219,34299
51207,34305
51194,34309
51178,34311
50514,34311
50498,34309
50485,34305
50473,34299
50463,34290
50454,34280
50448,34268
50444,34255
50442,34239
50442,33673
50444,33658
50448,33645
50454,33633
50463,33622
50473,33613
50485,33607
50498,33603
50514,33601
51178,33601
51194,33603
" /> 
<polyline style="fill-rule:evenodd;"
points="56213,33914
56221,33916
56228,33920
56235,33925
56240,33932
56244,33939
56247,33948
56248,33958
56248,34139
56247,34150
56244,34158
56240,34165
56235,34172
56228,34177
56221,34181
56213,34184
56202,34185
56002,34185
55991,34184
55983,34181
55975,34177
55969,34172
55963,34165
55959,34158
55957,34150
55956,34139
55956,33958
55957,33948
55959,33939
55963,33932
55969,33925
55975,33920
55983,33916
55991,33914
56002,33912
56202,33912
56213,33914
" /> 
<polyline style="fill-rule:evenodd;"
points="57208,33680
57216,33681
57224,33684
57227,33684
57237,33690
57248,33699
57252,33702
57260,33708
57269,33711
57278,33713
57288,33713
57297,33711
57306,33708
57314,33702
57318,33699
57329,33690
57339,33684
57342,33684
57350,33681
57362,33680
57362,33680
57366,33680
57373,33681
57382,33684
57385,33684
57395,33690
57406,33699
57409,33702
57417,33708
57426,33711
57436,33713
57445,33713
57455,33711
57464,33708
57472,33702
57475,33699
57486,33690
57496,33684
57499,33684
57508,33681
57519,33680
57519,33680
57523,33680
57531,33681
57539,33684
57542,33684
57552,33690
57563,33699
57567,33702
57575,33708
57584,33711
57593,33713
57603,33713
57612,33711
57621,33708
57629,33702
57633,33699
57643,33690
57654,33684
57657,33684
57665,33681
57677,33680
57677,33680
57681,33680
57688,33681
57697,33684
57700,33684
57710,33690
57721,33699
57724,33702
57732,33708
57741,33711
57751,33713
57760,33713
57770,33711
57779,33708
57787,33702
57790,33699
57801,33690
57811,33684
57814,33684
57822,33681
57834,33680
57834,33680
57838,33680
57846,33681
57854,33684
57857,33684
57867,33690
57878,33699
57882,33702
57890,33708
57899,33711
57908,33713
57918,33713
57927,33711
57936,33708
57944,33702
57948,33699
57958,33690
57969,33684
57972,33684
57980,33681
57992,33680
57992,33680
57996,33680
58003,33681
58012,33684
58014,33684
58025,33690
58036,33699
58039,33702
58047,33708
58056,33711
58066,33713
58075,33713
58085,33711
58094,33708
58102,33702
58105,33699
58116,33690
58126,33684
58129,33684
58137,33681
58149,33680
58149,33680
58153,33680
58161,33681
58169,33684
58172,33684
58182,33690
58193,33699
58197,33702
58205,33708
58214,33711
58223,33713
58233,33713
58242,33711
58251,33708
58259,33702
58262,33699
58273,33690
58284,33684
58287,33684
58295,33681
58307,33680
58307,33680
58310,33680
58318,33681
58327,33684
58329,33684
58340,33690
58351,33699
58354,33702
58362,33708
58371,33711
58381,33713
58390,33713
58400,33711
58409,33708
58417,33702
58420,33699
58431,33690
58441,33684
58444,33684
58452,33681
58464,33680
58464,33680
58468,33680
58476,33681
58484,33684
58487,33684
58497,33690
58508,33699
58512,33702
58520,33708
58529,33711
58538,33713
58548,33713
58557,33711
58566,33708
58574,33702
58577,33699
58588,33690
58599,33684
58602,33684
58610,33681
58622,33680
58622,33680
58625,33680
58633,33681
58641,33684
58644,33684
58655,33690
58666,33699
58669,33702
58677,33708
58686,33711
58695,33713
58705,33713
58715,33711
58723,33708
58732,33702
58735,33699
58746,33690
58756,33684
58759,33684
58767,33681
58779,33680
58779,33680
58783,33680
58791,33681
58799,33684
58802,33684
58812,33690
58823,33699
58827,33702
58835,33708
58843,33711
58853,33713
58863,33713
58872,33711
58881,33708
58889,33702
58892,33699
58903,33690
58914,33684
58917,33684
58925,33681
58937,33680
58937,33680
58940,33680
58948,33681
58956,33684
58959,33684
58970,33690
58981,33699
58984,33702
58992,33708
59001,33711
59010,33713
59020,33713
59030,33711
59038,33708
59046,33702
59050,33699
59061,33690
59071,33684
59074,33684
59082,33681
59094,33680
59094,33680
59098,33680
59106,33681
59114,33684
59117,33684
59127,33690
59138,33699
59142,33702
59150,33708
59158,33711
59168,33713
59178,33713
59187,33711
59196,33708
59204,33702
59207,33699
59218,33690
59229,33684
59232,33684
59240,33681
59251,33680
59251,33680
59255,33680
59263,33681
59271,33684
59274,33684
59285,33690
59296,33699
59299,33702
59307,33708
59316,33711
59325,33713
59335,33713
59344,33711
59353,33708
59361,33702
59365,33699
59376,33690
59386,33684
59389,33684
59397,33681
59409,33680
59409,33680
59413,33680
59421,33681
59429,33684
59432,33684
59442,33690
59453,33699
59456,33702
59464,33708
59473,33711
59483,33713
59493,33713
59502,33711
59511,33708
59519,33702
59522,33699
59533,33690
59544,33684
59546,33684
59555,33681
59566,33680
59566,33680
59570,33680
59578,33681
59586,33684
59589,33684
59600,33690
59611,33699
59614,33702
59622,33708
59631,33711
59640,33713
59650,33713
59659,33711
59668,33708
59676,33702
59680,33699
59691,33690
59701,33684
59704,33684
59712,33681
59724,33680
59724,33680
59728,33680
59736,33681
59744,33684
59747,33684
59757,33690
59766,33697
59774,33706
59779,33717
59779,33717
59782,33728
59783,33737
59783,33979
59782,33988
59780,33996
59779,33999
59774,34009
59766,34018
59757,34026
59747,34031
59747,34031
59736,34034
59724,34036
59724,34036
59720,34035
59712,34034
59704,34032
59701,34031
59691,34026
59680,34017
59676,34013
59668,34008
59659,34004
59650,34002
59640,34002
59631,34004
59622,34008
59614,34013
59611,34017
59600,34026
59589,34031
59589,34031
59578,34034
59566,34036
59566,34036
59563,34035
59555,34034
59546,34032
59544,34031
59533,34026
59522,34017
59519,34013
59511,34008
59502,34004
59493,34002
59483,34002
59473,34004
59464,34008
59456,34013
59453,34017
59442,34026
59432,34031
59432,34031
59421,34034
59409,34036
59409,34036
59405,34035
59397,34034
59389,34032
59386,34031
59376,34026
59365,34017
59361,34013
59353,34008
59344,34004
59335,34002
59325,34002
59316,34004
59307,34008
59299,34013
59296,34017
59285,34026
59274,34031
59274,34031
59263,34034
59251,34036
59251,34036
59248,34035
59240,34034
59232,34032
59229,34031
59218,34026
59207,34017
59204,34013
59196,34008
59187,34004
59178,34002
59168,34002
59158,34004
59150,34008
59142,34013
59138,34017
59127,34026
59117,34031
59117,34031
59106,34034
59094,34036
59094,34036
59090,34035
59082,34034
59074,34032
59071,34031
59061,34026
59050,34017
59046,34013
59038,34008
59030,34004
59020,34002
59010,34002
59001,34004
58992,34008
58984,34013
58981,34017
58970,34026
58959,34031
58959,34031
58948,34034
58937,34036
58937,34036
58933,34035
58925,34034
58917,34032
58914,34031
58903,34026
58892,34017
58889,34013
58881,34008
58872,34004
58863,34002
58853,34002
58843,34004
58835,34008
58827,34013
58823,34017
58812,34026
58802,34031
58802,34031
58791,34034
58779,34036
58779,34036
58775,34035
58767,34034
58759,34032
58756,34031
58746,34026
58735,34017
58732,34013
58723,34008
58715,34004
58705,34002
58695,34002
58686,34004
58677,34008
58669,34013
58666,34017
58655,34026
58644,34031
58644,34031
58633,34034
58622,34036
58622,34036
58618,34035
58610,34034
58602,34032
58599,34031
58588,34026
58577,34017
58574,34013
58566,34008
58557,34004
58548,34002
58538,34002
58529,34004
58520,34008
58512,34013
58508,34017
58497,34026
58487,34031
58487,34031
58476,34034
58464,34036
58464,34036
58460,34035
58452,34034
58444,34032
58441,34031
58431,34026
58420,34017
58417,34013
58409,34008
58400,34004
58390,34002
58381,34002
58371,34004
58362,34008
58354,34013
58351,34017
58340,34026
58329,34031
58329,34031
58318,34034
58307,34036
58307,34036
58303,34035
58295,34034
58287,34032
58284,34031
58273,34026
58262,34017
58259,34013
58251,34008
58242,34004
58233,34002
58223,34002
58214,34004
58205,34008
58197,34013
58193,34017
58182,34026
58172,34031
58172,34031
58161,34034
58149,34036
58149,34036
58145,34035
58137,34034
58129,34032
58126,34031
58116,34026
58105,34017
58102,34013
58094,34008
58085,34004
58075,34002
58066,34002
58056,34004
58047,34008
58039,34013
58036,34017
58025,34026
58014,34031
58014,34031
58003,34034
57992,34036
57992,34036
57988,34035
57980,34034
57972,34032
57969,34031
57958,34026
57948,34017
57944,34013
57936,34008
57927,34004
57918,34002
57908,34002
57899,34004
57890,34008
57882,34013
57878,34017
57867,34026
57857,34031
57857,34031
57846,34034
57834,34036
57834,34036
57830,34035
57822,34034
57814,34032
57811,34031
57801,34026
57790,34017
57787,34013
57779,34008
57770,34004
57760,34002
57751,34002
57741,34004
57732,34008
57724,34013
57721,34017
57710,34026
57700,34031
57700,34031
57688,34034
57677,34036
57677,34036
57673,34035
57665,34034
57657,34032
57654,34031
57643,34026
57633,34017
57629,34013
57621,34008
57612,34004
57603,34002
57593,34002
57584,34004
57575,34008
57567,34013
57563,34017
57552,34026
57542,34031
57542,34031
57531,34034
57519,34036
57519,34036
57515,34035
57508,34034
57499,34032
57496,34031
57486,34026
57475,34017
57472,34013
57464,34008
57455,34004
57445,34002
57436,34002
57426,34004
57417,34008
57409,34013
57406,34017
57395,34026
57385,34031
57385,34031
57373,34034
57362,34036
57362,34036
57358,34035
57350,34034
57342,34032
57339,34031
57329,34026
57318,34017
57314,34013
57306,34008
57297,34004
57288,34002
57278,34002
57269,34004
57260,34008
57252,34013
57248,34017
57237,34026
57227,34031
57227,34031
57216,34034
57204,34036
57204,34036
57200,34035
57193,34034
57184,34032
57181,34031
57171,34026
57162,34018
57155,34009
57149,33999
57149,33999
57146,33988
57145,33979
57145,33737
57146,33728
57149,33717
57149,33717
57155,33706
57162,33697
57171,33690
57181,33684
57184,33684
57193,33681
57204,33680
57204,33680
57208,33680
" /> 
<polyline style="fill-rule:evenodd;"
points="63455,33947
62942,33947
62942,33513
63455,33513
63455,33947
" /> 
<polyline style="fill-rule:evenodd;"
points="56213,33532
56221,33534
56228,33538
56235,33544
56240,33550
56244,33558
56247,33566
56248,33577
56248,33757
56247,33768
56244,33776
56240,33784
56235,33790
56228,33796
56221,33800
56213,33802
56202,33803
56002,33803
55991,33802
55983,33800
55975,33796
55969,33790
55963,33784
55959,33776
55957,33768
55956,33757
55956,33577
55957,33566
55959,33558
55963,33550
55969,33544
55975,33538
55983,33534
55991,33532
56002,33531
56202,33531
56213,33532
" /> 
<polyline style="fill-rule:evenodd;"
points="54319,33789
53798,33789
53798,33493
54319,33493
54319,33789
" /> 
<polyline style="fill-rule:evenodd;"
points="53287,33789
52767,33789
52767,32745
53287,32745
53287,33789
" /> 
<polyline style="fill-rule:evenodd;"
points="61518,33319
61526,33322
61534,33326
61540,33331
61546,33337
61550,33345
61552,33353
61553,33364
61553,33564
61552,33575
61550,33583
61546,33591
61540,33597
61534,33603
61526,33607
61518,33609
61507,33610
61327,33610
61316,33609
61308,33607
61300,33603
61294,33597
61288,33591
61284,33583
61282,33575
61281,33564
61281,33364
61282,33353
61284,33345
61288,33337
61294,33331
61300,33326
61308,33322
61316,33319
61327,33318
61507,33318
61518,33319
" /> 
<polyline style="fill-rule:evenodd;"
points="61900,33319
61908,33322
61915,33326
61922,33331
61927,33337
61931,33345
61934,33353
61935,33364
61935,33564
61934,33575
61931,33583
61927,33591
61922,33597
61915,33603
61908,33607
61900,33609
61889,33610
61708,33610
61698,33609
61689,33607
61682,33603
61675,33597
61670,33591
61666,33583
61664,33575
61662,33564
61662,33364
61664,33353
61666,33345
61670,33337
61675,33331
61682,33326
61689,33322
61698,33319
61708,33318
61889,33318
61900,33319
" /> 
<polyline style="fill-rule:evenodd;"
points="52473,33126
52481,33129
52488,33133
52495,33138
52500,33145
52504,33152
52507,33160
52508,33171
52508,33352
52507,33362
52504,33371
52500,33378
52495,33385
52488,33390
52481,33394
52473,33396
52462,33398
52262,33398
52251,33396
52243,33394
52235,33390
52229,33385
52223,33378
52219,33371
52217,33362
52216,33352
52216,33171
52217,33160
52219,33152
52223,33145
52229,33138
52235,33133
52243,33129
52251,33126
52262,33125
52462,33125
52473,33126
" /> 
<polyline style="fill-rule:evenodd;"
points="54835,33126
54843,33129
54851,33133
54857,33138
54862,33145
54866,33152
54869,33160
54870,33171
54870,33352
54869,33362
54866,33371
54862,33378
54857,33385
54851,33390
54843,33394
54835,33396
54824,33398
54624,33398
54613,33396
54605,33394
54597,33390
54591,33385
54585,33378
54581,33371
54579,33362
54578,33352
54578,33171
54579,33160
54581,33152
54585,33145
54591,33138
54597,33133
54605,33129
54613,33126
54624,33125
54824,33125
54835,33126
" /> 
<polyline style="fill-rule:evenodd;"
points="59156,32925
59164,32928
59171,32932
59178,32937
59183,32944
59187,32951
59190,32959
59191,32970
59191,33171
59190,33181
59187,33189
59183,33197
59178,33204
59171,33209
59164,33213
59156,33215
59145,33216
58964,33216
58953,33215
58945,33213
58938,33209
58931,33204
58926,33197
58922,33189
58919,33181
58918,33171
58918,32970
58919,32959
58922,32951
58926,32944
58931,32937
58938,32932
58945,32928
58953,32925
58964,32924
59145,32924
59156,32925
" /> 
<polyline style="fill-rule:evenodd;"
points="57975,32925
57983,32928
57990,32932
57997,32937
58002,32944
58006,32951
58009,32959
58010,32970
58010,33171
58009,33181
58006,33189
58002,33197
57997,33204
57990,33209
57983,33213
57975,33215
57964,33216
57783,33216
57772,33215
57764,33213
57757,33209
57750,33204
57745,33197
57741,33189
57738,33181
57737,33171
57737,32970
57738,32959
57741,32951
57745,32944
57750,32937
57757,32932
57764,32928
57772,32925
57783,32924
57964,32924
57975,32925
" /> 
<polyline style="fill-rule:evenodd;"
points="58357,32925
58365,32928
58372,32932
58379,32937
58384,32944
58388,32951
58391,32959
58392,32970
58392,33171
58391,33181
58388,33189
58384,33197
58379,33204
58372,33209
58365,33213
58357,33215
58346,33216
58165,33216
58154,33215
58146,33213
58139,33209
58132,33204
58127,33197
58123,33189
58120,33181
58119,33171
58119,32970
58120,32959
58123,32951
58127,32944
58132,32937
58139,32932
58146,32928
58154,32925
58165,32924
58346,32924
58357,32925
" /> 
<polyline style="fill-rule:evenodd;"
points="58774,32925
58782,32928
58789,32932
58796,32937
58801,32944
58805,32951
58808,32959
58809,32970
58809,33171
58808,33181
58805,33189
58801,33197
58796,33204
58789,33209
58782,33213
58774,33215
58763,33216
58582,33216
58572,33215
58563,33213
58556,33209
58549,33204
58544,33197
58540,33189
58538,33181
58537,33171
58537,32970
58538,32959
58540,32951
58544,32944
58549,32937
58556,32932
58563,32928
58572,32925
58582,32924
58763,32924
58774,32925
" /> 
<polyline style="fill-rule:evenodd;"
points="59931,32925
59939,32928
59947,32932
59954,32937
59959,32944
59963,32951
59965,32959
59966,32970
59966,33171
59965,33181
59963,33189
59959,33197
59954,33204
59947,33209
59939,33213
59931,33215
59921,33216
59740,33216
59729,33215
59721,33213
59713,33209
59707,33204
59702,33197
59698,33189
59695,33181
59694,33171
59694,32970
59695,32959
59698,32951
59702,32944
59707,32937
59713,32932
59721,32928
59729,32925
59740,32924
59921,32924
59931,32925
" /> 
<polyline style="fill-rule:evenodd;"
points="59549,32925
59558,32928
59565,32932
59572,32937
59577,32944
59581,32951
59583,32959
59585,32970
59585,33171
59583,33181
59581,33189
59577,33197
59572,33204
59565,33209
59558,33213
59549,33215
59539,33216
59358,33216
59347,33215
59339,33213
59332,33209
59325,33204
59320,33197
59316,33189
59313,33181
59312,33171
59312,32970
59313,32959
59316,32951
59320,32944
59325,32937
59332,32932
59339,32928
59347,32925
59358,32924
59539,32924
59549,32925
" /> 
<polyline style="fill-rule:evenodd;"
points="55565,32827
55573,32829
55581,32833
55587,32839
55593,32845
55597,32853
55599,32861
55600,32872
55600,33072
55599,33083
55597,33091
55593,33099
55587,33105
55581,33110
55573,33114
55565,33117
55554,33118
55374,33118
55363,33117
55355,33114
55347,33110
55341,33105
55335,33099
55331,33091
55329,33083
55328,33072
55328,32872
55329,32861
55331,32853
55335,32845
55341,32839
55347,32833
55355,32829
55363,32827
55374,32826
55554,32826
55565,32827
" /> 
<polyline style="fill-rule:evenodd;"
points="55947,32827
55955,32829
55963,32833
55969,32839
55975,32845
55979,32853
55981,32861
55982,32872
55982,33072
55981,33083
55979,33091
55975,33099
55969,33105
55963,33110
55955,33114
55947,33117
55936,33118
55756,33118
55745,33117
55737,33114
55729,33110
55723,33105
55717,33099
55713,33091
55711,33083
55710,33072
55710,32872
55711,32861
55713,32853
55717,32845
55723,32839
55729,32833
55737,32829
55745,32827
55756,32826
55936,32826
55947,32827
" /> 
<polyline style="fill-rule:evenodd;"
points="69537,33081
68749,33081
68749,32529
69537,32529
69537,33081
" /> 
<polyline style="fill-rule:evenodd;"
points="54319,33041
53798,33041
53798,32745
54319,32745
54319,33041
" /> 
<polyline style="fill-rule:evenodd;"
points="54835,32744
54843,32747
54851,32751
54857,32756
54862,32763
54866,32770
54869,32778
54870,32789
54870,32970
54869,32981
54866,32989
54862,32996
54857,33003
54851,33008
54843,33012
54835,33015
54824,33016
54624,33016
54613,33015
54605,33012
54597,33008
54591,33003
54585,32996
54581,32989
54579,32981
54578,32970
54578,32789
54579,32778
54581,32770
54585,32763
54591,32756
54597,32751
54605,32747
54613,32744
54624,32743
54824,32743
54835,32744
" /> 
<polyline style="fill-rule:evenodd;"
points="52473,32744
52481,32747
52488,32751
52495,32756
52500,32763
52504,32770
52507,32778
52508,32789
52508,32970
52507,32981
52504,32989
52500,32996
52495,33003
52488,33008
52481,33012
52473,33015
52462,33016
52262,33016
52251,33015
52243,33012
52235,33008
52229,33003
52223,32996
52219,32989
52217,32981
52216,32970
52216,32789
52217,32778
52219,32770
52223,32763
52229,32756
52235,32751
52243,32747
52251,32744
52262,32743
52462,32743
52473,32744
" /> 
<polyline style="fill-rule:evenodd;"
points="55172,32355
55180,32357
55187,32361
55194,32366
55199,32373
55203,32380
55206,32389
55207,32399
55207,32600
55206,32610
55203,32619
55199,32626
55194,32633
55187,32638
55180,32642
55172,32644
55161,32646
54980,32646
54969,32644
54961,32642
54954,32638
54947,32633
54942,32626
54938,32619
54935,32610
54934,32600
54934,32399
54935,32389
54938,32380
54942,32373
54947,32366
54954,32361
54961,32357
54969,32355
54980,32353
55161,32353
55172,32355
" /> 
<polyline style="fill-rule:evenodd;"
points="55553,32355
55562,32357
55569,32361
55576,32366
55581,32373
55585,32380
55587,32389
55588,32399
55588,32600
55587,32610
55585,32619
55581,32626
55576,32633
55569,32638
55562,32642
55553,32644
55543,32646
55362,32646
55351,32644
55343,32642
55336,32638
55329,32633
55324,32626
55320,32619
55317,32610
55316,32600
55316,32399
55317,32389
55320,32380
55324,32373
55329,32366
55336,32361
55343,32357
55351,32355
55362,32353
55543,32353
55553,32355
" /> 
<polyline style="fill-rule:evenodd;"
points="58516,32201
58524,32203
58532,32207
58538,32213
58544,32219
58548,32227
58550,32235
58551,32246
58551,32426
58550,32437
58548,32445
58544,32453
58538,32459
58532,32465
58524,32469
58516,32471
58505,32472
58305,32472
58294,32471
58286,32469
58278,32465
58272,32459
58266,32453
58262,32445
58260,32437
58259,32426
58259,32246
58260,32235
58262,32227
58266,32219
58272,32213
58278,32207
58286,32203
58294,32201
58305,32200
58505,32200
58516,32201
" /> 
<polyline style="fill-rule:evenodd;"
points="57866,32201
57875,32203
57882,32207
57889,32213
57894,32219
57898,32227
57900,32235
57901,32246
57901,32426
57900,32437
57898,32445
57894,32453
57889,32459
57882,32465
57875,32469
57866,32471
57856,32472
57655,32472
57644,32471
57636,32469
57629,32465
57622,32459
57617,32453
57613,32445
57610,32437
57609,32426
57609,32246
57610,32235
57613,32227
57617,32219
57622,32213
57629,32207
57636,32203
57644,32201
57655,32200
57856,32200
57866,32201
" /> 
<polyline style="fill-rule:evenodd;"
points="56272,32470
55814,32470
55814,31426
56272,31426
56272,32470
" /> 
<polyline style="fill-rule:evenodd;"
points="57138,32470
56680,32470
56680,31426
57138,31426
57138,32470
" /> 
<polyline style="fill-rule:evenodd;"
points="53228,32441
52401,32441
52401,31968
53228,31968
53228,32441
" /> 
<polyline style="fill-rule:evenodd;"
points="53740,32441
53385,32441
53385,31968
53740,31968
53740,32441
" /> 
<polyline style="fill-rule:evenodd;"
points="54421,31792
54434,31796
54446,31803
54457,31812
54466,31822
54473,31835
54477,31848
54478,31864
54478,32101
54477,32117
54473,32131
54466,32143
54457,32154
54446,32163
54434,32169
54421,32173
54404,32175
54138,32175
54122,32173
54108,32169
54096,32163
54085,32154
54076,32143
54070,32131
54066,32117
54064,32101
54064,31864
54066,31848
54070,31835
54076,31822
54085,31812
54096,31803
54108,31796
54122,31792
54138,31790
54404,31790
54421,31792
" /> 
<polyline style="fill-rule:evenodd;"
points="55208,31792
55221,31796
55234,31803
55245,31812
55253,31822
55260,31835
55264,31848
55266,31864
55266,32101
55264,32117
55260,32131
55253,32143
55245,32154
55234,32163
55221,32169
55208,32173
55192,32175
54925,32175
54909,32173
54896,32169
54883,32163
54873,32154
54864,32143
54857,32131
54853,32117
54851,32101
54851,31864
54853,31848
54857,31835
54864,31822
54873,31812
54883,31803
54896,31796
54909,31792
54925,31790
55192,31790
55208,31792
" /> 
<polyline style="fill-rule:evenodd;"
points="47365,30857
47433,30871
47551,30920
47640,30979
47658,30991
47748,31081
47748,31081
47819,31187
47820,31188
47831,31215
47869,31306
47873,31329
47894,31432
47894,31560
47888,31590
47869,31685
47864,31696
47822,31798
47820,31803
47777,31868
47748,31910
47658,32000
47658,32000
47551,32072
47433,32121
47391,32129
47308,32146
47180,32146
47096,32129
47054,32121
46936,32072
46829,32000
46829,32000
46739,31910
46711,31868
46668,31803
46665,31798
46623,31696
46619,31685
46600,31590
46594,31560
46594,31432
46614,31329
46619,31306
46656,31215
46668,31188
46668,31187
46739,31081
46739,31081
46829,30991
46847,30979
46936,30920
47054,30871
47122,30857
47180,30846
47308,30846
47365,30857
" /> 
<polyline style="fill-rule:evenodd;"
points="70987,30857
71055,30871
71174,30920
71262,30979
71280,30991
71371,31081
71371,31081
71441,31187
71442,31188
71453,31215
71491,31306
71495,31329
71516,31432
71516,31560
71510,31590
71491,31685
71486,31696
71444,31798
71442,31803
71399,31868
71371,31910
71280,32000
71280,32000
71174,32072
71055,32121
71013,32129
70930,32146
70802,32146
70718,32129
70676,32121
70558,32072
70451,32000
70451,32000
70361,31910
70333,31868
70290,31803
70287,31798
70245,31696
70241,31685
70222,31590
70216,31560
70216,31432
70236,31329
70241,31306
70278,31215
70290,31188
70290,31187
70361,31081
70361,31081
70451,30991
70469,30979
70558,30920
70676,30871
70744,30857
70802,30846
70930,30846
70987,30857
" /> 
<polyline style="fill-rule:evenodd;"
points="57866,31819
57875,31822
57882,31826
57889,31831
57894,31837
57898,31845
57900,31853
57901,31864
57901,32045
57900,32055
57898,32063
57894,32071
57889,32078
57882,32083
57875,32087
57866,32089
57856,32090
57655,32090
57644,32089
57636,32087
57629,32083
57622,32078
57617,32071
57613,32063
57610,32055
57609,32045
57609,31864
57610,31853
57613,31845
57617,31837
57622,31831
57629,31826
57636,31822
57644,31819
57655,31818
57856,31818
57866,31819
" /> 
<polyline style="fill-rule:evenodd;"
points="58516,31819
58524,31822
58532,31826
58538,31831
58544,31837
58548,31845
58550,31853
58551,31864
58551,32045
58550,32055
58548,32063
58544,32071
58538,32078
58532,32083
58524,32087
58516,32089
58505,32090
58305,32090
58294,32089
58286,32087
58278,32083
58272,32078
58266,32071
58262,32063
58260,32055
58259,32045
58259,31864
58260,31853
58262,31845
58266,31837
58272,31831
58278,31826
58286,31822
58294,31819
58305,31818
58505,31818
58516,31819
" /> 
<polyline style="fill-rule:evenodd;"
points="67275,31334
67288,31338
67301,31345
67311,31354
67320,31365
67327,31377
67331,31390
67333,31407
67333,31643
67331,31660
67327,31673
67320,31685
67311,31696
67301,31705
67288,31712
67275,31716
67259,31717
66992,31717
66976,31716
66963,31712
66950,31705
66940,31696
66931,31685
66924,31673
66920,31660
66918,31643
66918,31407
66920,31390
66924,31377
66931,31365
66940,31354
66950,31345
66963,31338
66976,31334
66992,31333
67259,31333
67275,31334
" /> 
<polyline style="fill-rule:evenodd;"
points="57866,31419
57875,31422
57882,31426
57889,31431
57894,31438
57898,31445
57900,31453
57901,31464
57901,31645
57900,31656
57898,31664
57894,31671
57889,31678
57882,31683
57875,31687
57866,31690
57856,31691
57655,31691
57644,31690
57636,31687
57629,31683
57622,31678
57617,31671
57613,31664
57610,31656
57609,31645
57609,31464
57610,31453
57613,31445
57617,31438
57622,31431
57629,31426
57636,31422
57644,31419
57655,31418
57856,31418
57866,31419
" /> 
<polyline style="fill-rule:evenodd;"
points="65413,30610
65418,30611
65423,30614
65429,30618
65438,30622
65447,30624
65457,30624
65467,30622
65475,30618
65482,30614
65487,30611
65492,30610
65499,30609
65642,30609
65649,30610
65654,30611
65658,30614
65662,30617
65665,30620
65667,30625
65668,30629
65669,30637
65669,30718
65670,30727
65673,30736
65677,30745
65684,30752
65691,30759
65700,30763
65709,30766
65718,30767
65918,30767
65925,30768
65929,30769
65934,30771
65937,30774
65940,30778
65943,30782
65944,30787
65945,30794
65945,30937
65944,30944
65943,30949
65940,30954
65936,30961
65932,30969
65930,30979
65930,30989
65932,30998
65936,31007
65940,31013
65943,31018
65944,31023
65945,31030
65945,31173
65944,31181
65943,31185
65940,31190
65936,31197
65932,31206
65930,31215
65930,31225
65932,31234
65936,31243
65940,31250
65943,31255
65944,31259
65945,31266
65945,31410
65944,31417
65943,31421
65940,31426
65937,31429
65934,31433
65929,31435
65925,31436
65918,31437
65718,31437
65709,31438
65700,31441
65691,31445
65684,31451
65677,31459
65673,31467
65670,31477
65669,31486
65669,31567
65668,31574
65667,31579
65665,31583
65662,31587
65658,31590
65654,31592
65649,31594
65642,31594
65499,31594
65492,31594
65487,31592
65482,31590
65475,31585
65467,31582
65457,31580
65447,31580
65438,31582
65429,31585
65423,31590
65418,31592
65413,31594
65406,31594
65263,31594
65255,31594
65251,31592
65246,31590
65243,31587
65240,31583
65237,31579
65236,31574
65235,31567
65235,31486
65234,31477
65232,31467
65227,31459
65221,31451
65213,31445
65205,31441
65196,31438
65186,31437
64987,31437
64980,31436
64975,31435
64971,31433
64967,31429
64964,31426
64962,31421
64960,31417
64960,31410
64960,31266
64960,31259
64962,31255
64965,31250
64969,31243
64973,31234
64974,31225
64974,31215
64973,31206
64969,31197
64965,31190
64962,31185
64960,31181
64960,31173
64960,31030
64960,31023
64962,31018
64965,31013
64969,31007
64973,30998
64974,30989
64974,30979
64974,30979
65202,30979
65202,30989
65204,30998
65207,31007
65212,31013
65214,31018
65216,31023
65216,31030
65216,31173
65216,31181
65214,31185
65212,31190
65207,31197
65204,31206
65202,31215
65202,31225
65204,31234
65207,31243
65212,31250
65214,31255
65216,31259
65216,31266
65216,31288
65217,31298
65220,31307
65225,31316
65231,31323
65238,31329
65247,31334
65256,31337
65266,31338
65406,31338
65413,31338
65418,31340
65423,31343
65429,31347
65438,31350
65447,31352
65457,31352
65467,31350
65475,31347
65482,31343
65487,31340
65492,31338
65499,31338
65639,31338
65648,31337
65658,31334
65666,31329
65674,31323
65680,31316
65684,31307
65687,31298
65688,31288
65688,31266
65689,31259
65690,31255
65693,31250
65697,31243
65701,31234
65703,31225
65703,31215
65701,31206
65697,31197
65693,31190
65690,31185
65689,31181
65688,31173
65688,31030
65689,31023
65690,31018
65693,31013
65697,31007
65701,30998
65703,30989
65703,30979
65701,30969
65697,30961
65693,30954
65690,30949
65689,30944
65688,30937
65688,30915
65687,30906
65684,30896
65680,30888
65674,30880
65666,30874
65658,30870
65648,30867
65639,30866
65499,30866
65492,30865
65487,30864
65482,30861
65475,30857
65467,30853
65457,30851
65447,30851
65438,30853
65429,30857
65423,30861
65418,30864
65413,30865
65406,30866
65266,30866
65256,30867
65247,30870
65238,30874
65231,30880
65225,30888
65220,30896
65217,30906
65216,30915
65216,30937
65216,30944
65214,30949
65212,30954
65207,30961
65204,30969
65202,30979
64974,30979
64973,30969
64969,30961
64965,30954
64962,30949
64960,30944
64960,30937
64960,30794
64960,30787
64962,30782
64964,30778
64967,30774
64971,30771
64975,30769
64980,30768
64987,30767
65186,30767
65196,30766
65205,30763
65213,30759
65221,30752
65227,30745
65232,30736
65234,30727
65235,30718
65235,30637
65236,30629
65237,30625
65240,30620
65243,30617
65246,30614
65251,30611
65255,30610
65263,30609
65406,30609
65413,30610
" /> 
<polyline style="fill-rule:evenodd;"
points="54421,31172
54434,31176
54446,31183
54457,31191
54466,31202
54473,31215
54477,31228
54478,31244
54478,31481
54477,31497
54473,31511
54466,31523
54457,31534
54446,31543
54434,31549
54421,31553
54404,31555
54138,31555
54122,31553
54108,31549
54096,31543
54085,31534
54076,31523
54070,31511
54066,31497
54064,31481
54064,31244
54066,31228
54070,31215
54076,31202
54085,31191
54096,31183
54108,31176
54122,31172
54138,31170
54404,31170
54421,31172
" /> 
<polyline style="fill-rule:evenodd;"
points="53858,31555
53227,31555
53227,29861
53858,29861
53858,31555
" /> 
<polyline style="fill-rule:evenodd;"
points="52441,31555
51810,31555
51810,29861
52441,29861
52441,31555
" /> 
<polyline style="fill-rule:evenodd;"
points="55208,31172
55221,31176
55234,31183
55245,31191
55253,31202
55260,31215
55264,31228
55266,31244
55266,31481
55264,31497
55260,31511
55253,31523
55245,31534
55234,31543
55221,31549
55208,31553
55192,31555
54925,31555
54909,31553
54896,31549
54883,31543
54873,31534
54864,31523
54857,31511
54853,31497
54851,31481
54851,31244
54853,31228
54857,31215
54864,31202
54873,31191
54883,31183
54896,31176
54909,31172
54925,31170
55192,31170
55208,31172
" /> 
<polyline style="fill-rule:evenodd;"
points="66646,31158
66654,31160
66662,31164
66668,31169
66673,31176
66677,31184
66680,31192
66681,31203
66681,31383
66680,31394
66677,31402
66673,31410
66668,31416
66662,31421
66654,31425
66646,31428
66635,31429
66435,31429
66424,31428
66416,31425
66408,31421
66402,31416
66396,31410
66392,31402
66390,31394
66389,31383
66389,31203
66390,31192
66392,31184
66396,31176
66402,31169
66408,31164
66416,31160
66424,31158
66435,31157
66635,31157
66646,31158
" /> 
<polyline style="fill-rule:evenodd;"
points="57866,31038
57875,31040
57882,31044
57889,31049
57894,31056
57898,31063
57900,31072
57901,31082
57901,31263
57900,31274
57898,31282
57894,31289
57889,31296
57882,31301
57875,31305
57866,31308
57856,31309
57655,31309
57644,31308
57636,31305
57629,31301
57622,31296
57617,31289
57613,31282
57610,31274
57609,31263
57609,31082
57610,31072
57613,31063
57617,31056
57622,31049
57629,31044
57636,31040
57644,31038
57655,31037
57856,31037
57866,31038
" /> 
<polyline style="fill-rule:evenodd;"
points="60199,30389
60274,30420
60342,30465
60400,30523
60445,30591
60476,30666
60492,30746
60492,30828
60476,30908
60445,30983
60400,31051
60342,31108
60274,31154
60199,31185
60119,31201
60037,31201
59958,31185
59882,31154
59814,31108
59757,31051
59712,30983
59680,30908
59664,30828
59664,30746
59680,30666
59712,30591
59757,30523
59814,30465
59882,30420
59958,30389
60037,30373
60119,30373
60199,30389
" /> 
<polyline style="fill-rule:evenodd;"
points="62167,30389
62243,30420
62311,30465
62368,30523
62413,30591
62445,30666
62461,30746
62461,30828
62445,30908
62413,30983
62368,31051
62311,31108
62243,31154
62167,31185
62087,31201
62006,31201
61926,31185
61851,31154
61783,31108
61725,31051
61680,30983
61649,30908
61633,30828
61633,30746
61649,30666
61680,30591
61725,30523
61783,30465
61851,30420
61926,30389
62006,30373
62087,30373
62167,30389
" /> 
<polyline style="fill-rule:evenodd;"
points="61183,30389
61258,30420
61326,30465
61384,30523
61429,30591
61460,30666
61476,30746
61476,30828
61460,30908
61429,30983
61384,31051
61326,31108
61258,31154
61183,31185
61103,31201
61022,31201
60942,31185
60866,31154
60799,31108
60741,31051
60696,30983
60665,30908
60649,30828
60649,30746
60665,30666
60696,30591
60741,30523
60799,30465
60866,30420
60942,30389
61022,30373
61103,30373
61183,30389
" /> 
<polyline style="fill-rule:evenodd;"
points="67275,30714
67288,30718
67301,30725
67311,30734
67320,30745
67327,30757
67331,30770
67333,30787
67333,31023
67331,31040
67327,31053
67320,31065
67311,31076
67301,31085
67288,31092
67275,31096
67259,31097
66992,31097
66976,31096
66963,31092
66950,31085
66940,31076
66931,31065
66924,31053
66920,31040
66918,31023
66918,30787
66920,30770
66924,30757
66931,30745
66940,30734
66950,30725
66963,30718
66976,30714
66992,30713
67259,30713
67275,30714
" /> 
<polyline style="fill-rule:evenodd;"
points="66646,30776
66654,30778
66662,30782
66668,30788
66673,30794
66677,30802
66680,30810
66681,30821
66681,31001
66680,31012
66677,31020
66673,31028
66668,31034
66662,31040
66654,31044
66646,31046
66635,31047
66435,31047
66424,31046
66416,31044
66408,31040
66402,31034
66396,31028
66392,31020
66390,31012
66389,31001
66389,30821
66390,30810
66392,30802
66396,30794
66402,30788
66408,30782
66416,30778
66424,30776
66435,30775
66635,30775
66646,30776
" /> 
<polyline style="fill-rule:evenodd;"
points="55820,30532
55835,30537
55849,30545
55862,30555
55872,30567
55879,30581
55884,30596
55886,30614
55886,30871
55884,30889
55879,30904
55872,30918
55862,30931
55849,30941
55835,30948
55820,30953
55802,30955
55378,30955
55360,30953
55345,30948
55331,30941
55318,30931
55308,30918
55301,30904
55296,30889
55294,30871
55294,30614
55296,30596
55301,30581
55308,30567
55318,30555
55331,30545
55345,30537
55360,30532
55378,30531
55802,30531
55820,30532
" /> 
<polyline style="fill-rule:evenodd;"
points="54836,30532
54851,30537
54865,30545
54877,30555
54888,30567
54895,30581
54900,30596
54901,30614
54901,30871
54900,30889
54895,30904
54888,30918
54877,30931
54865,30941
54851,30948
54836,30953
54818,30955
54394,30955
54376,30953
54360,30948
54346,30941
54334,30931
54324,30918
54317,30904
54312,30889
54310,30871
54310,30614
54312,30596
54317,30581
54324,30567
54334,30555
54346,30545
54360,30537
54376,30532
54394,30531
54818,30531
54836,30532
" /> 
<polyline style="fill-rule:evenodd;"
points="65270,29973
65278,29975
65286,29979
65292,29984
65297,29991
65301,29998
65304,30007
65305,30017
65305,30218
65304,30229
65301,30237
65297,30244
65292,30251
65286,30256
65278,30260
65270,30263
65259,30264
65078,30264
65068,30263
65060,30260
65052,30256
65045,30251
65040,30244
65036,30237
65034,30229
65033,30218
65033,30017
65034,30007
65036,29998
65040,29991
65045,29984
65052,29979
65060,29975
65068,29973
65078,29972
65259,29972
65270,29973
" /> 
<polyline style="fill-rule:evenodd;"
points="65652,29973
65660,29975
65667,29979
65674,29984
65679,29991
65683,29998
65686,30007
65687,30017
65687,30218
65686,30229
65683,30237
65679,30244
65674,30251
65667,30256
65660,30260
65652,30263
65641,30264
65460,30264
65450,30263
65441,30260
65434,30256
65427,30251
65422,30244
65418,30237
65416,30229
65414,30218
65414,30017
65416,30007
65418,29998
65422,29991
65427,29984
65434,29979
65441,29975
65450,29973
65460,29972
65641,29972
65652,29973
" /> 
<polyline style="fill-rule:evenodd;"
points="55820,29794
55835,29799
55849,29806
55862,29816
55872,29829
55879,29843
55884,29858
55886,29876
55886,30133
55884,30151
55879,30166
55872,30180
55862,30192
55849,30203
55835,30210
55820,30215
55802,30216
55378,30216
55360,30215
55345,30210
55331,30203
55318,30192
55308,30180
55301,30166
55296,30151
55294,30133
55294,29876
55296,29858
55301,29843
55308,29829
55318,29816
55331,29806
55345,29799
55360,29794
55378,29792
55802,29792
55820,29794
" /> 
<polyline style="fill-rule:evenodd;"
points="54836,29794
54851,29799
54865,29806
54877,29816
54888,29829
54895,29843
54900,29858
54901,29876
54901,30133
54900,30151
54895,30166
54888,30180
54877,30192
54865,30203
54851,30210
54836,30215
54818,30216
54394,30216
54376,30215
54360,30210
54346,30203
54334,30192
54324,30180
54317,30166
54312,30151
54310,30133
54310,29876
54312,29858
54317,29843
54324,29829
54334,29816
54346,29806
54360,29799
54376,29794
54394,29792
54818,29792
54836,29794
" /> 
</g> 
</svg>
