<?xml version="1.0" standalone="no"?>
 <!DOCTYPE svg PUBLIC "-//W3C//DTD SVG 1.1//EN" 
 "http://www.w3.org/Graphics/SVG/1.1/DTD/svg11.dtd"> 
<svg xmlns="http://www.w3.org/2000/svg" version="1.1" 
    width="29.7002cm" height="21.0007cm" viewBox="0 0 116930 82680 ">
<title>SVG Picture created as PD_Board-F.SilkS.svg date 2019/10/05 00:21:12 </title>
  <desc>Picture generated by PCBNEW </desc>
<g style="fill:#000000; fill-opacity:1;stroke:#000000; stroke-opacity:1;
stroke-linecap:round; stroke-linejoin:round; "
 transform="translate(0 0) scale(1 1)">
</g>
<g style="fill:#000000; fill-opacity:0.0; 
stroke:#000000; stroke-width:-0.000393701; stroke-opacity:1; 
stroke-linecap:round; stroke-linejoin:round;">
</g>
<g style="fill:#000000; fill-opacity:0.0; 
stroke:#000000; stroke-width:47.2441; stroke-opacity:1; 
stroke-linecap:round; stroke-linejoin:round;">
<path d="M65200 31519
L65200 31637
" />
<path d="M65200 31637
L64964 31637
" />
<path d="M64129 30685
L64129 30566
" />
<path d="M64129 30566
L64366 30566
" />
<path d="M64129 31519
L64129 31637
" />
<path d="M64129 31637
L64366 31637
" />
<path d="M65200 30685
L65200 30566
" />
<path d="M53838 31712
L51830 31712
" />
<path d="M53838 29704
L51830 29704
" />
<path d="M53562 32519
L52362 32519
" />
<path d="M52362 32519
L52362 31889
" />
<path d="M52362 31889
L53562 31889
" />
<path d="M62598 29547
L61889 29547
" />
<path d="M61889 29547
L61889 29744
" />
<path d="M58661 29547
L59370 29547
" />
<path d="M59370 29547
L59370 29744
" />
<path d="M61692 32893
L61692 32480
" />
<path d="M61692 32480
L62598 32480
" />
<path d="M62598 29547
L61889 29547
" />
<path d="M61889 29547
L61889 29744
" />
<path d="M61889 29744
L59370 29744
" />
<path d="M59370 29744
L59370 29547
" />
<path d="M59370 29547
L58661 29547
" />
<path d="M58661 32480
L59566 32480
" />
<path d="M59566 32480
L59566 32893
" />
<path d="M59566 32893
L61692 32893
" />
<path d="M62598 32480
L62598 29547
" />
<path d="M58661 29547
L58661 32480
" />
<path d="M54858 31609
L54858 31737
" />
<path d="M55259 31609
L55259 31737
" />
<path d="M54472 31609
L54472 31737
" />
<path d="M54070 31609
L54070 31737
" />
<path d="M55870 30272
L55870 30475
" />
<path d="M55311 30272
L55311 30475
" />
<path d="M54326 30272
L54326 30475
" />
<path d="M54885 30272
L54885 30475
" />
<path d="M54730 40137
L54730 41037
" />
<path d="M54730 41037
L55309 41037
" />
<path d="M55309 41037
L55309 40137
" />
<path d="M53942 40137
L53942 41037
" />
<path d="M53942 41037
L54521 41037
" />
<path d="M54521 41037
L54521 40137
" />
<path d="M53734 41037
L53734 40137
" />
<path d="M53155 41037
L53734 41037
" />
<path d="M53155 40137
L53155 41037
" />
<path d="M52834 36614
L54035 36614
" />
<path d="M52834 37244
L52834 36614
" />
<path d="M54035 37244
L52834 37244
" />
<path d="M54035 34803
L52834 34803
" />
<path d="M52834 34803
L52834 34173
" />
<path d="M52834 34173
L54035 34173
" />
<path d="M69541 34250
L69403 34450
" />
<path d="M69462 33261
L69462 33159
" />
<path d="M69541 33340
L69462 33261
" />
<path d="M69541 37041
L69462 36958
" />
<path d="M69403 36958
L69462 36958
" />
<path d="M69403 36958
L69403 34450
" />
<path d="M67588 38179
L68297 38179
" />
<path d="M65226 38179
L67076 38179
" />
<path d="M69541 37773
L69462 37852
" />
<path d="M69541 37773
L69541 37041
" />
<path d="M69541 33340
L69541 34250
" />
<path d="M63135 38179
L64557 38179
" />
<path d="M63135 38001
L63135 38179
" />
<path d="M63135 32679
L68651 32679
" />
<path d="M63135 33435
L63135 32679
" />
</g>
<g style="fill:#000000; fill-opacity:0.0; 
stroke:#000000; stroke-width:59.0551; stroke-opacity:1; 
stroke-linecap:round; stroke-linejoin:round;">
<path d="M56102 41220
L56102 38858
" />
<path d="M62007 41220
L61811 41220
" />
<path d="M62007 38858
L62007 41220
" />
<path d="M61811 38858
L62007 38858
" />
<path d="M56456 40157
L56456 39212
" />
<path d="M56456 40157
L56456 40826
" />
<path d="M61653 40157
L61653 39212
" />
<path d="M61653 40157
L61653 40826
" />
<path d="M60669 40826
L56456 40826
" />
<path d="M56456 39212
L60669 39212
" />
<path d="M61456 38858
L61456 39212
" />
<path d="M61456 40826
L61456 41220
" />
<path d="M61811 41220
L61456 41220
" />
<path d="M56653 39212
L56653 38858
" />
<path d="M56653 41220
L56102 41220
" />
<path d="M56653 40826
L56653 41220
" />
<path d="M56653 38858
L56102 38858
" />
<path d="M61811 38858
L61456 38858
" />
<path d="M57165 38976
L57165 39212
" />
<path d="M56889 38976
L57165 38976
" />
<path d="M56889 39212
L56889 38976
" />
<path d="M60944 38976
L60944 39212
" />
<path d="M61220 38976
L60944 38976
" />
<path d="M61220 39212
L61220 38976
" />
<path d="M59960 39055
L57165 39055
" />
<path d="M61653 39212
L60669 39212
" />
<path d="M59960 39055
L60944 39055
" />
<path d="M61653 40826
L60669 40826
" />
</g>
<g style="fill:#000000; fill-opacity:0.0; 
stroke:#000000; stroke-width:47.2441; stroke-opacity:1; 
stroke-linecap:round; stroke-linejoin:round;">
<path d="M64488 39822
L64488 39114
" />
<path d="M64488 39114
L64822 39114
" />
<path d="M67598 39822
L67598 39133
" />
<path d="M67598 39133
L67598 39114
" />
<path d="M67598 39114
L67244 39114
" />
<path d="M64488 40669
L64488 41141
" />
<path d="M65531 38877
L65452 38799
" />
<path d="M65452 38799
L65610 38799
" />
<path d="M65610 38799
L65531 38877
" />
<path d="M67598 40669
L67598 41141
" />
<path d="M64822 39114
L64822 38779
" />
<path d="M64822 38779
L65374 38779
" />
<path d="M67244 39114
L67244 38779
" />
<path d="M67244 38779
L66712 38779
" />
<path d="M47181 35433
L47181 32948
" />
<path d="M47181 32948
L51795 32948
" />
<path d="M51795 32948
L51795 33507
" />
<path d="M51795 33507
L50023 33507
" />
<path d="M50023 33507
L50023 35433
" />
<path d="M47181 35433
L47181 37917
" />
<path d="M47181 37917
L51795 37917
" />
<path d="M51795 37917
L51795 37358
" />
<path d="M51795 37358
L50023 37358
" />
<path d="M50023 37358
L50023 35433
" />
<path d="M49586 33858
L47421 33858
" />
<path d="M47421 33858
L47421 34055
" />
<path d="M47421 34055
L49586 34055
" />
<path d="M49586 34055
L49586 33858
" />
<path d="M49586 34842
L47421 34842
" />
<path d="M47421 34842
L47421 35039
" />
<path d="M47421 35039
L49586 35039
" />
<path d="M49586 35039
L49586 34842
" />
<path d="M49586 35826
L47421 35826
" />
<path d="M47421 35826
L47421 36023
" />
<path d="M47421 36023
L49586 36023
" />
<path d="M49586 36023
L49586 35826
" />
<path d="M49586 36811
L47421 36811
" />
<path d="M47421 36811
L47421 37007
" />
<path d="M47421 37007
L49586 37007
" />
<path d="M49586 37007
L49586 36811
" />
<path d="M51437 33956
L51673 33838
" />
<path d="M51673 33838
L51673 34074
" />
<path d="M51673 34074
L51437 33956
" />
<path d="M56830 34015
L56830 33799
" />
<path d="M56830 33799
L57047 33799
" />
<path d="M60098 34015
L60098 33799
" />
<path d="M60098 33799
L59881 33799
" />
<path d="M60098 36850
L60098 37066
" />
<path d="M60098 37066
L59881 37066
" />
<path d="M56830 36850
L56830 37165
" />
<path d="M56122 32582
L56830 32582
" />
<path d="M56830 31314
L55866 31314
" />
<path d="M50744 39669
L50744 39771
" />
<path d="M51913 38440
L51854 38440
" />
<path d="M51913 39669
L51913 38440
" />
<path d="M50685 39669
L50685 38440
" />
<path d="M51913 39669
L51854 39669
" />
<path d="M50685 39669
L50744 39669
" />
<path d="M50685 38440
L50744 38440
" />
<path d="M53196 38724
L53889 38724
" />
<path d="M53889 37515
L52933 37515
" />
<path d="M53889 35074
L52933 35074
" />
<path d="M53196 36283
L53889 36283
" />
</g>
<g style="fill:#000000; fill-opacity:0.0; 
stroke:#000000; stroke-width:59.0551; stroke-opacity:1; 
stroke-linecap:round; stroke-linejoin:round;">
<path d="M60964 34399
L60964 34498
" />
<path d="M61870 34399
L61870 34498
" />
</g>
<g style="fill:#000000; fill-opacity:0.0; 
stroke:#000000; stroke-width:47.2441; stroke-opacity:1; 
stroke-linecap:round; stroke-linejoin:round;">
<path d="M66137 31279
L66137 31151
" />
<path d="M66539 31279
L66539 31151
" />
<path d="M53196 33881
L53889 33881
" />
<path d="M53889 32673
L52933 32673
" />
</g>
<g style="fill:#000000; fill-opacity:1.0; 
stroke:#000000; stroke-width:3.93701; stroke-opacity:1; 
stroke-linecap:round; stroke-linejoin:round;">
<polyline style="fill-rule:evenodd;"
points="70178,35480
70181,35481
70185,35482
70191,35484
70199,35486
70207,35489
70217,35492
70227,35495
70238,35498
70249,35502
70251,35502
70265,35507
70278,35511
70289,35514
70299,35518
70308,35520
70315,35523
70321,35525
70327,35527
70332,35529
70336,35531
70339,35533
70343,35535
70346,35537
70349,35539
70353,35541
70357,35544
70362,35547
70366,35551
70367,35552
70374,35560
70380,35569
70385,35580
70388,35591
70389,35595
70390,35599
70390,35603
70390,35606
70390,35609
70389,35614
70386,35628
70381,35642
70374,35655
70367,35667
70358,35678
70355,35682
70344,35691
70332,35698
70319,35704
70305,35709
70291,35712
70286,35712
70282,35712
70277,35712
70272,35712
70271,35711
70269,35711
70265,35710
70260,35709
70253,35707
70245,35704
70236,35702
70226,35699
70215,35695
70204,35692
70192,35688
70190,35687
70116,35664
70144,35574
70148,35561
70152,35549
70156,35537
70159,35526
70162,35516
70165,35507
70168,35499
70170,35492
70172,35487
70173,35484
70173,35482
70173,35482
70175,35480
70176,35480
70178,35480
" /> 
<polyline style="fill-rule:evenodd;"
points="70633,35983
70637,35984
70642,35984
70646,35985
70652,35986
70659,35988
70666,35990
70675,35993
70685,35996
70695,35999
70734,36011
70727,36035
70725,36042
70723,36048
70721,36053
70720,36056
70719,36058
70718,36060
70717,36061
70716,36062
70715,36063
70704,36073
70692,36081
70679,36087
70667,36093
70654,36097
70641,36100
70629,36101
70617,36101
70608,36100
70602,36098
70596,36096
70591,36094
70585,36092
70580,36089
70570,36083
70563,36077
70556,36069
70553,36064
70550,36057
70548,36051
70548,36045
70548,36040
70549,36038
70552,36029
70556,36020
70561,36012
70566,36006
70570,36003
70579,35997
70590,35992
70601,35988
70613,35985
70625,35983
70629,35983
70633,35983
" /> 
<polyline style="fill-rule:evenodd;"
points="72531,33778
72538,33779
72544,33780
72545,33780
72552,33782
72560,33785
72569,33788
72578,33792
72587,33796
72595,33799
72597,33800
72614,33809
72629,33819
72643,33830
72656,33842
72668,33855
72680,33870
72684,33876
72694,33893
72703,33910
72709,33926
72714,33943
72717,33960
72717,33976
72716,33993
72713,34011
72708,34029
72701,34048
72701,34050
72697,34058
72691,34069
72685,34080
72677,34091
72669,34104
72660,34116
72656,34122
72651,34129
72646,34135
72641,34141
72636,34147
72631,34153
72625,34159
72618,34166
72611,34173
72603,34182
72593,34191
72591,34194
72583,34201
72576,34208
72569,34215
72563,34221
72556,34227
72549,34233
72542,34240
72534,34247
72525,34255
72514,34264
72512,34265
72488,34286
72466,34305
72445,34324
72425,34341
72406,34357
72389,34373
72372,34388
72357,34402
72342,34415
72329,34428
72316,34440
72304,34452
72299,34457
72262,34494
72226,34533
72190,34574
72154,34616
72118,34660
72083,34706
72048,34753
72031,34777
72024,34788
72017,34798
72010,34808
72004,34818
71997,34828
71990,34838
71984,34849
71976,34861
71968,34875
71962,34885
71953,34899
71945,34912
71938,34924
71932,34935
71926,34944
71921,34954
71916,34962
71911,34971
71907,34979
71903,34987
71898,34996
71893,35006
71890,35012
71883,35027
71876,35041
71871,35053
71866,35065
71861,35077
71857,35088
71853,35100
71849,35112
71846,35124
71846,35125
71842,35139
71839,35153
71837,35166
71835,35178
71835,35191
71835,35203
71835,35217
71837,35231
71839,35247
71842,35264
71842,35264
71843,35273
71845,35280
71846,35287
71848,35293
71850,35299
71853,35305
71857,35311
71861,35318
71866,35326
71871,35334
71877,35343
71881,35349
71885,35355
71888,35360
71890,35364
71892,35367
71894,35371
71896,35375
71897,35377
71899,35380
71901,35385
71905,35391
71908,35397
71912,35404
71914,35408
71921,35420
71928,35432
71934,35444
71941,35457
71947,35471
71954,35486
71961,35502
71968,35519
71976,35538
71980,35548
71990,35573
71998,35597
72006,35621
72013,35645
72019,35670
72019,35671
72021,35678
72023,35685
72025,35693
72026,35700
72028,35708
72029,35714
72031,35720
72031,35724
72032,35728
72032,35729
72032,35729
72031,35729
72029,35727
72026,35725
72021,35722
72016,35719
72015,35718
71988,35698
71959,35679
71930,35659
71899,35639
71866,35619
71832,35598
71812,35587
71809,35585
71806,35583
71804,35581
71804,35581
71805,35579
71805,35578
71805,35578
71805,35577
71804,35577
71802,35577
71798,35577
71794,35577
71787,35577
71769,35577
71757,35603
71744,35629
71755,35643
71759,35648
71762,35652
71764,35655
71766,35657
71767,35658
71767,35657
71768,35655
71769,35654
71769,35653
71770,35652
71770,35651
71771,35651
71773,35652
71776,35653
71779,35655
71784,35658
71789,35661
71824,35682
71858,35703
71891,35724
71924,35747
71956,35769
71987,35791
72016,35813
72033,35826
72038,35830
72042,35834
72046,35836
72048,35838
72050,35839
72050,35839
72050,35838
72050,35835
72049,35831
72049,35825
72048,35818
72047,35810
72045,35802
72044,35793
72043,35784
72041,35775
72040,35767
72038,35759
72037,35752
72037,35750
72036,35744
72035,35739
72034,35735
72034,35733
72034,35732
72035,35732
72037,35734
72041,35736
72045,35739
72050,35743
72056,35747
72093,35776
72128,35805
72162,35834
72194,35863
72224,35892
72252,35922
72278,35951
72302,35981
72325,36011
72345,36040
72364,36070
72380,36100
72386,36110
72399,36138
72409,36165
72418,36193
72425,36221
72430,36250
72433,36278
72434,36283
72434,36294
72434,36305
72434,36315
72432,36326
72431,36337
72428,36349
72425,36363
72425,36364
72421,36377
72417,36390
72413,36404
72408,36417
72403,36429
72398,36440
72394,36450
72392,36453
72380,36472
72366,36491
72350,36510
72333,36528
72314,36545
72293,36562
72271,36578
72247,36594
72230,36604
72200,36620
72168,36636
72135,36650
72099,36663
72063,36675
72024,36686
71985,36697
71943,36706
71900,36714
71856,36721
71810,36726
71771,36731
71750,36732
71729,36754
71722,36761
71716,36767
71709,36774
71702,36780
71694,36787
71686,36794
71677,36802
71668,36810
71656,36819
71648,36826
71636,36837
71625,36846
71615,36854
71607,36860
71600,36866
71594,36870
71590,36873
71587,36875
71586,36875
71584,36877
71580,36879
71575,36882
71570,36886
71565,36890
71553,36898
71542,36905
71531,36912
71520,36919
71509,36926
71497,36933
71484,36941
71474,36946
71468,36949
71461,36953
71454,36957
71449,36960
71444,36963
71442,36964
71436,36968
71432,36970
71428,36972
71425,36974
71422,36975
71419,36977
71414,36979
71413,36980
71402,36984
71389,36990
71375,36995
71360,37001
71345,37007
71329,37012
71313,37018
71297,37024
71282,37029
71267,37034
71253,37039
71240,37043
71228,37047
71220,37049
71208,37052
71194,37056
71178,37059
71161,37062
71143,37065
71124,37069
71105,37072
71085,37075
71064,37078
71044,37080
71024,37083
71005,37085
70998,37085
70993,37086
70987,37086
70978,37086
70969,37086
70958,37087
70947,37087
70935,37087
70923,37087
70911,37087
70899,37087
70888,37087
70878,37087
70868,37087
70860,37087
70854,37087
70843,37086
70831,37085
70820,37084
70809,37083
70798,37082
70785,37080
70772,37078
70758,37076
70743,37073
70726,37070
70716,37068
70683,37061
70653,37055
70623,37047
70594,37039
70567,37031
70540,37021
70512,37011
70485,36999
70458,36987
70429,36973
70429,36973
70406,36962
70385,36951
70365,36940
70346,36929
70328,36918
70310,36906
70291,36894
70273,36881
70254,36867
70234,36852
70225,36844
70188,36814
70153,36783
70119,36750
70115,36746
70324,36746
70324,36752
70338,36765
70360,36787
70384,36808
70408,36828
70434,36847
70459,36865
70463,36868
70495,36887
70528,36904
70562,36920
70596,36934
70631,36946
70667,36956
70703,36964
70740,36970
70777,36975
70798,36977
70807,36977
70814,36977
70820,36978
70825,36978
70831,36978
70837,36978
70844,36978
70852,36978
70856,36978
70864,36978
70872,36978
70878,36977
70885,36977
70892,36976
70899,36976
70908,36975
70913,36974
70931,36972
70948,36970
70963,36968
70977,36966
70990,36963
71002,36961
71014,36959
71025,36956
71036,36953
71047,36950
71058,36947
71068,36944
71090,36936
71113,36927
71136,36918
71142,36915
71150,36912
71156,36909
71161,36906
71164,36904
71167,36902
71168,36900
71169,36897
71169,36895
71169,36894
71169,36890
71169,36888
71167,36886
71167,36885
71165,36884
71162,36883
71159,36883
71155,36883
71150,36884
71143,36885
71140,36886
71124,36889
71110,36892
71097,36894
71084,36897
71072,36899
71060,36900
71047,36902
71034,36904
71019,36906
71011,36906
70993,36908
70976,36910
70961,36912
70947,36913
70934,36913
70922,36914
70911,36914
70900,36914
70889,36914
70878,36914
70870,36914
70825,36910
70781,36905
70737,36899
70694,36890
70652,36880
70611,36868
70571,36854
70531,36839
70501,36826
70479,36815
70456,36803
70432,36791
70410,36778
70388,36764
70381,36760
70372,36754
70364,36749
70358,36745
70352,36742
70348,36740
70345,36738
70342,36736
70340,36735
70339,36735
70337,36735
70336,36735
70335,36735
70332,36735
70329,36736
70327,36737
70327,36737
70326,36739
70325,36741
70325,36745
70324,36746
70115,36746
70087,36717
70057,36682
70028,36646
70000,36609
69974,36570
69954,36538
69937,36508
69920,36476
69904,36444
69889,36412
69875,36379
69863,36347
69851,36314
69841,36283
69837,36269
69835,36262
69833,36255
69831,36247
69829,36239
69827,36231
69825,36223
69824,36215
69822,36209
69821,36203
69820,36199
69820,36196
69820,36195
69820,36195
69821,36195
69823,36197
69826,36199
69830,36202
69832,36203
69871,36230
69911,36256
69954,36283
69998,36309
70043,36334
70090,36360
70138,36385
70187,36409
70238,36433
70289,36456
70341,36479
70394,36500
70447,36521
70453,36524
70465,36528
70478,36532
70492,36537
70508,36543
70526,36548
70545,36554
70564,36561
70585,36567
70607,36574
70629,36580
70652,36587
70675,36594
70699,36601
70722,36608
70746,36614
70769,36621
70792,36628
70815,36634
70837,36640
70858,36645
70879,36651
70898,36656
70916,36661
70933,36665
70949,36668
70951,36669
70970,36673
70990,36677
71012,36681
71034,36686
71058,36690
71083,36694
71109,36698
71134,36703
71160,36706
71186,36710
71211,36714
71236,36717
71260,36720
71283,36723
71287,36723
71321,36727
71354,36730
71385,36732
71416,36734
71447,36736
71477,36737
71509,36738
71541,36738
71574,36738
71595,36738
71610,36738
71624,36738
71636,36738
71647,36738
71657,36737
71666,36737
71676,36737
71684,36736
71694,36736
71703,36735
71713,36735
71725,36734
71725,36734
71749,36733
71756,36725
71759,36722
71763,36718
71767,36712
71772,36706
71778,36700
71784,36693
71789,36686
71795,36680
71800,36673
71804,36668
71808,36663
71812,36659
71814,36656
71815,36654
71815,36653
71814,36653
71813,36653
71811,36653
71808,36654
71803,36654
71797,36655
71789,36656
71782,36657
71774,36657
71766,36658
71759,36659
71752,36660
71746,36660
71696,36664
71643,36666
71590,36666
71535,36666
71479,36664
71422,36661
71364,36656
71320,36652
71818,36652
71818,36652
71818,36652
71820,36652
71822,36652
71825,36652
71829,36651
71835,36650
71843,36649
71850,36648
71889,36642
71926,36634
71962,36626
71997,36617
72029,36608
72061,36597
72091,36585
72119,36573
72146,36560
72171,36546
72195,36532
72216,36516
72237,36500
72255,36483
72272,36466
72287,36447
72300,36429
72311,36409
72321,36389
72329,36368
72335,36347
72337,36336
72339,36324
72340,36310
72341,36296
72341,36282
72341,36269
72340,36257
72340,36256
72336,36231
72330,36206
72322,36180
72312,36155
72300,36129
72286,36102
72270,36076
72253,36050
72233,36023
72211,35996
72193,35975
72189,35970
72183,35964
72176,35957
72168,35949
72160,35941
72152,35933
72143,35924
72134,35916
72126,35908
72118,35900
72111,35893
72104,35887
72100,35884
72093,35878
72086,35872
72080,35866
72073,35860
72067,35855
72062,35851
72057,35847
72054,35844
72052,35843
72051,35842
72051,35842
72051,35843
72051,35846
72051,35850
72051,35855
72052,35860
72053,35870
72053,35879
72054,35888
72055,35896
72055,35904
72055,35912
72056,35921
72056,35930
72056,35940
72056,35952
72056,35965
72056,35975
72056,35992
72056,36007
72056,36021
72055,36033
72055,36044
72054,36054
72053,36064
72053,36073
72051,36083
72050,36092
72049,36102
72047,36112
72046,36117
72045,36123
72043,36131
72042,36139
72040,36148
72039,36157
72038,36163
72033,36187
72028,36210
72023,36232
72017,36254
72011,36277
72003,36299
71995,36323
71992,36332
71979,36368
71965,36403
71950,36437
71934,36469
71917,36501
71899,36532
71880,36563
71860,36594
71837,36625
71830,36635
71826,36640
71823,36644
71820,36648
71819,36651
71818,36652
71818,36652
71818,36652
71320,36652
71305,36651
71245,36644
71185,36635
71124,36625
71062,36615
70999,36602
70937,36589
70888,36578
70862,36571
70838,36565
70814,36559
70792,36554
70771,36548
70751,36542
70730,36537
70710,36531
70689,36524
70668,36518
70646,36511
70623,36503
70601,36496
70539,36475
70477,36452
70417,36429
70357,36404
70313,36385
71362,36385
71362,36391
71362,36395
71362,36398
71363,36401
71363,36403
71364,36405
71365,36406
71368,36410
71372,36415
71377,36420
71382,36424
71387,36428
71388,36428
71390,36429
71392,36430
71395,36431
71397,36431
71401,36431
71406,36431
71410,36431
71417,36431
71421,36431
71424,36431
71427,36430
71429,36430
71431,36429
71433,36428
71437,36426
71441,36422
71446,36417
71450,36413
71453,36408
71453,36408
71454,36406
71455,36403
71457,36398
71459,36391
71462,36383
71465,36374
71468,36364
71471,36353
71475,36342
71479,36329
71483,36316
71483,36316
71487,36303
71491,36291
71494,36279
71498,36269
71501,36259
71504,36250
71506,36243
71508,36237
71509,36232
71510,36229
71511,36228
71511,36228
71512,36228
71514,36226
71518,36224
71523,36221
71529,36218
71536,36214
71544,36210
71548,36208
71556,36204
71564,36200
71571,36196
71576,36193
71581,36191
71584,36190
71585,36189
71585,36189
71586,36190
71587,36193
71589,36198
71591,36204
71593,36211
71597,36220
71600,36231
71604,36242
71609,36255
71613,36268
71618,36283
71624,36298
71629,36314
71635,36331
71641,36348
71642,36351
71648,36368
71654,36385
71659,36401
71665,36417
71670,36432
71675,36446
71679,36459
71684,36471
71687,36482
71691,36491
71694,36499
71696,36506
71698,36511
71699,36514
71700,36516
71700,36516
71702,36519
71705,36523
71709,36527
71713,36531
71717,36535
71721,36537
71722,36538
71723,36538
71725,36539
71728,36539
71731,36539
71736,36539
71742,36539
71742,36539
71748,36539
71753,36539
71756,36539
71758,36538
71761,36538
71763,36537
71764,36536
71768,36534
71773,36530
71777,36526
71782,36522
71786,36517
71788,36514
71789,36512
71789,36511
71790,36509
71790,36506
71790,36502
71790,36496
71790,36493
71790,36475
71731,36308
71724,36290
71718,36272
71712,36256
71707,36240
71701,36224
71696,36210
71692,36197
71687,36185
71684,36174
71680,36165
71678,36157
71675,36150
71674,36145
71673,36141
71672,36140
71672,36140
71673,36139
71676,36138
71680,36135
71685,36132
71692,36129
71700,36124
71709,36119
71719,36114
71729,36108
71741,36102
71752,36095
71765,36088
71777,36082
71790,36075
71803,36067
71815,36060
71828,36054
71840,36047
71852,36040
71863,36034
71874,36028
71884,36023
71892,36018
71900,36014
71901,36013
71908,36009
71914,36006
71918,36004
71922,36001
71925,35999
71927,35997
71929,35995
71932,35992
71936,35988
71938,35985
71939,35984
71939,35982
71940,35980
71941,35978
71941,35975
71941,35972
71941,35966
71941,35962
71941,35945
71938,35938
71934,35933
71930,35928
71925,35922
71920,35918
71915,35915
71915,35914
71913,35914
71911,35913
71909,35912
71906,35912
71902,35912
71896,35912
71894,35912
71888,35912
71884,35912
71880,35912
71878,35913
71876,35913
71874,35914
71871,35915
71870,35916
71866,35918
71861,35921
71855,35924
71848,35928
71839,35933
71830,35938
71820,35944
71810,35950
71799,35956
71796,35958
71784,35965
71771,35973
71756,35981
71740,35990
71724,35999
71708,36009
71692,36018
71677,36027
71662,36035
71650,36042
71638,36049
71627,36055
71616,36062
71605,36068
71596,36073
71587,36078
71579,36083
71573,36086
71568,36089
71564,36092
71562,36093
71558,36095
71555,36097
71553,36098
71552,36098
71552,36097
71553,36094
71554,36090
71556,36084
71558,36076
71561,36068
71564,36058
71567,36047
71571,36035
71575,36022
71579,36008
71584,35994
71587,35985
71622,35872
71622,35857
71622,35851
71622,35847
71622,35844
71621,35841
71621,35839
71620,35837
71619,35836
71616,35832
71612,35827
71608,35822
71603,35817
71598,35814
71598,35814
71592,35812
71585,35810
71577,35810
71569,35810
71561,35810
71555,35812
71550,35814
71548,35816
71544,35819
71541,35822
71538,35824
71534,35829
71532,35832
71530,35836
71529,35838
71528,35840
71527,35843
71526,35848
71523,35855
71521,35863
71518,35873
71514,35884
71510,35897
71506,35910
71501,35925
71496,35942
71491,35959
71485,35977
71479,35996
71473,36016
71466,36036
71460,36058
71453,36079
71446,36102
71444,36107
71362,36370
71362,36385
70313,36385
70299,36379
70243,36353
70187,36326
70133,36299
70081,36270
70030,36241
69981,36212
69933,36181
69887,36150
69843,36119
69832,36110
69827,36106
69821,36102
69816,36098
69811,36094
69811,36094
69807,36091
69804,36089
69802,36088
69802,36088
69801,36088
69802,36091
69802,36096
69803,36102
69804,36109
69805,36118
69807,36126
69808,36135
69810,36145
69811,36153
69813,36162
69814,36170
69815,36176
69816,36178
69819,36193
69813,36189
69804,36183
69795,36176
69784,36168
69773,36159
69761,36150
69750,36141
69738,36132
69727,36123
69717,36115
69708,36107
69703,36103
69676,36080
69650,36056
69625,36032
69601,36007
69579,35983
69558,35959
69553,35954
69544,35943
69535,35931
69525,35918
69516,35905
69507,35892
69498,35880
69490,35868
69484,35859
69469,35832
69455,35806
69443,35780
69433,35755
69424,35729
69418,35704
69412,35678
69410,35662
69409,35655
69409,35646
69408,35636
69408,35628
69498,35628
69499,35650
69501,35673
69506,35696
69512,35719
69520,35743
69530,35768
69532,35773
69545,35798
69559,35824
69575,35850
69593,35876
69613,35902
69634,35928
69657,35954
69682,35980
69708,36006
69735,36031
69736,36032
69744,36039
69752,36046
69760,36052
69767,36059
69775,36065
69781,36070
69787,36075
69792,36079
69796,36082
69799,36084
69800,36085
69800,36085
69800,36083
69800,36080
69800,36076
69800,36071
69799,36065
69799,36065
69798,36055
69797,36045
69797,36037
69796,36029
69796,36021
69796,36013
69795,36005
69795,35995
69795,35984
69795,35972
69795,35952
69795,35941
69930,35941
69930,35947
69930,35952
69930,35955
69931,35957
69931,35959
69932,35961
69933,35963
69935,35967
69939,35972
69944,35976
69949,35981
69953,35984
69955,35984
69959,35986
69963,35987
69966,35988
69972,35988
69978,35988
69984,35988
69990,35988
69995,35987
69998,35986
70001,35984
70006,35981
70010,35977
70014,35973
70018,35969
70021,35965
70021,35964
70022,35963
70023,35960
70024,35955
70027,35948
70029,35940
70032,35931
70035,35921
70039,35909
70043,35897
70047,35884
70051,35871
70056,35857
70056,35856
70060,35842
70064,35829
70068,35816
70072,35804
70076,35793
70079,35783
70081,35775
70084,35767
70086,35761
70087,35756
70088,35753
70089,35752
70089,35752
70090,35752
70092,35753
70097,35754
70102,35756
70109,35758
70117,35760
70125,35763
70134,35766
70144,35769
70153,35772
70163,35775
70173,35778
70182,35781
70191,35783
70199,35786
70206,35788
70212,35790
70216,35791
70220,35792
70221,35793
70221,35793
70222,35794
70222,35797
70223,35802
70224,35808
70226,35815
70228,35825
70230,35835
70232,35847
70235,35859
70237,35873
70240,35887
70243,35902
70246,35918
70249,35929
70252,35945
70255,35961
70258,35976
70261,35990
70264,36004
70266,36016
70268,36028
70271,36038
70272,36047
70274,36055
70275,36061
70276,36065
70277,36068
70277,36068
70279,36071
70282,36075
70285,36079
70289,36084
70293,36087
70296,36090
70298,36091
70301,36092
70305,36093
70305,36093
70309,36094
70314,36094
70319,36094
70325,36094
70330,36094
70335,36094
70336,36093
70340,36092
70344,36091
70345,36090
70349,36088
70353,36085
70357,36080
70361,36076
70364,36072
70365,36070
70366,36068
70367,36066
70367,36065
70368,36062
70368,36059
70368,36054
70368,36048
70368,36041
70452,36041
70452,36044
70452,36052
70452,36057
70452,36062
70453,36066
70453,36069
70453,36072
70454,36075
70455,36077
70458,36086
70462,36096
70467,36106
70473,36115
70475,36118
70480,36124
70486,36131
70493,36137
70500,36144
70507,36150
70514,36155
70515,36156
70530,36165
70546,36172
70563,36178
70568,36179
70576,36181
70584,36182
70593,36183
70603,36183
70614,36184
70617,36184
70630,36183
70642,36183
70652,36182
70661,36180
70671,36178
70680,36176
70687,36173
70697,36170
70698,36173
70700,36183
70701,36190
70704,36196
70707,36202
70710,36207
70715,36212
70715,36213
70720,36218
70725,36222
70729,36224
70733,36226
70738,36227
70745,36227
70751,36227
70757,36227
70762,36227
70765,36226
70767,36226
70770,36225
70774,36222
70779,36219
70783,36214
70787,36210
70790,36205
70791,36204
70792,36201
70793,36199
70794,36197
70794,36194
70794,36191
70794,36186
70794,36183
70794,36177
70794,36173
70794,36170
70793,36167
70793,36165
70792,36163
70791,36163
70790,36159
70789,36156
70789,36155
70789,36154
70789,36153
70789,36153
70789,36151
70789,36150
70790,36148
70791,36145
70792,36142
70793,36137
70794,36135
70888,36135
70888,36146
70888,36157
70889,36166
70890,36175
70890,36177
70895,36195
70901,36212
70908,36228
70918,36243
70923,36250
70927,36255
70932,36260
70937,36266
70944,36272
70950,36278
70956,36284
70961,36288
70965,36291
70981,36302
70999,36312
71018,36322
71038,36330
71058,36337
71079,36343
71101,36348
71120,36351
71125,36352
71132,36352
71139,36352
71149,36352
71160,36352
71163,36352
71172,36352
71180,36352
71186,36352
71191,36352
71195,36351
71199,36351
71202,36350
71206,36350
71206,36350
71225,36345
71242,36339
71258,36332
71273,36323
71279,36319
71283,36315
71288,36311
71294,36305
71300,36300
71305,36294
71309,36290
71311,36288
71321,36273
71330,36257
71338,36240
71344,36222
71346,36215
71347,36211
71348,36208
71348,36205
71348,36201
71349,36197
71349,36192
71349,36185
71349,36177
71349,36169
71349,36162
71349,36156
71349,36151
71349,36147
71348,36144
71348,36140
71345,36126
71341,36113
71335,36101
71328,36089
71319,36077
71311,36067
71304,36060
71298,36054
71292,36048
71285,36041
71278,36035
71270,36029
71261,36022
71251,36015
71240,36007
71228,35998
71218,35992
71205,35983
71193,35974
71182,35967
71172,35960
71164,35953
71157,35948
71151,35943
71145,35938
71141,35933
71136,35928
71132,35924
71130,35921
71123,35911
71118,35901
71113,35892
71110,35882
71108,35873
71108,35865
71108,35863
71109,35854
71112,35844
71116,35834
71121,35825
71126,35817
71131,35810
71136,35807
71144,35801
71154,35796
71164,35792
71175,35790
71186,35788
71196,35788
71196,35788
71211,35790
71227,35793
71242,35797
71257,35802
71271,35808
71283,35815
71289,35819
71296,35824
71301,35828
71306,35833
71310,35838
71311,35840
71316,35848
71320,35856
71323,35865
71326,35874
71328,35884
71329,35896
71329,35907
71330,35914
71330,35919
71330,35923
71331,35926
71331,35928
71332,35930
71333,35932
71335,35936
71338,35940
71342,35945
71347,35949
71351,35952
71354,35955
71355,35955
71360,35957
71366,35958
71374,35958
71382,35958
71390,35958
71395,35957
71400,35956
71403,35954
71407,35952
71411,35948
71412,35947
71416,35944
71419,35940
71421,35937
71423,35933
71424,35929
71425,35924
71426,35918
71426,35911
71426,35902
71426,35891
71426,35890
71426,35878
71425,35869
71425,35860
71424,35853
71422,35846
71421,35839
71418,35832
71416,35824
71415,35824
71409,35810
71402,35797
71392,35784
71381,35772
71367,35758
71352,35746
71336,35736
71319,35727
71304,35720
71281,35711
71258,35705
71235,35700
71211,35697
71192,35696
71172,35696
71154,35697
71137,35699
71121,35703
71106,35708
71093,35714
71080,35722
71067,35731
71061,35736
71049,35749
71037,35762
71028,35776
71020,35792
71014,35809
71009,35826
71008,35831
71007,35835
71007,35839
71006,35843
71006,35848
71006,35855
71006,35859
71006,35870
71006,35878
71006,35886
71007,35893
71008,35900
71010,35906
71014,35919
71019,35931
71026,35943
71034,35955
71044,35968
71055,35981
71065,35990
71072,35997
71079,36004
71086,36010
71094,36016
71102,36022
71110,36029
71120,36036
71131,36044
71143,36052
71145,36054
71156,36061
71165,36068
71174,36074
71181,36079
71188,36085
71195,36091
71202,36096
71209,36103
71217,36110
71225,36119
71232,36129
71238,36139
71242,36149
71244,36155
71246,36162
71247,36167
71248,36172
71248,36177
71247,36182
71244,36194
71240,36206
71235,36216
71230,36226
71223,36233
71217,36239
71207,36245
71197,36251
71185,36255
71173,36258
71161,36259
71154,36260
71144,36259
71133,36258
71121,36255
71108,36252
71095,36248
71083,36244
71070,36239
71059,36233
71049,36228
71039,36222
71031,36216
71023,36210
71017,36204
71011,36197
71010,36196
71002,36184
70996,36171
70991,36156
70989,36142
70988,36126
70988,36111
70989,36109
70989,36103
70989,36097
70989,36091
70989,36089
70989,36082
70987,36076
70985,36070
70981,36065
70977,36061
70972,36056
70967,36052
70961,36049
70955,36048
70948,36047
70939,36047
70935,36047
70928,36047
70923,36048
70918,36049
70914,36051
70910,36054
70906,36058
70905,36059
70902,36062
70899,36065
70897,36067
70895,36070
70894,36073
70893,36077
70892,36082
70891,36088
70890,36096
70889,36105
70889,36106
70888,36114
70888,36125
70888,36135
70794,36135
70795,36132
70797,36126
70799,36119
70802,36110
70805,36100
70808,36088
70812,36075
70817,36061
70822,36044
70824,36038
70829,36023
70833,36009
70837,35997
70840,35986
70843,35977
70846,35969
70848,35962
70849,35957
70851,35952
70852,35948
70853,35944
70854,35941
70855,35938
70855,35936
70856,35934
70857,35932
70857,35929
70857,35928
70860,35915
70863,35903
70864,35890
70865,35877
70865,35872
70865,35858
70865,35846
70864,35836
70862,35826
70860,35817
70857,35808
70855,35804
70851,35798
70848,35792
70844,35787
70840,35781
70834,35775
70830,35771
70818,35760
70807,35751
70795,35744
70784,35738
70767,35730
70749,35724
70732,35720
70714,35717
70695,35715
70690,35715
70670,35715
70651,35716
70633,35719
70616,35724
70600,35730
70585,35738
70571,35748
70557,35759
70550,35767
70545,35772
70542,35776
70540,35779
70538,35783
70537,35788
70537,35794
70537,35800
70537,35807
70537,35812
70538,35817
70540,35821
70542,35824
70546,35828
70550,35833
70555,35837
70559,35841
70563,35843
70566,35845
70570,35845
70576,35846
70582,35846
70585,35846
70591,35846
70596,35846
70599,35846
70601,35845
70603,35845
70605,35844
70607,35843
70610,35842
70614,35839
70618,35836
70620,35834
70629,35826
70638,35819
70647,35814
70656,35810
70659,35809
70666,35806
70674,35805
70681,35803
70687,35803
70689,35803
70697,35803
70707,35805
70717,35807
70727,35811
70737,35815
70746,35819
70754,35824
70757,35826
70762,35831
70768,35838
70772,35846
70774,35852
70775,35857
70776,35863
70776,35868
70776,35875
70774,35882
70772,35890
70770,35897
70769,35901
70768,35906
70766,35911
70764,35916
70762,35921
70761,35925
70760,35927
70759,35928
70758,35928
70755,35927
70751,35926
70746,35925
70739,35923
70732,35920
70724,35918
70723,35918
70710,35914
70699,35910
70689,35908
70681,35905
70673,35903
70667,35902
70660,35901
70654,35900
70648,35899
70642,35899
70635,35898
70627,35898
70622,35898
70610,35898
70601,35898
70592,35898
70585,35899
70578,35900
70571,35901
70567,35902
70551,35906
70536,35912
70522,35920
70509,35929
70501,35935
70489,35947
70478,35960
70469,35973
70462,35988
70456,36003
70454,36013
70453,36016
70453,36019
70452,36023
70452,36028
70452,36034
70452,36041
70368,36041
70368,36031
70343,35917
70319,35803
70332,35801
70351,35796
70368,35790
70385,35782
70400,35772
70416,35761
70430,35747
70435,35743
70447,35728
70458,35713
70467,35698
70475,35681
70481,35664
70485,35645
70486,35640
70487,35634
70487,35627
70488,35619
70488,35611
70488,35602
70488,35598
71620,35598
71620,35599
71621,35600
71623,35603
71626,35607
71630,35612
71635,35618
71640,35625
71645,35632
71651,35639
71657,35647
71663,35655
71669,35663
71675,35670
71680,35677
71685,35684
71690,35689
71694,35694
71697,35698
71699,35700
71700,35701
71700,35702
71700,35701
71701,35698
71703,35695
71704,35693
71706,35689
71708,35684
71711,35678
71714,35672
71717,35666
71725,35648
71703,35637
71696,35634
71689,35631
71683,35628
71678,35625
71674,35623
71672,35623
71669,35621
71664,35619
71659,35616
71652,35613
71645,35610
71641,35608
71633,35604
71627,35601
71623,35599
71620,35598
71620,35598
70488,35598
70488,35594
70488,35586
70488,35579
70488,35575
70486,35563
70483,35552
70480,35542
70476,35532
70475,35530
70471,35523
70467,35516
70463,35509
70458,35503
70451,35496
70444,35488
70444,35487
70435,35479
70426,35472
70418,35465
70410,35460
70400,35454
70391,35450
70389,35449
70386,35448
70384,35447
70381,35446
70379,35444
70376,35443
70373,35442
70369,35441
70364,35439
70359,35437
70353,35435
70346,35433
70338,35430
70328,35427
70317,35424
70305,35420
70291,35416
70275,35411
70269,35409
70252,35403
71240,35403
71241,35404
71244,35405
71248,35407
71254,35410
71261,35414
71269,35418
71279,35423
71290,35428
71302,35434
71315,35441
71329,35447
71344,35455
71360,35462
71376,35470
71392,35478
71410,35486
71427,35495
71445,35504
71463,35512
71481,35521
71499,35530
71517,35539
71535,35547
71553,35556
71570,35564
71587,35572
71604,35580
71619,35588
71634,35595
71649,35602
71662,35609
71675,35615
71686,35620
71696,35625
71705,35629
71713,35633
71719,35636
71724,35638
71727,35640
71729,35640
71729,35640
71729,35639
71731,35637
71733,35633
71736,35627
71739,35621
71742,35614
71746,35606
71750,35598
71754,35589
71758,35581
71762,35574
71765,35568
71767,35562
71769,35558
71770,35556
71770,35555
71769,35555
71767,35553
71762,35551
71757,35548
71749,35545
71741,35541
71731,35536
71720,35531
71708,35525
71695,35519
71681,35512
71666,35505
71650,35497
71648,35496
71667,35496
71720,35522
71730,35526
71739,35531
71747,35535
71755,35538
71761,35541
71767,35544
71771,35546
71773,35547
71774,35547
71775,35546
71776,35544
71778,35540
71780,35535
71783,35529
71786,35523
71787,35521
71790,35515
71793,35509
71796,35503
71798,35499
71799,35496
71799,35495
71799,35495
71799,35495
71796,35495
71791,35495
71785,35495
71778,35495
71770,35495
71761,35495
71751,35495
71741,35495
71731,35495
71720,35495
71709,35495
71701,35495
71667,35496
71648,35496
71634,35489
71618,35481
71600,35473
71583,35464
71565,35456
71547,35447
71529,35438
71511,35430
71493,35421
71475,35412
71457,35404
71440,35395
71423,35387
71407,35379
71391,35372
71376,35365
71362,35358
71349,35351
71336,35345
71325,35340
71315,35335
71306,35331
71299,35327
71293,35324
71288,35322
71285,35321
71284,35320
71284,35320
71281,35319
71261,35361
71257,35369
71253,35377
71249,35384
71246,35391
71244,35396
71242,35400
71241,35403
71240,35403
70252,35403
70178,35380
70162,35380
70154,35380
70147,35380
70141,35380
70136,35382
70131,35383
70125,35385
70124,35386
70115,35391
70107,35398
70100,35405
70093,35414
70089,35421
70088,35422
70087,35425
70086,35430
70084,35437
70081,35445
70078,35454
70074,35466
70070,35478
70066,35492
70061,35507
70056,35523
70051,35540
70045,35558
70039,35576
70033,35596
70027,35616
70020,35637
70014,35658
70008,35675
69930,35925
69930,35941
69795,35941
69795,35935
69795,35918
69795,35902
69796,35887
69797,35872
69798,35857
69799,35844
69800,35832
69801,35821
69803,35811
69804,35800
69806,35789
69808,35778
69810,35765
69813,35751
69814,35742
69816,35734
69818,35726
69819,35718
69821,35711
69822,35704
69822,35700
69822,35700
69823,35694
69825,35688
69826,35683
69827,35680
69828,35675
69830,35669
69832,35662
69835,35653
69837,35644
69840,35635
69844,35625
69847,35615
69850,35606
69853,35597
69855,35590
69857,35583
69858,35580
69874,35538
69892,35497
69910,35457
69931,35418
69952,35380
69975,35343
69998,35307
69999,35306
71146,35306
71147,35307
71148,35309
71150,35311
71153,35315
71157,35319
71162,35325
71168,35332
71175,35339
71184,35349
71188,35353
71196,35362
71203,35369
71209,35376
71215,35383
71221,35388
71225,35393
71228,35397
71231,35399
71232,35400
71232,35400
71233,35399
71234,35397
71236,35393
71238,35388
71241,35381
71245,35374
71249,35366
71252,35359
71257,35350
71260,35342
71264,35335
71267,35329
71269,35323
71271,35319
71272,35317
71272,35316
71272,35316
71269,35315
71264,35314
71257,35314
71249,35313
71249,35313
71243,35313
71234,35312
71225,35311
71215,35311
71205,35310
71195,35309
71187,35308
71178,35308
71170,35307
71163,35307
71157,35306
71152,35306
71148,35306
71146,35306
71146,35306
71146,35306
69999,35306
70021,35277
70024,35273
70026,35270
70028,35267
70028,35266
70028,35266
70027,35266
70025,35266
70020,35267
70015,35268
70009,35269
70002,35270
70001,35270
69962,35276
69923,35283
69886,35291
69850,35301
69816,35311
69783,35322
69752,35333
69722,35346
69694,35359
69668,35374
69643,35389
69642,35389
69621,35404
69601,35420
69582,35437
69566,35455
69551,35474
69538,35493
69526,35513
69517,35534
69509,35556
69507,35563
69502,35584
69499,35606
69498,35628
69408,35628
69408,35626
69408,35615
69408,35605
69409,35596
69409,35587
69410,35582
69414,35557
69420,35534
69428,35511
69437,35489
69448,35468
69461,35447
69476,35427
69492,35407
69506,35392
69523,35377
69539,35362
69557,35349
69575,35336
69594,35323
69615,35311
69638,35299
69648,35293
69681,35278
69715,35264
69750,35251
69788,35239
69826,35228
69867,35218
69909,35209
69953,35201
69998,35194
70045,35189
70076,35186
70100,35183
70108,35174
70122,35160
70135,35147
70147,35135
70159,35123
70171,35112
70184,35101
70197,35090
70210,35079
70225,35067
70241,35055
70272,35033
70302,35012
70333,34992
70364,34974
70395,34957
70428,34940
70434,34937
70477,34918
70521,34900
70565,34885
70609,34871
70654,34858
70698,34848
70743,34840
70787,34833
70824,34829
70845,34828
70869,34826
70893,34826
70919,34826
70945,34826
70972,34827
70999,34828
71026,34830
71052,34832
71067,34834
71080,34835
71091,34836
71101,34838
71110,34839
71121,34841
71132,34844
71132,34844
71140,34846
71148,34847
71157,34849
71166,34851
71175,34853
71179,34854
71187,34856
71194,34857
71200,34859
71207,34860
71213,34862
71219,34863
71226,34865
71233,34867
71241,34870
71250,34873
71260,34876
71272,34880
71285,34884
71299,34889
71300,34889
71314,34894
71326,34898
71337,34901
71346,34904
71353,34906
71360,34908
71366,34910
71370,34911
71375,34912
71378,34913
71381,34913
71385,34914
71388,34914
71389,34914
71394,34914
71402,34914
71410,34914
71419,34913
71429,34912
71439,34910
71450,34909
71459,34907
71467,34906
71483,34902
71498,34898
71513,34893
71529,34886
71544,34878
71560,34870
71577,34860
71594,34848
71611,34836
71630,34822
71649,34806
71669,34789
71676,34783
71722,34741
71767,34699
71809,34656
71850,34614
71888,34571
71891,34567
71911,34544
71931,34520
71950,34497
71968,34474
71986,34451
72003,34429
72019,34408
72033,34388
72034,34387
72042,34376
72050,34364
72059,34351
72068,34337
72078,34321
72088,34306
72097,34290
72107,34274
72117,34259
72126,34244
72134,34229
72142,34216
72149,34204
72150,34203
72153,34196
72158,34188
72162,34180
72166,34174
72169,34168
72169,34167
72173,34161
72176,34155
72180,34149
72184,34141
72188,34133
72193,34124
72199,34113
72206,34101
72213,34088
72213,34088
72224,34068
72234,34050
72243,34033
72251,34018
72260,34003
72268,33990
72276,33977
72279,33971
72432,33971
72433,33984
72436,33996
72441,34008
72447,34019
72455,34030
72462,34036
72468,34042
72476,34047
72484,34052
72491,34056
72498,34058
72503,34060
72507,34060
72513,34060
72520,34060
72527,34060
72533,34060
72539,34059
72540,34059
72552,34056
72564,34053
72573,34048
72582,34043
72588,34038
72596,34028
72603,34017
72608,34005
72612,33992
72613,33978
72614,33973
72613,33959
72610,33946
72605,33934
72599,33923
72590,33912
72581,33903
72578,33901
72567,33894
72557,33888
72547,33884
72544,33883
72541,33882
72538,33882
72535,33881
72531,33881
72526,33881
72522,33881
72515,33881
72510,33881
72506,33882
72503,33882
72499,33883
72495,33884
72483,33888
72472,33893
72463,33900
72454,33908
72447,33918
72444,33922
72438,33934
72434,33946
72432,33959
72432,33971
72279,33971
72283,33964
72291,33952
72299,33940
72301,33937
72314,33917
72327,33899
72340,33882
72352,33867
72364,33854
72376,33842
72388,33831
72401,33820
72413,33811
72419,33807
72428,33801
72436,33797
72443,33793
72449,33790
72455,33787
72462,33785
72469,33784
72477,33782
72486,33781
72493,33780
72503,33779
72513,33778
72522,33778
72531,33778
" /> 
</g>
<g style="fill:#000000; fill-opacity:0.0; 
stroke:#000000; stroke-width:3.93701; stroke-opacity:1; 
stroke-linecap:round; stroke-linejoin:round;">
</g>
<g style="fill:#000000; fill-opacity:0.0; 
stroke:#000000; stroke-width:59.0551; stroke-opacity:1; 
stroke-linecap:round; stroke-linejoin:round;">
<path d="M63563 31402
L63882 31402
L63920 31383
L63938 31364
L63957 31327
L63957 31252
L63938 31214
L63920 31196
L63882 31177
L63563 31177
" />
<path d="M63695 30821
L63957 30821
" />
<path d="M63545 30914
L63826 31008
L63826 30764
" />
<path d="M63827 30258
L63808 30277
L63752 30296
L63715 30296
L63658 30277
L63621 30239
L63602 30202
L63583 30127
L63583 30071
L63602 29996
L63621 29958
L63658 29921
L63715 29902
L63752 29902
L63808 29921
L63827 29940
" />
<path d="M63958 29902
L64202 29902
L64071 30052
L64127 30052
L64165 30071
L64183 30089
L64202 30127
L64202 30221
L64183 30258
L64165 30277
L64127 30296
L64015 30296
L63977 30277
L63958 30258
" />
<path d="M64446 29902
L64483 29902
L64521 29921
L64540 29940
L64558 29977
L64577 30052
L64577 30146
L64558 30221
L64540 30258
L64521 30277
L64483 30296
L64446 30296
L64408 30277
L64390 30258
L64371 30221
L64352 30146
L64352 30052
L64371 29977
L64390 29940
L64408 29921
L64446 29902
" />
<path d="M64313 37579
L64182 37392
" />
<path d="M64088 37579
L64088 37185
L64238 37185
L64276 37204
L64295 37223
L64313 37260
L64313 37317
L64295 37354
L64276 37373
L64238 37392
L64088 37392
" />
<path d="M64688 37579
L64463 37579
" />
<path d="M64576 37579
L64576 37185
L64538 37242
L64501 37279
L64463 37298
" />
<path d="M64932 37185
L64970 37185
L65007 37204
L65026 37223
L65044 37260
L65063 37335
L65063 37429
L65044 37504
L65026 37542
L65007 37560
L64970 37579
L64932 37579
L64895 37560
L64876 37542
L64857 37504
L64838 37429
L64838 37335
L64857 37260
L64876 37223
L64895 37204
L64932 37185
" />
<path d="M63957 40321
L63770 40452
" />
<path d="M63957 40546
L63563 40546
L63563 40396
L63582 40359
L63601 40340
L63638 40321
L63695 40321
L63732 40340
L63751 40359
L63770 40396
L63770 40546
" />
<path d="M63957 40134
L63957 40059
L63938 40021
L63920 40002
L63863 39965
L63788 39946
L63638 39946
L63601 39965
L63582 39984
L63563 40021
L63563 40096
L63582 40134
L63601 40152
L63638 40171
L63732 40171
L63770 40152
L63788 40134
L63807 40096
L63807 40021
L63788 39984
L63770 39965
L63732 39946
" />
<path d="M63268 40321
L63081 40452
" />
<path d="M63268 40546
L62874 40546
L62874 40396
L62893 40359
L62912 40340
L62949 40321
L63006 40321
L63043 40340
L63062 40359
L63081 40396
L63081 40546
" />
<path d="M63043 40096
L63024 40134
L63006 40152
L62968 40171
L62949 40171
L62912 40152
L62893 40134
L62874 40096
L62874 40021
L62893 39984
L62912 39965
L62949 39946
L62968 39946
L63006 39965
L63024 39984
L63043 40021
L63043 40096
L63062 40134
L63081 40152
L63118 40171
L63193 40171
L63231 40152
L63249 40134
L63268 40096
L63268 40021
L63249 39984
L63231 39965
L63193 39946
L63118 39946
L63081 39965
L63062 39984
L63043 40021
" />
<path d="M64501 37087
L64370 36900
" />
<path d="M64276 37087
L64276 36693
L64426 36693
L64463 36712
L64482 36731
L64501 36768
L64501 36825
L64482 36862
L64463 36881
L64426 36900
L64276 36900
" />
<path d="M64838 36693
L64763 36693
L64726 36712
L64707 36731
L64670 36787
L64651 36862
L64651 37012
L64670 37050
L64688 37068
L64726 37087
L64801 37087
L64838 37068
L64857 37050
L64876 37012
L64876 36918
L64857 36881
L64838 36862
L64801 36843
L64726 36843
L64688 36862
L64670 36881
L64651 36918
" />
<path d="M62579 40321
L62392 40452
" />
<path d="M62579 40546
L62185 40546
L62185 40396
L62204 40359
L62223 40340
L62260 40321
L62317 40321
L62354 40340
L62373 40359
L62392 40396
L62392 40546
" />
<path d="M62185 40190
L62185 39927
L62579 40096
" />
<path d="M48064 30296
L47876 30296
L47876 29902
" />
<path d="M48401 30296
L48176 30296
" />
<path d="M48289 30296
L48289 29902
L48251 29958
L48214 29996
L48176 30014
" />
<path d="M50693 32363
L50693 31969
L50787 31969
L50843 31988
L50881 32025
L50899 32063
L50918 32138
L50918 32194
L50899 32269
L50881 32306
L50843 32344
L50787 32363
L50693 32363
" />
<path d="M51256 31969
L51181 31969
L51143 31988
L51124 32006
L51087 32063
L51068 32138
L51068 32288
L51087 32325
L51106 32344
L51143 32363
L51218 32363
L51256 32344
L51274 32325
L51293 32288
L51293 32194
L51274 32156
L51256 32138
L51218 32119
L51143 32119
L51106 32138
L51087 32156
L51068 32194
" />
<path d="M62034 32579
L62034 32860
L62015 32917
L61977 32954
L61921 32973
L61884 32973
" />
<path d="M62409 32579
L62221 32579
L62202 32767
L62221 32748
L62259 32729
L62352 32729
L62390 32748
L62409 32767
L62427 32804
L62427 32898
L62409 32935
L62390 32954
L62352 32973
L62259 32973
L62221 32954
L62202 32935
" />
<path d="M61056 38563
L60925 38376
" />
<path d="M60831 38563
L60831 38170
L60981 38170
L61018 38188
L61037 38207
L61056 38245
L61056 38301
L61037 38338
L61018 38357
L60981 38376
L60831 38376
" />
<path d="M61393 38301
L61393 38563
" />
<path d="M61300 38151
L61206 38432
L61450 38432
" />
<path d="M55652 36482
L55671 36501
L55689 36557
L55689 36595
L55671 36651
L55633 36689
L55596 36707
L55521 36726
L55464 36726
L55389 36707
L55352 36689
L55314 36651
L55296 36595
L55296 36557
L55314 36501
L55333 36482
" />
<path d="M55689 36107
L55689 36332
" />
<path d="M55689 36220
L55296 36220
L55352 36257
L55389 36295
L55408 36332
" />
<path d="M56036 37246
L56017 37265
L55961 37284
L55924 37284
L55868 37265
L55830 37228
L55811 37190
L55793 37115
L55793 37059
L55811 36984
L55830 36946
L55868 36909
L55924 36890
L55961 36890
L56017 36909
L56036 36928
" />
<path d="M56186 36928
L56205 36909
L56242 36890
L56336 36890
L56374 36909
L56392 36928
L56411 36965
L56411 37003
L56392 37059
L56167 37284
L56411 37284
" />
<path d="M61050 36097
L61031 36116
L60975 36134
L60938 36134
L60881 36116
L60844 36078
L60825 36041
L60806 35966
L60806 35909
L60825 35834
L60844 35797
L60881 35759
L60938 35741
L60975 35741
L61031 35759
L61050 35778
" />
<path d="M61181 35741
L61425 35741
L61294 35891
L61350 35891
L61387 35909
L61406 35928
L61425 35966
L61425 36059
L61406 36097
L61387 36116
L61350 36134
L61238 36134
L61200 36116
L61181 36097
" />
<path d="M60072 37573
L60053 37592
L59997 37611
L59959 37611
L59903 37592
L59865 37554
L59847 37517
L59828 37442
L59828 37386
L59847 37311
L59865 37273
L59903 37236
L59959 37217
L59997 37217
L60053 37236
L60072 37254
" />
<path d="M60409 37348
L60409 37611
" />
<path d="M60315 37198
L60222 37479
L60465 37479
" />
<path d="M60465 33309
L60447 33328
L60390 33347
L60353 33347
L60297 33328
L60259 33291
L60240 33253
L60222 33178
L60222 33122
L60240 33047
L60259 33009
L60297 32972
L60353 32953
L60390 32953
L60447 32972
L60465 32991
" />
<path d="M60822 32953
L60634 32953
L60615 33141
L60634 33122
L60672 33103
L60765 33103
L60803 33122
L60822 33141
L60840 33178
L60840 33272
L60822 33309
L60803 33328
L60765 33347
L60672 33347
L60634 33328
L60615 33309
" />
<path d="M55782 33923
L55801 33942
L55819 33998
L55819 34036
L55801 34092
L55763 34130
L55726 34148
L55651 34167
L55594 34167
L55519 34148
L55482 34130
L55444 34092
L55426 34036
L55426 33998
L55444 33942
L55463 33923
" />
<path d="M55426 33586
L55426 33661
L55444 33698
L55463 33717
L55519 33755
L55594 33773
L55744 33773
L55782 33755
L55801 33736
L55819 33698
L55819 33623
L55801 33586
L55782 33567
L55744 33548
L55651 33548
L55613 33567
L55594 33586
L55576 33623
L55576 33698
L55594 33736
L55613 33755
L55651 33773
" />
<path d="M56036 37739
L56017 37757
L55961 37776
L55924 37776
L55868 37757
L55830 37720
L55811 37682
L55793 37607
L55793 37551
L55811 37476
L55830 37439
L55868 37401
L55924 37382
L55961 37382
L56017 37401
L56036 37420
" />
<path d="M56167 37382
L56430 37382
L56261 37776
" />
<path d="M57316 33309
L57297 33328
L57241 33347
L57203 33347
L57147 33328
L57110 33291
L57091 33253
L57072 33178
L57072 33122
L57091 33047
L57110 33009
L57147 32972
L57203 32953
L57241 32953
L57297 32972
L57316 32991
" />
<path d="M57541 33122
L57503 33103
L57485 33084
L57466 33047
L57466 33028
L57485 32991
L57503 32972
L57541 32953
L57616 32953
L57653 32972
L57672 32991
L57691 33028
L57691 33047
L57672 33084
L57653 33103
L57616 33122
L57541 33122
L57503 33141
L57485 33159
L57466 33197
L57466 33272
L57485 33309
L57503 33328
L57541 33347
L57616 33347
L57653 33328
L57672 33309
L57691 33272
L57691 33197
L57672 33159
L57653 33141
L57616 33122
" />
<path d="M55782 34908
L55801 34926
L55819 34983
L55819 35020
L55801 35076
L55763 35114
L55726 35133
L55651 35151
L55594 35151
L55519 35133
L55482 35114
L55444 35076
L55426 35020
L55426 34983
L55444 34926
L55463 34908
" />
<path d="M55819 34720
L55819 34645
L55801 34608
L55782 34589
L55726 34551
L55651 34533
L55501 34533
L55463 34551
L55444 34570
L55426 34608
L55426 34683
L55444 34720
L55463 34739
L55501 34758
L55594 34758
L55632 34739
L55651 34720
L55669 34683
L55669 34608
L55651 34570
L55632 34551
L55594 34533
" />
<path d="M58703 32916
L58684 32934
L58628 32953
L58591 32953
L58534 32934
L58497 32897
L58478 32859
L58459 32784
L58459 32728
L58478 32653
L58497 32616
L58534 32578
L58591 32559
L58628 32559
L58684 32578
L58703 32597
" />
<path d="M59078 32953
L58853 32953
" />
<path d="M58966 32953
L58966 32559
L58928 32616
L58891 32653
L58853 32672
" />
<path d="M59322 32559
L59359 32559
L59397 32578
L59416 32597
L59434 32634
L59453 32709
L59453 32803
L59434 32878
L59416 32916
L59397 32934
L59359 32953
L59322 32953
L59284 32934
L59266 32916
L59247 32878
L59228 32803
L59228 32709
L59247 32634
L59266 32597
L59284 32578
L59322 32559
" />
<path d="M62542 33717
L62560 33736
L62579 33792
L62579 33830
L62560 33886
L62523 33923
L62485 33942
L62410 33961
L62354 33961
L62279 33942
L62242 33923
L62204 33886
L62185 33830
L62185 33792
L62204 33736
L62223 33717
" />
<path d="M62579 33342
L62579 33567
" />
<path d="M62579 33455
L62185 33455
L62242 33492
L62279 33530
L62298 33567
" />
<path d="M62579 32967
L62579 33192
" />
<path d="M62579 33080
L62185 33080
L62242 33117
L62279 33155
L62298 33192
" />
<path d="M62542 35686
L62560 35704
L62579 35761
L62579 35798
L62560 35854
L62523 35892
L62485 35911
L62410 35929
L62354 35929
L62279 35911
L62242 35892
L62204 35854
L62185 35798
L62185 35761
L62204 35704
L62223 35686
" />
<path d="M62579 35311
L62579 35536
" />
<path d="M62579 35423
L62185 35423
L62242 35461
L62279 35498
L62298 35536
" />
<path d="M62223 35161
L62204 35142
L62185 35104
L62185 35011
L62204 34973
L62223 34955
L62260 34936
L62298 34936
L62354 34955
L62579 35179
L62579 34936
" />
<path d="M64313 36459
L64295 36478
L64238 36497
L64201 36497
L64145 36478
L64107 36440
L64088 36403
L64070 36328
L64070 36272
L64088 36197
L64107 36159
L64145 36122
L64201 36103
L64238 36103
L64295 36122
L64313 36140
" />
<path d="M64688 36497
L64463 36497
" />
<path d="M64576 36497
L64576 36103
L64538 36159
L64501 36197
L64463 36215
" />
<path d="M64820 36103
L65063 36103
L64932 36253
L64988 36253
L65026 36272
L65044 36290
L65063 36328
L65063 36422
L65044 36459
L65026 36478
L64988 36497
L64876 36497
L64838 36478
L64820 36459
" />
<path d="M64313 35967
L64295 35986
L64238 36004
L64201 36004
L64145 35986
L64107 35948
L64088 35911
L64070 35836
L64070 35779
L64088 35704
L64107 35667
L64145 35629
L64201 35611
L64238 35611
L64295 35629
L64313 35648
" />
<path d="M64688 36004
L64463 36004
" />
<path d="M64576 36004
L64576 35611
L64538 35667
L64501 35704
L64463 35723
" />
<path d="M65026 35742
L65026 36004
" />
<path d="M64932 35592
L64838 35873
L65082 35873
" />
<path d="M52502 37162
L52521 37181
L52540 37237
L52540 37275
L52521 37331
L52484 37368
L52446 37387
L52371 37406
L52315 37406
L52240 37387
L52202 37368
L52165 37331
L52146 37275
L52146 37237
L52165 37181
L52184 37162
" />
<path d="M52540 36787
L52540 37012
" />
<path d="M52540 36900
L52146 36900
L52202 36937
L52240 36975
L52259 37012
" />
<path d="M52146 36431
L52146 36618
L52334 36637
L52315 36618
L52296 36581
L52296 36487
L52315 36450
L52334 36431
L52371 36412
L52465 36412
L52502 36431
L52521 36450
L52540 36487
L52540 36581
L52521 36618
L52502 36637
" />
<path d="M55325 38166
L55344 38185
L55363 38241
L55363 38278
L55344 38335
L55306 38372
L55269 38391
L55194 38410
L55138 38410
L55063 38391
L55025 38372
L54988 38335
L54969 38278
L54969 38241
L54988 38185
L55006 38166
" />
<path d="M55363 37791
L55363 38016
" />
<path d="M55363 37904
L54969 37904
L55025 37941
L55063 37979
L55081 38016
" />
<path d="M54969 37454
L54969 37529
L54988 37566
L55006 37585
L55063 37622
L55138 37641
L55288 37641
L55325 37622
L55344 37604
L55363 37566
L55363 37491
L55344 37454
L55325 37435
L55288 37416
L55194 37416
L55156 37435
L55138 37454
L55119 37491
L55119 37566
L55138 37604
L55156 37622
L55194 37641
" />
<path d="M52010 35784
L52029 35803
L52048 35859
L52048 35897
L52029 35953
L51991 35990
L51954 36009
L51879 36028
L51823 36028
L51748 36009
L51710 35990
L51673 35953
L51654 35897
L51654 35859
L51673 35803
L51691 35784
" />
<path d="M52048 35409
L52048 35634
" />
<path d="M52048 35522
L51654 35522
L51710 35559
L51748 35597
L51766 35634
" />
<path d="M51654 35278
L51654 35015
L52048 35184
" />
<path d="M54865 34800
L54883 34819
L54902 34875
L54902 34912
L54883 34969
L54846 35006
L54808 35025
L54733 35044
L54677 35044
L54602 35025
L54565 35006
L54527 34969
L54508 34912
L54508 34875
L54527 34819
L54546 34800
" />
<path d="M54902 34425
L54902 34650
" />
<path d="M54902 34537
L54508 34537
L54565 34575
L54602 34612
L54621 34650
" />
<path d="M54677 34200
L54658 34237
L54640 34256
L54602 34275
L54583 34275
L54546 34256
L54527 34237
L54508 34200
L54508 34125
L54527 34087
L54546 34069
L54583 34050
L54602 34050
L54640 34069
L54658 34087
L54677 34125
L54677 34200
L54696 34237
L54715 34256
L54752 34275
L54827 34275
L54865 34256
L54883 34237
L54902 34200
L54902 34125
L54883 34087
L54865 34069
L54827 34050
L54752 34050
L54715 34069
L54696 34087
L54677 34125
" />
<path d="M49451 31749
L49470 31767
L49489 31824
L49489 31861
L49470 31917
L49432 31955
L49395 31974
L49320 31992
L49264 31992
L49189 31974
L49151 31955
L49114 31917
L49095 31861
L49095 31824
L49114 31767
L49132 31749
" />
<path d="M49489 31374
L49489 31599
" />
<path d="M49489 31486
L49095 31486
L49151 31524
L49189 31561
L49207 31599
" />
<path d="M49489 31186
L49489 31111
L49470 31074
L49451 31055
L49395 31017
L49320 30999
L49170 30999
L49132 31017
L49114 31036
L49095 31074
L49095 31149
L49114 31186
L49132 31205
L49170 31224
L49264 31224
L49301 31205
L49320 31186
L49339 31149
L49339 31074
L49320 31036
L49301 31017
L49264 30999
" />
<path d="M48959 31749
L48978 31767
L48997 31824
L48997 31861
L48978 31917
L48940 31955
L48903 31974
L48828 31992
L48772 31992
L48697 31974
L48659 31955
L48622 31917
L48603 31861
L48603 31824
L48622 31767
L48640 31749
" />
<path d="M48640 31599
L48622 31580
L48603 31542
L48603 31449
L48622 31411
L48640 31392
L48678 31374
L48715 31374
L48772 31392
L48997 31617
L48997 31374
" />
<path d="M48603 31130
L48603 31092
L48622 31055
L48640 31036
L48678 31017
L48753 30999
L48847 30999
L48922 31017
L48959 31036
L48978 31055
L48997 31092
L48997 31130
L48978 31167
L48959 31186
L48922 31205
L48847 31224
L48753 31224
L48678 31205
L48640 31186
L48622 31167
L48603 31130
" />
<path d="M48861 32522
L48842 32541
L48786 32559
L48748 32559
L48692 32541
L48654 32503
L48636 32466
L48617 32391
L48617 32335
L48636 32260
L48654 32222
L48692 32185
L48748 32166
L48786 32166
L48842 32185
L48861 32203
" />
<path d="M49011 32203
L49029 32185
L49067 32166
L49161 32166
L49198 32185
L49217 32203
L49236 32241
L49236 32278
L49217 32335
L48992 32559
L49236 32559
" />
<path d="M49610 32559
L49386 32559
" />
<path d="M49498 32559
L49498 32166
L49461 32222
L49423 32260
L49386 32278
" />
<path d="M49451 30568
L49470 30586
L49489 30643
L49489 30680
L49470 30736
L49432 30774
L49395 30793
L49320 30811
L49264 30811
L49189 30793
L49151 30774
L49114 30736
L49095 30680
L49095 30643
L49114 30586
L49132 30568
" />
<path d="M49132 30418
L49114 30399
L49095 30361
L49095 30268
L49114 30230
L49132 30211
L49170 30193
L49207 30193
L49264 30211
L49489 30436
L49489 30193
" />
<path d="M49132 30043
L49114 30024
L49095 29986
L49095 29893
L49114 29855
L49132 29836
L49170 29818
L49207 29818
L49264 29836
L49489 30061
L49489 29818
" />
<path d="M48959 30568
L48978 30586
L48997 30643
L48997 30680
L48978 30736
L48940 30774
L48903 30793
L48828 30811
L48772 30811
L48697 30793
L48659 30774
L48622 30736
L48603 30680
L48603 30643
L48622 30586
L48640 30568
" />
<path d="M48640 30418
L48622 30399
L48603 30361
L48603 30268
L48622 30230
L48640 30211
L48678 30193
L48715 30193
L48772 30211
L48997 30436
L48997 30193
" />
<path d="M48603 30061
L48603 29818
L48753 29949
L48753 29893
L48772 29855
L48790 29836
L48828 29818
L48922 29818
L48959 29836
L48978 29855
L48997 29893
L48997 30005
L48978 30043
L48959 30061
" />
<path d="M50140 30568
L50159 30586
L50178 30643
L50178 30680
L50159 30736
L50121 30774
L50084 30793
L50009 30811
L49953 30811
L49878 30793
L49840 30774
L49803 30736
L49784 30680
L49784 30643
L49803 30586
L49821 30568
" />
<path d="M49821 30418
L49803 30399
L49784 30361
L49784 30268
L49803 30230
L49821 30211
L49859 30193
L49896 30193
L49953 30211
L50178 30436
L50178 30193
" />
<path d="M49915 29855
L50178 29855
" />
<path d="M49765 29949
L50046 30043
L50046 29799
" />
<path d="M50973 40987
L50954 41005
L50898 41024
L50860 41024
L50804 41005
L50767 40968
L50748 40930
L50729 40855
L50729 40799
L50748 40724
L50767 40687
L50804 40649
L50860 40630
L50898 40630
L50954 40649
L50973 40668
" />
<path d="M51123 40668
L51142 40649
L51179 40630
L51273 40630
L51310 40649
L51329 40668
L51348 40705
L51348 40743
L51329 40799
L51104 41024
L51348 41024
" />
<path d="M51685 40630
L51610 40630
L51573 40649
L51554 40668
L51516 40724
L51498 40799
L51498 40949
L51516 40987
L51535 41005
L51573 41024
L51648 41024
L51685 41005
L51704 40987
L51723 40949
L51723 40855
L51704 40818
L51685 40799
L51648 40780
L51573 40780
L51535 40799
L51516 40818
L51498 40855
" />
<path d="M52502 40016
L52521 40035
L52540 40091
L52540 40129
L52521 40185
L52484 40223
L52446 40241
L52371 40260
L52315 40260
L52240 40241
L52202 40223
L52165 40185
L52146 40129
L52146 40091
L52165 40035
L52184 40016
" />
<path d="M52184 39866
L52165 39848
L52146 39810
L52146 39716
L52165 39679
L52184 39660
L52221 39641
L52259 39641
L52315 39660
L52540 39885
L52540 39641
" />
<path d="M52146 39510
L52146 39248
L52540 39416
" />
<path d="M57756 38577
L57363 38577
L57363 38484
L57381 38428
L57419 38390
L57456 38371
L57531 38353
L57588 38353
L57663 38371
L57700 38390
L57738 38428
L57756 38484
L57756 38577
" />
<path d="M57756 37978
L57756 38203
" />
<path d="M57756 38090
L57363 38090
L57419 38128
L57456 38165
L57475 38203
" />
<path d="M57166 38577
L56772 38577
L56772 38484
L56791 38428
L56828 38390
L56866 38371
L56941 38353
L56997 38353
L57072 38371
L57110 38390
L57147 38428
L57166 38484
L57166 38577
" />
<path d="M56810 38203
L56791 38184
L56772 38146
L56772 38053
L56791 38015
L56810 37996
L56847 37978
L56885 37978
L56941 37996
L57166 38221
L57166 37978
" />
<path d="M56575 38577
L56182 38577
L56182 38484
L56200 38428
L56238 38390
L56275 38371
L56350 38353
L56407 38353
L56482 38371
L56519 38390
L56556 38428
L56575 38484
L56575 38577
" />
<path d="M56182 38221
L56182 37978
L56332 38109
L56332 38053
L56350 38015
L56369 37996
L56407 37978
L56500 37978
L56538 37996
L56556 38015
L56575 38053
L56575 38165
L56556 38203
L56538 38221
" />
<path d="M54433 37382
L54433 36989
L54527 36989
L54583 37007
L54621 37045
L54640 37082
L54658 37157
L54658 37214
L54640 37289
L54621 37326
L54583 37364
L54527 37382
L54433 37382
" />
<path d="M54996 37120
L54996 37382
" />
<path d="M54902 36970
L54808 37251
L55052 37251
" />
<path d="M52071 34725
L52071 34331
L52165 34331
L52221 34350
L52259 34387
L52277 34425
L52296 34500
L52296 34556
L52277 34631
L52259 34669
L52221 34706
L52165 34725
L52071 34725
" />
<path d="M52652 34331
L52465 34331
L52446 34519
L52465 34500
L52502 34481
L52596 34481
L52634 34500
L52652 34519
L52671 34556
L52671 34650
L52652 34687
L52634 34706
L52596 34725
L52502 34725
L52465 34706
L52446 34687
" />
<path d="M63451 32166
L63451 32447
L63432 32503
L63395 32541
L63338 32559
L63301 32559
" />
<path d="M63845 32559
L63620 32559
" />
<path d="M63732 32559
L63732 32166
L63695 32222
L63657 32260
L63620 32278
" />
<path d="M58923 40926
L58923 41207
L58905 41263
L58867 41301
L58811 41319
L58773 41319
" />
<path d="M59092 40963
L59111 40944
L59148 40926
L59242 40926
L59280 40944
L59298 40963
L59317 41001
L59317 41038
L59298 41094
L59073 41319
L59317 41319
" />
<path d="M67486 38563
L67486 38845
L67468 38901
L67430 38938
L67374 38957
L67336 38957
" />
<path d="M67636 38563
L67880 38563
L67749 38713
L67805 38713
L67843 38732
L67861 38751
L67880 38788
L67880 38882
L67861 38920
L67843 38938
L67805 38957
L67693 38957
L67655 38938
L67636 38920
" />
<path d="M51851 34087
L52132 34087
L52188 34106
L52226 34144
L52245 34200
L52245 34237
" />
<path d="M51982 33731
L52245 33731
" />
<path d="M51832 33825
L52113 33919
L52113 33675
" />
<path d="M55658 39435
L55470 39566
" />
<path d="M55658 39660
L55264 39660
L55264 39510
L55283 39473
L55302 39454
L55339 39435
L55395 39435
L55433 39454
L55452 39473
L55470 39510
L55470 39660
" />
<path d="M55658 39060
L55658 39285
" />
<path d="M55658 39173
L55264 39173
L55320 39210
L55358 39248
L55377 39285
" />
<path d="M54871 39435
L54683 39566
" />
<path d="M54871 39660
L54477 39660
L54477 39510
L54496 39473
L54514 39454
L54552 39435
L54608 39435
L54646 39454
L54664 39473
L54683 39510
L54683 39660
" />
<path d="M54514 39285
L54496 39266
L54477 39229
L54477 39135
L54496 39098
L54514 39079
L54552 39060
L54589 39060
L54646 39079
L54871 39304
L54871 39060
" />
<path d="M54083 39435
L53896 39566
" />
<path d="M54083 39660
L53689 39660
L53689 39510
L53708 39473
L53727 39454
L53764 39435
L53821 39435
L53858 39454
L53877 39473
L53896 39510
L53896 39660
" />
<path d="M53689 39304
L53689 39060
L53839 39191
L53839 39135
L53858 39098
L53877 39079
L53914 39060
L54008 39060
L54046 39079
L54064 39098
L54083 39135
L54083 39248
L54064 39285
L54046 39304
" />
<path d="M61056 37087
L60925 36900
" />
<path d="M60831 37087
L60831 36693
L60981 36693
L61018 36712
L61037 36731
L61056 36768
L61056 36825
L61037 36862
L61018 36881
L60981 36900
L60831 36900
" />
<path d="M61412 36693
L61225 36693
L61206 36881
L61225 36862
L61262 36843
L61356 36843
L61393 36862
L61412 36881
L61431 36918
L61431 37012
L61412 37050
L61393 37068
L61356 37087
L61262 37087
L61225 37068
L61206 37050
" />
<path d="M49254 40040
L49123 39852
" />
<path d="M49029 40040
L49029 39646
L49179 39646
L49217 39665
L49236 39684
L49254 39721
L49254 39777
L49236 39815
L49217 39834
L49179 39852
L49029 39852
" />
<path d="M49629 40040
L49404 40040
" />
<path d="M49517 40040
L49517 39646
L49479 39702
L49442 39740
L49404 39759
" />
<path d="M50004 40040
L49779 40040
" />
<path d="M49892 40040
L49892 39646
L49854 39702
L49817 39740
L49779 39759
" />
<path d="M49254 40630
L49123 40443
" />
<path d="M49029 40630
L49029 40237
L49179 40237
L49217 40255
L49236 40274
L49254 40312
L49254 40368
L49236 40405
L49217 40424
L49179 40443
L49029 40443
" />
<path d="M49629 40630
L49404 40630
" />
<path d="M49517 40630
L49517 40237
L49479 40293
L49442 40330
L49404 40349
" />
<path d="M49779 40274
L49798 40255
L49835 40237
L49929 40237
L49967 40255
L49985 40274
L50004 40312
L50004 40349
L49985 40405
L49760 40630
L50004 40630
" />
<path d="M58164 37382
L58164 37701
L58183 37739
L58202 37757
L58239 37776
L58314 37776
L58352 37757
L58370 37739
L58389 37701
L58389 37382
" />
<path d="M58783 37776
L58558 37776
" />
<path d="M58670 37776
L58670 37382
L58633 37439
L58595 37476
L58558 37495
" />
<path d="M49700 30985
L49700 31303
L49718 31341
L49737 31360
L49775 31378
L49850 31378
L49887 31360
L49906 31341
L49925 31303
L49925 30985
" />
<path d="M50093 31022
L50112 31003
L50149 30985
L50243 30985
L50281 31003
L50299 31022
L50318 31060
L50318 31097
L50299 31153
L50074 31378
L50318 31378
" />
<path d="M50079 40063
L50398 40063
L50435 40044
L50454 40026
L50473 39988
L50473 39913
L50454 39876
L50435 39857
L50398 39838
L50079 39838
" />
<path d="M50079 39688
L50079 39445
L50229 39576
L50229 39520
L50248 39482
L50267 39463
L50304 39445
L50398 39445
L50435 39463
L50454 39482
L50473 39520
L50473 39632
L50454 39670
L50435 39688
" />
<path d="M54504 38563
L54635 38957
L54766 38563
" />
<path d="M55122 38957
L54991 38770
" />
<path d="M54897 38957
L54897 38563
L55047 38563
L55085 38582
L55104 38601
L55122 38638
L55122 38695
L55104 38732
L55085 38751
L55047 38770
L54897 38770
" />
<path d="M55497 38957
L55272 38957
" />
<path d="M55385 38957
L55385 38563
L55347 38620
L55310 38657
L55272 38676
" />
<path d="M54208 36300
L54340 36693
L54471 36300
" />
<path d="M54827 36693
L54696 36506
" />
<path d="M54602 36693
L54602 36300
L54752 36300
L54790 36318
L54808 36337
L54827 36375
L54827 36431
L54808 36468
L54790 36487
L54752 36506
L54602 36506
" />
<path d="M54977 36337
L54996 36318
L55033 36300
L55127 36300
L55164 36318
L55183 36337
L55202 36375
L55202 36412
L55183 36468
L54958 36693
L55202 36693
" />
<path d="M62392 34636
L62579 34636
" />
<path d="M62185 34767
L62392 34636
L62185 34505
" />
<path d="M62579 34167
L62579 34392
" />
<path d="M62579 34280
L62185 34280
L62242 34317
L62279 34355
L62298 34392
" />
<path d="M48762 40410
L48781 40429
L48800 40485
L48800 40523
L48781 40579
L48743 40616
L48706 40635
L48631 40654
L48575 40654
L48500 40635
L48462 40616
L48425 40579
L48406 40523
L48406 40485
L48425 40429
L48443 40410
" />
<path d="M48443 40260
L48425 40241
L48406 40204
L48406 40110
L48425 40073
L48443 40054
L48481 40035
L48518 40035
L48575 40054
L48800 40279
L48800 40035
" />
<path d="M48406 39679
L48406 39866
L48593 39885
L48575 39866
L48556 39829
L48556 39735
L48575 39698
L48593 39679
L48631 39660
L48725 39660
L48762 39679
L48781 39698
L48800 39735
L48800 39829
L48781 39866
L48762 39885
" />
<path d="M67069 31468
L67088 31487
L67107 31543
L67107 31581
L67088 31637
L67050 31674
L67013 31693
L66938 31712
L66882 31712
L66807 31693
L66769 31674
L66732 31637
L66713 31581
L66713 31543
L66732 31487
L66751 31468
" />
<path d="M66751 31318
L66732 31299
L66713 31262
L66713 31168
L66732 31131
L66751 31112
L66788 31093
L66826 31093
L66882 31112
L67107 31337
L67107 31093
" />
<path d="M66882 30868
L66863 30906
L66844 30924
L66807 30943
L66788 30943
L66751 30924
L66732 30906
L66713 30868
L66713 30793
L66732 30756
L66751 30737
L66788 30718
L66807 30718
L66844 30737
L66863 30756
L66882 30793
L66882 30868
L66901 30906
L66919 30924
L66957 30943
L67032 30943
L67069 30924
L67088 30906
L67107 30868
L67107 30793
L67088 30756
L67069 30737
L67032 30718
L66957 30718
L66919 30737
L66901 30756
L66882 30793
" />
<path d="M65888 30371
L65907 30389
L65926 30446
L65926 30483
L65907 30539
L65869 30577
L65832 30596
L65757 30614
L65701 30614
L65626 30596
L65588 30577
L65551 30539
L65532 30483
L65532 30446
L65551 30389
L65569 30371
" />
<path d="M65569 30221
L65551 30202
L65532 30164
L65532 30071
L65551 30033
L65569 30014
L65607 29996
L65644 29996
L65701 30014
L65926 30239
L65926 29996
" />
<path d="M65926 29808
L65926 29733
L65907 29696
L65888 29677
L65832 29640
L65757 29621
L65607 29621
L65569 29640
L65551 29658
L65532 29696
L65532 29771
L65551 29808
L65569 29827
L65607 29846
L65701 29846
L65738 29827
L65757 29808
L65776 29771
L65776 29696
L65757 29658
L65738 29640
L65701 29621
" />
<path d="M50239 32634
L50257 32653
L50276 32709
L50276 32747
L50257 32803
L50220 32841
L50182 32859
L50107 32878
L50051 32878
L49976 32859
L49939 32841
L49901 32803
L49882 32747
L49882 32709
L49901 32653
L49920 32634
" />
<path d="M49882 32503
L49882 32260
L50032 32391
L50032 32335
L50051 32297
L50070 32278
L50107 32260
L50201 32260
L50239 32278
L50257 32297
L50276 32335
L50276 32447
L50257 32485
L50239 32503
" />
<path d="M50276 31885
L50276 32110
" />
<path d="M50276 31997
L49882 31997
L49939 32035
L49976 32072
L49995 32110
" />
<path d="M52010 32634
L52029 32653
L52048 32709
L52048 32747
L52029 32803
L51991 32841
L51954 32859
L51879 32878
L51823 32878
L51748 32859
L51710 32841
L51673 32803
L51654 32747
L51654 32709
L51673 32653
L51691 32634
" />
<path d="M51654 32503
L51654 32260
L51804 32391
L51804 32335
L51823 32297
L51841 32278
L51879 32260
L51973 32260
L52010 32278
L52029 32297
L52048 32335
L52048 32447
L52029 32485
L52010 32503
" />
<path d="M51691 32110
L51673 32091
L51654 32053
L51654 31960
L51673 31922
L51691 31903
L51729 31885
L51766 31885
L51823 31903
L52048 32128
L52048 31885
" />
<path d="M50468 32461
L50599 32855
L50731 32461
" />
<path d="M51087 32855
L50956 32667
" />
<path d="M50862 32855
L50862 32461
L51012 32461
L51049 32480
L51068 32499
L51087 32536
L51087 32592
L51068 32630
L51049 32649
L51012 32667
L50862 32667
" />
<path d="M51218 32461
L51462 32461
L51331 32611
L51387 32611
L51424 32630
L51443 32649
L51462 32686
L51462 32780
L51443 32817
L51424 32836
L51387 32855
L51274 32855
L51237 32836
L51218 32817
" />
<path d="M64334 33221
L64203 33034
" />
<path d="M64109 33221
L64109 32827
L64259 32827
L64296 32846
L64315 32865
L64334 32902
L64334 32959
L64315 32996
L64296 33015
L64259 33034
L64109 33034
" />
<path d="M64709 33221
L64484 33221
" />
<path d="M64596 33221
L64596 32827
L64559 32884
L64521 32921
L64484 32940
" />
<path d="M64840 32827
L65084 32827
L64952 32977
L65009 32977
L65046 32996
L65065 33015
L65084 33052
L65084 33146
L65065 33184
L65046 33202
L65009 33221
L64896 33221
L64859 33202
L64840 33184
" />
<path d="M64334 33713
L64203 33526
" />
<path d="M64109 33713
L64109 33319
L64259 33319
L64296 33338
L64315 33357
L64334 33394
L64334 33451
L64315 33488
L64296 33507
L64259 33526
L64109 33526
" />
<path d="M64709 33713
L64484 33713
" />
<path d="M64596 33713
L64596 33319
L64559 33376
L64521 33413
L64484 33432
" />
<path d="M65046 33451
L65046 33713
" />
<path d="M64952 33301
L64859 33582
L65102 33582
" />
<path d="M64334 34205
L64203 34018
" />
<path d="M64109 34205
L64109 33812
L64259 33812
L64296 33830
L64315 33849
L64334 33887
L64334 33943
L64315 33980
L64296 33999
L64259 34018
L64109 34018
" />
<path d="M64709 34205
L64484 34205
" />
<path d="M64596 34205
L64596 33812
L64559 33868
L64521 33905
L64484 33924
" />
<path d="M65065 33812
L64877 33812
L64859 33999
L64877 33980
L64915 33962
L65009 33962
L65046 33980
L65065 33999
L65084 34037
L65084 34130
L65065 34168
L65046 34187
L65009 34205
L64915 34205
L64877 34187
L64859 34168
" />
<path d="M64334 34697
L64203 34510
" />
<path d="M64109 34697
L64109 34304
L64259 34304
L64296 34322
L64315 34341
L64334 34379
L64334 34435
L64315 34472
L64296 34491
L64259 34510
L64109 34510
" />
<path d="M64709 34697
L64484 34697
" />
<path d="M64596 34697
L64596 34304
L64559 34360
L64521 34397
L64484 34416
" />
<path d="M65046 34304
L64971 34304
L64934 34322
L64915 34341
L64877 34397
L64859 34472
L64859 34622
L64877 34660
L64896 34679
L64934 34697
L65009 34697
L65046 34679
L65065 34660
L65084 34622
L65084 34529
L65065 34491
L65046 34472
L65009 34454
L64934 34454
L64896 34472
L64877 34491
L64859 34529
" />
<path d="M49943 31871
L49812 31683
" />
<path d="M49718 31871
L49718 31477
L49868 31477
L49906 31496
L49925 31514
L49943 31552
L49943 31608
L49925 31646
L49906 31664
L49868 31683
L49718 31683
" />
<path d="M50318 31871
L50093 31871
" />
<path d="M50206 31871
L50206 31477
L50168 31533
L50131 31571
L50093 31589
" />
<path d="M50449 31477
L50712 31477
L50543 31871
" />
<path d="M50768 30568
L50581 30699
" />
<path d="M50768 30793
L50374 30793
L50374 30643
L50393 30605
L50412 30586
L50449 30568
L50506 30568
L50543 30586
L50562 30605
L50581 30643
L50581 30793
" />
<path d="M50768 30193
L50768 30418
" />
<path d="M50768 30305
L50374 30305
L50431 30343
L50468 30380
L50487 30418
" />
<path d="M50543 29968
L50524 30005
L50506 30024
L50468 30043
L50449 30043
L50412 30024
L50393 30005
L50374 29968
L50374 29893
L50393 29855
L50412 29836
L50449 29818
L50468 29818
L50506 29836
L50524 29855
L50543 29893
L50543 29968
L50562 30005
L50581 30024
L50618 30043
L50693 30043
L50731 30024
L50749 30005
L50768 29968
L50768 29893
L50749 29855
L50731 29836
L50693 29818
L50618 29818
L50581 29836
L50562 29855
L50543 29893
" />
<path d="M51359 30568
L51171 30699
" />
<path d="M51359 30793
L50965 30793
L50965 30643
L50984 30605
L51002 30586
L51040 30568
L51096 30568
L51134 30586
L51152 30605
L51171 30643
L51171 30793
" />
<path d="M51359 30193
L51359 30418
" />
<path d="M51359 30305
L50965 30305
L51021 30343
L51059 30380
L51077 30418
" />
<path d="M51359 30005
L51359 29930
L51340 29893
L51321 29874
L51265 29836
L51190 29818
L51040 29818
L51002 29836
L50984 29855
L50965 29893
L50965 29968
L50984 30005
L51002 30024
L51040 30043
L51134 30043
L51171 30024
L51190 30005
L51209 29968
L51209 29893
L51190 29855
L51171 29836
L51134 29818
" />
</g> 
</svg>
