<?xml version="1.0" standalone="no"?>
 <!DOCTYPE svg PUBLIC "-//W3C//DTD SVG 1.1//EN" 
 "http://www.w3.org/Graphics/SVG/1.1/DTD/svg11.dtd"> 
<svg xmlns="http://www.w3.org/2000/svg" version="1.1" 
    width="29.7002cm" height="21.0007cm" viewBox="0 0 116930 82680 ">
<title>SVG Picture created as PD_Board-B.SilkS.svg date 2019/10/05 00:21:12 </title>
  <desc>Picture generated by PCBNEW </desc>
<g style="fill:#000000; fill-opacity:1;stroke:#000000; stroke-opacity:1;
stroke-linecap:round; stroke-linejoin:round; "
 transform="translate(0 0) scale(1 1)">
</g>
<g style="fill:#000000; fill-opacity:0.0; 
stroke:#000000; stroke-width:-0.000393701; stroke-opacity:1; 
stroke-linecap:round; stroke-linejoin:round;">
</g>
<g style="fill:#000000; fill-opacity:0.0; 
stroke:#000000; stroke-width:78.7402; stroke-opacity:1; 
stroke-linecap:round; stroke-linejoin:round;">
<path d="M66744 32996
L66744 36996
" />
<path d="M71744 36996
L71744 35996
" />
<path d="M61244 36996
L71744 36996
" />
<path d="M61244 35996
L61244 36996
" />
</g>
<g style="fill:#000000; fill-opacity:0.0; 
stroke:#000000; stroke-width:59.0551; stroke-opacity:1; 
stroke-linecap:round; stroke-linejoin:round;">
</g>
<g style="fill:#000000; fill-opacity:1.0; 
stroke:#000000; stroke-width:59.0551; stroke-opacity:1; 
stroke-linecap:round; stroke-linejoin:round;">
<polyline style="fill-rule:evenodd;"
points="61244,32996
61244,36996
66744,36996
66744,32996
61244,32996
" /> 
</g>
<g style="fill:#000000; fill-opacity:1.0; 
stroke:#000000; stroke-width:78.7402; stroke-opacity:1; 
stroke-linecap:round; stroke-linejoin:round;">
</g>
<g style="fill:#000000; fill-opacity:0.0; 
stroke:#000000; stroke-width:78.7402; stroke-opacity:1; 
stroke-linecap:round; stroke-linejoin:round;">
<path d="M61244 34996
L66744 34996
" />
<path d="M66744 33996
L61244 33996
" />
<path d="M61244 35996
L66744 35996
" />
<path d="M61244 32996
L61244 35996
" />
<path d="M66744 32996
L61244 32996
" />
<path d="M66744 35996
L66744 34996
" />
<path d="M71744 34996
L71744 35996
" />
</g>
<g style="fill:#000000; fill-opacity:0.0; 
stroke:#000000; stroke-width:59.0551; stroke-opacity:1; 
stroke-linecap:round; stroke-linejoin:round;">
<path d="M69930 35709
L69930 35237
L69660 35709
L69660 35237
" />
<path d="M69367 35709
L69412 35687
L69435 35664
L69457 35619
L69457 35484
L69435 35439
L69412 35417
L69367 35394
L69300 35394
L69255 35417
L69232 35439
L69210 35484
L69210 35619
L69232 35664
L69255 35687
L69300 35709
L69367 35709
" />
<path d="M69075 35394
L68895 35394
" />
<path d="M69007 35237
L69007 35642
L68985 35687
L68940 35709
L68895 35709
" />
<path d="M68557 35687
L68602 35709
L68692 35709
L68737 35687
L68760 35642
L68760 35462
L68737 35417
L68692 35394
L68602 35394
L68557 35417
L68535 35462
L68535 35507
L68760 35552
" />
</g>
<g style="fill:#000000; fill-opacity:0.0; 
stroke:#000000; stroke-width:78.7402; stroke-opacity:1; 
stroke-linecap:round; stroke-linejoin:round;">
<path d="M66744 33996
L71744 33996
" />
<path d="M71744 34996
L71744 32996
" />
<path d="M66744 34996
L71744 34996
" />
<path d="M66744 32996
L66744 34996
" />
<path d="M71744 32996
L66744 32996
" />
</g>
<g style="fill:#000000; fill-opacity:0.0; 
stroke:#000000; stroke-width:59.0551; stroke-opacity:1; 
stroke-linecap:round; stroke-linejoin:round;">
<path d="M69919 34709
L69919 34237
L69806 34237
L69739 34259
L69694 34304
L69671 34349
L69649 34439
L69649 34507
L69671 34597
L69694 34642
L69739 34687
L69806 34709
L69919 34709
" />
<path d="M69244 34709
L69244 34462
L69266 34417
L69311 34394
L69401 34394
L69446 34417
" />
<path d="M69244 34687
L69289 34709
L69401 34709
L69446 34687
L69469 34642
L69469 34597
L69446 34552
L69401 34529
L69289 34529
L69244 34507
" />
<path d="M69086 34394
L68906 34394
" />
<path d="M69019 34237
L69019 34642
L68996 34687
L68951 34709
L68906 34709
" />
<path d="M68569 34687
L68614 34709
L68704 34709
L68749 34687
L68771 34642
L68771 34462
L68749 34417
L68704 34394
L68614 34394
L68569 34417
L68546 34462
L68546 34507
L68771 34552
" />
<path d="M71291 33709
L71291 33237
L71133 33574
L70976 33237
L70976 33709
" />
<path d="M70548 33709
L70548 33462
L70571 33417
L70616 33394
L70706 33394
L70751 33417
" />
<path d="M70548 33687
L70593 33709
L70706 33709
L70751 33687
L70773 33642
L70773 33597
L70751 33552
L70706 33529
L70593 33529
L70548 33507
" />
<path d="M70323 33394
L70323 33709
" />
<path d="M70323 33439
L70301 33417
L70256 33394
L70188 33394
L70143 33417
L70121 33462
L70121 33709
" />
<path d="M69694 33394
L69694 33709
" />
<path d="M69896 33394
L69896 33642
L69874 33687
L69829 33709
L69761 33709
L69716 33687
L69694 33664
" />
<path d="M69536 33394
L69356 33394
" />
<path d="M69469 33709
L69469 33304
L69446 33259
L69401 33237
L69356 33237
" />
<path d="M68996 33709
L68996 33462
L69019 33417
L69064 33394
L69154 33394
L69199 33417
" />
<path d="M68996 33687
L69041 33709
L69154 33709
L69199 33687
L69221 33642
L69221 33597
L69199 33552
L69154 33529
L69041 33529
L68996 33507
" />
<path d="M68569 33687
L68614 33709
L68704 33709
L68749 33687
L68771 33664
L68794 33619
L68794 33484
L68771 33439
L68749 33417
L68704 33394
L68614 33394
L68569 33417
" />
<path d="M68434 33394
L68254 33394
" />
<path d="M68366 33237
L68366 33642
L68344 33687
L68299 33709
L68254 33709
" />
<path d="M67894 33394
L67894 33709
" />
<path d="M68096 33394
L68096 33642
L68074 33687
L68029 33709
L67961 33709
L67916 33687
L67894 33664
" />
<path d="M67669 33709
L67669 33394
" />
<path d="M67669 33484
L67646 33439
L67624 33417
L67579 33394
L67534 33394
" />
<path d="M67196 33687
L67241 33709
L67331 33709
L67376 33687
L67399 33642
L67399 33462
L67376 33417
L67331 33394
L67241 33394
L67196 33417
L67174 33462
L67174 33507
L67399 33552
" />
<path d="M59725 30266
L59725 29872
L59575 29872
L59537 29891
L59519 29910
L59500 29947
L59500 30004
L59519 30041
L59537 30060
L59575 30079
L59725 30079
" />
<path d="M59162 30266
L59162 30060
L59181 30022
L59219 30004
L59294 30004
L59331 30022
" />
<path d="M59162 30247
L59200 30266
L59294 30266
L59331 30247
L59350 30210
L59350 30172
L59331 30135
L59294 30116
L59200 30116
L59162 30097
" />
<path d="M58975 30266
L58975 30004
" />
<path d="M58975 30079
L58956 30041
L58937 30022
L58900 30004
L58862 30004
" />
<path d="M58562 30266
L58562 30060
L58581 30022
L58619 30004
L58694 30004
L58731 30022
" />
<path d="M58562 30247
L58600 30266
L58694 30266
L58731 30247
L58750 30210
L58750 30172
L58731 30135
L58694 30116
L58600 30116
L58562 30097
" />
<path d="M58206 30247
L58244 30266
L58319 30266
L58356 30247
L58375 30229
L58394 30191
L58394 30079
L58375 30041
L58356 30022
L58319 30004
L58244 30004
L58206 30022
" />
<path d="M58038 30266
L58038 29872
" />
<path d="M57869 30266
L57869 30060
L57888 30022
L57925 30004
L57981 30004
L58019 30022
L58038 30041
" />
<path d="M57513 30004
L57513 30266
" />
<path d="M57681 30004
L57681 30210
L57663 30247
L57625 30266
L57569 30266
L57531 30247
L57513 30229
" />
<path d="M57381 30004
L57231 30004
" />
<path d="M57325 29872
L57325 30210
L57306 30247
L57269 30266
L57231 30266
" />
<path d="M56950 30247
L56988 30266
L57063 30266
L57100 30247
L57119 30210
L57119 30060
L57100 30022
L57063 30004
L56988 30004
L56950 30022
L56931 30060
L56931 30097
L57119 30135
" />
<path d="M56463 30266
L56463 29872
L56369 29872
L56313 29891
L56275 29929
L56257 29966
L56238 30041
L56238 30097
L56257 30172
L56275 30210
L56313 30247
L56369 30266
L56463 30266
" />
<path d="M55919 30247
L55957 30266
L56032 30266
L56069 30247
L56088 30210
L56088 30060
L56069 30022
L56032 30004
L55957 30004
L55919 30022
L55900 30060
L55900 30097
L56088 30135
" />
<path d="M55732 30004
L55732 30397
" />
<path d="M55732 30022
L55694 30004
L55619 30004
L55582 30022
L55563 30041
L55544 30079
L55544 30191
L55563 30229
L55582 30247
L55619 30266
L55694 30266
L55732 30247
" />
<path d="M55319 30266
L55357 30247
L55375 30210
L55375 29872
" />
<path d="M55113 30266
L55150 30247
L55169 30229
L55188 30191
L55188 30079
L55169 30041
L55150 30022
L55113 30004
L55057 30004
L55019 30022
L55000 30041
L54982 30079
L54982 30191
L55000 30229
L55019 30247
L55057 30266
L55113 30266
" />
<path d="M54850 30004
L54757 30266
" />
<path d="M54663 30004
L54757 30266
L54794 30360
L54813 30379
L54850 30397
" />
<path d="M54513 30266
L54513 30004
" />
<path d="M54513 30041
L54494 30022
L54457 30004
L54401 30004
L54363 30022
L54344 30060
L54344 30266
" />
<path d="M54344 30060
L54326 30022
L54288 30004
L54232 30004
L54194 30022
L54176 30060
L54176 30266
" />
<path d="M53838 30247
L53876 30266
L53951 30266
L53988 30247
L54007 30210
L54007 30060
L53988 30022
L53951 30004
L53876 30004
L53838 30022
L53819 30060
L53819 30097
L54007 30135
" />
<path d="M53651 30004
L53651 30266
" />
<path d="M53651 30041
L53632 30022
L53594 30004
L53538 30004
L53501 30022
L53482 30060
L53482 30266
" />
<path d="M53351 30004
L53201 30004
" />
<path d="M53294 29872
L53294 30210
L53276 30247
L53238 30266
L53201 30266
" />
<path d="M52638 30060
L52582 30079
L52563 30097
L52544 30135
L52544 30191
L52563 30229
L52582 30247
L52619 30266
L52769 30266
L52769 29872
L52638 29872
L52601 29891
L52582 29910
L52563 29947
L52563 29985
L52582 30022
L52601 30041
L52638 30060
L52769 30060
" />
<path d="M52320 30266
L52357 30247
L52376 30229
L52395 30191
L52395 30079
L52376 30041
L52357 30022
L52320 30004
L52263 30004
L52226 30022
L52207 30041
L52188 30079
L52188 30191
L52207 30229
L52226 30247
L52263 30266
L52320 30266
" />
<path d="M51851 30266
L51851 30060
L51870 30022
L51907 30004
L51982 30004
L52020 30022
" />
<path d="M51851 30247
L51888 30266
L51982 30266
L52020 30247
L52038 30210
L52038 30172
L52020 30135
L51982 30116
L51888 30116
L51851 30097
" />
<path d="M51663 30266
L51663 30004
" />
<path d="M51663 30079
L51645 30041
L51626 30022
L51588 30004
L51551 30004
" />
<path d="M51251 30266
L51251 29872
" />
<path d="M51251 30247
L51288 30266
L51363 30266
L51401 30247
L51420 30229
L51438 30191
L51438 30079
L51420 30041
L51401 30022
L51363 30004
L51288 30004
L51251 30022
" />
<path d="M50820 29872
L50688 30266
L50557 29872
" />
<path d="M50464 29872
L50220 29872
L50351 30022
L50295 30022
L50257 30041
L50239 30060
L50220 30097
L50220 30191
L50239 30229
L50257 30247
L50295 30266
L50407 30266
L50445 30247
L50464 30229
" />
<path d="M49526 30266
L49657 30079
" />
<path d="M49751 30266
L49751 29872
L49601 29872
L49564 29891
L49545 29910
L49526 29947
L49526 30004
L49545 30041
L49564 30060
L49601 30079
L49751 30079
" />
<path d="M49207 30247
L49245 30266
L49320 30266
L49357 30247
L49376 30210
L49376 30060
L49357 30022
L49320 30004
L49245 30004
L49207 30022
L49189 30060
L49189 30097
L49376 30135
" />
<path d="M49057 30004
L48964 30266
L48870 30004
" />
<path d="M48720 30229
L48701 30247
L48720 30266
L48739 30247
L48720 30229
L48720 30266
" />
<path d="M48326 30266
L48551 30266
" />
<path d="M48439 30266
L48439 29872
L48476 29929
L48514 29966
L48551 29985
" />
<path d="M58188 30916
L58188 30522
L58094 30522
L58038 30541
L58000 30578
L57981 30616
L57963 30691
L57963 30747
L57981 30822
L58000 30860
L58038 30897
L58094 30916
L58188 30916
" />
<path d="M57644 30897
L57681 30916
L57756 30916
L57794 30897
L57813 30860
L57813 30710
L57794 30672
L57756 30653
L57681 30653
L57644 30672
L57625 30710
L57625 30747
L57813 30785
" />
<path d="M57475 30897
L57438 30916
L57363 30916
L57325 30897
L57306 30860
L57306 30841
L57325 30803
L57363 30785
L57419 30785
L57456 30766
L57475 30728
L57475 30710
L57456 30672
L57419 30653
L57363 30653
L57325 30672
" />
<path d="M57138 30916
L57138 30653
" />
<path d="M57138 30522
L57156 30541
L57138 30560
L57119 30541
L57138 30522
L57138 30560
" />
<path d="M56781 30653
L56781 30972
L56800 31010
L56819 31028
L56856 31047
L56913 31047
L56950 31028
" />
<path d="M56781 30897
L56819 30916
L56894 30916
L56931 30897
L56950 30878
L56969 30841
L56969 30728
L56950 30691
L56931 30672
L56894 30653
L56819 30653
L56781 30672
" />
<path d="M56594 30653
L56594 30916
" />
<path d="M56594 30691
L56575 30672
L56538 30653
L56482 30653
L56444 30672
L56425 30710
L56425 30916
" />
<path d="M56088 30897
L56125 30916
L56200 30916
L56238 30897
L56257 30860
L56257 30710
L56238 30672
L56200 30653
L56125 30653
L56088 30672
L56069 30710
L56069 30747
L56257 30785
" />
<path d="M55732 30916
L55732 30522
" />
<path d="M55732 30897
L55769 30916
L55844 30916
L55882 30897
L55900 30878
L55919 30841
L55919 30728
L55900 30691
L55882 30672
L55844 30653
L55769 30653
L55732 30672
" />
<path d="M55244 30916
L55244 30522
" />
<path d="M55244 30672
L55207 30653
L55132 30653
L55094 30672
L55075 30691
L55057 30728
L55057 30841
L55075 30878
L55094 30897
L55132 30916
L55207 30916
L55244 30897
" />
<path d="M54925 30653
L54832 30916
" />
<path d="M54738 30653
L54832 30916
L54869 31010
L54888 31028
L54925 31047
" />
<path d="M54344 30522
L54119 30522
" />
<path d="M54232 30916
L54232 30522
" />
<path d="M53988 30878
L53969 30897
L53988 30916
L54007 30897
L53988 30878
L53988 30916
" />
<path d="M53801 30916
L53801 30522
L53576 30916
L53576 30522
" />
<path d="M53388 30916
L53388 30653
" />
<path d="M53388 30522
L53407 30541
L53388 30560
L53369 30541
L53388 30522
L53388 30560
" />
<path d="M53238 30653
L53163 30916
L53088 30728
L53013 30916
L52938 30653
" />
<path d="M52619 30916
L52619 30710
L52638 30672
L52676 30653
L52751 30653
L52788 30672
" />
<path d="M52619 30897
L52657 30916
L52751 30916
L52788 30897
L52807 30860
L52807 30822
L52788 30785
L52751 30766
L52657 30766
L52619 30747
" />
<path d="M52151 30560
L52132 30541
L52095 30522
L52001 30522
L51963 30541
L51945 30560
L51926 30597
L51926 30635
L51945 30691
L52170 30916
L51926 30916
" />
<path d="M51682 30522
L51645 30522
L51607 30541
L51588 30560
L51570 30597
L51551 30672
L51551 30766
L51570 30841
L51588 30878
L51607 30897
L51645 30916
L51682 30916
L51720 30897
L51738 30878
L51757 30841
L51776 30766
L51776 30672
L51757 30597
L51738 30560
L51720 30541
L51682 30522
" />
<path d="M51176 30916
L51401 30916
" />
<path d="M51288 30916
L51288 30522
L51326 30578
L51363 30616
L51401 30635
" />
<path d="M50988 30916
L50913 30916
L50876 30897
L50857 30878
L50820 30822
L50801 30747
L50801 30597
L50820 30560
L50838 30541
L50876 30522
L50951 30522
L50988 30541
L51007 30560
L51026 30597
L51026 30691
L51007 30728
L50988 30747
L50951 30766
L50876 30766
L50838 30747
L50820 30728
L50801 30691
" />
<path d="M50632 30878
L50613 30897
L50632 30916
L50651 30897
L50632 30878
L50632 30916
" />
<path d="M50239 30916
L50464 30916
" />
<path d="M50351 30916
L50351 30522
L50389 30578
L50426 30616
L50464 30635
" />
<path d="M49995 30522
L49957 30522
L49920 30541
L49901 30560
L49882 30597
L49864 30672
L49864 30766
L49882 30841
L49901 30878
L49920 30897
L49957 30916
L49995 30916
L50032 30897
L50051 30878
L50070 30841
L50089 30766
L50089 30672
L50070 30597
L50051 30560
L50032 30541
L49995 30522
" />
</g>
<g style="fill:#000000; fill-opacity:1.0; 
stroke:#000000; stroke-width:3.93701; stroke-opacity:1; 
stroke-linecap:round; stroke-linejoin:round;">
<polyline style="fill-rule:evenodd;"
points="47361,33376
47344,33377
47326,33379
47308,33381
47291,33383
47277,33385
47271,33386
47256,33389
47245,33392
47236,33394
47227,33397
47217,33400
47213,33402
47179,33414
47148,33429
47120,33446
47095,33465
47074,33486
47056,33508
47043,33531
47034,33555
47034,33555
47031,33573
47030,33594
47032,33614
47035,33628
47040,33645
47047,33660
47056,33677
47065,33690
47071,33699
47074,33706
47076,33713
47077,33721
47077,33723
47077,33733
47076,33740
47074,33746
47070,33752
47061,33762
47050,33770
47037,33773
47021,33773
47001,33770
46996,33769
46974,33765
46954,33764
46934,33768
46914,33777
46908,33780
46885,33795
46866,33814
46849,33835
46839,33852
46831,33871
46827,33888
46825,33906
46826,33916
46829,33937
46837,33956
46850,33973
46867,33988
46880,33996
46897,34006
46908,34017
46916,34027
46919,34039
46920,34053
46920,34053
46916,34067
46908,34079
46898,34090
46886,34098
46873,34102
46841,34108
46815,34115
46792,34124
46775,34135
46762,34147
46759,34151
46755,34157
46753,34163
46752,34170
46752,34179
46754,34198
46757,34211
46769,34234
46784,34258
46803,34280
46825,34301
46849,34320
46873,34336
46898,34348
46915,34353
46924,34356
46931,34358
46934,34358
46934,34358
46936,34357
46940,34352
46944,34345
46951,34337
46957,34328
46960,34323
46962,34320
46964,34317
46967,34314
46970,34310
46974,34304
46981,34296
46989,34286
47000,34272
47003,34268
47053,34209
47105,34153
47157,34102
47212,34054
47270,34009
47331,33966
47353,33952
47383,33933
47418,33914
47455,33896
47493,33878
47532,33861
47569,33846
47605,33833
47614,33830
47658,33817
47700,33806
47741,33797
47778,33790
47790,33788
47802,33786
47812,33784
47815,33783
47827,33781
47844,33779
47863,33777
47883,33776
47903,33774
47923,33773
47937,33772
47953,33771
47965,33770
47971,33769
47973,33767
47971,33764
47968,33758
47963,33749
47957,33738
47950,33727
47943,33716
47937,33706
47934,33702
47902,33656
47866,33613
47827,33572
47786,33534
47744,33500
47711,33478
47665,33451
47617,33428
47568,33409
47517,33394
47466,33383
47415,33377
47375,33376
47361,33376
" /> 
<polyline style="fill-rule:evenodd;"
points="48933,33811
48899,33818
48864,33829
48828,33845
48790,33866
48751,33892
48711,33922
48684,33945
48639,33985
48595,34030
48553,34077
48513,34126
48475,34177
48440,34228
48409,34280
48383,34330
48370,34357
48360,34381
48352,34402
48347,34420
48345,34431
48344,34441
48344,34447
48345,34454
48348,34462
48349,34464
48355,34475
48364,34488
48374,34501
48384,34512
48390,34518
48401,34527
48415,34537
48432,34548
48450,34558
48468,34568
48485,34577
48499,34584
48504,34585
48530,34595
48553,34603
48573,34609
48593,34614
48612,34619
48631,34624
48641,34626
48663,34630
48689,34634
48716,34637
48743,34641
48768,34643
48772,34643
48785,34644
48801,34645
48819,34645
48838,34645
48857,34646
48874,34645
48889,34645
48900,34645
48903,34644
48936,34641
48964,34638
48989,34634
49009,34631
49027,34627
49041,34623
49053,34619
49059,34616
49076,34605
49091,34590
49105,34571
49118,34547
49128,34520
49130,34517
49133,34506
49136,34497
49139,34487
49141,34476
49145,34462
49145,34461
49149,34439
49152,34414
49154,34385
49156,34352
49156,34314
49156,34303
49156,34265
49154,34229
49152,34195
49149,34161
49145,34125
49139,34086
49137,34072
49132,34044
49126,34015
49119,33986
49111,33958
49104,33931
49096,33906
49088,33884
49080,33864
49072,33849
49067,33840
49059,33832
49047,33825
49031,33819
49013,33814
48993,33810
48973,33809
48966,33809
48933,33811
" /> 
<polyline style="fill-rule:evenodd;"
points="49609,34260
49590,34265
49571,34274
49553,34286
49536,34302
49535,34303
49516,34327
49501,34354
49488,34385
49479,34420
49473,34458
49472,34478
49471,34498
49472,34521
49474,34546
49477,34572
49480,34597
49485,34621
49487,34631
49488,34635
49489,34638
49490,34641
49492,34645
49496,34651
49501,34658
49508,34669
49514,34678
49522,34691
49531,34704
49538,34716
49544,34726
49545,34727
49552,34738
49559,34751
49565,34761
49576,34779
49588,34800
49601,34823
49614,34848
49627,34872
49637,34892
49642,34903
49647,34913
49651,34920
49653,34924
49653,34924
49655,34929
49659,34937
49664,34948
49670,34961
49676,34976
49683,34991
49689,35005
49695,35019
49700,35030
49703,35038
49704,35040
49708,35051
49713,35064
49718,35076
49719,35078
49726,35098
49734,35120
49742,35145
49751,35170
49759,35194
49766,35218
49772,35238
49776,35253
49783,35280
49789,35303
49793,35322
49797,35339
49801,35354
49804,35368
49807,35382
49808,35387
49811,35406
49814,35421
49817,35432
49818,35440
49820,35445
49821,35447
49822,35448
49822,35448
49825,35446
49829,35442
49830,35441
49849,35421
49869,35399
49888,35376
49906,35354
49922,35332
49934,35314
49935,35312
49941,35304
49947,35295
49949,35290
49956,35279
49963,35266
49971,35250
49978,35235
49984,35221
49988,35211
49991,35199
49993,35186
49994,35178
49995,35168
49993,35162
49989,35157
49982,35155
49973,35154
49955,35150
49940,35146
49929,35141
49920,35133
49913,35124
49913,35124
49909,35114
49907,35104
49906,35099
49907,35092
49908,35087
49909,35081
49913,35074
49918,35065
49923,35057
49946,35016
49967,34974
49983,34931
49996,34889
50000,34870
50003,34851
50005,34832
50005,34813
50004,34795
50002,34779
49999,34767
49998,34763
49994,34756
49990,34751
49988,34750
49980,34750
49971,34754
49959,34761
49948,34769
49939,34776
49932,34782
49926,34786
49925,34786
49917,34788
49906,34789
49895,34788
49886,34786
49884,34785
49872,34777
49864,34766
49858,34753
49856,34740
49856,34734
49858,34728
49862,34720
49867,34709
49873,34697
49873,34697
49892,34656
49906,34614
49915,34571
49920,34526
49920,34505
49919,34484
49917,34464
49914,34448
49910,34434
49905,34424
49899,34418
49895,34416
49888,34418
49879,34423
49868,34431
49855,34443
49842,34457
49828,34473
49815,34491
49808,34501
49797,34516
49788,34527
49781,34536
49773,34541
49766,34544
49757,34545
49757,34545
49747,34546
49738,34545
49734,34544
49725,34539
49716,34531
49709,34521
49704,34512
49704,34509
49703,34501
49704,34488
49706,34471
49709,34451
49710,34442
49711,34434
49712,34422
49712,34407
49712,34391
49712,34388
49711,34373
49711,34360
49709,34351
49708,34342
49706,34334
49704,34330
49695,34307
49683,34289
49669,34275
49652,34265
49633,34260
49627,34259
49609,34260
" /> 
<polyline style="fill-rule:evenodd;"
points="48645,34730
48642,34731
48640,34732
48637,34735
48636,34736
48631,34741
48624,34749
48615,34759
48606,34769
48604,34771
48560,34825
48520,34876
48485,34926
48455,34975
48429,35022
48408,35068
48391,35113
48378,35157
48372,35186
48370,35202
48369,35220
48369,35240
48370,35260
48372,35278
48374,35290
48383,35321
48396,35349
48413,35375
48435,35398
48460,35417
48488,35434
48517,35446
48548,35454
48580,35458
48614,35459
48646,35456
48666,35452
48677,35449
48689,35445
48702,35439
48706,35437
48731,35424
48751,35410
48768,35392
48782,35372
48791,35357
48800,35343
48809,35333
48820,35327
48833,35324
48835,35324
48846,35324
48854,35326
48859,35328
48867,35333
48874,35339
48880,35346
48885,35356
48890,35370
48894,35378
48906,35409
48921,35436
48937,35458
48954,35476
48973,35489
48978,35491
48997,35497
49016,35499
49037,35495
49044,35493
49065,35483
49086,35469
49105,35450
49123,35428
49140,35401
49155,35372
49159,35363
49171,35325
49180,35285
49185,35242
49187,35198
49185,35151
49180,35104
49171,35056
49167,35038
49160,35014
49154,34992
49147,34971
49138,34949
49133,34936
49128,34923
49121,34908
49113,34890
49105,34872
49096,34855
49089,34839
49082,34827
49079,34822
49061,34791
49044,34762
49037,34752
49030,34742
49026,34735
49022,34731
49017,34730
49010,34731
49000,34732
48995,34733
48974,34737
48950,34739
48922,34741
48891,34742
48860,34743
48827,34743
48795,34742
48765,34741
48736,34739
48710,34736
48708,34736
48688,34733
48674,34731
48662,34730
48654,34729
48649,34729
48645,34730
" /> 
<polyline style="fill-rule:evenodd;"
points="47980,33869
47918,33872
47859,33877
47802,33885
47749,33896
47741,33898
47731,33900
47721,33902
47700,33908
47676,33915
47650,33923
47624,33931
47599,33940
47575,33949
47554,33958
47544,33962
47503,33982
47466,34001
47433,34019
47401,34038
47370,34058
47340,34079
47309,34102
47294,34114
47241,34159
47190,34207
47140,34261
47090,34317
47043,34378
46998,34441
46955,34508
46947,34521
46921,34565
46895,34612
46870,34662
46844,34712
46821,34763
46799,34813
46779,34860
46775,34870
46769,34884
46763,34900
46757,34915
46754,34922
46747,34943
46740,34961
46734,34976
46730,34989
46728,34997
46727,35002
46728,35002
46731,35004
46737,35007
46746,35012
46757,35018
46761,35020
46790,35035
46814,35048
46836,35060
46856,35071
46875,35081
46893,35092
46912,35104
46918,35108
46927,35113
46936,35119
46937,35119
46967,35139
47000,35161
47034,35186
47069,35212
47118,35252
47166,35294
47210,35338
47251,35384
47289,35429
47322,35475
47324,35478
47330,35488
47334,35496
47336,35503
47337,35511
47336,35526
47331,35540
47322,35551
47310,35559
47296,35563
47289,35563
47280,35563
47273,35561
47266,35558
47259,35553
47251,35545
47243,35534
47232,35520
47225,35510
47206,35484
47184,35457
47159,35428
47132,35400
47104,35372
47075,35345
47068,35338
47030,35307
46988,35274
46943,35242
46896,35210
46847,35180
46799,35151
46760,35130
46722,35111
46685,35092
46649,35075
46613,35059
46575,35042
46534,35026
46489,35008
46486,35007
46417,34982
46344,34959
46270,34939
46195,34922
46122,34908
46105,34906
46089,34904
46070,34902
46049,34901
46027,34900
46005,34899
45984,34899
45966,34899
45950,34900
45938,34901
45918,34905
45902,34909
45891,34914
45884,34919
45880,34925
45880,34929
45882,34939
45888,34952
45898,34967
45911,34985
45927,35003
45946,35023
45949,35027
45964,35041
45978,35054
45992,35066
46007,35079
46023,35092
46043,35107
46056,35117
46083,35137
46107,35154
46129,35170
46151,35185
46174,35200
46199,35216
46201,35217
46211,35224
46221,35231
46229,35237
46234,35241
46234,35241
46241,35253
46245,35267
46244,35281
46240,35294
46236,35300
46227,35310
46219,35316
46210,35319
46199,35320
46198,35320
46192,35321
46186,35320
46181,35319
46175,35317
46167,35313
46157,35308
46149,35303
46105,35281
46064,35264
46025,35250
45988,35241
45953,35236
45933,35235
45907,35237
45884,35240
45865,35247
45849,35255
45837,35266
45829,35278
45825,35292
45826,35307
45832,35324
45832,35325
45844,35345
45861,35363
45883,35380
45909,35395
45939,35408
45973,35420
46011,35430
46053,35437
46064,35441
46075,35449
46084,35459
46088,35465
46092,35479
46092,35493
46087,35507
46079,35520
46067,35530
46065,35531
46060,35533
46053,35535
46045,35537
46033,35538
46024,35539
45995,35541
45967,35545
45939,35551
45915,35557
45893,35564
45875,35572
45866,35577
45855,35585
45848,35593
45846,35601
45848,35610
45854,35620
45864,35630
45883,35645
45905,35658
45931,35669
45960,35678
45991,35684
46024,35688
46027,35688
46041,35689
46051,35690
46058,35691
46064,35692
46068,35694
46072,35697
46073,35697
46084,35708
46092,35721
46095,35735
46094,35750
46088,35764
46079,35775
46071,35782
46059,35787
46054,35789
46044,35792
46033,35796
46023,35801
46014,35806
46007,35810
46003,35812
46003,35813
46005,35815
46012,35818
46022,35820
46036,35823
46052,35826
46070,35828
46090,35830
46110,35832
46131,35834
46150,35835
46169,35836
46181,35836
46202,35836
46219,35838
46233,35841
46244,35845
46252,35852
46259,35860
46262,35866
46267,35881
46267,35895
46263,35907
46255,35919
46244,35928
46228,35936
46221,35938
46204,35944
46189,35950
46177,35956
46167,35962
46162,35968
46160,35972
46162,35977
46167,35983
46175,35990
46184,35997
46192,36003
46219,36018
46252,36033
46289,36047
46330,36059
46374,36070
46422,36080
46473,36089
46527,36096
46555,36098
46579,36101
46601,36102
46623,36104
46644,36105
46667,36106
46693,36106
46722,36107
46732,36107
46753,36108
46770,36108
46784,36109
46794,36111
46802,36113
46807,36116
46812,36120
46816,36125
46819,36129
46823,36135
46825,36142
46826,36150
46826,36157
46826,36167
46825,36174
46823,36179
46819,36185
46819,36185
46811,36192
46803,36199
46800,36201
46789,36206
46709,36205
46688,36205
46667,36204
46647,36203
46629,36203
46613,36202
46602,36201
46600,36201
46584,36199
46574,36199
46567,36199
46564,36201
46563,36204
46565,36210
46568,36218
46570,36221
46585,36253
46601,36287
46618,36321
46636,36354
46653,36386
46670,36416
46686,36442
46697,36459
46708,36476
46717,36489
46724,36500
46730,36509
46735,36516
46740,36523
46745,36530
46751,36537
46757,36546
46758,36548
46808,36612
46861,36673
46918,36731
46979,36787
47000,36805
47009,36813
47021,36822
47035,36833
47050,36844
47064,36855
47077,36864
47087,36872
47090,36874
47097,36879
47106,36885
47117,36892
47129,36900
47140,36908
47151,36915
47160,36920
47166,36924
47167,36925
47172,36928
47181,36933
47191,36939
47202,36946
47236,36965
47273,36985
47314,37004
47356,37024
47399,37042
47442,37059
47485,37075
47508,37083
47518,37086
47531,37090
47546,37095
47562,37099
47577,37104
47591,37108
47602,37111
47610,37113
47611,37113
47619,37115
47629,37118
47640,37120
47640,37121
47652,37124
47667,37127
47679,37130
47690,37132
47700,37134
47708,37136
47709,37136
47760,37147
47816,37156
47876,37165
47940,37172
48007,37178
48041,37181
48056,37182
48074,37183
48096,37183
48121,37184
48148,37184
48175,37185
48203,37185
48230,37185
48256,37185
48280,37185
48301,37184
48319,37184
48326,37183
48346,37182
48368,37180
48392,37179
48416,37176
48439,37174
48460,37172
48479,37170
48494,37168
48496,37167
48508,37165
48519,37164
48528,37162
48530,37162
48540,37161
48551,37159
48554,37158
48571,37155
48588,37152
48604,37149
48616,37146
48626,37144
48629,37144
48638,37142
48648,37139
48650,37139
48711,37124
48774,37105
48837,37084
48898,37060
48956,37034
49003,37012
49015,37005
49026,36999
49035,36995
49043,36990
49054,36984
49066,36977
49073,36973
49081,36968
49093,36961
49106,36953
49120,36944
49133,36936
49145,36928
49155,36921
49160,36918
49209,36881
49254,36845
49296,36809
49334,36773
49346,36761
49365,36742
49380,36725
49395,36710
49408,36694
49421,36678
49436,36661
49452,36641
49459,36632
49470,36618
49482,36600
49496,36581
49509,36561
49522,36541
49534,36522
49543,36506
49544,36505
49550,36495
49556,36485
49560,36476
49560,36476
49567,36464
49575,36448
49584,36431
49594,36412
49604,36392
49613,36372
49622,36353
49629,36336
49636,36321
49641,36309
49643,36303
49644,36298
49648,36290
49651,36280
49651,36280
49674,36214
49694,36145
49711,36072
49726,35996
49729,35976
49734,35934
49739,35888
49742,35839
49744,35789
49744,35739
49744,35688
49742,35640
49739,35594
49734,35551
49734,35547
49732,35533
49730,35519
49728,35507
49727,35500
49726,35488
49724,35476
49723,35468
49721,35461
49719,35450
49717,35436
49714,35422
49714,35420
49704,35374
49693,35325
49679,35275
49664,35224
49648,35174
49631,35126
49631,35126
49626,35112
49619,35095
49613,35078
49606,35061
49599,35045
49593,35030
49587,35017
49583,35007
49580,35001
49580,35001
49578,34998
49575,34991
49570,34981
49564,34968
49557,34954
49555,34950
49547,34933
49538,34915
49528,34896
49517,34877
49507,34858
49498,34841
49489,34826
49482,34814
49479,34808
49476,34803
49470,34795
49464,34784
49456,34772
49452,34766
49443,34752
49436,34739
49428,34728
49420,34716
49411,34702
49400,34685
49399,34685
49392,34675
49383,34662
49372,34647
49361,34632
49350,34618
49341,34606
49324,34585
49308,34564
49293,34546
49280,34529
49267,34515
49257,34504
49249,34495
49243,34490
49240,34489
49240,34489
49238,34493
49237,34500
49236,34502
49235,34507
49234,34512
49233,34518
49230,34526
49227,34537
49223,34550
49211,34581
49197,34609
49180,34637
49180,34637
49175,34644
49167,34653
49158,34662
49149,34672
49140,34680
49133,34687
49127,34691
49125,34692
49122,34694
49121,34696
49122,34701
49126,34708
49129,34713
49133,34718
49136,34723
49139,34728
49142,34733
49146,34740
49151,34750
49159,34762
49163,34770
49178,34798
49194,34829
49209,34861
49222,34894
49235,34925
49245,34953
49246,34958
49249,34967
49252,34974
49253,34978
49255,34985
49258,34995
49261,35009
49265,35025
49269,35042
49272,35058
49275,35074
49277,35085
49281,35109
49283,35136
49285,35165
49286,35195
49285,35225
49284,35252
49282,35276
49281,35278
49273,35324
49261,35367
49247,35408
49229,35445
49209,35478
49186,35508
49160,35535
49132,35557
49102,35575
49070,35589
49063,35591
49046,35595
49027,35597
49007,35597
48987,35596
48970,35593
48941,35583
48913,35568
48888,35549
48872,35534
48864,35525
48855,35514
48847,35502
48839,35492
48833,35482
48829,35476
48829,35475
48827,35475
48822,35478
48817,35483
48793,35502
48765,35520
48734,35534
48700,35545
48664,35553
48628,35557
48591,35558
48571,35556
48537,35552
48506,35545
48476,35536
48464,35531
48427,35513
48394,35492
48365,35468
48339,35440
48327,35424
48314,35405
48305,35388
48301,35381
48292,35358
48284,35337
48279,35318
48275,35300
48273,35280
48272,35258
48271,35235
48272,35214
48272,35196
48274,35180
48276,35164
48279,35147
48284,35127
48284,35126
48295,35086
48311,35044
48330,35000
48353,34955
48379,34909
48409,34863
48429,34835
48460,34792
48492,34751
48514,34724
48522,34715
48528,34708
48531,34703
48533,34701
48530,34700
48525,34698
48517,34695
48497,34688
48474,34679
48450,34669
48427,34658
48405,34647
48387,34637
48385,34636
48354,34615
48327,34593
48303,34569
48283,34545
48267,34520
48255,34495
48248,34470
48245,34446
48245,34445
48247,34422
48252,34396
48260,34367
48263,34356
47868,34356
47860,34364
47851,34370
47841,34371
47831,34368
47829,34367
47825,34364
47822,34358
47820,34351
47818,34341
47818,34327
47818,34312
47818,34293
47811,34293
47811,34307
47811,34312
47810,34327
47810,34337
47809,34344
47808,34349
47806,34352
47804,34355
47802,34357
47794,34362
47783,34364
47773,34361
47772,34361
47768,34358
47765,34353
47763,34346
47762,34336
47762,34323
47762,34306
47762,34304
47763,34289
47763,34279
47764,34272
47765,34267
47767,34264
47769,34261
47771,34260
47778,34256
47741,34256
47740,34264
47740,34275
47739,34289
47738,34304
47737,34320
47736,34335
47735,34339
47734,34342
47730,34347
47729,34348
47720,34355
47711,34356
47702,34354
47695,34348
47687,34341
47689,34309
47690,34289
47691,34274
47692,34262
47694,34254
47695,34248
47697,34243
47700,34240
47701,34239
47710,34235
47719,34234
47728,34236
47736,34242
47740,34250
47741,34252
47741,34256
47778,34256
47780,34255
47789,34254
47799,34256
47806,34262
47810,34268
47810,34273
47811,34282
47811,34293
47818,34293
47818,34276
47825,34268
47834,34262
47843,34261
47853,34263
47859,34267
47862,34272
47864,34277
47866,34284
47867,34294
47867,34307
47868,34324
47868,34324
47868,34356
48263,34356
48271,34336
48274,34327
48278,34318
48284,34306
48290,34293
48297,34279
48304,34266
48310,34254
48315,34244
48319,34238
48320,34236
48323,34231
48325,34228
48325,34228
48326,34225
48330,34218
48336,34209
48343,34197
48352,34184
48361,34169
48370,34156
47934,34156
47934,34168
47933,34177
47931,34184
47928,34191
47927,34195
47918,34210
47906,34223
47892,34234
47882,34238
47866,34242
47849,34243
47832,34240
47819,34235
47803,34224
47789,34210
47780,34193
47775,34174
47774,34155
47776,34138
47783,34119
47793,34103
47806,34090
47821,34081
47837,34074
47854,34072
47871,34074
47888,34079
47904,34089
47913,34097
47922,34109
47929,34121
47932,34133
47934,34149
47934,34156
48370,34156
48371,34154
48381,34140
48390,34126
48399,34113
48407,34102
48410,34098
48427,34076
48445,34053
48464,34029
48486,34004
48487,34003
48497,33991
48506,33980
48514,33971
48520,33964
48523,33960
48523,33959
48521,33957
48514,33954
48504,33951
48490,33946
48485,33945
48464,33939
48443,33933
48423,33927
48405,33922
48389,33918
48376,33915
48369,33913
48359,33911
48350,33909
48348,33909
48303,33899
48257,33891
48214,33884
48173,33878
48166,33877
48104,33872
48042,33869
47980,33869
" /> 
<polyline style="fill-rule:evenodd;"
points="46103,36210
46075,36211
46050,36213
46027,36215
46005,36219
45986,36222
45976,36225
45965,36227
45958,36228
45950,36230
45938,36233
45926,36237
45913,36241
45903,36244
45898,36246
45857,36262
45821,36279
45788,36297
45758,36317
45730,36340
45707,36361
45675,36394
45648,36429
45624,36467
45603,36507
45586,36550
45571,36597
45560,36647
45556,36667
45555,36677
45553,36690
45552,36703
45551,36717
45549,36731
45549,36743
45548,36752
45548,36758
45549,36760
45550,36759
45553,36754
45557,36746
45560,36740
45584,36693
45610,36651
45639,36613
45670,36579
45703,36549
45739,36524
45745,36521
45758,36513
45775,36505
45793,36496
45811,36488
45827,36481
45830,36480
45849,36473
45869,36465
45891,36458
45912,36452
45933,36446
45952,36440
45970,36436
45984,36433
45995,36431
45999,36431
46015,36433
46028,36440
46039,36449
46047,36461
46050,36475
46050,36491
46049,36494
46046,36503
46041,36511
46033,36518
46022,36526
46007,36535
46004,36537
45961,36564
45921,36593
45884,36624
45852,36657
45823,36691
45809,36711
45796,36732
45784,36756
45772,36781
45762,36806
45753,36829
45748,36848
45746,36859
45743,36869
45743,36871
45739,36893
45736,36918
45734,36947
45733,36977
45733,37007
45734,37038
45737,37067
45740,37091
45742,37103
45744,37111
45745,37114
45748,37113
45751,37108
45756,37098
45760,37091
45789,37040
45818,36994
45848,36952
45879,36915
45912,36881
45946,36851
45982,36824
45989,36819
46000,36812
46009,36806
46017,36802
46026,36797
46037,36791
46049,36785
46058,36781
46066,36777
46072,36774
46073,36773
46084,36768
46098,36763
46116,36756
46135,36750
46156,36743
46177,36737
46198,36731
46218,36726
46237,36721
46252,36718
46265,36716
46270,36716
46284,36718
46296,36724
46306,36733
46313,36745
46317,36759
46317,36772
46313,36786
46306,36797
46295,36806
46291,36808
46282,36813
46271,36817
46268,36819
46235,36837
46204,36859
46175,36886
46148,36916
46124,36949
46103,36986
46085,37025
46071,37067
46061,37104
46058,37124
46054,37148
46051,37173
46049,37197
46048,37219
46048,37230
46048,37244
46048,37258
46049,37271
46050,37282
46051,37290
46052,37295
46052,37296
46054,37294
46057,37288
46060,37280
46063,37274
46067,37263
46073,37249
46081,37233
46090,37215
46099,37197
46108,37179
46117,37163
46124,37150
46125,37148
46149,37109
46177,37069
46206,37029
46237,36991
46269,36955
46300,36923
46301,36923
46313,36911
46327,36899
46341,36886
46356,36874
46370,36862
46382,36852
46392,36845
46394,36843
46416,36828
46436,36815
46452,36805
46467,36796
46480,36788
46493,36781
46507,36775
46514,36771
46523,36767
46530,36764
46535,36761
46535,36761
46542,36758
46553,36754
46565,36749
46579,36744
46593,36739
46601,36736
46621,36731
46644,36725
46668,36721
46692,36716
46714,36713
46731,36712
46743,36711
46752,36710
46758,36710
46760,36709
46759,36707
46754,36702
46748,36694
46741,36685
46738,36682
46699,36632
46662,36583
46628,36533
46595,36482
46563,36428
46532,36370
46515,36337
46509,36326
46504,36318
46499,36312
46491,36306
46486,36302
46470,36290
46449,36279
46426,36267
46401,36256
46374,36246
46349,36238
46341,36236
46307,36227
46273,36220
46239,36215
46204,36212
46165,36210
46135,36210
46103,36210
" /> 
<polyline style="fill-rule:evenodd;"
points="50248,35865
50237,35865
50229,35866
50221,35868
50212,35871
50203,35874
50170,35888
50139,35907
50110,35930
50083,35956
50059,35987
50037,36021
50018,36058
50003,36098
50002,36102
49994,36127
49989,36149
49986,36171
49984,36193
49984,36208
49986,36243
49992,36275
50001,36303
50014,36328
50031,36350
50051,36368
50056,36372
50078,36384
50102,36392
50125,36396
50149,36394
50153,36394
50173,36387
50193,36377
50213,36364
50231,36349
50246,36332
50251,36325
50264,36304
50274,36282
50282,36261
50286,36242
50288,36224
50286,36209
50284,36202
50281,36197
50276,36192
50270,36189
50260,36187
50247,36185
50232,36183
50213,36181
50198,36179
50187,36175
50180,36170
50177,36163
50177,36155
50179,36145
50185,36131
50193,36120
50203,36112
50215,36108
50226,36107
50232,36109
50240,36113
50244,36120
50244,36129
50240,36141
50239,36142
50236,36150
50234,36156
50234,36158
50236,36158
50243,36158
50252,36157
50264,36156
50276,36155
50288,36154
50299,36153
50307,36152
50312,36151
50316,36149
50319,36145
50322,36138
50323,36135
50331,36111
50335,36089
50334,36069
50330,36051
50322,36036
50310,36023
50295,36014
50277,36008
50264,36007
50242,36007
50219,36013
50197,36022
50175,36035
50154,36051
50135,36071
50119,36093
50116,36098
50104,36121
50095,36144
50089,36167
50086,36189
50086,36208
50090,36226
50091,36227
50097,36238
50103,36247
50112,36255
50123,36260
50138,36265
50156,36269
50170,36272
50187,36275
50199,36277
50208,36280
50213,36282
50216,36284
50217,36288
50218,36290
50215,36301
50208,36311
50198,36321
50184,36329
50184,36329
50177,36332
50169,36333
50160,36334
50148,36335
50146,36335
50134,36335
50126,36334
50119,36333
50112,36330
50104,36327
50084,36315
50068,36302
50055,36285
50045,36265
50041,36255
50035,36228
50033,36199
50036,36168
50043,36135
50049,36113
50063,36078
50080,36045
50100,36016
50122,35991
50147,35970
50174,35954
50201,35942
50225,35936
50251,35935
50276,35938
50301,35944
50323,35955
50330,35959
50349,35975
50365,35994
50378,36016
50386,36041
50391,36069
50393,36099
50391,36131
50384,36165
50375,36200
50373,36203
50358,36243
50339,36282
50316,36320
50298,36346
50283,36366
50299,36383
50306,36391
50312,36397
50316,36400
50317,36401
50320,36399
50324,36395
50324,36395
50331,36387
50339,36375
50349,36361
50359,36344
50369,36327
50379,36309
50388,36292
50389,36290
50407,36250
50422,36211
50433,36173
50438,36153
50440,36143
50442,36133
50443,36123
50443,36111
50444,36096
50444,36078
50443,36056
50443,36037
50441,36021
50438,36007
50433,35993
50427,35978
50420,35961
50413,35949
50408,35939
50401,35930
50393,35921
50385,35914
50366,35896
50347,35883
50326,35874
50303,35868
50277,35865
50261,35865
50248,35865
" /> 
<polyline style="fill-rule:evenodd;"
points="49644,36661
49632,36667
49617,36678
49606,36692
49598,36707
49594,36723
49594,36740
49595,36746
49601,36758
49610,36769
49622,36777
49635,36782
49644,36783
49649,36783
49657,36781
49662,36779
49678,36771
49692,36759
49704,36745
49711,36728
49715,36711
49715,36707
49713,36691
49707,36678
49696,36668
49689,36664
49675,36659
49660,36659
49644,36661
" /> 
<polyline style="fill-rule:evenodd;"
points="49930,36376
49904,36383
49879,36395
49855,36411
49832,36431
49810,36454
49791,36481
49774,36512
49772,36514
49761,36542
49754,36570
49753,36596
49756,36622
49764,36647
49777,36670
49794,36692
49797,36695
49801,36699
49808,36705
49818,36713
49830,36724
49845,36736
49861,36749
49878,36763
49896,36778
49914,36793
49932,36808
49950,36822
49967,36836
49982,36848
49996,36859
50007,36868
50016,36875
50022,36879
50024,36881
50024,36881
50027,36879
50031,36874
50038,36866
50046,36856
50054,36845
50068,36828
50081,36810
50093,36794
50104,36779
50114,36766
50121,36755
50127,36747
50129,36742
50130,36741
50127,36739
50122,36735
50112,36728
50100,36719
50086,36709
50069,36697
50050,36683
50030,36669
50021,36663
50000,36649
49980,36635
49962,36621
49945,36609
49931,36599
49919,36590
49910,36583
49905,36579
49904,36578
49899,36572
49896,36566
49895,36559
49895,36558
49897,36547
49902,36537
49910,36529
49920,36524
49925,36523
49928,36524
49931,36524
49935,36526
49940,36528
49946,36532
49954,36537
49965,36543
49978,36551
49993,36561
50012,36574
50035,36588
50058,36603
50079,36617
50099,36631
50117,36643
50134,36653
50148,36662
50159,36670
50167,36675
50171,36677
50172,36678
50174,36676
50178,36671
50184,36662
50191,36651
50200,36638
50209,36623
50219,36608
50228,36592
50238,36577
50246,36563
50253,36550
50259,36540
50263,36532
50265,36528
50265,36527
50263,36525
50257,36522
50247,36516
50235,36509
50220,36500
50203,36490
50185,36480
50165,36469
50145,36457
50124,36446
50104,36434
50084,36424
50066,36413
50050,36404
50035,36397
50015,36387
49997,36380
49980,36375
49963,36374
49956,36373
49930,36376
" /> 
<polyline style="fill-rule:evenodd;"
points="49758,36726
49753,36731
49746,36739
49738,36748
49737,36748
49727,36760
49715,36773
49703,36787
49692,36799
49668,36825
49694,36852
49705,36862
49718,36875
49733,36889
49749,36904
49765,36920
49782,36936
49799,36952
49816,36968
49831,36983
49846,36997
49859,37009
49870,37020
49879,37028
49885,37033
49888,37036
49888,37036
49890,37034
49895,37029
49902,37022
49910,37013
49914,37009
49930,36992
49945,36975
49958,36960
49970,36947
49979,36936
49987,36927
49991,36921
49992,36919
49990,36917
49985,36912
49976,36904
49965,36895
49952,36883
49937,36870
49920,36856
49903,36842
49885,36826
49866,36811
49848,36796
49831,36781
49814,36768
49799,36755
49786,36745
49775,36736
49767,36729
49762,36725
49760,36724
49758,36726
" /> 
<polyline style="fill-rule:evenodd;"
points="49600,36898
49588,36910
49576,36921
49565,36931
49556,36940
49550,36945
49549,36946
49537,36957
49593,37020
49606,37035
49619,37049
49630,37062
49639,37073
49647,37082
49651,37088
49653,37090
49657,37100
49657,37109
49651,37117
49649,37120
49639,37127
49629,37129
49620,37125
49615,37122
49612,37119
49607,37113
49599,37104
49589,37093
49578,37080
49567,37067
49555,37053
49543,37039
49531,37026
49521,37014
49513,37004
49507,36996
49503,36991
49502,36990
49500,36991
49494,36995
49486,37000
49476,37008
49464,37017
49462,37019
49449,37029
49436,37040
49424,37049
49415,37056
49408,37061
49401,37067
49395,37071
49393,37074
49393,37074
49394,37076
49398,37082
49404,37091
49413,37103
49423,37117
49434,37132
49443,37144
49455,37160
49466,37176
49476,37190
49485,37202
49491,37211
49496,37218
49497,37220
49499,37230
49497,37238
49490,37246
49488,37248
49478,37253
49468,37253
49459,37248
49457,37246
49453,37242
49448,37235
49440,37225
49430,37212
49419,37197
49408,37181
49402,37173
49390,37156
49380,37142
49371,37129
49363,37118
49357,37110
49354,37106
49353,37105
49350,37106
49344,37109
49335,37115
49324,37122
49310,37131
49296,37140
49282,37150
49268,37158
49257,37166
49248,37171
49242,37175
49240,37176
49238,37178
49238,37178
49239,37181
49243,37188
49248,37198
49256,37210
49264,37224
49274,37240
49284,37257
49295,37274
49306,37290
49316,37307
49326,37321
49334,37334
49341,37345
49346,37352
49349,37357
49350,37357
49362,37367
49378,37375
49396,37382
49415,37387
49433,37388
49435,37388
49442,37388
49452,37386
49461,37385
49486,37379
49509,37369
49531,37355
49553,37338
49563,37328
49577,37313
49588,37299
49597,37284
49605,37268
49608,37258
49614,37242
49629,37241
49659,37235
49688,37225
49714,37210
49739,37193
49760,37171
49778,37147
49786,37132
49796,37107
49801,37084
49802,37060
49797,37038
49787,37017
49785,37013
49781,37008
49775,37000
49765,36990
49754,36978
49740,36964
49726,36948
49710,36933
49708,36930
49639,36861
49600,36898
" /> 
<polyline style="fill-rule:evenodd;"
points="47331,33240
47308,33240
47287,33242
47270,33243
47264,33244
47224,33252
47188,33260
47154,33271
47122,33284
47098,33295
47075,33307
47057,33318
47043,33327
47041,33328
47036,33332
47028,33339
47019,33345
47018,33346
47004,33358
46989,33371
46975,33385
46963,33398
46954,33408
46945,33420
46938,33429
46933,33437
46929,33443
46925,33449
46921,33456
46921,33457
46907,33487
46898,33518
46892,33551
46890,33586
46891,33602
46892,33632
46881,33637
46871,33640
46863,33644
46860,33645
46843,33653
46824,33665
46803,33681
46782,33700
46769,33712
46745,33738
46725,33766
46710,33793
46699,33820
46694,33836
46691,33849
46689,33861
46687,33874
46687,33888
46686,33905
46686,33913
46687,33932
46687,33946
46688,33958
46690,33969
46693,33979
46697,33991
46700,33998
46704,34010
46683,34029
46665,34045
46651,34060
46640,34074
46631,34087
46624,34102
46621,34110
46619,34117
46617,34123
46615,34129
46615,34135
46614,34144
46614,34155
46614,34169
46614,34180
46614,34197
46614,34211
46615,34221
46615,34229
46617,34236
46618,34242
46620,34247
46626,34266
46634,34283
46639,34293
46643,34300
46646,34307
46648,34311
46650,34315
46654,34320
46659,34326
46666,34336
46675,34348
46675,34348
46683,34358
46693,34369
46706,34381
46719,34394
46731,34407
46743,34417
46752,34425
46754,34426
46770,34438
46784,34448
46796,34456
46804,34460
46804,34461
46810,34464
46813,34467
46813,34467
46811,34471
46808,34477
46805,34482
46800,34490
46796,34497
46795,34500
46792,34505
46788,34512
46785,34517
46779,34527
46772,34540
46764,34557
46754,34575
46745,34594
46735,34613
46725,34632
46717,34649
46710,34664
46704,34676
46704,34676
46698,34689
46693,34700
46689,34710
46685,34719
46680,34729
46675,34742
46668,34757
46661,34773
46655,34787
46650,34801
46644,34815
46637,34831
46630,34850
46624,34867
46620,34877
46616,34886
46613,34893
46612,34895
46610,34899
46607,34901
46601,34899
46594,34896
46587,34893
46582,34891
46581,34891
46578,34890
46571,34888
46563,34884
46561,34884
46536,34874
46508,34864
46477,34853
46444,34842
46411,34832
46377,34822
46345,34813
46315,34805
46305,34802
46257,34791
46213,34782
46173,34774
46161,34772
46122,34767
46083,34763
46045,34760
46008,34759
45973,34759
45940,34760
45911,34763
45886,34767
45879,34769
45862,34773
45846,34779
45832,34784
45822,34790
45820,34791
45815,34794
45811,34796
45810,34796
45806,34798
45800,34803
45791,34811
45782,34821
45771,34833
45761,34845
45753,34856
45749,34865
45745,34878
45743,34893
45741,34911
45741,34929
45741,34947
45742,34964
45745,34978
45749,34989
45758,35010
45767,35027
45776,35042
45787,35057
45800,35073
45812,35087
45819,35095
45824,35101
45827,35105
45828,35106
45825,35108
45820,35111
45814,35113
45797,35121
45780,35132
45761,35146
45747,35158
45728,35178
45713,35196
45702,35214
45694,35233
45689,35255
45686,35279
45686,35282
45686,35314
45689,35342
45696,35368
45708,35393
45723,35418
45743,35442
45747,35446
45771,35471
45749,35493
45734,35510
45723,35525
45715,35540
45710,35557
45707,35576
45707,35577
45706,35605
45707,35630
45712,35652
45721,35673
45733,35693
45750,35714
45767,35731
45779,35743
45789,35752
45798,35759
45806,35765
45814,35770
45824,35776
45830,35779
45851,35790
45851,35826
45851,35842
45852,35854
45853,35862
45854,35867
45855,35869
45858,35873
45864,35880
45872,35889
45880,35899
45882,35900
45893,35912
45902,35920
45910,35927
45918,35932
45923,35934
45942,35943
45965,35951
45988,35957
46011,35962
46011,35962
46014,35963
46016,35965
46017,35970
46018,35979
46018,35982
46020,35997
46023,36012
46028,36027
46033,36039
46033,36039
46036,36044
46041,36050
46045,36057
46050,36063
46053,36068
46054,36070
46051,36071
46045,36072
46035,36073
46023,36075
46022,36075
45965,36083
45912,36094
45861,36109
45812,36127
45763,36149
45730,36167
45721,36172
45710,36179
45697,36188
45683,36198
45669,36207
45661,36213
45649,36223
45635,36236
45620,36250
45603,36267
45587,36284
45571,36301
45556,36317
45543,36332
45533,36345
45531,36348
45502,36394
45477,36442
45456,36492
45439,36545
45426,36600
45425,36603
45423,36614
45421,36625
45420,36630
45417,36653
45414,36680
45411,36710
45410,36743
45410,36778
45410,36814
45411,36850
45412,36886
45415,36921
45418,36953
45421,36983
45424,36998
45427,37012
45430,37023
45435,37032
45442,37041
45452,37052
45454,37054
45465,37065
45474,37072
45484,37077
45494,37080
45507,37081
45518,37081
45533,37081
45545,37080
45555,37077
45563,37073
45571,37067
45579,37061
45586,37054
45592,37049
45595,37047
45595,37047
45595,37053
45596,37063
45598,37076
45599,37091
45601,37106
45603,37121
45605,37134
45607,37145
45608,37150
45613,37177
45618,37200
45622,37219
45625,37233
45626,37236
45629,37245
45632,37255
45634,37263
45640,37284
45648,37301
45658,37316
45668,37327
45678,37337
45686,37344
45694,37349
45703,37352
45715,37353
45729,37353
45733,37353
45749,37353
45762,37352
45771,37349
45780,37345
45789,37338
45798,37329
45803,37324
45808,37318
45812,37312
45816,37304
45821,37294
45827,37281
45833,37269
45841,37251
45849,37233
45858,37214
45867,37196
45876,37178
45885,37161
45893,37146
45900,37132
45906,37121
45911,37113
45915,37108
45917,37106
45917,37108
45915,37122
45913,37140
45912,37161
45911,37185
45910,37211
45910,37237
45911,37263
45912,37289
45913,37312
45915,37334
45917,37351
45917,37356
45923,37388
45928,37417
45934,37443
45940,37468
45947,37493
45956,37520
45966,37549
45969,37558
45974,37567
45982,37578
45992,37589
46003,37599
46013,37606
46016,37607
46022,37610
46028,37612
46035,37613
46045,37613
46055,37613
46069,37613
46081,37612
46090,37610
46091,37610
46098,37606
46106,37600
46116,37591
46125,37582
46133,37574
46139,37566
46139,37565
46142,37558
46144,37545
46145,37528
46145,37525
46150,37481
46159,37436
46172,37388
46189,37340
46211,37291
46232,37249
46238,37237
46243,37227
46248,37219
46253,37211
46258,37202
46265,37191
46274,37178
46281,37167
46317,37115
46357,37068
46399,37024
46443,36984
46490,36949
46506,36938
46519,36930
46533,36922
46547,36914
46562,36906
46575,36899
46587,36893
46595,36889
46598,36888
46603,36886
46612,36883
46618,36881
46649,36870
46680,36862
46712,36855
46743,36851
46771,36850
46794,36851
46812,36853
46826,36855
46837,36858
46846,36861
46853,36864
46860,36869
46866,36875
46874,36882
46881,36888
46888,36894
46895,36900
46904,36908
46915,36917
46927,36927
46977,36967
47031,37005
47089,37043
47095,37047
47155,37083
47219,37116
47287,37149
47330,37168
47341,37172
47351,37177
47359,37180
47363,37181
47368,37183
47377,37186
47383,37188
47389,37191
47400,37195
47413,37199
47428,37205
47440,37209
47456,37214
47469,37218
47478,37222
47487,37224
47494,37227
47502,37229
47512,37232
47518,37234
47528,37237
47538,37240
47546,37242
47546,37242
47555,37245
47568,37248
47584,37252
47602,37257
47622,37261
47641,37266
47660,37270
47678,37274
47693,37277
47698,37278
47743,37287
47789,37294
47837,37301
47888,37307
47943,37313
47998,37318
48014,37319
48034,37320
48058,37321
48085,37321
48115,37322
48146,37322
48178,37322
48210,37323
48242,37322
48273,37322
48303,37322
48330,37321
48353,37321
48374,37320
48389,37319
48454,37313
48516,37306
48575,37297
48633,37287
48691,37274
48729,37265
48741,37262
48754,37259
48764,37256
48768,37255
48777,37252
48785,37250
48789,37249
48800,37245
48815,37241
48832,37235
48850,37229
48869,37223
48888,37216
48904,37210
48917,37205
48925,37202
48935,37198
48947,37193
48955,37190
48966,37186
48978,37180
48990,37175
48998,37171
49005,37168
49009,37166
49009,37166
49012,37165
49018,37162
49027,37158
49039,37152
49051,37146
49064,37139
49076,37133
49088,37127
49097,37122
49103,37119
49104,37119
49112,37114
49118,37110
49121,37109
49126,37107
49133,37102
49142,37097
49147,37094
49156,37088
49163,37084
49168,37081
49169,37081
49172,37080
49178,37076
49187,37070
49198,37063
49210,37054
49224,37046
49237,37036
49249,37028
49261,37020
49270,37013
49276,37008
49284,37002
49292,36996
49297,36992
49303,36988
49312,36981
49323,36971
49337,36960
49352,36947
49361,36940
49372,36930
49385,36918
49401,36903
49418,36886
49436,36869
49454,36851
49471,36833
49487,36817
49500,36802
49512,36789
49515,36786
49531,36766
49546,36749
49559,36733
49572,36716
49585,36698
49600,36678
49606,36670
49610,36665
49616,36655
49624,36644
49632,36631
49641,36617
49650,36603
49658,36591
49664,36581
49668,36574
49669,36573
49683,36547
49698,36520
49713,36492
49726,36465
49739,36439
49750,36415
49759,36395
49760,36391
49768,36370
49775,36353
49781,36339
49785,36326
49790,36313
49794,36301
49799,36287
49803,36273
49808,36258
49812,36246
49815,36236
49816,36232
49819,36223
49821,36215
49823,36211
49825,36204
49827,36196
49827,36195
49829,36187
49832,36176
49834,36170
49836,36160
49839,36146
49843,36131
49846,36114
49849,36098
49850,36095
49854,36076
49857,36060
49859,36048
49861,36038
49863,36029
49864,36019
49865,36009
49867,35997
49868,35992
49871,35966
49874,35942
49876,35920
49878,35898
49880,35876
49881,35851
49882,35823
49882,35805
49883,35780
49883,35754
49883,35728
49883,35702
49883,35677
49882,35654
49881,35633
49880,35616
49879,35603
49879,35599
49877,35589
49909,35559
49945,35524
49978,35488
50009,35451
50038,35413
50063,35375
50085,35338
50103,35302
50118,35267
50128,35233
50133,35212
50134,35197
50135,35180
50134,35161
50133,35142
50130,35125
50127,35112
50126,35110
50123,35101
50121,35095
50120,35092
50120,35092
50119,35090
50114,35085
50108,35078
50104,35073
50097,35065
50091,35058
50088,35053
50088,35052
50089,35048
50091,35042
50093,35040
50097,35030
50103,35017
50108,35003
50113,34991
50116,34982
50119,34973
50119,34973
50126,34951
50132,34925
50137,34898
50141,34869
50144,34841
50145,34814
50145,34802
50104,34802
50104,34825
50102,34851
50098,34878
50093,34905
50087,34932
50079,34956
50078,34961
50073,34972
50069,34985
50064,34996
50060,35006
50057,35014
50055,35018
50055,35018
50053,35022
50050,35029
50045,35039
50042,35044
50038,35055
50035,35062
50034,35066
50035,35068
50035,35069
50040,35071
50041,35071
50044,35073
50049,35077
50056,35084
50063,35091
50070,35098
50076,35104
50079,35109
50079,35109
50088,35131
50093,35156
50093,35182
50090,35211
50081,35241
50069,35274
50052,35308
50031,35345
50016,35368
49980,35419
49942,35465
49903,35507
49876,35532
49867,35541
49857,35550
49849,35557
49844,35561
49835,35570
49837,35599
49839,35617
49840,35633
49841,35647
49842,35662
49842,35677
49843,35694
49843,35714
49843,35738
49843,35743
49842,35818
49838,35887
49831,35953
49822,36015
49817,36042
49816,36051
49814,36063
49811,36073
49803,36116
49793,36156
49782,36196
49773,36227
49767,36245
49763,36260
49759,36272
49756,36282
49752,36292
49748,36302
49744,36313
49739,36327
49732,36344
49729,36352
49697,36425
49661,36498
49621,36568
49577,36636
49575,36639
49570,36647
49565,36654
49560,36661
49556,36667
49551,36674
49544,36682
49536,36693
49525,36707
49525,36707
49510,36726
49493,36747
49474,36769
49453,36792
49433,36814
49413,36835
49394,36853
49393,36854
49382,36865
49367,36878
49350,36893
49333,36908
49316,36923
49300,36936
49289,36945
49273,36957
49256,36970
49236,36984
49217,36998
49197,37011
49179,37024
49163,37035
49149,37043
49146,37045
49140,37048
49131,37053
49127,37056
49103,37069
49077,37084
49050,37098
49023,37111
48998,37123
48976,37133
48976,37133
48968,37137
48962,37140
48960,37141
48953,37144
48942,37149
48928,37154
48911,37161
48893,37168
48873,37175
48853,37182
48834,37189
48816,37195
48800,37201
48786,37205
48776,37208
48774,37209
48767,37210
48758,37213
48751,37215
48731,37220
48709,37226
48687,37231
48666,37236
48656,37239
48646,37241
48638,37243
48630,37244
48622,37246
48612,37248
48599,37250
48584,37253
48580,37253
48567,37256
48554,37258
48542,37260
48535,37261
48523,37263
48506,37265
48487,37268
48465,37270
48442,37273
48419,37275
48396,37277
48390,37278
48370,37279
48347,37280
48320,37281
48290,37282
48258,37282
48225,37282
48191,37283
48157,37282
48124,37282
48093,37281
48064,37280
48039,37279
48017,37278
48011,37278
47933,37270
47858,37262
47787,37251
47720,37239
47663,37227
47650,37224
47639,37222
47630,37220
47625,37218
47619,37217
47610,37215
47598,37212
47584,37208
47569,37204
47554,37200
47549,37198
47534,37194
47516,37189
47496,37182
47474,37175
47453,37168
47432,37161
47414,37154
47401,37149
47384,37142
47370,37137
47359,37132
47348,37128
47339,37124
47328,37119
47315,37114
47313,37113
47263,37090
47215,37065
47168,37040
47126,37015
47124,37014
47112,37007
47099,36998
47084,36989
47070,36979
47056,36970
47044,36962
47034,36955
47028,36951
47009,36937
46994,36926
46982,36916
46972,36909
46963,36902
46955,36895
46947,36889
46938,36881
46929,36873
46919,36865
46907,36855
46896,36845
46887,36837
46879,36831
46876,36828
46870,36823
46862,36820
46852,36817
46839,36815
46823,36813
46802,36811
46761,36809
46719,36812
46676,36819
46633,36830
46591,36845
46550,36863
46535,36871
46527,36875
46520,36879
46516,36881
46516,36881
46514,36882
46508,36886
46500,36891
46493,36895
46443,36930
46396,36969
46351,37013
46307,37061
46266,37113
46238,37153
46231,37164
46224,37175
46219,37183
46216,37188
46212,37195
46207,37204
46201,37214
46201,37215
46190,37235
46178,37259
46166,37285
46155,37311
46145,37335
46136,37358
46135,37361
46126,37391
46118,37423
46112,37453
46108,37482
46106,37502
46105,37514
46105,37525
46104,37534
46104,37537
46101,37545
46095,37554
46087,37562
46079,37568
46077,37569
46065,37573
46052,37573
46038,37570
46033,37568
46025,37564
46019,37558
46014,37549
46008,37537
46007,37533
45996,37503
45986,37473
45977,37441
45969,37407
45962,37369
45957,37338
45955,37322
45953,37301
45952,37278
45951,37253
45951,37228
45951,37202
45952,37179
45953,37158
45955,37140
45956,37132
45964,37090
45972,37053
45982,37020
45988,37003
45992,36994
45995,36984
45997,36980
45999,36974
46004,36964
46009,36953
46015,36941
46015,36940
46030,36911
46018,36919
46010,36925
46000,36934
45988,36946
45975,36958
45962,36970
45951,36982
45942,36992
45939,36996
45931,37006
45921,37020
45910,37034
45900,37049
45891,37062
45885,37072
45874,37090
45862,37111
45849,37135
45836,37160
45823,37186
45812,37210
45801,37233
45798,37241
45790,37259
45784,37272
45779,37283
45775,37290
45772,37296
45769,37300
45765,37303
45761,37306
45759,37307
45747,37312
45733,37314
45719,37312
45706,37307
45697,37299
45692,37292
45687,37282
45681,37270
45677,37257
45675,37253
45672,37241
45668,37225
45663,37207
45659,37189
45655,37171
45651,37155
45650,37150
45647,37133
45645,37119
45643,37105
45641,37090
45639,37072
45639,37070
45634,37012
45634,36956
45638,36903
45646,36853
45658,36804
45675,36756
45695,36710
45697,36707
45702,36697
45704,36691
45704,36689
45702,36692
45697,36699
45689,36710
45686,36713
45672,36737
45658,36765
45643,36797
45627,36833
45612,36872
45597,36914
45586,36947
45579,36968
45573,36985
45569,36999
45565,37009
45561,37016
45558,37022
45555,37026
45552,37029
45548,37032
45547,37033
45535,37038
45521,37041
45508,37040
45502,37039
45493,37034
45484,37026
45475,37016
45470,37006
45469,37005
45467,36996
45464,36982
45461,36964
45458,36943
45456,36919
45454,36898
45452,36875
45451,36849
45450,36820
45450,36791
45450,36762
45451,36735
45452,36711
45454,36697
45455,36680
45457,36666
45459,36653
45461,36640
45464,36626
45467,36612
45469,36602
45471,36593
45472,36587
45472,36586
45473,36581
45475,36572
45478,36562
45482,36550
45485,36539
45488,36530
45490,36523
45509,36475
45531,36430
45555,36389
45582,36351
45600,36330
45636,36292
45675,36257
45718,36226
45764,36198
45813,36174
45863,36153
45900,36142
45948,36130
45995,36121
46042,36115
46091,36111
46130,36110
46183,36110
46172,36105
46148,36092
46126,36077
46107,36062
46092,36047
46087,36041
46079,36031
46074,36022
46070,36015
46066,36005
46064,35997
46057,35975
46061,35955
46064,35945
46065,35937
46067,35932
46067,35932
46067,35930
46066,35929
46063,35928
46057,35927
46048,35925
46039,35924
46009,35918
45983,35912
45962,35905
45944,35896
45928,35887
45915,35875
45912,35873
45902,35861
45896,35852
45892,35842
45891,35830
45891,35816
45892,35811
45893,35798
45895,35790
45897,35783
45900,35778
45901,35777
45908,35767
45898,35763
45891,35760
45882,35756
45871,35751
45871,35751
45841,35736
45815,35719
45792,35699
45774,35678
45760,35655
45753,35637
45749,35626
45748,35616
45747,35604
45747,35597
45748,35586
45749,35577
45751,35569
45755,35560
45757,35554
45771,35532
45788,35513
45809,35496
45829,35485
45838,35480
45844,35477
45846,35474
45845,35472
45841,35470
45840,35470
45825,35461
45809,35448
45793,35434
45778,35418
45764,35402
45753,35386
45752,35384
45739,35357
45730,35331
45727,35305
45727,35281
45729,35270
45731,35260
45733,35253
45733,35252
45736,35245
45738,35241
45738,35240
45739,35235
45743,35228
45750,35219
45757,35209
45765,35199
45772,35191
45777,35187
45798,35171
45821,35158
45845,35148
45873,35141
45897,35138
45920,35135
45893,35110
45863,35081
45839,35053
45818,35027
45802,35002
45791,34978
45784,34955
45781,34932
45782,34910
45784,34901
45786,34890
45789,34882
45792,34875
45797,34868
45805,34859
45821,34842
45841,34828
45866,34817
45894,34809
45926,34803
45963,34800
46003,34799
46048,34801
46085,34805
46143,34812
46202,34823
46264,34836
46328,34852
46395,34872
46466,34895
46480,34900
46489,34903
46497,34906
46505,34909
46514,34912
46524,34916
46537,34921
46551,34927
46570,34934
46585,34940
46600,34946
46612,34951
46623,34955
46631,34957
46634,34958
46635,34958
46637,34956
46638,34955
46639,34950
46641,34944
46641,34943
46644,34936
46647,34927
46650,34920
46652,34914
46654,34908
46656,34902
46659,34896
46662,34888
46666,34877
46672,34864
46678,34846
46679,34845
46689,34820
46698,34798
46705,34780
46712,34765
46716,34755
46720,34747
46723,34739
46723,34738
46730,34722
46739,34702
46750,34679
46763,34654
46776,34628
46790,34600
46805,34573
46819,34546
46833,34520
46847,34497
46855,34482
46864,34468
46869,34458
46873,34451
46875,34447
46874,34444
46873,34444
46872,34443
46868,34442
46860,34439
46850,34435
46839,34429
46831,34426
46819,34419
46808,34412
46795,34403
46780,34392
46776,34390
46757,34374
46738,34355
46719,34334
46702,34312
46686,34289
46674,34268
46669,34257
46659,34228
46654,34200
46653,34172
46656,34146
46663,34122
46674,34099
46677,34095
46686,34084
46697,34072
46710,34060
46724,34050
46737,34041
46749,34035
46756,34032
46762,34030
46764,34026
46762,34021
46759,34018
46752,34006
46744,33991
46737,33974
46733,33961
46728,33938
46726,33913
46728,33886
46733,33859
46740,33833
46750,33809
46751,33807
46769,33778
46789,33751
46812,33728
46837,33708
46863,33692
46873,33687
46880,33684
46887,33680
46888,33680
46893,33678
46902,33675
46912,33672
46918,33671
46928,33669
46936,33667
46941,33665
46942,33665
46942,33662
46941,33657
46937,33645
46935,33631
46933,33613
46932,33595
46932,33577
46933,33560
46934,33546
46935,33543
46945,33509
46960,33477
46978,33447
47001,33418
47029,33392
47053,33373
47086,33350
47124,33330
47166,33313
47210,33299
47259,33288
47272,33286
47294,33283
47319,33281
47347,33279
47376,33279
47405,33280
47434,33281
47460,33283
47484,33286
47498,33289
47507,33291
47518,33293
47521,33294
47568,33305
47615,33321
47662,33340
47709,33363
47754,33389
47796,33417
47808,33426
47819,33434
47828,33441
47836,33447
47841,33450
47852,33459
47866,33472
47881,33487
47898,33504
47916,33522
47933,33541
47950,33560
47966,33579
47980,33597
47992,33612
47998,33620
48013,33643
48026,33663
48037,33680
48046,33695
48054,33708
48061,33722
48068,33735
48070,33739
48077,33752
48082,33761
48086,33767
48091,33771
48097,33773
48105,33774
48116,33774
48119,33775
48153,33777
48190,33781
48230,33787
48273,33793
48280,33794
48318,33801
48353,33808
48387,33816
48424,33826
48431,33827
48444,33831
48456,33834
48467,33837
48469,33838
48479,33840
48489,33843
48494,33845
48500,33847
48510,33850
48522,33853
48530,33856
48544,33861
48560,33866
48575,33871
48580,33872
48591,33876
48598,33878
48604,33878
48610,33877
48616,33873
48623,33867
48631,33860
48651,33843
48674,33826
48699,33808
48724,33792
48747,33777
48760,33770
48770,33765
48781,33759
48794,33753
48807,33747
48818,33742
48829,33737
48836,33735
48840,33733
48844,33733
48850,33730
48851,33730
48860,33727
48875,33722
48894,33718
48900,33716
48922,33712
48946,33710
48971,33710
48997,33711
49021,33714
49041,33719
49044,33720
49068,33728
49090,33736
49108,33745
49122,33754
49133,33763
49137,33768
49142,33775
49147,33782
49151,33787
49156,33796
49161,33807
49167,33820
49173,33832
49178,33843
49181,33851
49188,33871
49195,33893
49202,33917
49209,33940
49214,33961
49217,33975
49226,34014
49232,34050
49238,34083
49243,34113
49246,34143
49249,34172
49251,34202
49253,34234
49254,34268
49254,34279
49256,34356
49272,34373
49278,34380
49287,34389
49298,34401
49310,34415
49322,34429
49330,34437
49371,34484
49374,34457
49380,34412
49390,34371
49402,34334
49417,34300
49436,34270
49457,34242
49470,34228
49492,34209
49514,34193
49536,34180
49562,34170
49563,34169
49581,34165
49601,34162
49622,34161
49643,34162
49661,34165
49662,34165
49688,34173
49713,34186
49737,34203
49757,34223
49770,34239
49779,34255
49788,34272
49795,34289
49801,34310
49807,34334
49807,34335
49810,34343
49811,34347
49813,34348
49816,34347
49816,34346
49828,34338
49843,34330
49858,34324
49869,34320
49880,34318
49888,34316
49896,34316
49906,34317
49912,34318
49924,34320
49934,34323
49942,34326
49950,34332
49960,34339
49975,34353
49987,34371
49999,34392
50008,34415
50012,34431
50013,34438
50015,34448
50016,34461
50018,34475
50018,34478
50019,34514
50018,34552
50012,34590
50004,34630
50002,34638
50001,34645
50000,34647
50002,34649
50008,34652
50017,34656
50021,34657
50041,34666
50058,34679
50073,34696
50085,34717
50095,34743
50101,34772
50103,34782
50104,34802
50145,34802
50145,34789
50143,34768
50142,34762
50138,34737
50132,34717
50125,34699
50116,34683
50105,34668
50090,34653
50085,34648
50076,34639
50067,34631
50060,34625
50056,34622
50055,34622
50051,34620
50051,34616
50051,34614
50054,34599
50056,34580
50058,34559
50059,34536
50059,34513
50059,34497
50058,34469
50056,34444
50053,34424
50050,34407
50046,34393
50043,34385
50040,34378
50038,34373
50038,34372
50036,34368
50033,34361
50027,34353
50021,34344
50015,34335
50009,34327
50005,34323
50000,34317
49991,34310
49982,34302
49972,34295
49964,34289
49958,34285
49951,34283
49941,34280
49927,34278
49912,34277
49897,34276
49882,34276
49870,34277
49860,34278
49860,34278
49850,34281
49843,34282
49839,34282
49838,34280
49837,34277
49836,34275
49834,34268
49830,34259
49829,34256
49825,34249
49823,34244
49823,34242
49821,34239
49817,34233
49816,34231
49810,34223
49804,34215
49803,34213
49799,34209
49793,34201
49784,34192
49774,34182
49764,34172
49755,34163
49746,34156
49741,34152
49730,34145
49717,34139
49701,34132
49686,34127
49677,34125
49669,34123
49660,34122
49651,34121
49639,34121
49623,34121
49612,34122
49595,34122
49582,34123
49572,34124
49563,34125
49556,34127
49549,34129
49548,34129
49526,34138
49504,34148
49484,34160
49481,34162
49470,34171
49457,34183
49443,34196
49429,34211
49416,34226
49404,34241
49394,34254
49387,34264
49387,34265
49379,34281
49372,34294
49367,34304
49364,34313
49360,34322
49360,34324
49354,34342
49349,34355
49346,34366
49344,34374
49344,34377
49342,34387
49296,34337
49295,34290
49293,34223
49289,34157
49282,34093
49273,34035
49269,34017
49267,34003
49264,33991
49263,33985
49261,33977
49259,33967
49257,33956
49257,33955
49252,33934
49246,33911
49238,33887
49231,33863
49222,33840
49215,33819
49207,33802
49206,33798
49190,33770
49172,33745
49152,33725
49129,33708
49103,33694
49073,33683
49070,33682
49061,33679
49052,33677
49050,33676
49045,33675
49036,33674
49024,33672
49010,33671
49006,33671
48987,33670
48967,33669
48945,33670
48924,33671
48905,33673
48888,33675
48883,33676
48858,33683
48835,33690
48815,33697
48806,33700
48790,33707
48776,33713
48764,33719
48757,33723
48755,33724
48750,33727
48746,33728
48746,33728
48743,33730
48737,33733
48729,33738
48718,33745
48707,33751
48697,33758
48687,33764
48679,33770
48676,33772
48668,33778
48659,33784
48655,33787
48648,33793
48639,33799
48636,33802
48622,33812
48612,33820
48604,33826
48599,33829
48596,33831
48595,33831
48591,33830
48584,33828
48575,33825
48569,33823
48556,33819
48545,33815
48533,33812
48520,33808
48509,33805
48500,33802
48492,33800
48488,33798
48483,33797
48474,33794
48462,33791
48447,33787
48430,33783
48412,33779
48395,33775
48378,33771
48362,33767
48349,33764
48340,33762
48316,33758
48291,33754
48264,33749
48236,33745
48209,33742
48183,33739
48159,33736
48139,33735
48122,33734
48121,33734
48119,33731
48114,33726
48109,33718
48104,33708
48097,33697
48092,33686
48087,33678
48084,33673
48073,33656
48063,33640
48054,33626
48046,33615
48041,33608
48040,33606
48035,33599
48029,33591
48022,33582
48015,33573
48005,33560
47993,33545
47979,33530
47965,33513
47953,33500
47945,33491
47934,33480
47921,33468
47908,33455
47894,33442
47881,33430
47870,33420
47861,33413
47859,33411
47849,33404
47839,33396
47834,33392
47826,33386
47818,33380
47814,33377
47807,33372
47798,33366
47788,33359
47778,33352
47769,33346
47767,33345
47753,33337
47736,33328
47716,33318
47696,33308
47676,33299
47658,33291
47643,33285
47643,33285
47635,33282
47626,33279
47620,33277
47610,33273
47598,33269
47590,33267
47580,33264
47569,33261
47563,33260
47554,33257
47543,33255
47536,33254
47526,33251
47516,33249
47511,33248
47497,33246
47479,33244
47458,33242
47434,33241
47408,33240
47382,33239
47356,33239
47331,33240
" /> 
<polyline style="fill-rule:evenodd;"
points="49132,37250
49121,37251
49111,37252
49103,37253
49093,37256
49089,37257
49069,37264
49048,37273
49026,37284
49006,37295
48988,37307
48985,37309
48962,37329
48942,37352
48927,37376
48916,37401
48914,37407
48911,37423
48909,37441
48910,37459
48912,37476
48914,37482
48915,37488
48919,37497
48923,37510
48929,37525
48935,37542
48942,37561
48949,37579
48956,37598
48963,37615
48969,37631
48971,37637
48973,37639
48975,37640
48979,37640
48985,37638
48995,37635
49008,37630
49011,37628
49030,37620
49049,37613
49066,37605
49082,37598
49096,37592
49106,37587
49114,37583
49117,37581
49118,37581
49117,37578
49114,37572
49109,37562
49104,37549
49097,37534
49089,37517
49086,37511
49077,37490
49069,37472
49063,37459
49059,37448
49057,37439
49055,37432
49055,37426
49057,37421
49058,37415
49060,37412
49068,37400
49080,37389
49090,37383
49100,37379
49113,37377
49126,37377
49137,37378
49147,37381
49149,37382
49159,37393
49165,37404
49166,37417
49161,37430
49159,37434
49150,37446
49137,37455
49123,37462
49108,37466
49104,37466
49098,37466
49095,37468
49095,37468
49096,37471
49099,37477
49104,37487
49109,37499
49116,37513
49120,37521
49128,37538
49135,37552
49140,37561
49144,37567
49149,37571
49154,37572
49160,37570
49168,37567
49177,37562
49179,37561
49210,37544
49236,37525
49259,37503
49279,37479
49294,37454
49305,37427
49310,37403
49312,37380
49308,37357
49300,37335
49289,37314
49274,37296
49256,37280
49240,37270
49223,37262
49207,37256
49190,37253
49170,37251
49148,37250
49132,37250
" /> 
<polyline style="fill-rule:evenodd;"
points="47434,37293
47433,37296
47431,37303
47427,37314
47422,37329
47417,37346
47410,37366
47403,37388
47396,37412
47388,37438
47379,37464
47371,37490
47362,37517
47354,37543
47346,37568
47338,37592
47331,37615
47325,37635
47319,37653
47315,37668
47311,37679
47309,37686
47308,37690
47308,37690
47311,37691
47318,37693
47328,37697
47342,37701
47357,37705
47374,37710
47391,37715
47409,37720
47426,37725
47442,37729
47456,37733
47467,37736
47475,37738
47479,37738
47479,37738
47480,37736
47481,37730
47483,37723
47486,37713
47489,37700
47493,37684
47498,37664
47503,37643
47509,37619
47515,37594
47521,37568
47528,37541
47534,37514
47541,37488
47547,37462
47553,37437
47558,37414
47564,37393
47568,37374
47572,37359
47575,37347
47577,37338
47578,37334
47578,37334
47575,37333
47569,37330
47559,37327
47548,37324
47541,37322
47524,37318
47505,37312
47486,37307
47470,37302
47469,37302
47457,37299
47447,37296
47439,37294
47435,37293
47434,37293
" /> 
<polyline style="fill-rule:evenodd;"
points="47662,37464
47661,37466
47659,37473
47657,37484
47655,37497
47652,37512
47650,37520
47647,37536
47644,37551
47642,37563
47640,37572
47639,37578
47639,37579
47638,37582
47641,37583
47646,37583
47652,37584
47668,37585
47681,37588
47692,37595
47694,37597
47698,37601
47701,37605
47703,37610
47704,37616
47704,37625
47704,37635
47702,37649
47700,37666
47697,37688
47694,37706
47691,37724
47689,37741
47686,37756
47685,37767
47684,37775
47683,37779
47683,37780
47686,37780
47693,37781
47703,37783
47716,37785
47730,37787
47746,37789
47761,37791
47776,37793
47790,37794
47796,37795
47809,37796
47821,37798
47831,37799
47836,37799
47837,37799
47842,37799
47844,37798
47844,37795
47845,37788
47847,37777
47848,37763
47850,37747
47851,37729
47853,37711
47855,37692
47856,37674
47857,37657
47859,37642
47859,37629
47860,37620
47860,37615
47858,37592
47853,37571
47843,37551
47828,37532
47819,37522
47802,37507
47785,37495
47765,37485
47743,37478
47735,37475
47724,37473
47711,37470
47698,37468
47686,37466
47675,37464
47667,37463
47662,37463
47662,37464
" /> 
<polyline style="fill-rule:evenodd;"
points="48484,37352
48477,37353
48467,37355
48454,37357
48440,37359
48439,37360
48423,37362
48407,37365
48393,37367
48382,37369
48375,37370
48367,37371
48361,37373
48358,37375
48358,37378
48359,37385
48360,37396
48362,37410
48364,37425
48365,37432
48367,37448
48369,37462
48370,37474
48371,37483
48371,37488
48371,37488
48368,37489
48361,37490
48352,37492
48340,37493
48339,37493
48327,37495
48318,37497
48313,37498
48310,37499
48309,37501
48309,37502
48310,37506
48310,37514
48311,37526
48313,37540
48315,37555
48315,37562
48321,37616
48327,37616
48333,37616
48343,37615
48354,37614
48365,37612
48375,37611
48383,37610
48383,37609
48387,37609
48389,37610
48390,37614
48390,37621
48390,37623
48389,37638
48386,37650
48380,37659
48376,37663
48368,37669
48357,37674
48345,37677
48336,37679
48333,37679
48330,37679
48328,37682
48327,37685
48326,37692
48327,37701
48328,37714
48330,37732
48330,37735
48332,37755
48334,37770
48335,37782
48336,37790
48337,37795
48339,37799
48340,37800
48342,37801
48345,37801
48346,37801
48352,37800
48362,37799
48371,37797
48403,37790
48432,37779
48459,37765
48483,37749
48503,37731
48519,37711
48525,37700
48530,37692
48533,37683
48536,37675
48539,37666
48540,37656
48540,37645
48540,37633
48538,37618
48536,37601
48533,37581
48529,37557
48523,37530
48517,37498
48514,37483
48509,37458
48504,37435
48500,37413
48496,37395
48493,37379
48490,37366
48488,37357
48487,37353
48487,37352
48484,37352
" /> 
<polyline style="fill-rule:evenodd;"
points="48064,37384
48035,37390
48034,37390
48008,37399
47983,37413
47961,37430
47943,37451
47928,37474
47917,37501
47914,37510
47912,37518
47911,37530
47909,37545
47907,37563
47905,37582
47904,37601
47903,37620
47902,37637
47901,37653
47901,37665
47901,37671
47905,37697
47913,37721
47924,37742
47940,37761
47945,37766
47966,37784
47991,37799
48019,37810
48050,37817
48082,37820
48116,37820
48136,37818
48158,37814
48178,37809
48199,37801
48208,37797
48231,37783
48252,37765
48269,37745
48282,37721
48289,37704
48291,37694
48293,37683
48294,37672
48294,37660
48134,37660
48134,37672
48133,37682
48132,37689
48131,37694
48128,37698
48126,37701
48122,37703
48121,37704
48113,37707
48102,37708
48091,37708
48081,37706
48077,37705
48073,37702
48070,37700
48068,37696
48066,37691
48065,37685
48064,37675
48063,37663
48063,37647
48063,37628
48063,37604
48063,37602
48063,37578
48063,37559
48063,37543
48064,37531
48064,37522
48066,37515
48067,37510
48069,37506
48072,37503
48075,37500
48082,37496
48092,37494
48103,37494
48112,37496
48115,37497
48119,37499
48122,37502
48125,37505
48127,37510
48129,37516
48130,37525
48131,37537
48132,37551
48132,37570
48133,37593
48133,37600
48134,37624
48134,37644
48134,37660
48294,37660
48294,37658
48294,37642
48292,37623
48290,37599
48289,37587
48287,37563
48284,37543
48282,37527
48279,37513
48276,37502
48273,37491
48268,37481
48263,37470
48263,37470
48255,37456
48243,37442
48230,37428
48216,37416
48203,37407
48203,37407
48179,37396
48152,37388
48124,37384
48094,37382
48064,37384
" /> 
<polyline style="fill-rule:evenodd;"
points="48979,37676
48972,37678
48962,37681
48874,37712
48784,37740
48724,37757
48708,37761
48690,37766
48671,37770
48651,37775
48631,37780
48613,37784
48596,37787
48583,37790
48573,37792
48571,37792
48565,37794
48561,37796
48560,37797
48561,37800
48562,37808
48564,37818
48566,37828
48569,37841
48570,37849
48572,37854
48574,37857
48576,37858
48578,37858
48582,37857
48590,37856
48602,37854
48615,37851
48627,37849
48694,37833
48757,37816
48818,37799
48878,37780
48938,37760
48958,37753
48972,37748
48985,37743
48996,37739
49003,37736
49007,37735
49007,37735
49007,37732
49005,37726
49002,37718
48998,37708
48994,37698
48991,37689
48988,37681
48986,37677
48985,37677
48983,37675
48979,37676
" /> 
<polyline style="fill-rule:evenodd;"
points="54514,37666
54604,37660
54720,37651
54800,37640
54847,37625
54863,37606
54864,37604
54870,37593
54893,37585
54937,37580
55009,37577
55114,37576
55154,37576
55280,37577
55370,37581
55424,37589
55445,37601
55436,37617
55427,37623
55403,37629
55346,37639
55261,37653
55154,37670
55032,37688
54982,37695
54855,37713
54740,37730
54644,37745
54574,37757
54534,37764
54529,37765
54516,37785
54507,37837
54504,37923
54504,37965
54504,38156
55140,38156
55296,38155
55439,38154
55564,38152
55666,38150
55741,38147
55783,38144
55790,38142
55797,38117
55802,38063
55804,38002
55804,37876
55709,37877
55597,37883
55511,37895
55455,37912
55434,37934
55434,37936
55415,37949
55365,37961
55293,37969
55207,37974
55115,37975
55027,37973
54952,37968
54897,37959
54871,37946
54871,37945
54864,37914
54866,37906
54887,37902
54942,37892
55026,37879
55132,37862
55255,37844
55334,37832
55794,37766
55794,37386
54514,37386
54514,37666
" /> 
<polyline style="fill-rule:evenodd;"
points="56604,37605
56556,37689
56514,37757
56482,37803
56464,37821
56462,37821
56449,37797
56423,37745
56389,37674
56362,37616
56324,37534
56291,37464
56267,37417
56257,37401
56232,37390
56180,37382
56114,37377
56043,37375
55981,37376
55937,37382
55923,37391
55931,37412
55953,37465
55988,37543
56031,37639
56082,37750
56096,37781
56269,38156
56451,38156
56634,38156
56740,37966
56784,37889
56821,37827
56846,37787
56854,37776
56867,37792
56895,37835
56934,37900
56973,37966
57085,38156
57446,38156
57551,37931
57594,37837
57633,37751
57664,37682
57682,37641
57703,37600
57730,37581
57779,37576
57796,37576
57884,37576
57884,37374
57670,37380
57457,37386
57356,37611
57317,37695
57282,37762
57256,37807
57241,37821
57241,37821
57226,37798
57196,37748
57155,37678
57109,37596
56992,37386
56862,37380
56732,37374
56604,37605
" /> 
<polyline style="fill-rule:evenodd;"
points="58669,37380
58014,37386
58008,37771
58003,38156
59324,38156
59324,37576
58964,37576
58964,37762
58962,37845
58958,37912
58953,37954
58950,37963
58926,37967
58869,37971
58788,37972
58690,37972
58655,37971
58374,37966
58368,37771
58362,37576
58964,37576
59324,37576
59324,37375
58669,37380
" /> 
<polyline style="fill-rule:evenodd;"
points="59504,37698
59669,37684
59758,37676
59815,37669
59846,37659
59860,37644
59864,37622
59864,37614
59866,37597
59880,37586
59911,37579
59966,37576
60054,37576
60074,37576
60284,37576
60284,38156
60454,38156
60545,38154
60602,38147
60630,38135
60635,38128
60639,38099
60641,38038
60641,37954
60640,37855
60640,37839
60634,37577
60814,37566
60814,37386
60606,37380
60511,37378
60447,37379
60405,37385
60377,37397
60352,37417
60351,37418
60304,37463
60257,37419
60239,37403
60217,37392
60185,37384
60138,37379
60069,37377
59971,37376
59857,37376
59504,37376
59504,37698
" /> 
<polyline style="fill-rule:evenodd;"
points="61869,37376
61802,37380
61760,37387
61732,37399
61714,37415
61688,37441
61666,37442
61632,37418
61628,37415
61607,37401
61581,37390
61543,37383
61488,37379
61410,37377
61301,37376
61221,37376
60864,37376
60864,37701
60987,37688
61063,37681
61132,37677
61167,37676
61208,37670
61223,37644
61224,37626
61224,37576
61644,37576
61644,38156
62004,38156
62004,37576
62184,37576
62184,37376
61967,37376
61869,37376
" /> 
<polyline style="fill-rule:evenodd;"
points="63122,37140
62620,37146
62402,37645
62345,37777
62293,37896
62249,37997
62215,38077
62192,38129
62184,38150
62184,38150
62202,38153
62252,38154
62325,38155
62375,38156
62566,38156
62625,38025
62684,37895
62996,37900
63307,37906
63360,38030
63414,38155
63609,38155
63804,38156
63776,38091
63759,38051
63729,37982
63690,37892
63644,37787
63606,37700
63599,37684
63204,37684
63185,37689
63135,37693
63061,37695
62994,37696
62907,37694
62838,37690
62795,37683
62784,37677
62791,37652
62812,37600
62842,37530
62856,37497
62892,37420
62918,37372
62941,37347
62965,37337
62994,37336
63025,37338
63049,37348
63071,37375
63096,37424
63131,37503
63131,37504
63163,37579
63188,37640
63202,37677
63204,37684
63599,37684
63560,37593
63520,37499
63489,37424
63469,37374
63464,37355
63481,37343
63526,37336
63544,37336
63624,37336
63624,37135
63122,37140
" /> 
<polyline style="fill-rule:evenodd;"
points="51695,33204
51719,33256
51758,33338
51811,33450
51877,33588
51954,33749
52042,33932
52138,34134
52243,34352
52355,34584
52472,34828
52593,35080
52718,35340
52845,35603
52972,35868
53100,36133
53226,36394
53349,36650
53469,36897
53583,37134
53691,37358
53792,37567
53885,37758
53967,37928
54039,38076
54099,38198
54145,38293
54177,38357
54193,38389
54195,38392
54204,38382
54211,38362
54217,38336
54232,38275
54253,38182
54281,38061
54314,37915
54352,37749
54393,37565
54438,37367
54471,37219
54517,37015
54560,36823
54600,36647
54636,36489
54667,36354
54693,36244
54712,36164
54723,36117
54727,36106
54747,36102
54804,36095
54893,36083
55012,36069
55156,36051
55322,36032
55507,36010
55706,35987
55872,35967
56080,35943
56277,35920
56458,35899
56620,35880
56758,35863
56871,35849
56953,35839
57003,35832
57016,35830
56999,35821
56948,35795
56865,35753
56753,35696
56612,35625
56445,35541
56255,35446
56042,35340
55809,35223
55558,35098
55290,34965
55009,34825
54715,34678
54411,34527
54358,34501
54052,34349
53756,34202
53472,34061
53201,33927
52947,33801
52710,33684
52492,33577
52296,33481
52124,33396
51978,33325
51859,33267
51770,33224
51712,33196
51688,33186
51687,33185
51695,33204
" /> 
<polyline style="fill-rule:evenodd;"
points="63067,38352
63064,38366
63080,38392
63094,38396
63120,38380
63124,38366
63108,38339
63094,38336
63067,38352
" /> 
<polyline style="fill-rule:evenodd;"
points="58722,38462
58704,38483
58704,38486
58719,38508
58767,38516
58774,38516
58825,38509
58843,38488
58844,38486
58828,38463
58780,38456
58774,38456
58722,38462
" /> 
<polyline style="fill-rule:evenodd;"
points="52006,38672
52004,38686
52016,38713
52043,38708
52050,38703
52054,38678
52033,38658
52022,38656
52006,38672
" /> 
<polyline style="fill-rule:evenodd;"
points="56536,38461
56490,38483
56468,38526
56464,38586
56469,38643
56483,38685
56488,38692
56524,38707
56583,38714
56649,38714
56707,38706
56740,38692
56756,38653
56759,38630
56702,38630
56691,38649
56657,38655
56615,38656
56559,38654
56532,38644
56524,38618
56524,38584
56524,38513
56609,38519
56662,38526
56688,38541
56698,38574
56700,38591
56702,38630
56759,38630
56763,38595
56759,38533
56745,38487
56740,38480
56707,38466
56650,38457
56614,38456
56536,38461
" /> 
<polyline style="fill-rule:evenodd;"
points="59852,38462
59808,38485
59787,38531
59784,38586
59789,38643
59803,38685
59808,38692
59844,38707
59903,38714
59969,38714
60027,38706
60060,38692
60082,38648
60071,38602
60034,38564
59977,38540
59939,38536
59895,38545
59883,38565
59902,38587
59947,38599
60002,38611
60020,38629
60003,38646
59952,38655
59935,38656
59879,38654
59853,38644
59844,38618
59844,38586
59846,38543
59859,38522
59894,38516
59934,38516
59993,38512
60020,38498
60024,38486
60012,38466
59974,38457
59928,38456
59852,38462
" /> 
<polyline style="fill-rule:evenodd;"
points="61956,38461
61910,38483
61888,38526
61884,38586
61889,38643
61903,38685
61908,38692
61944,38707
62003,38714
62069,38714
62127,38706
62160,38692
62176,38653
62179,38630
62122,38630
62111,38649
62077,38655
62035,38656
61979,38654
61952,38644
61944,38618
61944,38584
61944,38513
62029,38519
62082,38526
62108,38541
62118,38574
62120,38591
62122,38630
62179,38630
62183,38595
62179,38533
62165,38487
62160,38480
62127,38466
62070,38457
62034,38456
61956,38461
" /> 
<polyline style="fill-rule:evenodd;"
points="52154,38463
52104,38485
52084,38526
52084,38538
52102,38588
52149,38623
52215,38636
52267,38627
52285,38607
52269,38585
52220,38572
52165,38560
52147,38542
52164,38525
52215,38516
52232,38516
52288,38517
52315,38527
52323,38553
52324,38586
52320,38632
52303,38652
52259,38656
52254,38656
52205,38660
52186,38678
52184,38696
52186,38727
52189,38732
52210,38728
52255,38722
52264,38721
52333,38705
52370,38673
52383,38618
52384,38602
52377,38526
52351,38481
52300,38460
52237,38456
52154,38463
" /> 
<polyline style="fill-rule:evenodd;"
points="52898,38462
52842,38486
52813,38532
52806,38606
52807,38628
52816,38692
52830,38718
52846,38705
52859,38654
52864,38621
52874,38526
53044,38513
53044,38624
53047,38697
53059,38731
53080,38731
53090,38722
53097,38697
53102,38643
53104,38582
53104,38456
52987,38456
52898,38462
" /> 
<polyline style="fill-rule:evenodd;"
points="53243,38460
53201,38471
53188,38480
53170,38519
53164,38578
53169,38639
53185,38686
53193,38695
53240,38715
53306,38723
53374,38717
53411,38706
53451,38671
53458,38628
53438,38586
53394,38552
53332,38536
53319,38536
53275,38545
53263,38565
53282,38587
53327,38599
53382,38611
53400,38629
53383,38646
53332,38655
53315,38656
53259,38654
53233,38644
53224,38618
53224,38587
53226,38543
53242,38522
53281,38514
53307,38512
53361,38502
53394,38487
53399,38481
53387,38466
53349,38457
53296,38455
53243,38460
" /> 
<polyline style="fill-rule:evenodd;"
points="53569,38463
53529,38488
53509,38539
53504,38622
53504,38623
53509,38681
53521,38720
53537,38733
53552,38714
53553,38712
53560,38676
53567,38620
53568,38606
53574,38554
53591,38530
53630,38521
53649,38519
53704,38507
53724,38484
53724,38484
53710,38465
53666,38456
53634,38456
53569,38463
" /> 
<polyline style="fill-rule:evenodd;"
points="53759,38342
53750,38367
53745,38417
53744,38499
53744,38524
53746,38629
53754,38696
53767,38728
53787,38725
53791,38722
53796,38697
53801,38642
53803,38567
53804,38522
53802,38433
53798,38376
53790,38346
53777,38336
53774,38336
53759,38342
" /> 
<polyline style="fill-rule:evenodd;"
points="53913,38458
53875,38467
53864,38483
53864,38485
53877,38504
53922,38515
53969,38520
54030,38524
54061,38534
54072,38554
54074,38586
54071,38620
54058,38639
54023,38648
53967,38652
53904,38658
53873,38669
53867,38687
53867,38689
53887,38712
53937,38722
53959,38723
54018,38723
54061,38720
54069,38718
54112,38687
54138,38631
54143,38563
54124,38497
54123,38494
54103,38472
54068,38460
54007,38456
53983,38456
53913,38458
" /> 
<polyline style="fill-rule:evenodd;"
points="54400,38463
54368,38480
54353,38513
54346,38567
54344,38627
54350,38679
54363,38705
54402,38716
54462,38722
54525,38721
54575,38715
54581,38713
54624,38683
54637,38643
54623,38600
54589,38564
54538,38540
54476,38538
54472,38539
54434,38555
54431,38575
54461,38593
54497,38599
54553,38610
54571,38625
54552,38640
54497,38651
54489,38652
54404,38658
54404,38587
54406,38541
54421,38521
54459,38516
54484,38516
54539,38511
54562,38494
54564,38486
54546,38467
54504,38457
54450,38455
54400,38463
" /> 
<polyline style="fill-rule:evenodd;"
points="54884,38459
54846,38470
54824,38494
54823,38497
54813,38550
54836,38596
54886,38627
54944,38636
55002,38628
55026,38610
55016,38589
54970,38574
54953,38572
54898,38561
54880,38545
54901,38530
54958,38519
54959,38519
55044,38513
55044,38584
55041,38632
55024,38651
54981,38656
54972,38656
54924,38660
54907,38675
54907,38689
54930,38714
54978,38725
55038,38719
55063,38712
55088,38695
55101,38660
55104,38600
55099,38538
55087,38492
55080,38480
55047,38466
54990,38457
54950,38456
54884,38459
" /> 
<polyline style="fill-rule:evenodd;"
points="55175,38459
55170,38467
55193,38491
55223,38516
55292,38575
55228,38641
55183,38689
55166,38716
55175,38727
55193,38729
55223,38715
55267,38681
55293,38656
55333,38612
55359,38579
55364,38569
55347,38540
55308,38505
55259,38475
55213,38458
55204,38457
55175,38459
" /> 
<polyline style="fill-rule:evenodd;"
points="55405,38338
55393,38351
55388,38380
55386,38435
55388,38522
55388,38529
55394,38633
55404,38700
55420,38732
55442,38730
55450,38723
55456,38698
55461,38643
55463,38567
55464,38522
55463,38435
55460,38380
55453,38350
55441,38338
55423,38336
55405,38338
" /> 
<polyline style="fill-rule:evenodd;"
points="55580,38463
55548,38480
55532,38515
55525,38573
55526,38635
55537,38684
55541,38691
55571,38709
55625,38720
55688,38723
55745,38717
55761,38713
55804,38683
55817,38643
55803,38600
55769,38564
55718,38540
55656,38538
55652,38539
55614,38555
55611,38575
55641,38593
55676,38599
55736,38611
55760,38628
55746,38645
55696,38655
55675,38656
55619,38654
55593,38644
55584,38618
55584,38586
55586,38541
55601,38521
55640,38516
55664,38516
55719,38511
55742,38494
55744,38486
55726,38467
55684,38457
55630,38455
55580,38463
" /> 
<polyline style="fill-rule:evenodd;"
points="55924,38466
55886,38486
55869,38524
55867,38583
55868,38609
55876,38680
55889,38714
55903,38712
55915,38671
55920,38621
55926,38558
55937,38526
55957,38516
55964,38516
55987,38522
56000,38548
56006,38602
56008,38621
56015,38688
56030,38721
56042,38726
56060,38712
56070,38668
56072,38626
56075,38566
56084,38535
56106,38523
56128,38519
56159,38518
56176,38531
56184,38566
56188,38618
56197,38682
56213,38723
56233,38736
56252,38715
56255,38710
56260,38674
56261,38615
56260,38573
56254,38466
56087,38460
55989,38458
55924,38466
" /> 
<polyline style="fill-rule:evenodd;"
points="56929,38373
56924,38406
56917,38441
56890,38454
56864,38456
56816,38465
56804,38486
56821,38509
56864,38516
56899,38518
56917,38531
56923,38567
56924,38614
56929,38685
56942,38724
56964,38727
56971,38722
56978,38696
56983,38644
56984,38612
56986,38553
56995,38525
57016,38516
57024,38516
57056,38503
57064,38486
57047,38461
57024,38456
56992,38444
56984,38406
56973,38365
56954,38356
56929,38373
" /> 
<polyline style="fill-rule:evenodd;"
points="57320,38459
57290,38470
57284,38486
57296,38505
57337,38516
57379,38518
57474,38521
57377,38534
57317,38548
57273,38567
57263,38577
57245,38633
57261,38682
57272,38694
57306,38708
57360,38717
57423,38722
57478,38722
57513,38714
57517,38711
57518,38682
57483,38663
57413,38656
57401,38656
57335,38649
57308,38635
57318,38617
57366,38603
57399,38599
57472,38585
57510,38556
57511,38512
57504,38497
57482,38471
57443,38458
57383,38456
57320,38459
" /> 
<polyline style="fill-rule:evenodd;"
points="57581,38460
57569,38479
57564,38523
57564,38574
57567,38642
57577,38691
57586,38707
57626,38718
57687,38723
57752,38721
57803,38712
57805,38711
57846,38676
57874,38611
57884,38524
57884,38524
57879,38477
57861,38458
57844,38456
57820,38461
57808,38483
57804,38532
57804,38556
57804,38656
57644,38656
57644,38556
57641,38496
57633,38466
57613,38456
57604,38456
57581,38460
" /> 
<polyline style="fill-rule:evenodd;"
points="58137,38456
58089,38465
58065,38481
58064,38486
58075,38505
58115,38514
58154,38516
58244,38516
58244,38614
58249,38685
58262,38724
58284,38727
58291,38722
58301,38691
58304,38637
58301,38574
58293,38517
58281,38482
58280,38480
58245,38463
58193,38455
58137,38456
" /> 
<polyline style="fill-rule:evenodd;"
points="58450,38460
58402,38471
58388,38480
58371,38517
58364,38574
58367,38634
58380,38679
58389,38691
58434,38710
58500,38719
58568,38717
58619,38704
58625,38700
58650,38662
58663,38603
58663,38586
58604,38586
58602,38629
58589,38649
58554,38655
58514,38656
58458,38654
58432,38644
58424,38617
58424,38586
58426,38543
58439,38522
58474,38516
58514,38516
58569,38517
58595,38527
58603,38554
58604,38586
58663,38586
58663,38540
58647,38490
58640,38480
58607,38466
58550,38457
58514,38456
58450,38460
" /> 
<polyline style="fill-rule:evenodd;"
points="58777,38336
58729,38345
58705,38361
58704,38366
58715,38385
58755,38394
58794,38396
58884,38396
58884,38554
58887,38651
58897,38710
58913,38731
58931,38722
58939,38693
58944,38637
58944,38565
58941,38489
58935,38421
58926,38374
58920,38360
58885,38343
58833,38335
58777,38336
" /> 
<polyline style="fill-rule:evenodd;"
points="59233,38460
59183,38471
59168,38480
59146,38525
59150,38575
59179,38613
59182,38615
59233,38632
59286,38635
59327,38626
59344,38606
59328,38583
59280,38576
59274,38576
59223,38569
59204,38549
59204,38544
59213,38525
59246,38518
59289,38519
59342,38526
59368,38541
59378,38574
59380,38589
59381,38631
59366,38650
59324,38658
59310,38659
59254,38671
59234,38693
59234,38694
59251,38714
59293,38725
59346,38724
59367,38719
59411,38687
59438,38631
59443,38563
59424,38496
59423,38494
59401,38470
59362,38459
59297,38456
59233,38460
" /> 
<polyline style="fill-rule:evenodd;"
points="59604,38384
59600,38399
59582,38437
59539,38452
59494,38467
59484,38490
59506,38510
59544,38516
59579,38518
59597,38531
59603,38567
59604,38614
59609,38685
59622,38724
59644,38727
59651,38722
59658,38696
59663,38644
59664,38612
59666,38553
59675,38525
59696,38516
59704,38516
59736,38503
59744,38486
59727,38461
59705,38456
59670,38439
59660,38412
59645,38372
59622,38362
59604,38384
" /> 
<polyline style="fill-rule:evenodd;"
points="60178,38343
60169,38371
60164,38427
60164,38488
60162,38572
60155,38624
60141,38655
60129,38667
60107,38695
60118,38716
60152,38721
60179,38714
60200,38703
60213,38685
60220,38650
60223,38591
60224,38516
60222,38428
60218,38373
60210,38345
60196,38336
60194,38336
60178,38343
" /> 
<polyline style="fill-rule:evenodd;"
points="60482,38467
60464,38475
60445,38506
60435,38561
60434,38622
60444,38674
60456,38695
60488,38710
60545,38720
60607,38724
60659,38721
60667,38719
60710,38688
60736,38633
60744,38569
60742,38562
60680,38562
60680,38616
60652,38646
60591,38656
60584,38656
60533,38654
60510,38641
60504,38607
60504,38584
60504,38513
60588,38519
60647,38529
60675,38549
60680,38562
60742,38562
60729,38511
60712,38487
60672,38468
60609,38457
60540,38457
60482,38467
" /> 
<polyline style="fill-rule:evenodd;"
points="60865,38458
60830,38467
60811,38489
60803,38507
60785,38592
60798,38664
60809,38683
60846,38706
60907,38720
60975,38724
61036,38714
61041,38712
61075,38681
61094,38626
61096,38586
61024,38586
61021,38630
61006,38650
60967,38655
60944,38656
60892,38653
60870,38640
60864,38606
60864,38586
60866,38541
60881,38521
60920,38516
60944,38516
60995,38518
61018,38531
61023,38565
61024,38586
61096,38586
61097,38563
61084,38506
61056,38471
61024,38462
60968,38457
60928,38456
60865,38458
" /> 
<polyline style="fill-rule:evenodd;"
points="61251,38395
61247,38412
61229,38447
61192,38456
61153,38466
61144,38486
61161,38510
61193,38516
61222,38519
61237,38537
61245,38579
61248,38619
61257,38692
61272,38729
61287,38730
61299,38693
61304,38627
61305,38564
61312,38530
61328,38518
61354,38516
61393,38504
61403,38480
61381,38458
61359,38452
61318,38429
61307,38399
61292,38366
61270,38365
61251,38395
" /> 
<polyline style="fill-rule:evenodd;"
points="61694,38389
61687,38411
61669,38447
61632,38456
61593,38466
61584,38486
61601,38510
61633,38516
61662,38519
61677,38537
61685,38579
61688,38619
61696,38683
61710,38723
61719,38731
61742,38728
61745,38722
61746,38694
61745,38641
61744,38611
61744,38553
61751,38525
61773,38516
61792,38516
61832,38505
61843,38481
61822,38459
61799,38452
61761,38432
61754,38406
61742,38373
61717,38368
61694,38389
" /> 
<polyline style="fill-rule:evenodd;"
points="62336,38461
62283,38481
62254,38525
62244,38599
62244,38629
62249,38698
62262,38730
62279,38725
62295,38682
62304,38624
62314,38526
62484,38513
62484,38613
62488,38676
62500,38718
62516,38732
62533,38714
62535,38709
62540,38674
62541,38615
62540,38573
62534,38466
62421,38460
62336,38461
" /> 
<polyline style="fill-rule:evenodd;"
points="62777,38464
62764,38479
62764,38485
62775,38505
62813,38515
62859,38518
62954,38521
62874,38534
62816,38546
62774,38559
62769,38562
62749,38593
62744,38641
62753,38685
62773,38708
62809,38716
62864,38721
62924,38723
62972,38722
62995,38717
63003,38692
63004,38682
62988,38665
62940,38657
62902,38656
62836,38650
62808,38636
62817,38618
62863,38602
62905,38596
62960,38587
62986,38573
62993,38543
62994,38526
62992,38492
62979,38473
62947,38464
62886,38460
62879,38460
62812,38458
62777,38464
" /> 
<polyline style="fill-rule:evenodd;"
points="63077,38464
63067,38495
63064,38557
63064,38584
63068,38670
63080,38719
63099,38730
63111,38722
63117,38696
63122,38643
63124,38582
63121,38510
63114,38471
63099,38456
63094,38456
63077,38464
" /> 
<polyline style="fill-rule:evenodd;"
points="63449,38373
63444,38406
63437,38441
63410,38454
63384,38456
63336,38465
63324,38486
63341,38509
63384,38516
63419,38518
63437,38531
63443,38567
63444,38614
63449,38685
63462,38724
63484,38727
63491,38722
63498,38696
63503,38644
63504,38612
63506,38553
63515,38525
63536,38516
63544,38516
63576,38503
63584,38486
63567,38461
63544,38456
63512,38444
63504,38406
63493,38365
63474,38356
63449,38373
" /> 
<polyline style="fill-rule:evenodd;"
points="63659,38363
63650,38388
63645,38439
63644,38523
63644,38534
63646,38637
63655,38701
63669,38729
63690,38723
63691,38722
63697,38697
63701,38643
63703,38568
63704,38532
63702,38445
63698,38392
63689,38364
63675,38356
63674,38356
63659,38363
" /> 
<polyline style="fill-rule:evenodd;"
points="52530,38460
52482,38471
52468,38480
52455,38513
52446,38576
52444,38646
52447,38726
52456,38786
52468,38812
52503,38829
52553,38836
52602,38833
52636,38819
52644,38806
52628,38783
52580,38776
52574,38776
52504,38776
52504,38513
52589,38519
52642,38526
52668,38541
52678,38574
52680,38589
52681,38631
52666,38650
52624,38658
52610,38659
52553,38671
52534,38694
52534,38696
52551,38714
52592,38722
52644,38720
52693,38707
52715,38695
52734,38658
52743,38600
52741,38538
52727,38490
52720,38480
52687,38466
52630,38457
52594,38456
52530,38460
" /> 
</g> 
</svg>
