<?xml version="1.0" standalone="no"?>
 <!DOCTYPE svg PUBLIC "-//W3C//DTD SVG 1.1//EN" 
 "http://www.w3.org/Graphics/SVG/1.1/DTD/svg11.dtd"> 
<svg xmlns="http://www.w3.org/2000/svg" version="1.1" 
    width="29.7002cm" height="21.0007cm" viewBox="0 0 116930 82680 ">
<title>SVG Picture created as PD_Board-B.Mask.svg date 2019/10/05 00:21:12 </title>
  <desc>Picture generated by PCBNEW </desc>
<g style="fill:#000000; fill-opacity:1;stroke:#000000; stroke-opacity:1;
stroke-linecap:round; stroke-linejoin:round; "
 transform="translate(0 0) scale(1 1)">
</g>
<g style="fill:#000000; fill-opacity:0.0; 
stroke:#000000; stroke-width:-0.000393701; stroke-opacity:1; 
stroke-linecap:round; stroke-linejoin:round;">
</g>
<g style="fill:#000000; fill-opacity:1.0; 
stroke:#000000; stroke-width:0; stroke-opacity:1; 
stroke-linecap:round; stroke-linejoin:round;">
<polyline style="fill-rule:evenodd;"
points="67913,40650
67046,40650
67046,39861
67913,39861
67913,40650
" /> 
<polyline style="fill-rule:evenodd;"
points="65039,40650
64172,40650
64172,39861
65039,39861
65039,40650
" /> 
<polyline style="fill-rule:evenodd;"
points="60148,39797
60216,39825
60278,39866
60330,39918
60371,39980
60399,40048
60413,40120
60413,40194
60399,40266
60371,40334
60330,40396
60278,40448
60216,40489
60148,40517
60076,40531
60002,40531
59930,40517
59862,40489
59800,40448
59748,40396
59707,40334
59679,40266
59664,40194
59664,40120
59679,40048
59707,39980
59748,39918
59800,39866
59862,39825
59930,39797
60002,39783
60076,39783
60148,39797
" /> 
<polyline style="fill-rule:evenodd;"
points="61398,40531
60649,40531
60649,39783
61398,39783
61398,40531
" /> 
<polyline style="fill-rule:evenodd;"
points="59164,39797
59232,39825
59293,39866
59345,39918
59386,39980
59415,40048
59429,40120
59429,40194
59415,40266
59386,40334
59345,40396
59293,40448
59232,40489
59164,40517
59091,40531
59018,40531
58945,40517
58877,40489
58816,40448
58764,40396
58723,40334
58695,40266
58680,40194
58680,40120
58695,40048
58723,39980
58764,39918
58816,39866
58877,39825
58945,39797
59018,39783
59091,39783
59164,39797
" /> 
<polyline style="fill-rule:evenodd;"
points="57195,39797
57263,39825
57325,39866
57377,39918
57418,39980
57446,40048
57461,40120
57461,40194
57446,40266
57418,40334
57377,40396
57325,40448
57263,40489
57195,40517
57123,40531
57049,40531
56977,40517
56909,40489
56847,40448
56795,40396
56754,40334
56726,40266
56712,40194
56712,40120
56726,40048
56754,39980
56795,39918
56847,39866
56909,39825
56977,39797
57049,39783
57123,39783
57195,39797
" /> 
<polyline style="fill-rule:evenodd;"
points="58180,39797
58248,39825
58309,39866
58361,39918
58402,39980
58430,40048
58445,40120
58445,40194
58430,40266
58402,40334
58361,40396
58309,40448
58248,40489
58180,40517
58107,40531
58033,40531
57961,40517
57893,40489
57832,40448
57780,40396
57739,40334
57710,40266
57696,40194
57696,40120
57710,40048
57739,39980
57780,39918
57832,39866
57893,39825
57961,39797
58033,39783
58107,39783
58180,39797
" /> 
<polyline style="fill-rule:evenodd;"
points="47391,38736
47433,38745
47551,38794
47598,38824
47658,38865
47748,38955
47748,38955
47820,39062
47860,39158
47869,39180
47894,39306
47894,39434
47869,39559
47820,39677
47748,39784
47658,39874
47658,39874
47551,39946
47433,39995
47391,40003
47308,40020
47180,40020
47096,40003
47054,39995
46936,39946
46829,39874
46829,39874
46739,39784
46668,39677
46619,39559
46594,39434
46594,39306
46619,39180
46628,39158
46668,39062
46739,38955
46739,38955
46829,38865
46890,38824
46936,38794
47054,38745
47096,38736
47180,38720
47308,38720
47391,38736
" /> 
<polyline style="fill-rule:evenodd;"
points="71013,38736
71055,38745
71174,38794
71220,38824
71280,38865
71371,38955
71371,38955
71442,39062
71482,39158
71491,39180
71516,39306
71516,39434
71491,39559
71442,39677
71371,39784
71280,39874
71280,39874
71174,39946
71055,39995
71013,40003
70930,40020
70802,40020
70718,40003
70676,39995
70558,39946
70451,39874
70451,39874
70361,39784
70290,39677
70241,39559
70216,39434
70216,39306
70241,39180
70250,39158
70290,39062
70361,38955
70361,38955
70451,38865
70512,38824
70558,38794
70676,38745
70718,38736
70802,38720
70930,38720
71013,38736
" /> 
<polyline style="fill-rule:evenodd;"
points="67042,38811
67085,38824
67124,38845
67159,38874
67187,38908
67208,38948
67221,38990
67224,39024
67224,39125
67221,39158
67208,39201
67187,39240
67159,39275
67124,39303
67085,39324
67042,39337
66998,39342
66953,39337
66910,39324
66871,39303
66836,39275
66808,39240
66787,39201
66774,39158
66771,39125
66771,39024
66774,38990
66787,38948
66808,38908
66836,38874
66871,38845
66910,38824
66953,38811
66998,38807
67042,38811
" /> 
<polyline style="fill-rule:evenodd;"
points="65133,38811
65175,38824
65215,38845
65249,38874
65278,38908
65299,38948
65312,38990
65315,39024
65315,39125
65312,39158
65299,39201
65278,39240
65249,39275
65215,39303
65175,39324
65133,39337
65088,39342
65044,39337
65001,39324
64961,39303
64927,39275
64899,39240
64878,39201
64865,39158
64861,39125
64861,39024
64865,38990
64878,38948
64899,38908
64927,38874
64961,38845
65001,38824
65044,38811
65088,38807
65133,38811
" /> 
<polyline style="fill-rule:evenodd;"
points="50939,36557
50965,36559
51009,36573
51032,36580
51086,36609
51093,36613
51107,36624
51147,36657
51180,36697
51192,36711
51192,36711
51224,36773
51224,36773
51245,36839
51252,36909
51245,36978
51231,37023
51224,37045
51195,37100
51192,37107
51180,37121
51147,37161
51107,37194
51093,37205
51093,37205
51032,37238
51009,37245
50965,37259
50939,37261
50913,37264
50779,37264
50753,37261
50727,37259
50683,37245
50660,37238
50599,37205
50599,37205
50585,37194
50545,37161
50512,37121
50500,37107
50497,37100
50467,37045
50461,37023
50447,36978
50440,36909
50447,36839
50467,36773
50467,36773
50500,36711
50500,36711
50512,36697
50545,36657
50585,36624
50599,36613
50606,36609
50660,36580
50683,36573
50727,36559
50753,36557
50779,36554
50913,36554
50939,36557
" /> 
<polyline style="fill-rule:evenodd;"
points="58215,36117
58230,36120
58260,36132
58286,36150
58308,36172
58326,36198
58338,36227
58344,36258
58344,36290
58338,36321
58326,36350
58308,36376
58286,36399
58260,36416
58230,36428
58215,36431
58199,36434
58168,36434
58152,36431
58137,36428
58108,36416
58081,36399
58059,36376
58041,36350
58029,36321
58023,36290
58023,36258
58029,36227
58041,36198
58059,36172
58081,36150
58108,36132
58137,36120
58152,36117
58168,36114
58199,36114
58215,36117
" /> 
<polyline style="fill-rule:evenodd;"
points="57654,36117
57669,36120
57698,36132
57725,36150
57747,36172
57765,36198
57777,36227
57783,36258
57783,36290
57777,36321
57765,36350
57747,36376
57725,36399
57698,36416
57669,36428
57654,36431
57638,36434
57607,36434
57591,36431
57576,36428
57547,36416
57520,36399
57498,36376
57480,36350
57468,36321
57462,36290
57462,36258
57468,36227
57480,36198
57498,36172
57520,36150
57547,36132
57576,36120
57591,36117
57607,36114
57638,36114
57654,36117
" /> 
<polyline style="fill-rule:evenodd;"
points="58776,36117
58791,36120
58821,36132
58847,36150
58869,36172
58887,36198
58899,36227
58905,36258
58905,36290
58899,36321
58887,36350
58869,36376
58847,36399
58821,36416
58791,36428
58776,36431
58760,36434
58729,36434
58713,36431
58698,36428
58669,36416
58642,36399
58620,36376
58602,36350
58590,36321
58584,36290
58584,36258
58590,36227
58602,36198
58620,36172
58642,36150
58669,36132
58698,36120
58713,36117
58729,36114
58760,36114
58776,36117
" /> 
<polyline style="fill-rule:evenodd;"
points="59337,36117
59352,36120
59382,36132
59408,36150
59430,36172
59448,36198
59460,36227
59466,36258
59466,36290
59460,36321
59448,36350
59430,36376
59408,36399
59382,36416
59352,36428
59337,36431
59321,36434
59290,36434
59274,36431
59259,36428
59230,36416
59203,36399
59181,36376
59164,36350
59151,36321
59145,36290
59145,36258
59151,36227
59164,36198
59181,36172
59203,36150
59230,36132
59259,36120
59274,36117
59290,36114
59321,36114
59337,36117
" /> 
<polyline style="fill-rule:evenodd;"
points="50939,35573
50965,35575
51009,35589
51032,35595
51061,35611
51093,35628
51104,35637
51147,35673
51167,35697
51192,35727
51192,35727
51224,35788
51224,35788
51245,35855
51252,35925
51245,35994
51231,36039
51224,36061
51196,36114
51192,36123
51184,36132
51147,36177
51121,36198
51093,36221
51093,36221
51032,36254
51017,36258
50965,36274
50939,36277
50913,36279
50779,36279
50753,36277
50727,36274
50675,36258
50660,36254
50599,36221
50599,36221
50571,36198
50545,36177
50508,36132
50500,36123
50496,36114
50467,36061
50461,36039
50447,35994
50440,35925
50447,35855
50467,35788
50467,35788
50500,35727
50500,35727
50524,35697
50545,35673
50588,35637
50599,35628
50631,35611
50660,35595
50683,35589
50727,35575
50753,35573
50779,35570
50913,35570
50939,35573
" /> 
<polyline style="fill-rule:evenodd;"
points="58215,35556
58230,35559
58260,35571
58286,35589
58308,35611
58326,35637
58338,35666
58344,35697
58344,35729
58338,35760
58326,35789
58308,35815
58286,35838
58260,35855
58230,35867
58215,35870
58199,35873
58168,35873
58152,35870
58137,35867
58108,35855
58081,35838
58059,35815
58041,35789
58029,35760
58023,35729
58023,35697
58029,35666
58041,35637
58059,35611
58081,35589
58108,35571
58137,35559
58152,35556
58168,35553
58199,35553
58215,35556
" /> 
<polyline style="fill-rule:evenodd;"
points="59337,35556
59352,35559
59382,35571
59408,35589
59430,35611
59448,35637
59460,35666
59466,35697
59466,35729
59460,35760
59448,35789
59430,35815
59408,35838
59382,35855
59352,35867
59337,35870
59321,35873
59290,35873
59274,35870
59259,35867
59230,35855
59203,35838
59181,35815
59164,35789
59151,35760
59145,35729
59145,35697
59151,35666
59164,35637
59181,35611
59203,35589
59230,35571
59259,35559
59274,35556
59290,35553
59321,35553
59337,35556
" /> 
<polyline style="fill-rule:evenodd;"
points="57654,35556
57669,35559
57698,35571
57725,35589
57747,35611
57765,35637
57777,35666
57783,35697
57783,35729
57777,35760
57765,35789
57747,35815
57725,35838
57698,35855
57669,35867
57654,35870
57638,35873
57607,35873
57591,35870
57576,35867
57547,35855
57520,35838
57498,35815
57480,35789
57468,35760
57462,35729
57462,35697
57468,35666
57480,35637
57498,35611
57520,35589
57547,35571
57576,35559
57591,35556
57607,35553
57638,35553
57654,35556
" /> 
<polyline style="fill-rule:evenodd;"
points="58776,35556
58791,35559
58821,35571
58847,35589
58869,35611
58887,35637
58899,35666
58905,35697
58905,35729
58899,35760
58887,35789
58869,35815
58847,35838
58821,35855
58791,35867
58776,35870
58760,35873
58729,35873
58713,35870
58698,35867
58669,35855
58642,35838
58620,35815
58602,35789
58590,35760
58584,35729
58584,35697
58590,35666
58602,35637
58620,35611
58642,35589
58669,35571
58698,35559
58713,35556
58729,35553
58760,35553
58776,35556
" /> 
<polyline style="fill-rule:evenodd;"
points="58215,34995
58230,34998
58260,35010
58286,35028
58308,35050
58326,35076
58338,35105
58344,35136
58344,35168
58338,35199
58326,35228
58308,35254
58286,35277
58260,35294
58230,35306
58215,35309
58199,35312
58168,35312
58152,35309
58137,35306
58108,35294
58081,35277
58059,35254
58041,35228
58029,35199
58023,35168
58023,35136
58029,35105
58041,35076
58059,35050
58081,35028
58108,35010
58137,34998
58152,34995
58168,34992
58199,34992
58215,34995
" /> 
<polyline style="fill-rule:evenodd;"
points="57654,34995
57669,34998
57698,35010
57725,35028
57747,35050
57765,35076
57777,35105
57783,35136
57783,35168
57777,35199
57765,35228
57747,35254
57725,35277
57698,35294
57669,35306
57654,35309
57638,35312
57607,35312
57591,35309
57576,35306
57547,35294
57520,35277
57498,35254
57480,35228
57468,35199
57462,35168
57462,35136
57468,35105
57480,35076
57498,35050
57520,35028
57547,35010
57576,34998
57591,34995
57607,34992
57638,34992
57654,34995
" /> 
<polyline style="fill-rule:evenodd;"
points="58776,34995
58791,34998
58821,35010
58847,35028
58869,35050
58887,35076
58899,35105
58905,35136
58905,35168
58899,35199
58887,35228
58869,35254
58847,35277
58821,35294
58791,35306
58776,35309
58760,35312
58729,35312
58713,35309
58698,35306
58669,35294
58642,35277
58620,35254
58602,35228
58590,35199
58584,35168
58584,35136
58590,35105
58602,35076
58620,35050
58642,35028
58669,35010
58698,34998
58713,34995
58729,34992
58760,34992
58776,34995
" /> 
<polyline style="fill-rule:evenodd;"
points="59337,34995
59352,34998
59382,35010
59408,35028
59430,35050
59448,35076
59460,35105
59466,35136
59466,35168
59460,35199
59448,35228
59430,35254
59408,35277
59382,35294
59352,35306
59337,35309
59321,35312
59290,35312
59274,35309
59259,35306
59230,35294
59203,35277
59181,35254
59164,35228
59151,35199
59145,35168
59145,35136
59151,35105
59164,35076
59181,35050
59203,35028
59230,35010
59259,34998
59274,34995
59290,34992
59321,34992
59337,34995
" /> 
<polyline style="fill-rule:evenodd;"
points="50939,34588
50965,34591
51009,34604
51032,34611
51086,34640
51093,34644
51107,34656
51147,34688
51180,34728
51192,34742
51192,34742
51224,34804
51224,34804
51245,34871
51252,34940
51245,35010
51239,35028
51224,35077
51195,35131
51192,35138
51180,35153
51147,35192
51107,35225
51093,35237
51093,35237
51032,35270
51009,35277
50965,35290
50939,35293
50913,35295
50779,35295
50753,35293
50727,35290
50683,35277
50660,35270
50599,35237
50599,35237
50585,35225
50545,35192
50512,35153
50500,35138
50497,35131
50467,35077
50452,35028
50447,35010
50440,34940
50447,34871
50467,34804
50467,34804
50500,34742
50500,34742
50512,34728
50545,34688
50585,34656
50599,34644
50606,34640
50660,34611
50683,34604
50727,34591
50753,34588
50779,34586
50913,34586
50939,34588
" /> 
<polyline style="fill-rule:evenodd;"
points="58215,34434
58230,34437
58260,34449
58286,34466
58308,34489
58326,34515
58338,34544
58344,34575
58344,34607
58338,34638
58326,34667
58308,34693
58286,34716
58260,34733
58230,34745
58215,34748
58199,34751
58168,34751
58152,34748
58137,34745
58108,34733
58081,34716
58059,34693
58041,34667
58029,34638
58023,34607
58023,34575
58029,34544
58041,34515
58059,34489
58081,34466
58108,34449
58137,34437
58152,34434
58168,34431
58199,34431
58215,34434
" /> 
<polyline style="fill-rule:evenodd;"
points="58776,34434
58791,34437
58821,34449
58847,34466
58869,34489
58887,34515
58899,34544
58905,34575
58905,34607
58899,34638
58887,34667
58869,34693
58847,34716
58821,34733
58791,34745
58776,34748
58760,34751
58729,34751
58713,34748
58698,34745
58669,34733
58642,34716
58620,34693
58602,34667
58590,34638
58584,34607
58584,34575
58590,34544
58602,34515
58620,34489
58642,34466
58669,34449
58698,34437
58713,34434
58729,34431
58760,34431
58776,34434
" /> 
<polyline style="fill-rule:evenodd;"
points="57654,34434
57669,34437
57698,34449
57725,34466
57747,34489
57765,34515
57777,34544
57783,34575
57783,34607
57777,34638
57765,34667
57747,34693
57725,34716
57698,34733
57669,34745
57654,34748
57638,34751
57607,34751
57591,34748
57576,34745
57547,34733
57520,34716
57498,34693
57480,34667
57468,34638
57462,34607
57462,34575
57468,34544
57480,34515
57498,34489
57520,34466
57547,34449
57576,34437
57591,34434
57607,34431
57638,34431
57654,34434
" /> 
<polyline style="fill-rule:evenodd;"
points="59337,34434
59352,34437
59382,34449
59408,34466
59430,34489
59448,34515
59460,34544
59466,34575
59466,34607
59460,34638
59448,34667
59430,34693
59408,34716
59382,34733
59352,34745
59337,34748
59321,34751
59290,34751
59274,34748
59259,34745
59230,34733
59203,34716
59181,34693
59164,34667
59151,34638
59145,34607
59145,34575
59151,34544
59164,34515
59181,34489
59203,34466
59230,34449
59259,34437
59274,34434
59290,34431
59321,34431
59337,34434
" /> 
<polyline style="fill-rule:evenodd;"
points="51194,33603
51207,33607
51219,33613
51229,33622
51238,33633
51244,33645
51248,33658
51250,33673
51250,34239
51248,34255
51244,34268
51238,34280
51229,34290
51219,34299
51207,34305
51194,34309
51178,34311
50514,34311
50498,34309
50485,34305
50473,34299
50463,34290
50454,34280
50448,34268
50444,34255
50442,34239
50442,33673
50444,33658
50448,33645
50454,33633
50463,33622
50473,33613
50485,33607
50498,33603
50514,33601
51178,33601
51194,33603
" /> 
<polyline style="fill-rule:evenodd;"
points="71013,30862
71055,30871
71174,30920
71185,30927
71280,30991
71371,31081
71371,31081
71432,31173
71442,31188
71491,31306
71516,31432
71516,31560
71491,31685
71442,31803
71371,31910
71280,32000
71280,32000
71174,32072
71055,32121
71013,32129
70930,32146
70802,32146
70718,32129
70676,32121
70558,32072
70451,32000
70451,32000
70361,31910
70290,31803
70241,31685
70216,31560
70216,31432
70241,31306
70290,31188
70299,31173
70361,31081
70361,31081
70451,30991
70546,30927
70558,30920
70676,30871
70718,30862
70802,30846
70930,30846
71013,30862
" /> 
<polyline style="fill-rule:evenodd;"
points="47391,30862
47433,30871
47551,30920
47563,30927
47658,30991
47748,31081
47748,31081
47810,31173
47820,31188
47869,31306
47894,31432
47894,31560
47869,31685
47820,31803
47748,31910
47658,32000
47658,32000
47551,32072
47433,32121
47391,32129
47308,32146
47180,32146
47096,32129
47054,32121
46936,32072
46829,32000
46829,32000
46739,31910
46668,31803
46619,31685
46594,31560
46594,31432
46619,31306
46668,31188
46677,31173
46739,31081
46739,31081
46829,30991
46924,30927
46936,30920
47054,30871
47096,30862
47180,30846
47308,30846
47391,30862
" /> 
<polyline style="fill-rule:evenodd;"
points="67848,30666
67931,30700
68005,30750
68068,30813
68118,30887
68152,30970
68169,31057
68169,31146
68152,31234
68118,31317
68068,31391
68005,31454
67931,31503
67848,31538
67761,31555
67671,31555
67584,31538
67501,31503
67427,31454
67364,31391
67314,31317
67280,31234
67263,31146
67263,31057
67280,30970
67314,30887
67364,30813
67427,30750
67501,30700
67584,30666
67671,30649
67761,30649
67848,30666
" /> 
<polyline style="fill-rule:evenodd;"
points="59766,30409
59841,30440
59909,30485
59967,30543
60012,30611
60043,30686
60059,30766
60059,30847
60043,30927
60012,31003
59967,31070
59909,31128
59841,31173
59766,31204
59686,31220
59604,31220
59524,31204
59449,31173
59381,31128
59324,31070
59278,31003
59247,30927
59231,30847
59231,30766
59247,30686
59278,30611
59324,30543
59381,30485
59449,30440
59524,30409
59604,30393
59686,30393
59766,30409
" /> 
<polyline style="fill-rule:evenodd;"
points="60750,30409
60825,30440
60893,30485
60951,30543
60996,30611
61027,30686
61043,30766
61043,30847
61027,30927
60996,31003
60951,31070
60893,31128
60825,31173
60750,31204
60670,31220
60589,31220
60509,31204
60433,31173
60366,31128
60308,31070
60263,31003
60232,30927
60216,30847
60216,30766
60232,30686
60263,30611
60308,30543
60366,30485
60433,30440
60509,30409
60589,30393
60670,30393
60750,30409
" /> 
<polyline style="fill-rule:evenodd;"
points="61734,30409
61810,30440
61877,30485
61935,30543
61980,30611
62012,30686
62027,30766
62027,30847
62012,30927
61980,31003
61935,31070
61877,31128
61810,31173
61734,31204
61654,31220
61573,31220
61493,31204
61418,31173
61350,31128
61292,31070
61247,31003
61216,30927
61200,30847
61200,30766
61216,30686
61247,30611
61292,30543
61350,30485
61418,30440
61493,30409
61573,30393
61654,30393
61734,30409
" /> 
</g> 
</svg>
